G04 #@! TF.FileFunction,Legend,Top*
%FSLAX46Y46*%
G04 Gerber Fmt 4.6, Leading zero omitted, Abs format (unit mm)*
G04 Created by KiCad (PCBNEW 4.0.7+dfsg1-1) date Sat Oct 21 15:09:21 2017*
%MOMM*%
%LPD*%
G01*
G04 APERTURE LIST*
%ADD10C,0.100000*%
%ADD11C,0.300000*%
%ADD12C,0.381000*%
%ADD13C,0.120000*%
%ADD14C,0.010000*%
%ADD15C,0.150000*%
G04 APERTURE END LIST*
D10*
D11*
X183520893Y-116734821D02*
X183520893Y-115234821D01*
X184020893Y-116306250D01*
X184520893Y-115234821D01*
X184520893Y-116734821D01*
X185878036Y-116734821D02*
X185878036Y-115949107D01*
X185806607Y-115806250D01*
X185663750Y-115734821D01*
X185378036Y-115734821D01*
X185235179Y-115806250D01*
X185878036Y-116663393D02*
X185735179Y-116734821D01*
X185378036Y-116734821D01*
X185235179Y-116663393D01*
X185163750Y-116520536D01*
X185163750Y-116377679D01*
X185235179Y-116234821D01*
X185378036Y-116163393D01*
X185735179Y-116163393D01*
X185878036Y-116091964D01*
X187235179Y-116734821D02*
X187235179Y-115234821D01*
X187235179Y-116663393D02*
X187092322Y-116734821D01*
X186806608Y-116734821D01*
X186663750Y-116663393D01*
X186592322Y-116591964D01*
X186520893Y-116449107D01*
X186520893Y-116020536D01*
X186592322Y-115877679D01*
X186663750Y-115806250D01*
X186806608Y-115734821D01*
X187092322Y-115734821D01*
X187235179Y-115806250D01*
X188520893Y-116663393D02*
X188378036Y-116734821D01*
X188092322Y-116734821D01*
X187949465Y-116663393D01*
X187878036Y-116520536D01*
X187878036Y-115949107D01*
X187949465Y-115806250D01*
X188092322Y-115734821D01*
X188378036Y-115734821D01*
X188520893Y-115806250D01*
X188592322Y-115949107D01*
X188592322Y-116091964D01*
X187878036Y-116234821D01*
X190235179Y-115734821D02*
X190520893Y-116734821D01*
X190806607Y-116020536D01*
X191092322Y-116734821D01*
X191378036Y-115734821D01*
X191949465Y-116734821D02*
X191949465Y-115734821D01*
X191949465Y-115234821D02*
X191878036Y-115306250D01*
X191949465Y-115377679D01*
X192020893Y-115306250D01*
X191949465Y-115234821D01*
X191949465Y-115377679D01*
X192449465Y-115734821D02*
X193020894Y-115734821D01*
X192663751Y-115234821D02*
X192663751Y-116520536D01*
X192735179Y-116663393D01*
X192878037Y-116734821D01*
X193020894Y-116734821D01*
X193520894Y-116734821D02*
X193520894Y-115234821D01*
X194163751Y-116734821D02*
X194163751Y-115949107D01*
X194092322Y-115806250D01*
X193949465Y-115734821D01*
X193735180Y-115734821D01*
X193592322Y-115806250D01*
X193520894Y-115877679D01*
X197163751Y-115734821D02*
X196020894Y-116163393D01*
X197163751Y-116591964D01*
X197735180Y-115234821D02*
X198663751Y-115234821D01*
X198163751Y-115806250D01*
X198378037Y-115806250D01*
X198520894Y-115877679D01*
X198592323Y-115949107D01*
X198663751Y-116091964D01*
X198663751Y-116449107D01*
X198592323Y-116591964D01*
X198520894Y-116663393D01*
X198378037Y-116734821D01*
X197949465Y-116734821D01*
X197806608Y-116663393D01*
X197735180Y-116591964D01*
X200449465Y-116734821D02*
X200449465Y-115734821D01*
X200449465Y-115234821D02*
X200378036Y-115306250D01*
X200449465Y-115377679D01*
X200520893Y-115306250D01*
X200449465Y-115234821D01*
X200449465Y-115377679D01*
X201163751Y-115734821D02*
X201163751Y-116734821D01*
X201163751Y-115877679D02*
X201235179Y-115806250D01*
X201378037Y-115734821D01*
X201592322Y-115734821D01*
X201735179Y-115806250D01*
X201806608Y-115949107D01*
X201806608Y-116734821D01*
X204163751Y-115949107D02*
X204378037Y-116020536D01*
X204449465Y-116091964D01*
X204520894Y-116234821D01*
X204520894Y-116449107D01*
X204449465Y-116591964D01*
X204378037Y-116663393D01*
X204235179Y-116734821D01*
X203663751Y-116734821D01*
X203663751Y-115234821D01*
X204163751Y-115234821D01*
X204306608Y-115306250D01*
X204378037Y-115377679D01*
X204449465Y-115520536D01*
X204449465Y-115663393D01*
X204378037Y-115806250D01*
X204306608Y-115877679D01*
X204163751Y-115949107D01*
X203663751Y-115949107D01*
X205378037Y-116734821D02*
X205235179Y-116663393D01*
X205163751Y-116591964D01*
X205092322Y-116449107D01*
X205092322Y-116020536D01*
X205163751Y-115877679D01*
X205235179Y-115806250D01*
X205378037Y-115734821D01*
X205592322Y-115734821D01*
X205735179Y-115806250D01*
X205806608Y-115877679D01*
X205878037Y-116020536D01*
X205878037Y-116449107D01*
X205806608Y-116591964D01*
X205735179Y-116663393D01*
X205592322Y-116734821D01*
X205378037Y-116734821D01*
X206520894Y-116734821D02*
X206520894Y-115734821D01*
X206520894Y-116020536D02*
X206592322Y-115877679D01*
X206663751Y-115806250D01*
X206806608Y-115734821D01*
X206949465Y-115734821D01*
X208092322Y-116734821D02*
X208092322Y-115234821D01*
X208092322Y-116663393D02*
X207949465Y-116734821D01*
X207663751Y-116734821D01*
X207520893Y-116663393D01*
X207449465Y-116591964D01*
X207378036Y-116449107D01*
X207378036Y-116020536D01*
X207449465Y-115877679D01*
X207520893Y-115806250D01*
X207663751Y-115734821D01*
X207949465Y-115734821D01*
X208092322Y-115806250D01*
X209378036Y-116663393D02*
X209235179Y-116734821D01*
X208949465Y-116734821D01*
X208806608Y-116663393D01*
X208735179Y-116520536D01*
X208735179Y-115949107D01*
X208806608Y-115806250D01*
X208949465Y-115734821D01*
X209235179Y-115734821D01*
X209378036Y-115806250D01*
X209449465Y-115949107D01*
X209449465Y-116091964D01*
X208735179Y-116234821D01*
X210735179Y-116734821D02*
X210735179Y-115949107D01*
X210663750Y-115806250D01*
X210520893Y-115734821D01*
X210235179Y-115734821D01*
X210092322Y-115806250D01*
X210735179Y-116663393D02*
X210592322Y-116734821D01*
X210235179Y-116734821D01*
X210092322Y-116663393D01*
X210020893Y-116520536D01*
X210020893Y-116377679D01*
X210092322Y-116234821D01*
X210235179Y-116163393D01*
X210592322Y-116163393D01*
X210735179Y-116091964D01*
X212092322Y-115734821D02*
X212092322Y-116734821D01*
X211449465Y-115734821D02*
X211449465Y-116520536D01*
X211520893Y-116663393D01*
X211663751Y-116734821D01*
X211878036Y-116734821D01*
X212020893Y-116663393D01*
X212092322Y-116591964D01*
X212663751Y-116734821D02*
X213449465Y-115734821D01*
X212663751Y-115734821D02*
X213449465Y-116734821D01*
D12*
X140938500Y-114513250D02*
X140938500Y-133182250D01*
X140938500Y-133182250D02*
X147796500Y-133182250D01*
X147796500Y-133182250D02*
X147796500Y-114513250D01*
X147796500Y-114513250D02*
X140938500Y-114513250D01*
X68987500Y-118831250D02*
X70765500Y-118831250D01*
X79909500Y-118831250D02*
X81687500Y-118831250D01*
X81687500Y-118831250D02*
X81687500Y-120609250D01*
X81687500Y-129753250D02*
X81687500Y-131531250D01*
X81687500Y-131531250D02*
X79909500Y-131531250D01*
X70765500Y-131531250D02*
X68987500Y-131531250D01*
X68987500Y-131531250D02*
X68987500Y-129753250D01*
X68987500Y-120609250D02*
X68987500Y-118831250D01*
X66598750Y-42631250D02*
X68376750Y-42631250D01*
X77520750Y-42631250D02*
X79298750Y-42631250D01*
X79298750Y-42631250D02*
X79298750Y-44409250D01*
X79298750Y-53553250D02*
X79298750Y-55331250D01*
X79298750Y-55331250D02*
X77520750Y-55331250D01*
X68376750Y-55331250D02*
X66598750Y-55331250D01*
X66598750Y-55331250D02*
X66598750Y-53553250D01*
X66598750Y-44409250D02*
X66598750Y-42631250D01*
X307112500Y-118831250D02*
X308890500Y-118831250D01*
X318034500Y-118831250D02*
X319812500Y-118831250D01*
X319812500Y-118831250D02*
X319812500Y-120609250D01*
X319812500Y-129753250D02*
X319812500Y-131531250D01*
X319812500Y-131531250D02*
X318034500Y-131531250D01*
X308890500Y-131531250D02*
X307112500Y-131531250D01*
X307112500Y-131531250D02*
X307112500Y-129753250D01*
X307112500Y-120609250D02*
X307112500Y-118831250D01*
X71368750Y-61681250D02*
X73146750Y-61681250D01*
X82290750Y-61681250D02*
X84068750Y-61681250D01*
X84068750Y-61681250D02*
X84068750Y-63459250D01*
X84068750Y-72603250D02*
X84068750Y-74381250D01*
X84068750Y-74381250D02*
X82290750Y-74381250D01*
X73146750Y-74381250D02*
X71368750Y-74381250D01*
X71368750Y-74381250D02*
X71368750Y-72603250D01*
X71368750Y-63459250D02*
X71368750Y-61681250D01*
X73723750Y-80731250D02*
X75501750Y-80731250D01*
X84645750Y-80731250D02*
X86423750Y-80731250D01*
X86423750Y-80731250D02*
X86423750Y-82509250D01*
X86423750Y-91653250D02*
X86423750Y-93431250D01*
X86423750Y-93431250D02*
X84645750Y-93431250D01*
X75501750Y-93431250D02*
X73723750Y-93431250D01*
X73723750Y-93431250D02*
X73723750Y-91653250D01*
X73723750Y-82509250D02*
X73723750Y-80731250D01*
X68961250Y-80731250D02*
X70739250Y-80731250D01*
X79883250Y-80731250D02*
X81661250Y-80731250D01*
X81661250Y-80731250D02*
X81661250Y-82509250D01*
X81661250Y-91653250D02*
X81661250Y-93431250D01*
X81661250Y-93431250D02*
X79883250Y-93431250D01*
X70739250Y-93431250D02*
X68961250Y-93431250D01*
X68961250Y-93431250D02*
X68961250Y-91653250D01*
X68961250Y-82509250D02*
X68961250Y-80731250D01*
X71368750Y-118831250D02*
X73146750Y-118831250D01*
X82290750Y-118831250D02*
X84068750Y-118831250D01*
X84068750Y-118831250D02*
X84068750Y-120609250D01*
X84068750Y-129753250D02*
X84068750Y-131531250D01*
X84068750Y-131531250D02*
X82290750Y-131531250D01*
X73146750Y-131531250D02*
X71368750Y-131531250D01*
X71368750Y-131531250D02*
X71368750Y-129753250D01*
X71368750Y-120609250D02*
X71368750Y-118831250D01*
X85656250Y-42631250D02*
X87434250Y-42631250D01*
X96578250Y-42631250D02*
X98356250Y-42631250D01*
X98356250Y-42631250D02*
X98356250Y-44409250D01*
X98356250Y-53553250D02*
X98356250Y-55331250D01*
X98356250Y-55331250D02*
X96578250Y-55331250D01*
X87434250Y-55331250D02*
X85656250Y-55331250D01*
X85656250Y-55331250D02*
X85656250Y-53553250D01*
X85656250Y-44409250D02*
X85656250Y-42631250D01*
X95181250Y-61681250D02*
X96959250Y-61681250D01*
X106103250Y-61681250D02*
X107881250Y-61681250D01*
X107881250Y-61681250D02*
X107881250Y-63459250D01*
X107881250Y-72603250D02*
X107881250Y-74381250D01*
X107881250Y-74381250D02*
X106103250Y-74381250D01*
X96959250Y-74381250D02*
X95181250Y-74381250D01*
X95181250Y-74381250D02*
X95181250Y-72603250D01*
X95181250Y-63459250D02*
X95181250Y-61681250D01*
X99943750Y-80731250D02*
X101721750Y-80731250D01*
X110865750Y-80731250D02*
X112643750Y-80731250D01*
X112643750Y-80731250D02*
X112643750Y-82509250D01*
X112643750Y-91653250D02*
X112643750Y-93431250D01*
X112643750Y-93431250D02*
X110865750Y-93431250D01*
X101721750Y-93431250D02*
X99943750Y-93431250D01*
X99943750Y-93431250D02*
X99943750Y-91653250D01*
X99943750Y-82509250D02*
X99943750Y-80731250D01*
X90418750Y-99781250D02*
X92196750Y-99781250D01*
X101340750Y-99781250D02*
X103118750Y-99781250D01*
X103118750Y-99781250D02*
X103118750Y-101559250D01*
X103118750Y-110703250D02*
X103118750Y-112481250D01*
X103118750Y-112481250D02*
X101340750Y-112481250D01*
X92196750Y-112481250D02*
X90418750Y-112481250D01*
X90418750Y-112481250D02*
X90418750Y-110703250D01*
X90418750Y-101559250D02*
X90418750Y-99781250D01*
X92800000Y-118831250D02*
X94578000Y-118831250D01*
X103722000Y-118831250D02*
X105500000Y-118831250D01*
X105500000Y-118831250D02*
X105500000Y-120609250D01*
X105500000Y-129753250D02*
X105500000Y-131531250D01*
X105500000Y-131531250D02*
X103722000Y-131531250D01*
X94578000Y-131531250D02*
X92800000Y-131531250D01*
X92800000Y-131531250D02*
X92800000Y-129753250D01*
X92800000Y-120609250D02*
X92800000Y-118831250D01*
X95181250Y-118831250D02*
X96959250Y-118831250D01*
X106103250Y-118831250D02*
X107881250Y-118831250D01*
X107881250Y-118831250D02*
X107881250Y-120609250D01*
X107881250Y-129753250D02*
X107881250Y-131531250D01*
X107881250Y-131531250D02*
X106103250Y-131531250D01*
X96959250Y-131531250D02*
X95181250Y-131531250D01*
X95181250Y-131531250D02*
X95181250Y-129753250D01*
X95181250Y-120609250D02*
X95181250Y-118831250D01*
X104706250Y-42631250D02*
X106484250Y-42631250D01*
X115628250Y-42631250D02*
X117406250Y-42631250D01*
X117406250Y-42631250D02*
X117406250Y-44409250D01*
X117406250Y-53553250D02*
X117406250Y-55331250D01*
X117406250Y-55331250D02*
X115628250Y-55331250D01*
X106484250Y-55331250D02*
X104706250Y-55331250D01*
X104706250Y-55331250D02*
X104706250Y-53553250D01*
X104706250Y-44409250D02*
X104706250Y-42631250D01*
X114231250Y-61681250D02*
X116009250Y-61681250D01*
X125153250Y-61681250D02*
X126931250Y-61681250D01*
X126931250Y-61681250D02*
X126931250Y-63459250D01*
X126931250Y-72603250D02*
X126931250Y-74381250D01*
X126931250Y-74381250D02*
X125153250Y-74381250D01*
X116009250Y-74381250D02*
X114231250Y-74381250D01*
X114231250Y-74381250D02*
X114231250Y-72603250D01*
X114231250Y-63459250D02*
X114231250Y-61681250D01*
X118993750Y-80731250D02*
X120771750Y-80731250D01*
X129915750Y-80731250D02*
X131693750Y-80731250D01*
X131693750Y-80731250D02*
X131693750Y-82509250D01*
X131693750Y-91653250D02*
X131693750Y-93431250D01*
X131693750Y-93431250D02*
X129915750Y-93431250D01*
X120771750Y-93431250D02*
X118993750Y-93431250D01*
X118993750Y-93431250D02*
X118993750Y-91653250D01*
X118993750Y-82509250D02*
X118993750Y-80731250D01*
X109468750Y-99781250D02*
X111246750Y-99781250D01*
X120390750Y-99781250D02*
X122168750Y-99781250D01*
X122168750Y-99781250D02*
X122168750Y-101559250D01*
X122168750Y-110703250D02*
X122168750Y-112481250D01*
X122168750Y-112481250D02*
X120390750Y-112481250D01*
X111246750Y-112481250D02*
X109468750Y-112481250D01*
X109468750Y-112481250D02*
X109468750Y-110703250D01*
X109468750Y-101559250D02*
X109468750Y-99781250D01*
X116612500Y-118831250D02*
X118390500Y-118831250D01*
X127534500Y-118831250D02*
X129312500Y-118831250D01*
X129312500Y-118831250D02*
X129312500Y-120609250D01*
X129312500Y-129753250D02*
X129312500Y-131531250D01*
X129312500Y-131531250D02*
X127534500Y-131531250D01*
X118390500Y-131531250D02*
X116612500Y-131531250D01*
X116612500Y-131531250D02*
X116612500Y-129753250D01*
X116612500Y-120609250D02*
X116612500Y-118831250D01*
X118993750Y-118831250D02*
X120771750Y-118831250D01*
X129915750Y-118831250D02*
X131693750Y-118831250D01*
X131693750Y-118831250D02*
X131693750Y-120609250D01*
X131693750Y-129753250D02*
X131693750Y-131531250D01*
X131693750Y-131531250D02*
X129915750Y-131531250D01*
X120771750Y-131531250D02*
X118993750Y-131531250D01*
X118993750Y-131531250D02*
X118993750Y-129753250D01*
X118993750Y-120609250D02*
X118993750Y-118831250D01*
X123756250Y-42631250D02*
X125534250Y-42631250D01*
X134678250Y-42631250D02*
X136456250Y-42631250D01*
X136456250Y-42631250D02*
X136456250Y-44409250D01*
X136456250Y-53553250D02*
X136456250Y-55331250D01*
X136456250Y-55331250D02*
X134678250Y-55331250D01*
X125534250Y-55331250D02*
X123756250Y-55331250D01*
X123756250Y-55331250D02*
X123756250Y-53553250D01*
X123756250Y-44409250D02*
X123756250Y-42631250D01*
X133281250Y-61681250D02*
X135059250Y-61681250D01*
X144203250Y-61681250D02*
X145981250Y-61681250D01*
X145981250Y-61681250D02*
X145981250Y-63459250D01*
X145981250Y-72603250D02*
X145981250Y-74381250D01*
X145981250Y-74381250D02*
X144203250Y-74381250D01*
X135059250Y-74381250D02*
X133281250Y-74381250D01*
X133281250Y-74381250D02*
X133281250Y-72603250D01*
X133281250Y-63459250D02*
X133281250Y-61681250D01*
X138043750Y-80731250D02*
X139821750Y-80731250D01*
X148965750Y-80731250D02*
X150743750Y-80731250D01*
X150743750Y-80731250D02*
X150743750Y-82509250D01*
X150743750Y-91653250D02*
X150743750Y-93431250D01*
X150743750Y-93431250D02*
X148965750Y-93431250D01*
X139821750Y-93431250D02*
X138043750Y-93431250D01*
X138043750Y-93431250D02*
X138043750Y-91653250D01*
X138043750Y-82509250D02*
X138043750Y-80731250D01*
X128518750Y-99781250D02*
X130296750Y-99781250D01*
X139440750Y-99781250D02*
X141218750Y-99781250D01*
X141218750Y-99781250D02*
X141218750Y-101559250D01*
X141218750Y-110703250D02*
X141218750Y-112481250D01*
X141218750Y-112481250D02*
X139440750Y-112481250D01*
X130296750Y-112481250D02*
X128518750Y-112481250D01*
X128518750Y-112481250D02*
X128518750Y-110703250D01*
X128518750Y-101559250D02*
X128518750Y-99781250D01*
X166618750Y-137881250D02*
X168396750Y-137881250D01*
X177540750Y-137881250D02*
X179318750Y-137881250D01*
X179318750Y-137881250D02*
X179318750Y-139659250D01*
X179318750Y-148803250D02*
X179318750Y-150581250D01*
X179318750Y-150581250D02*
X177540750Y-150581250D01*
X168396750Y-150581250D02*
X166618750Y-150581250D01*
X166618750Y-150581250D02*
X166618750Y-148803250D01*
X166618750Y-139659250D02*
X166618750Y-137881250D01*
X164237500Y-137881250D02*
X166015500Y-137881250D01*
X175159500Y-137881250D02*
X176937500Y-137881250D01*
X176937500Y-137881250D02*
X176937500Y-139659250D01*
X176937500Y-148803250D02*
X176937500Y-150581250D01*
X176937500Y-150581250D02*
X175159500Y-150581250D01*
X166015500Y-150581250D02*
X164237500Y-150581250D01*
X164237500Y-150581250D02*
X164237500Y-148803250D01*
X164237500Y-139659250D02*
X164237500Y-137881250D01*
X142806250Y-42631250D02*
X144584250Y-42631250D01*
X153728250Y-42631250D02*
X155506250Y-42631250D01*
X155506250Y-42631250D02*
X155506250Y-44409250D01*
X155506250Y-53553250D02*
X155506250Y-55331250D01*
X155506250Y-55331250D02*
X153728250Y-55331250D01*
X144584250Y-55331250D02*
X142806250Y-55331250D01*
X142806250Y-55331250D02*
X142806250Y-53553250D01*
X142806250Y-44409250D02*
X142806250Y-42631250D01*
X152331250Y-61681250D02*
X154109250Y-61681250D01*
X163253250Y-61681250D02*
X165031250Y-61681250D01*
X165031250Y-61681250D02*
X165031250Y-63459250D01*
X165031250Y-72603250D02*
X165031250Y-74381250D01*
X165031250Y-74381250D02*
X163253250Y-74381250D01*
X154109250Y-74381250D02*
X152331250Y-74381250D01*
X152331250Y-74381250D02*
X152331250Y-72603250D01*
X152331250Y-63459250D02*
X152331250Y-61681250D01*
X157093750Y-80731250D02*
X158871750Y-80731250D01*
X168015750Y-80731250D02*
X169793750Y-80731250D01*
X169793750Y-80731250D02*
X169793750Y-82509250D01*
X169793750Y-91653250D02*
X169793750Y-93431250D01*
X169793750Y-93431250D02*
X168015750Y-93431250D01*
X158871750Y-93431250D02*
X157093750Y-93431250D01*
X157093750Y-93431250D02*
X157093750Y-91653250D01*
X157093750Y-82509250D02*
X157093750Y-80731250D01*
X147568750Y-99781250D02*
X149346750Y-99781250D01*
X158490750Y-99781250D02*
X160268750Y-99781250D01*
X160268750Y-99781250D02*
X160268750Y-101559250D01*
X160268750Y-110703250D02*
X160268750Y-112481250D01*
X160268750Y-112481250D02*
X158490750Y-112481250D01*
X149346750Y-112481250D02*
X147568750Y-112481250D01*
X147568750Y-112481250D02*
X147568750Y-110703250D01*
X147568750Y-101559250D02*
X147568750Y-99781250D01*
X185668750Y-137881250D02*
X187446750Y-137881250D01*
X196590750Y-137881250D02*
X198368750Y-137881250D01*
X198368750Y-137881250D02*
X198368750Y-139659250D01*
X198368750Y-148803250D02*
X198368750Y-150581250D01*
X198368750Y-150581250D02*
X196590750Y-150581250D01*
X187446750Y-150581250D02*
X185668750Y-150581250D01*
X185668750Y-150581250D02*
X185668750Y-148803250D01*
X185668750Y-139659250D02*
X185668750Y-137881250D01*
X161856250Y-42631250D02*
X163634250Y-42631250D01*
X172778250Y-42631250D02*
X174556250Y-42631250D01*
X174556250Y-42631250D02*
X174556250Y-44409250D01*
X174556250Y-53553250D02*
X174556250Y-55331250D01*
X174556250Y-55331250D02*
X172778250Y-55331250D01*
X163634250Y-55331250D02*
X161856250Y-55331250D01*
X161856250Y-55331250D02*
X161856250Y-53553250D01*
X161856250Y-44409250D02*
X161856250Y-42631250D01*
X171381250Y-61681250D02*
X173159250Y-61681250D01*
X182303250Y-61681250D02*
X184081250Y-61681250D01*
X184081250Y-61681250D02*
X184081250Y-63459250D01*
X184081250Y-72603250D02*
X184081250Y-74381250D01*
X184081250Y-74381250D02*
X182303250Y-74381250D01*
X173159250Y-74381250D02*
X171381250Y-74381250D01*
X171381250Y-74381250D02*
X171381250Y-72603250D01*
X171381250Y-63459250D02*
X171381250Y-61681250D01*
X176143750Y-80731250D02*
X177921750Y-80731250D01*
X187065750Y-80731250D02*
X188843750Y-80731250D01*
X188843750Y-80731250D02*
X188843750Y-82509250D01*
X188843750Y-91653250D02*
X188843750Y-93431250D01*
X188843750Y-93431250D02*
X187065750Y-93431250D01*
X177921750Y-93431250D02*
X176143750Y-93431250D01*
X176143750Y-93431250D02*
X176143750Y-91653250D01*
X176143750Y-82509250D02*
X176143750Y-80731250D01*
X166618750Y-99781250D02*
X168396750Y-99781250D01*
X177540750Y-99781250D02*
X179318750Y-99781250D01*
X179318750Y-99781250D02*
X179318750Y-101559250D01*
X179318750Y-110703250D02*
X179318750Y-112481250D01*
X179318750Y-112481250D02*
X177540750Y-112481250D01*
X168396750Y-112481250D02*
X166618750Y-112481250D01*
X166618750Y-112481250D02*
X166618750Y-110703250D01*
X166618750Y-101559250D02*
X166618750Y-99781250D01*
X180906250Y-42631250D02*
X182684250Y-42631250D01*
X191828250Y-42631250D02*
X193606250Y-42631250D01*
X193606250Y-42631250D02*
X193606250Y-44409250D01*
X193606250Y-53553250D02*
X193606250Y-55331250D01*
X193606250Y-55331250D02*
X191828250Y-55331250D01*
X182684250Y-55331250D02*
X180906250Y-55331250D01*
X180906250Y-55331250D02*
X180906250Y-53553250D01*
X180906250Y-44409250D02*
X180906250Y-42631250D01*
X190431250Y-61681250D02*
X192209250Y-61681250D01*
X201353250Y-61681250D02*
X203131250Y-61681250D01*
X203131250Y-61681250D02*
X203131250Y-63459250D01*
X203131250Y-72603250D02*
X203131250Y-74381250D01*
X203131250Y-74381250D02*
X201353250Y-74381250D01*
X192209250Y-74381250D02*
X190431250Y-74381250D01*
X190431250Y-74381250D02*
X190431250Y-72603250D01*
X190431250Y-63459250D02*
X190431250Y-61681250D01*
X195193750Y-80731250D02*
X196971750Y-80731250D01*
X206115750Y-80731250D02*
X207893750Y-80731250D01*
X207893750Y-80731250D02*
X207893750Y-82509250D01*
X207893750Y-91653250D02*
X207893750Y-93431250D01*
X207893750Y-93431250D02*
X206115750Y-93431250D01*
X196971750Y-93431250D02*
X195193750Y-93431250D01*
X195193750Y-93431250D02*
X195193750Y-91653250D01*
X195193750Y-82509250D02*
X195193750Y-80731250D01*
X185668750Y-99781250D02*
X187446750Y-99781250D01*
X196590750Y-99781250D02*
X198368750Y-99781250D01*
X198368750Y-99781250D02*
X198368750Y-101559250D01*
X198368750Y-110703250D02*
X198368750Y-112481250D01*
X198368750Y-112481250D02*
X196590750Y-112481250D01*
X187446750Y-112481250D02*
X185668750Y-112481250D01*
X185668750Y-112481250D02*
X185668750Y-110703250D01*
X185668750Y-101559250D02*
X185668750Y-99781250D01*
X199956250Y-42631250D02*
X201734250Y-42631250D01*
X210878250Y-42631250D02*
X212656250Y-42631250D01*
X212656250Y-42631250D02*
X212656250Y-44409250D01*
X212656250Y-53553250D02*
X212656250Y-55331250D01*
X212656250Y-55331250D02*
X210878250Y-55331250D01*
X201734250Y-55331250D02*
X199956250Y-55331250D01*
X199956250Y-55331250D02*
X199956250Y-53553250D01*
X199956250Y-44409250D02*
X199956250Y-42631250D01*
X209481250Y-61681250D02*
X211259250Y-61681250D01*
X220403250Y-61681250D02*
X222181250Y-61681250D01*
X222181250Y-61681250D02*
X222181250Y-63459250D01*
X222181250Y-72603250D02*
X222181250Y-74381250D01*
X222181250Y-74381250D02*
X220403250Y-74381250D01*
X211259250Y-74381250D02*
X209481250Y-74381250D01*
X209481250Y-74381250D02*
X209481250Y-72603250D01*
X209481250Y-63459250D02*
X209481250Y-61681250D01*
X214243750Y-80731250D02*
X216021750Y-80731250D01*
X225165750Y-80731250D02*
X226943750Y-80731250D01*
X226943750Y-80731250D02*
X226943750Y-82509250D01*
X226943750Y-91653250D02*
X226943750Y-93431250D01*
X226943750Y-93431250D02*
X225165750Y-93431250D01*
X216021750Y-93431250D02*
X214243750Y-93431250D01*
X214243750Y-93431250D02*
X214243750Y-91653250D01*
X214243750Y-82509250D02*
X214243750Y-80731250D01*
X204718750Y-99781250D02*
X206496750Y-99781250D01*
X215640750Y-99781250D02*
X217418750Y-99781250D01*
X217418750Y-99781250D02*
X217418750Y-101559250D01*
X217418750Y-110703250D02*
X217418750Y-112481250D01*
X217418750Y-112481250D02*
X215640750Y-112481250D01*
X206496750Y-112481250D02*
X204718750Y-112481250D01*
X204718750Y-112481250D02*
X204718750Y-110703250D01*
X204718750Y-101559250D02*
X204718750Y-99781250D01*
X219006250Y-42631250D02*
X220784250Y-42631250D01*
X229928250Y-42631250D02*
X231706250Y-42631250D01*
X231706250Y-42631250D02*
X231706250Y-44409250D01*
X231706250Y-53553250D02*
X231706250Y-55331250D01*
X231706250Y-55331250D02*
X229928250Y-55331250D01*
X220784250Y-55331250D02*
X219006250Y-55331250D01*
X219006250Y-55331250D02*
X219006250Y-53553250D01*
X219006250Y-44409250D02*
X219006250Y-42631250D01*
X228531250Y-61681250D02*
X230309250Y-61681250D01*
X239453250Y-61681250D02*
X241231250Y-61681250D01*
X241231250Y-61681250D02*
X241231250Y-63459250D01*
X241231250Y-72603250D02*
X241231250Y-74381250D01*
X241231250Y-74381250D02*
X239453250Y-74381250D01*
X230309250Y-74381250D02*
X228531250Y-74381250D01*
X228531250Y-74381250D02*
X228531250Y-72603250D01*
X228531250Y-63459250D02*
X228531250Y-61681250D01*
X233293750Y-80731250D02*
X235071750Y-80731250D01*
X244215750Y-80731250D02*
X245993750Y-80731250D01*
X245993750Y-80731250D02*
X245993750Y-82509250D01*
X245993750Y-91653250D02*
X245993750Y-93431250D01*
X245993750Y-93431250D02*
X244215750Y-93431250D01*
X235071750Y-93431250D02*
X233293750Y-93431250D01*
X233293750Y-93431250D02*
X233293750Y-91653250D01*
X233293750Y-82509250D02*
X233293750Y-80731250D01*
X223768750Y-99781250D02*
X225546750Y-99781250D01*
X234690750Y-99781250D02*
X236468750Y-99781250D01*
X236468750Y-99781250D02*
X236468750Y-101559250D01*
X236468750Y-110703250D02*
X236468750Y-112481250D01*
X236468750Y-112481250D02*
X234690750Y-112481250D01*
X225546750Y-112481250D02*
X223768750Y-112481250D01*
X223768750Y-112481250D02*
X223768750Y-110703250D01*
X223768750Y-101559250D02*
X223768750Y-99781250D01*
X238056250Y-42631250D02*
X239834250Y-42631250D01*
X248978250Y-42631250D02*
X250756250Y-42631250D01*
X250756250Y-42631250D02*
X250756250Y-44409250D01*
X250756250Y-53553250D02*
X250756250Y-55331250D01*
X250756250Y-55331250D02*
X248978250Y-55331250D01*
X239834250Y-55331250D02*
X238056250Y-55331250D01*
X238056250Y-55331250D02*
X238056250Y-53553250D01*
X238056250Y-44409250D02*
X238056250Y-42631250D01*
X247581250Y-61681250D02*
X249359250Y-61681250D01*
X258503250Y-61681250D02*
X260281250Y-61681250D01*
X260281250Y-61681250D02*
X260281250Y-63459250D01*
X260281250Y-72603250D02*
X260281250Y-74381250D01*
X260281250Y-74381250D02*
X258503250Y-74381250D01*
X249359250Y-74381250D02*
X247581250Y-74381250D01*
X247581250Y-74381250D02*
X247581250Y-72603250D01*
X247581250Y-63459250D02*
X247581250Y-61681250D01*
X252343750Y-80731250D02*
X254121750Y-80731250D01*
X263265750Y-80731250D02*
X265043750Y-80731250D01*
X265043750Y-80731250D02*
X265043750Y-82509250D01*
X265043750Y-91653250D02*
X265043750Y-93431250D01*
X265043750Y-93431250D02*
X263265750Y-93431250D01*
X254121750Y-93431250D02*
X252343750Y-93431250D01*
X252343750Y-93431250D02*
X252343750Y-91653250D01*
X252343750Y-82509250D02*
X252343750Y-80731250D01*
X242818750Y-99781250D02*
X244596750Y-99781250D01*
X253740750Y-99781250D02*
X255518750Y-99781250D01*
X255518750Y-99781250D02*
X255518750Y-101559250D01*
X255518750Y-110703250D02*
X255518750Y-112481250D01*
X255518750Y-112481250D02*
X253740750Y-112481250D01*
X244596750Y-112481250D02*
X242818750Y-112481250D01*
X242818750Y-112481250D02*
X242818750Y-110703250D01*
X242818750Y-101559250D02*
X242818750Y-99781250D01*
X333306250Y-42631250D02*
X335084250Y-42631250D01*
X344228250Y-42631250D02*
X346006250Y-42631250D01*
X346006250Y-42631250D02*
X346006250Y-44409250D01*
X346006250Y-53553250D02*
X346006250Y-55331250D01*
X346006250Y-55331250D02*
X344228250Y-55331250D01*
X335084250Y-55331250D02*
X333306250Y-55331250D01*
X333306250Y-55331250D02*
X333306250Y-53553250D01*
X333306250Y-44409250D02*
X333306250Y-42631250D01*
X257106250Y-42631250D02*
X258884250Y-42631250D01*
X268028250Y-42631250D02*
X269806250Y-42631250D01*
X269806250Y-42631250D02*
X269806250Y-44409250D01*
X269806250Y-53553250D02*
X269806250Y-55331250D01*
X269806250Y-55331250D02*
X268028250Y-55331250D01*
X258884250Y-55331250D02*
X257106250Y-55331250D01*
X257106250Y-55331250D02*
X257106250Y-53553250D01*
X257106250Y-44409250D02*
X257106250Y-42631250D01*
X266631250Y-61681250D02*
X268409250Y-61681250D01*
X277553250Y-61681250D02*
X279331250Y-61681250D01*
X279331250Y-61681250D02*
X279331250Y-63459250D01*
X279331250Y-72603250D02*
X279331250Y-74381250D01*
X279331250Y-74381250D02*
X277553250Y-74381250D01*
X268409250Y-74381250D02*
X266631250Y-74381250D01*
X266631250Y-74381250D02*
X266631250Y-72603250D01*
X266631250Y-63459250D02*
X266631250Y-61681250D01*
X271393750Y-80731250D02*
X273171750Y-80731250D01*
X282315750Y-80731250D02*
X284093750Y-80731250D01*
X284093750Y-80731250D02*
X284093750Y-82509250D01*
X284093750Y-91653250D02*
X284093750Y-93431250D01*
X284093750Y-93431250D02*
X282315750Y-93431250D01*
X273171750Y-93431250D02*
X271393750Y-93431250D01*
X271393750Y-93431250D02*
X271393750Y-91653250D01*
X271393750Y-82509250D02*
X271393750Y-80731250D01*
X261868750Y-99781250D02*
X263646750Y-99781250D01*
X272790750Y-99781250D02*
X274568750Y-99781250D01*
X274568750Y-99781250D02*
X274568750Y-101559250D01*
X274568750Y-110703250D02*
X274568750Y-112481250D01*
X274568750Y-112481250D02*
X272790750Y-112481250D01*
X263646750Y-112481250D02*
X261868750Y-112481250D01*
X261868750Y-112481250D02*
X261868750Y-110703250D01*
X261868750Y-101559250D02*
X261868750Y-99781250D01*
X259487500Y-118831250D02*
X261265500Y-118831250D01*
X270409500Y-118831250D02*
X272187500Y-118831250D01*
X272187500Y-118831250D02*
X272187500Y-120609250D01*
X272187500Y-129753250D02*
X272187500Y-131531250D01*
X272187500Y-131531250D02*
X270409500Y-131531250D01*
X261265500Y-131531250D02*
X259487500Y-131531250D01*
X259487500Y-131531250D02*
X259487500Y-129753250D01*
X259487500Y-120609250D02*
X259487500Y-118831250D01*
X261868750Y-118831250D02*
X263646750Y-118831250D01*
X272790750Y-118831250D02*
X274568750Y-118831250D01*
X274568750Y-118831250D02*
X274568750Y-120609250D01*
X274568750Y-129753250D02*
X274568750Y-131531250D01*
X274568750Y-131531250D02*
X272790750Y-131531250D01*
X263646750Y-131531250D02*
X261868750Y-131531250D01*
X261868750Y-131531250D02*
X261868750Y-129753250D01*
X261868750Y-120609250D02*
X261868750Y-118831250D01*
X276156250Y-42631250D02*
X277934250Y-42631250D01*
X287078250Y-42631250D02*
X288856250Y-42631250D01*
X288856250Y-42631250D02*
X288856250Y-44409250D01*
X288856250Y-53553250D02*
X288856250Y-55331250D01*
X288856250Y-55331250D02*
X287078250Y-55331250D01*
X277934250Y-55331250D02*
X276156250Y-55331250D01*
X276156250Y-55331250D02*
X276156250Y-53553250D01*
X276156250Y-44409250D02*
X276156250Y-42631250D01*
X285681250Y-61681250D02*
X287459250Y-61681250D01*
X296603250Y-61681250D02*
X298381250Y-61681250D01*
X298381250Y-61681250D02*
X298381250Y-63459250D01*
X298381250Y-72603250D02*
X298381250Y-74381250D01*
X298381250Y-74381250D02*
X296603250Y-74381250D01*
X287459250Y-74381250D02*
X285681250Y-74381250D01*
X285681250Y-74381250D02*
X285681250Y-72603250D01*
X285681250Y-63459250D02*
X285681250Y-61681250D01*
X290443750Y-80731250D02*
X292221750Y-80731250D01*
X301365750Y-80731250D02*
X303143750Y-80731250D01*
X303143750Y-80731250D02*
X303143750Y-82509250D01*
X303143750Y-91653250D02*
X303143750Y-93431250D01*
X303143750Y-93431250D02*
X301365750Y-93431250D01*
X292221750Y-93431250D02*
X290443750Y-93431250D01*
X290443750Y-93431250D02*
X290443750Y-91653250D01*
X290443750Y-82509250D02*
X290443750Y-80731250D01*
X280918750Y-99781250D02*
X282696750Y-99781250D01*
X291840750Y-99781250D02*
X293618750Y-99781250D01*
X293618750Y-99781250D02*
X293618750Y-101559250D01*
X293618750Y-110703250D02*
X293618750Y-112481250D01*
X293618750Y-112481250D02*
X291840750Y-112481250D01*
X282696750Y-112481250D02*
X280918750Y-112481250D01*
X280918750Y-112481250D02*
X280918750Y-110703250D01*
X280918750Y-101559250D02*
X280918750Y-99781250D01*
X285681250Y-118831250D02*
X287459250Y-118831250D01*
X296603250Y-118831250D02*
X298381250Y-118831250D01*
X298381250Y-118831250D02*
X298381250Y-120609250D01*
X298381250Y-129753250D02*
X298381250Y-131531250D01*
X298381250Y-131531250D02*
X296603250Y-131531250D01*
X287459250Y-131531250D02*
X285681250Y-131531250D01*
X285681250Y-131531250D02*
X285681250Y-129753250D01*
X285681250Y-120609250D02*
X285681250Y-118831250D01*
X283300000Y-118831250D02*
X285078000Y-118831250D01*
X294222000Y-118831250D02*
X296000000Y-118831250D01*
X296000000Y-118831250D02*
X296000000Y-120609250D01*
X296000000Y-129753250D02*
X296000000Y-131531250D01*
X296000000Y-131531250D02*
X294222000Y-131531250D01*
X285078000Y-131531250D02*
X283300000Y-131531250D01*
X283300000Y-131531250D02*
X283300000Y-129753250D01*
X283300000Y-120609250D02*
X283300000Y-118831250D01*
X280918750Y-118831250D02*
X282696750Y-118831250D01*
X291840750Y-118831250D02*
X293618750Y-118831250D01*
X293618750Y-118831250D02*
X293618750Y-120609250D01*
X293618750Y-129753250D02*
X293618750Y-131531250D01*
X293618750Y-131531250D02*
X291840750Y-131531250D01*
X282696750Y-131531250D02*
X280918750Y-131531250D01*
X280918750Y-131531250D02*
X280918750Y-129753250D01*
X280918750Y-120609250D02*
X280918750Y-118831250D01*
X295206250Y-42631250D02*
X296984250Y-42631250D01*
X306128250Y-42631250D02*
X307906250Y-42631250D01*
X307906250Y-42631250D02*
X307906250Y-44409250D01*
X307906250Y-53553250D02*
X307906250Y-55331250D01*
X307906250Y-55331250D02*
X306128250Y-55331250D01*
X296984250Y-55331250D02*
X295206250Y-55331250D01*
X295206250Y-55331250D02*
X295206250Y-53553250D01*
X295206250Y-44409250D02*
X295206250Y-42631250D01*
X304731250Y-61681250D02*
X306509250Y-61681250D01*
X315653250Y-61681250D02*
X317431250Y-61681250D01*
X317431250Y-61681250D02*
X317431250Y-63459250D01*
X317431250Y-72603250D02*
X317431250Y-74381250D01*
X317431250Y-74381250D02*
X315653250Y-74381250D01*
X306509250Y-74381250D02*
X304731250Y-74381250D01*
X304731250Y-74381250D02*
X304731250Y-72603250D01*
X304731250Y-63459250D02*
X304731250Y-61681250D01*
X309493750Y-80731250D02*
X311271750Y-80731250D01*
X320415750Y-80731250D02*
X322193750Y-80731250D01*
X322193750Y-80731250D02*
X322193750Y-82509250D01*
X322193750Y-91653250D02*
X322193750Y-93431250D01*
X322193750Y-93431250D02*
X320415750Y-93431250D01*
X311271750Y-93431250D02*
X309493750Y-93431250D01*
X309493750Y-93431250D02*
X309493750Y-91653250D01*
X309493750Y-82509250D02*
X309493750Y-80731250D01*
X299968750Y-99781250D02*
X301746750Y-99781250D01*
X310890750Y-99781250D02*
X312668750Y-99781250D01*
X312668750Y-99781250D02*
X312668750Y-101559250D01*
X312668750Y-110703250D02*
X312668750Y-112481250D01*
X312668750Y-112481250D02*
X310890750Y-112481250D01*
X301746750Y-112481250D02*
X299968750Y-112481250D01*
X299968750Y-112481250D02*
X299968750Y-110703250D01*
X299968750Y-101559250D02*
X299968750Y-99781250D01*
X304731250Y-118831250D02*
X306509250Y-118831250D01*
X315653250Y-118831250D02*
X317431250Y-118831250D01*
X317431250Y-118831250D02*
X317431250Y-120609250D01*
X317431250Y-129753250D02*
X317431250Y-131531250D01*
X317431250Y-131531250D02*
X315653250Y-131531250D01*
X306509250Y-131531250D02*
X304731250Y-131531250D01*
X304731250Y-131531250D02*
X304731250Y-129753250D01*
X304731250Y-120609250D02*
X304731250Y-118831250D01*
X314230000Y-42631250D02*
X316008000Y-42631250D01*
X325152000Y-42631250D02*
X326930000Y-42631250D01*
X326930000Y-42631250D02*
X326930000Y-44409250D01*
X326930000Y-53553250D02*
X326930000Y-55331250D01*
X326930000Y-55331250D02*
X325152000Y-55331250D01*
X316008000Y-55331250D02*
X314230000Y-55331250D01*
X314230000Y-55331250D02*
X314230000Y-53553250D01*
X314230000Y-44409250D02*
X314230000Y-42631250D01*
X328543750Y-61681250D02*
X330321750Y-61681250D01*
X339465750Y-61681250D02*
X341243750Y-61681250D01*
X341243750Y-61681250D02*
X341243750Y-63459250D01*
X341243750Y-72603250D02*
X341243750Y-74381250D01*
X341243750Y-74381250D02*
X339465750Y-74381250D01*
X330321750Y-74381250D02*
X328543750Y-74381250D01*
X328543750Y-74381250D02*
X328543750Y-72603250D01*
X328543750Y-63459250D02*
X328543750Y-61681250D01*
X330925000Y-80731250D02*
X332703000Y-80731250D01*
X341847000Y-80731250D02*
X343625000Y-80731250D01*
X343625000Y-80731250D02*
X343625000Y-82509250D01*
X343625000Y-91653250D02*
X343625000Y-93431250D01*
X343625000Y-93431250D02*
X341847000Y-93431250D01*
X332703000Y-93431250D02*
X330925000Y-93431250D01*
X330925000Y-93431250D02*
X330925000Y-91653250D01*
X330925000Y-82509250D02*
X330925000Y-80731250D01*
X343598750Y-71206250D02*
X343598750Y-72984250D01*
X343598750Y-82128250D02*
X343598750Y-83906250D01*
X343598750Y-83906250D02*
X341820750Y-83906250D01*
X332676750Y-83906250D02*
X330898750Y-83906250D01*
X330898750Y-83906250D02*
X330898750Y-82128250D01*
X330898750Y-72984250D02*
X330898750Y-71206250D01*
X330898750Y-71206250D02*
X332676750Y-71206250D01*
X341820750Y-71206250D02*
X343598750Y-71206250D01*
X333306250Y-99781250D02*
X335084250Y-99781250D01*
X344228250Y-99781250D02*
X346006250Y-99781250D01*
X346006250Y-99781250D02*
X346006250Y-101559250D01*
X346006250Y-110703250D02*
X346006250Y-112481250D01*
X346006250Y-112481250D02*
X344228250Y-112481250D01*
X335084250Y-112481250D02*
X333306250Y-112481250D01*
X333306250Y-112481250D02*
X333306250Y-110703250D01*
X333306250Y-101559250D02*
X333306250Y-99781250D01*
X326162500Y-99781250D02*
X327940500Y-99781250D01*
X337084500Y-99781250D02*
X338862500Y-99781250D01*
X338862500Y-99781250D02*
X338862500Y-101559250D01*
X338862500Y-110703250D02*
X338862500Y-112481250D01*
X338862500Y-112481250D02*
X337084500Y-112481250D01*
X327940500Y-112481250D02*
X326162500Y-112481250D01*
X326162500Y-112481250D02*
X326162500Y-110703250D01*
X326162500Y-101559250D02*
X326162500Y-99781250D01*
X330925000Y-118831250D02*
X332703000Y-118831250D01*
X341847000Y-118831250D02*
X343625000Y-118831250D01*
X343625000Y-118831250D02*
X343625000Y-120609250D01*
X343625000Y-129753250D02*
X343625000Y-131531250D01*
X343625000Y-131531250D02*
X341847000Y-131531250D01*
X332703000Y-131531250D02*
X330925000Y-131531250D01*
X330925000Y-131531250D02*
X330925000Y-129753250D01*
X330925000Y-120609250D02*
X330925000Y-118831250D01*
X328543750Y-118831250D02*
X330321750Y-118831250D01*
X339465750Y-118831250D02*
X341243750Y-118831250D01*
X341243750Y-118831250D02*
X341243750Y-120609250D01*
X341243750Y-129753250D02*
X341243750Y-131531250D01*
X341243750Y-131531250D02*
X339465750Y-131531250D01*
X330321750Y-131531250D02*
X328543750Y-131531250D01*
X328543750Y-131531250D02*
X328543750Y-129753250D01*
X328543750Y-120609250D02*
X328543750Y-118831250D01*
D13*
X67530000Y-89156250D02*
X67530000Y-85756250D01*
X64330000Y-89156250D02*
X64330000Y-85756250D01*
D14*
G36*
X280762081Y-117499759D02*
X280936773Y-117503518D01*
X281053766Y-117510024D01*
X281088043Y-117514847D01*
X281161964Y-117554461D01*
X281276199Y-117640035D01*
X281412000Y-117756868D01*
X281490209Y-117830206D01*
X281728888Y-118040039D01*
X281992747Y-118236553D01*
X282259192Y-118404837D01*
X282505629Y-118529976D01*
X282612935Y-118571259D01*
X282869423Y-118695580D01*
X283072741Y-118872532D01*
X283218899Y-119088842D01*
X283303911Y-119331237D01*
X283323789Y-119586441D01*
X283274545Y-119841181D01*
X283152191Y-120082185D01*
X283090702Y-120161600D01*
X282880305Y-120346018D01*
X282632519Y-120460838D01*
X282361824Y-120503383D01*
X282082696Y-120470976D01*
X281862017Y-120388773D01*
X281722342Y-120308412D01*
X281610984Y-120213671D01*
X281514826Y-120087550D01*
X281420755Y-119913054D01*
X281322354Y-119689353D01*
X281222322Y-119461451D01*
X281170667Y-119359332D01*
X281643924Y-119359332D01*
X281645797Y-119481015D01*
X281652482Y-119579588D01*
X281666374Y-119737817D01*
X281688617Y-119839969D01*
X281732078Y-119914512D01*
X281809626Y-119989915D01*
X281855498Y-120028724D01*
X282059857Y-120170756D01*
X282250834Y-120236291D01*
X282445084Y-120227991D01*
X282645934Y-120155056D01*
X282841914Y-120020286D01*
X282971848Y-119847314D01*
X283036177Y-119650358D01*
X283035342Y-119443636D01*
X282969785Y-119241366D01*
X282839947Y-119057765D01*
X282646269Y-118907051D01*
X282606519Y-118885463D01*
X282394946Y-118816767D01*
X282188700Y-118831333D01*
X281986022Y-118929633D01*
X281791742Y-119104803D01*
X281708256Y-119200682D01*
X281661864Y-119275706D01*
X281643924Y-119359332D01*
X281170667Y-119359332D01*
X281118268Y-119255745D01*
X281001327Y-119060097D01*
X280862637Y-118862367D01*
X280693334Y-118650417D01*
X280484554Y-118412108D01*
X280227436Y-118135303D01*
X280058356Y-117958250D01*
X279630916Y-117513750D01*
X280308250Y-117501648D01*
X280546853Y-117499039D01*
X280762081Y-117499759D01*
X280762081Y-117499759D01*
G37*
X280762081Y-117499759D02*
X280936773Y-117503518D01*
X281053766Y-117510024D01*
X281088043Y-117514847D01*
X281161964Y-117554461D01*
X281276199Y-117640035D01*
X281412000Y-117756868D01*
X281490209Y-117830206D01*
X281728888Y-118040039D01*
X281992747Y-118236553D01*
X282259192Y-118404837D01*
X282505629Y-118529976D01*
X282612935Y-118571259D01*
X282869423Y-118695580D01*
X283072741Y-118872532D01*
X283218899Y-119088842D01*
X283303911Y-119331237D01*
X283323789Y-119586441D01*
X283274545Y-119841181D01*
X283152191Y-120082185D01*
X283090702Y-120161600D01*
X282880305Y-120346018D01*
X282632519Y-120460838D01*
X282361824Y-120503383D01*
X282082696Y-120470976D01*
X281862017Y-120388773D01*
X281722342Y-120308412D01*
X281610984Y-120213671D01*
X281514826Y-120087550D01*
X281420755Y-119913054D01*
X281322354Y-119689353D01*
X281222322Y-119461451D01*
X281170667Y-119359332D01*
X281643924Y-119359332D01*
X281645797Y-119481015D01*
X281652482Y-119579588D01*
X281666374Y-119737817D01*
X281688617Y-119839969D01*
X281732078Y-119914512D01*
X281809626Y-119989915D01*
X281855498Y-120028724D01*
X282059857Y-120170756D01*
X282250834Y-120236291D01*
X282445084Y-120227991D01*
X282645934Y-120155056D01*
X282841914Y-120020286D01*
X282971848Y-119847314D01*
X283036177Y-119650358D01*
X283035342Y-119443636D01*
X282969785Y-119241366D01*
X282839947Y-119057765D01*
X282646269Y-118907051D01*
X282606519Y-118885463D01*
X282394946Y-118816767D01*
X282188700Y-118831333D01*
X281986022Y-118929633D01*
X281791742Y-119104803D01*
X281708256Y-119200682D01*
X281661864Y-119275706D01*
X281643924Y-119359332D01*
X281170667Y-119359332D01*
X281118268Y-119255745D01*
X281001327Y-119060097D01*
X280862637Y-118862367D01*
X280693334Y-118650417D01*
X280484554Y-118412108D01*
X280227436Y-118135303D01*
X280058356Y-117958250D01*
X279630916Y-117513750D01*
X280308250Y-117501648D01*
X280546853Y-117499039D01*
X280762081Y-117499759D01*
G36*
X277123451Y-117376200D02*
X277145820Y-117385706D01*
X277134661Y-117426638D01*
X277094426Y-117526933D01*
X277032235Y-117669414D01*
X276986980Y-117768796D01*
X276834738Y-118127366D01*
X276711172Y-118477585D01*
X276623314Y-118797673D01*
X276583275Y-119018932D01*
X276575812Y-119289525D01*
X276632017Y-119517038D01*
X276758469Y-119720915D01*
X276856344Y-119826157D01*
X277110524Y-120015618D01*
X277406663Y-120140608D01*
X277729729Y-120199273D01*
X278064689Y-120189756D01*
X278396514Y-120110203D01*
X278568888Y-120037575D01*
X278885659Y-119839468D01*
X279194178Y-119563823D01*
X279488210Y-119217746D01*
X279761518Y-118808339D01*
X279948024Y-118466250D01*
X280026464Y-118309736D01*
X280077351Y-118217252D01*
X280112076Y-118177648D01*
X280142028Y-118179773D01*
X280178598Y-118212479D01*
X280192706Y-118226730D01*
X280224069Y-118265067D01*
X280233527Y-118309599D01*
X280216710Y-118377188D01*
X280169249Y-118484694D01*
X280086777Y-118648980D01*
X280079754Y-118662701D01*
X279795165Y-119151611D01*
X279480606Y-119566469D01*
X279138100Y-119905064D01*
X278769670Y-120165188D01*
X278641807Y-120233897D01*
X278477500Y-120311205D01*
X278343138Y-120359067D01*
X278204897Y-120385652D01*
X278028952Y-120399127D01*
X277943307Y-120402575D01*
X277727930Y-120405339D01*
X277561888Y-120392948D01*
X277410536Y-120361011D01*
X277275329Y-120317943D01*
X276959562Y-120180673D01*
X276718129Y-120012341D01*
X276544137Y-119805775D01*
X276430692Y-119553802D01*
X276392781Y-119399505D01*
X276374866Y-119129990D01*
X276410144Y-118809433D01*
X276495673Y-118450175D01*
X276628509Y-118064557D01*
X276805709Y-117664917D01*
X276807189Y-117661916D01*
X276890675Y-117501267D01*
X276952832Y-117406113D01*
X277004031Y-117363441D01*
X277048583Y-117359024D01*
X277123451Y-117376200D01*
X277123451Y-117376200D01*
G37*
X277123451Y-117376200D02*
X277145820Y-117385706D01*
X277134661Y-117426638D01*
X277094426Y-117526933D01*
X277032235Y-117669414D01*
X276986980Y-117768796D01*
X276834738Y-118127366D01*
X276711172Y-118477585D01*
X276623314Y-118797673D01*
X276583275Y-119018932D01*
X276575812Y-119289525D01*
X276632017Y-119517038D01*
X276758469Y-119720915D01*
X276856344Y-119826157D01*
X277110524Y-120015618D01*
X277406663Y-120140608D01*
X277729729Y-120199273D01*
X278064689Y-120189756D01*
X278396514Y-120110203D01*
X278568888Y-120037575D01*
X278885659Y-119839468D01*
X279194178Y-119563823D01*
X279488210Y-119217746D01*
X279761518Y-118808339D01*
X279948024Y-118466250D01*
X280026464Y-118309736D01*
X280077351Y-118217252D01*
X280112076Y-118177648D01*
X280142028Y-118179773D01*
X280178598Y-118212479D01*
X280192706Y-118226730D01*
X280224069Y-118265067D01*
X280233527Y-118309599D01*
X280216710Y-118377188D01*
X280169249Y-118484694D01*
X280086777Y-118648980D01*
X280079754Y-118662701D01*
X279795165Y-119151611D01*
X279480606Y-119566469D01*
X279138100Y-119905064D01*
X278769670Y-120165188D01*
X278641807Y-120233897D01*
X278477500Y-120311205D01*
X278343138Y-120359067D01*
X278204897Y-120385652D01*
X278028952Y-120399127D01*
X277943307Y-120402575D01*
X277727930Y-120405339D01*
X277561888Y-120392948D01*
X277410536Y-120361011D01*
X277275329Y-120317943D01*
X276959562Y-120180673D01*
X276718129Y-120012341D01*
X276544137Y-119805775D01*
X276430692Y-119553802D01*
X276392781Y-119399505D01*
X276374866Y-119129990D01*
X276410144Y-118809433D01*
X276495673Y-118450175D01*
X276628509Y-118064557D01*
X276805709Y-117664917D01*
X276807189Y-117661916D01*
X276890675Y-117501267D01*
X276952832Y-117406113D01*
X277004031Y-117363441D01*
X277048583Y-117359024D01*
X277123451Y-117376200D01*
G36*
X274920991Y-113266012D02*
X275155176Y-113271782D01*
X275339205Y-113282065D01*
X275481702Y-113297654D01*
X275591293Y-113319342D01*
X275676602Y-113347919D01*
X275746255Y-113384179D01*
X275808876Y-113428913D01*
X275837134Y-113452081D01*
X275905776Y-113514218D01*
X275961297Y-113579492D01*
X276004976Y-113657109D01*
X276038092Y-113756278D01*
X276061925Y-113886206D01*
X276077755Y-114056100D01*
X276086860Y-114275167D01*
X276090519Y-114552615D01*
X276090013Y-114897652D01*
X276087251Y-115252208D01*
X276074916Y-116588783D01*
X275962277Y-116758900D01*
X275908299Y-116838269D01*
X275855690Y-116903825D01*
X275796142Y-116956957D01*
X275721347Y-116999055D01*
X275622997Y-117031510D01*
X275492783Y-117055711D01*
X275322397Y-117073050D01*
X275103532Y-117084917D01*
X274827877Y-117092701D01*
X274487126Y-117097793D01*
X274072970Y-117101583D01*
X273906611Y-117102879D01*
X272288639Y-117115342D01*
X272265019Y-117018212D01*
X272260283Y-116956265D01*
X272256405Y-116818924D01*
X272253442Y-116615455D01*
X272251452Y-116355128D01*
X272250491Y-116047209D01*
X272250618Y-115700968D01*
X272251889Y-115325671D01*
X272253157Y-115100750D01*
X272259573Y-114107529D01*
X273090416Y-114107529D01*
X273090416Y-115158000D01*
X273091537Y-115448129D01*
X273094689Y-115709875D01*
X273099555Y-115931440D01*
X273105819Y-116101025D01*
X273113165Y-116206831D01*
X273119361Y-116237417D01*
X273168030Y-116244976D01*
X273289492Y-116250886D01*
X273471888Y-116254953D01*
X273703357Y-116256979D01*
X273972038Y-116256770D01*
X274188278Y-116255055D01*
X275228250Y-116243750D01*
X275228250Y-114084750D01*
X274254583Y-114072806D01*
X273970725Y-114070361D01*
X273711036Y-114070084D01*
X273488924Y-114071830D01*
X273317792Y-114075457D01*
X273211047Y-114080823D01*
X273185666Y-114084196D01*
X273090416Y-114107529D01*
X272259573Y-114107529D01*
X272264916Y-113280416D01*
X273831250Y-113267866D01*
X274267653Y-113264846D01*
X274628025Y-113263965D01*
X274920991Y-113266012D01*
X274920991Y-113266012D01*
G37*
X274920991Y-113266012D02*
X275155176Y-113271782D01*
X275339205Y-113282065D01*
X275481702Y-113297654D01*
X275591293Y-113319342D01*
X275676602Y-113347919D01*
X275746255Y-113384179D01*
X275808876Y-113428913D01*
X275837134Y-113452081D01*
X275905776Y-113514218D01*
X275961297Y-113579492D01*
X276004976Y-113657109D01*
X276038092Y-113756278D01*
X276061925Y-113886206D01*
X276077755Y-114056100D01*
X276086860Y-114275167D01*
X276090519Y-114552615D01*
X276090013Y-114897652D01*
X276087251Y-115252208D01*
X276074916Y-116588783D01*
X275962277Y-116758900D01*
X275908299Y-116838269D01*
X275855690Y-116903825D01*
X275796142Y-116956957D01*
X275721347Y-116999055D01*
X275622997Y-117031510D01*
X275492783Y-117055711D01*
X275322397Y-117073050D01*
X275103532Y-117084917D01*
X274827877Y-117092701D01*
X274487126Y-117097793D01*
X274072970Y-117101583D01*
X273906611Y-117102879D01*
X272288639Y-117115342D01*
X272265019Y-117018212D01*
X272260283Y-116956265D01*
X272256405Y-116818924D01*
X272253442Y-116615455D01*
X272251452Y-116355128D01*
X272250491Y-116047209D01*
X272250618Y-115700968D01*
X272251889Y-115325671D01*
X272253157Y-115100750D01*
X272259573Y-114107529D01*
X273090416Y-114107529D01*
X273090416Y-115158000D01*
X273091537Y-115448129D01*
X273094689Y-115709875D01*
X273099555Y-115931440D01*
X273105819Y-116101025D01*
X273113165Y-116206831D01*
X273119361Y-116237417D01*
X273168030Y-116244976D01*
X273289492Y-116250886D01*
X273471888Y-116254953D01*
X273703357Y-116256979D01*
X273972038Y-116256770D01*
X274188278Y-116255055D01*
X275228250Y-116243750D01*
X275228250Y-114084750D01*
X274254583Y-114072806D01*
X273970725Y-114070361D01*
X273711036Y-114070084D01*
X273488924Y-114071830D01*
X273317792Y-114075457D01*
X273211047Y-114080823D01*
X273185666Y-114084196D01*
X273090416Y-114107529D01*
X272259573Y-114107529D01*
X272264916Y-113280416D01*
X273831250Y-113267866D01*
X274267653Y-113264846D01*
X274628025Y-113263965D01*
X274920991Y-113266012D01*
G36*
X279437443Y-114105916D02*
X279627458Y-114258523D01*
X279723811Y-114399493D01*
X279752073Y-114455106D01*
X279774263Y-114509154D01*
X279791012Y-114571996D01*
X279802951Y-114653991D01*
X279810710Y-114765496D01*
X279814919Y-114916869D01*
X279816211Y-115118470D01*
X279815215Y-115380656D01*
X279812562Y-115713787D01*
X279811451Y-115838826D01*
X279800250Y-117090416D01*
X278572583Y-117099470D01*
X278189070Y-117101349D01*
X277881322Y-117100518D01*
X277640471Y-117096665D01*
X277457650Y-117089479D01*
X277323990Y-117078647D01*
X277230625Y-117063857D01*
X277183364Y-117050578D01*
X276991758Y-116955116D01*
X276850713Y-116814934D01*
X276768911Y-116679353D01*
X276738395Y-116609098D01*
X276716605Y-116526882D01*
X276702144Y-116417763D01*
X276693615Y-116266802D01*
X276690166Y-116087308D01*
X277494558Y-116087308D01*
X277502939Y-116190050D01*
X277522270Y-116237659D01*
X277572258Y-116246615D01*
X277692422Y-116253099D01*
X277868299Y-116256771D01*
X278085424Y-116257291D01*
X278273687Y-116255298D01*
X278995916Y-116243750D01*
X278995916Y-115862750D01*
X278279401Y-115851109D01*
X277998903Y-115848181D01*
X277793343Y-115850194D01*
X277653108Y-115857691D01*
X277568582Y-115871213D01*
X277530153Y-115891302D01*
X277528633Y-115893442D01*
X277503373Y-115974873D01*
X277494558Y-116087308D01*
X276690166Y-116087308D01*
X276689622Y-116059057D01*
X276688750Y-115822103D01*
X276688750Y-115121916D01*
X277805399Y-115121916D01*
X278147577Y-115121355D01*
X278414767Y-115119303D01*
X278616642Y-115115207D01*
X278762875Y-115108514D01*
X278863140Y-115098670D01*
X278927109Y-115085122D01*
X278964457Y-115067318D01*
X278977694Y-115054868D01*
X279010466Y-114973420D01*
X278988892Y-114917284D01*
X278967005Y-114895633D01*
X278925270Y-114878342D01*
X278854046Y-114864650D01*
X278743693Y-114853797D01*
X278584568Y-114845021D01*
X278367032Y-114837562D01*
X278081442Y-114830658D01*
X277827181Y-114825583D01*
X276709916Y-114804416D01*
X276709916Y-114000083D01*
X279249916Y-114000083D01*
X279437443Y-114105916D01*
X279437443Y-114105916D01*
G37*
X279437443Y-114105916D02*
X279627458Y-114258523D01*
X279723811Y-114399493D01*
X279752073Y-114455106D01*
X279774263Y-114509154D01*
X279791012Y-114571996D01*
X279802951Y-114653991D01*
X279810710Y-114765496D01*
X279814919Y-114916869D01*
X279816211Y-115118470D01*
X279815215Y-115380656D01*
X279812562Y-115713787D01*
X279811451Y-115838826D01*
X279800250Y-117090416D01*
X278572583Y-117099470D01*
X278189070Y-117101349D01*
X277881322Y-117100518D01*
X277640471Y-117096665D01*
X277457650Y-117089479D01*
X277323990Y-117078647D01*
X277230625Y-117063857D01*
X277183364Y-117050578D01*
X276991758Y-116955116D01*
X276850713Y-116814934D01*
X276768911Y-116679353D01*
X276738395Y-116609098D01*
X276716605Y-116526882D01*
X276702144Y-116417763D01*
X276693615Y-116266802D01*
X276690166Y-116087308D01*
X277494558Y-116087308D01*
X277502939Y-116190050D01*
X277522270Y-116237659D01*
X277572258Y-116246615D01*
X277692422Y-116253099D01*
X277868299Y-116256771D01*
X278085424Y-116257291D01*
X278273687Y-116255298D01*
X278995916Y-116243750D01*
X278995916Y-115862750D01*
X278279401Y-115851109D01*
X277998903Y-115848181D01*
X277793343Y-115850194D01*
X277653108Y-115857691D01*
X277568582Y-115871213D01*
X277530153Y-115891302D01*
X277528633Y-115893442D01*
X277503373Y-115974873D01*
X277494558Y-116087308D01*
X276690166Y-116087308D01*
X276689622Y-116059057D01*
X276688750Y-115822103D01*
X276688750Y-115121916D01*
X277805399Y-115121916D01*
X278147577Y-115121355D01*
X278414767Y-115119303D01*
X278616642Y-115115207D01*
X278762875Y-115108514D01*
X278863140Y-115098670D01*
X278927109Y-115085122D01*
X278964457Y-115067318D01*
X278977694Y-115054868D01*
X279010466Y-114973420D01*
X278988892Y-114917284D01*
X278967005Y-114895633D01*
X278925270Y-114878342D01*
X278854046Y-114864650D01*
X278743693Y-114853797D01*
X278584568Y-114845021D01*
X278367032Y-114837562D01*
X278081442Y-114830658D01*
X277827181Y-114825583D01*
X276709916Y-114804416D01*
X276709916Y-114000083D01*
X279249916Y-114000083D01*
X279437443Y-114105916D01*
G36*
X282442372Y-113984431D02*
X282560118Y-113991784D01*
X282635392Y-114003968D01*
X282678733Y-114021515D01*
X282693791Y-114034835D01*
X282723744Y-114122888D01*
X282735712Y-114292470D01*
X282733611Y-114451063D01*
X282721250Y-114804416D01*
X281070250Y-114846750D01*
X281027916Y-117090416D01*
X280244750Y-117114760D01*
X280244750Y-115849830D01*
X280244930Y-115488992D01*
X280245935Y-115202521D01*
X280248462Y-114980116D01*
X280253208Y-114811478D01*
X280260870Y-114686306D01*
X280272145Y-114594302D01*
X280287730Y-114525163D01*
X280308322Y-114468592D01*
X280334618Y-114414287D01*
X280342972Y-114398325D01*
X280490003Y-114206053D01*
X280628722Y-114105916D01*
X280693858Y-114070959D01*
X280757306Y-114044449D01*
X280831872Y-114024991D01*
X280930363Y-114011189D01*
X281065583Y-114001647D01*
X281250339Y-113994971D01*
X281497438Y-113989764D01*
X281728929Y-113986021D01*
X282037316Y-113982083D01*
X282271618Y-113981375D01*
X282442372Y-113984431D01*
X282442372Y-113984431D01*
G37*
X282442372Y-113984431D02*
X282560118Y-113991784D01*
X282635392Y-114003968D01*
X282678733Y-114021515D01*
X282693791Y-114034835D01*
X282723744Y-114122888D01*
X282735712Y-114292470D01*
X282733611Y-114451063D01*
X282721250Y-114804416D01*
X281070250Y-114846750D01*
X281027916Y-117090416D01*
X280244750Y-117114760D01*
X280244750Y-115849830D01*
X280244930Y-115488992D01*
X280245935Y-115202521D01*
X280248462Y-114980116D01*
X280253208Y-114811478D01*
X280260870Y-114686306D01*
X280272145Y-114594302D01*
X280287730Y-114525163D01*
X280308322Y-114468592D01*
X280334618Y-114414287D01*
X280342972Y-114398325D01*
X280490003Y-114206053D01*
X280628722Y-114105916D01*
X280693858Y-114070959D01*
X280757306Y-114044449D01*
X280831872Y-114024991D01*
X280930363Y-114011189D01*
X281065583Y-114001647D01*
X281250339Y-113994971D01*
X281497438Y-113989764D01*
X281728929Y-113986021D01*
X282037316Y-113982083D01*
X282271618Y-113981375D01*
X282442372Y-113984431D01*
G36*
X286764083Y-113421581D02*
X286759266Y-113484828D01*
X286739955Y-113550062D01*
X286698858Y-113628292D01*
X286628684Y-113730525D01*
X286522142Y-113867771D01*
X286371942Y-114051038D01*
X286252385Y-114194164D01*
X286079055Y-114400961D01*
X285913649Y-114598455D01*
X285768175Y-114772298D01*
X285654639Y-114908142D01*
X285591077Y-114984384D01*
X285506878Y-115091976D01*
X285472825Y-115160204D01*
X285480898Y-115211225D01*
X285499138Y-115238384D01*
X285543507Y-115293008D01*
X285632788Y-115401120D01*
X285757508Y-115551316D01*
X285908197Y-115732191D01*
X286075383Y-115932342D01*
X286087992Y-115947416D01*
X286303992Y-116205919D01*
X286471690Y-116408027D01*
X286597196Y-116562214D01*
X286686621Y-116676950D01*
X286746075Y-116760707D01*
X286781669Y-116821958D01*
X286799515Y-116869174D01*
X286805722Y-116910828D01*
X286806416Y-116943429D01*
X286798558Y-117014658D01*
X286765838Y-117062542D01*
X286694537Y-117091601D01*
X286570936Y-117106354D01*
X286381315Y-117111320D01*
X286295938Y-117111583D01*
X285919384Y-117111583D01*
X285292411Y-116360166D01*
X284665438Y-115608750D01*
X283948916Y-115608750D01*
X283927750Y-116349583D01*
X283906583Y-117090416D01*
X283514284Y-117102598D01*
X283313088Y-117105268D01*
X283184525Y-117097502D01*
X283117071Y-117078119D01*
X283101074Y-117060264D01*
X283096949Y-117007704D01*
X283093588Y-116879360D01*
X283091036Y-116684113D01*
X283089339Y-116430844D01*
X283088543Y-116128432D01*
X283088693Y-115785759D01*
X283089835Y-115411704D01*
X283091206Y-115143083D01*
X283102250Y-113280416D01*
X283906583Y-113280416D01*
X283927750Y-114000083D01*
X283948916Y-114719750D01*
X284296072Y-114732011D01*
X284643229Y-114744273D01*
X284789566Y-114583844D01*
X284866697Y-114496331D01*
X284984787Y-114358710D01*
X285130925Y-114186192D01*
X285292198Y-113993986D01*
X285392897Y-113873083D01*
X285546977Y-113688801D01*
X285684270Y-113526977D01*
X285794876Y-113399094D01*
X285868889Y-113316637D01*
X285894237Y-113291648D01*
X285953504Y-113278231D01*
X286076589Y-113267578D01*
X286242651Y-113261136D01*
X286351333Y-113259898D01*
X286764083Y-113259250D01*
X286764083Y-113421581D01*
X286764083Y-113421581D01*
G37*
X286764083Y-113421581D02*
X286759266Y-113484828D01*
X286739955Y-113550062D01*
X286698858Y-113628292D01*
X286628684Y-113730525D01*
X286522142Y-113867771D01*
X286371942Y-114051038D01*
X286252385Y-114194164D01*
X286079055Y-114400961D01*
X285913649Y-114598455D01*
X285768175Y-114772298D01*
X285654639Y-114908142D01*
X285591077Y-114984384D01*
X285506878Y-115091976D01*
X285472825Y-115160204D01*
X285480898Y-115211225D01*
X285499138Y-115238384D01*
X285543507Y-115293008D01*
X285632788Y-115401120D01*
X285757508Y-115551316D01*
X285908197Y-115732191D01*
X286075383Y-115932342D01*
X286087992Y-115947416D01*
X286303992Y-116205919D01*
X286471690Y-116408027D01*
X286597196Y-116562214D01*
X286686621Y-116676950D01*
X286746075Y-116760707D01*
X286781669Y-116821958D01*
X286799515Y-116869174D01*
X286805722Y-116910828D01*
X286806416Y-116943429D01*
X286798558Y-117014658D01*
X286765838Y-117062542D01*
X286694537Y-117091601D01*
X286570936Y-117106354D01*
X286381315Y-117111320D01*
X286295938Y-117111583D01*
X285919384Y-117111583D01*
X285292411Y-116360166D01*
X284665438Y-115608750D01*
X283948916Y-115608750D01*
X283927750Y-116349583D01*
X283906583Y-117090416D01*
X283514284Y-117102598D01*
X283313088Y-117105268D01*
X283184525Y-117097502D01*
X283117071Y-117078119D01*
X283101074Y-117060264D01*
X283096949Y-117007704D01*
X283093588Y-116879360D01*
X283091036Y-116684113D01*
X283089339Y-116430844D01*
X283088543Y-116128432D01*
X283088693Y-115785759D01*
X283089835Y-115411704D01*
X283091206Y-115143083D01*
X283102250Y-113280416D01*
X283906583Y-113280416D01*
X283927750Y-114000083D01*
X283948916Y-114719750D01*
X284296072Y-114732011D01*
X284643229Y-114744273D01*
X284789566Y-114583844D01*
X284866697Y-114496331D01*
X284984787Y-114358710D01*
X285130925Y-114186192D01*
X285292198Y-113993986D01*
X285392897Y-113873083D01*
X285546977Y-113688801D01*
X285684270Y-113526977D01*
X285794876Y-113399094D01*
X285868889Y-113316637D01*
X285894237Y-113291648D01*
X285953504Y-113278231D01*
X286076589Y-113267578D01*
X286242651Y-113261136D01*
X286351333Y-113259898D01*
X286764083Y-113259250D01*
X286764083Y-113421581D01*
G36*
X289240183Y-113983987D02*
X289469913Y-113995396D01*
X289649079Y-114017705D01*
X289788995Y-114052796D01*
X289900974Y-114102553D01*
X289996329Y-114168859D01*
X290066206Y-114233040D01*
X290146883Y-114324770D01*
X290209416Y-114426724D01*
X290255690Y-114550182D01*
X290287590Y-114706421D01*
X290307002Y-114906722D01*
X290315810Y-115162361D01*
X290315899Y-115484619D01*
X290312677Y-115707719D01*
X290305735Y-116021031D01*
X290295762Y-116262562D01*
X290279987Y-116445194D01*
X290255638Y-116581811D01*
X290219945Y-116685298D01*
X290170135Y-116768538D01*
X290103438Y-116844416D01*
X290058944Y-116887312D01*
X289977413Y-116956861D01*
X289892333Y-117010439D01*
X289791747Y-117050016D01*
X289663697Y-117077562D01*
X289496223Y-117095044D01*
X289277368Y-117104433D01*
X288995174Y-117107699D01*
X288723359Y-117107261D01*
X288419948Y-117103716D01*
X288149348Y-117096437D01*
X287924258Y-117086026D01*
X287757379Y-117073081D01*
X287661410Y-117058202D01*
X287657058Y-117056909D01*
X287486649Y-116966193D01*
X287331356Y-116820959D01*
X287218965Y-116650007D01*
X287189863Y-116572632D01*
X287176368Y-116482173D01*
X287164505Y-116322672D01*
X287154946Y-116109751D01*
X287148358Y-115859030D01*
X287146018Y-115642246D01*
X287950521Y-115642246D01*
X287951868Y-115845338D01*
X287956187Y-116023009D01*
X287963576Y-116157204D01*
X287974133Y-116229865D01*
X287977638Y-116236694D01*
X288027246Y-116245902D01*
X288147210Y-116253852D01*
X288323220Y-116260015D01*
X288540969Y-116263862D01*
X288740662Y-116264916D01*
X289475463Y-116264916D01*
X289463856Y-115555833D01*
X289452250Y-114846750D01*
X288735735Y-114835109D01*
X288455236Y-114832181D01*
X288249677Y-114834194D01*
X288109441Y-114841691D01*
X288024916Y-114855213D01*
X287986487Y-114875302D01*
X287984966Y-114877442D01*
X287972911Y-114936794D01*
X287963341Y-115061007D01*
X287956355Y-115232024D01*
X287952049Y-115431789D01*
X287950521Y-115642246D01*
X287146018Y-115642246D01*
X287145412Y-115586129D01*
X287145319Y-115533306D01*
X287146872Y-115199284D01*
X287153152Y-114937599D01*
X287166287Y-114735965D01*
X287188407Y-114582092D01*
X287221639Y-114463693D01*
X287268113Y-114368479D01*
X287329957Y-114284162D01*
X287369353Y-114240055D01*
X287444683Y-114164836D01*
X287520500Y-114107211D01*
X287609327Y-114064564D01*
X287723686Y-114034279D01*
X287876098Y-114013740D01*
X288079084Y-114000331D01*
X288345168Y-113991436D01*
X288583778Y-113986340D01*
X288948576Y-113981596D01*
X289240183Y-113983987D01*
X289240183Y-113983987D01*
G37*
X289240183Y-113983987D02*
X289469913Y-113995396D01*
X289649079Y-114017705D01*
X289788995Y-114052796D01*
X289900974Y-114102553D01*
X289996329Y-114168859D01*
X290066206Y-114233040D01*
X290146883Y-114324770D01*
X290209416Y-114426724D01*
X290255690Y-114550182D01*
X290287590Y-114706421D01*
X290307002Y-114906722D01*
X290315810Y-115162361D01*
X290315899Y-115484619D01*
X290312677Y-115707719D01*
X290305735Y-116021031D01*
X290295762Y-116262562D01*
X290279987Y-116445194D01*
X290255638Y-116581811D01*
X290219945Y-116685298D01*
X290170135Y-116768538D01*
X290103438Y-116844416D01*
X290058944Y-116887312D01*
X289977413Y-116956861D01*
X289892333Y-117010439D01*
X289791747Y-117050016D01*
X289663697Y-117077562D01*
X289496223Y-117095044D01*
X289277368Y-117104433D01*
X288995174Y-117107699D01*
X288723359Y-117107261D01*
X288419948Y-117103716D01*
X288149348Y-117096437D01*
X287924258Y-117086026D01*
X287757379Y-117073081D01*
X287661410Y-117058202D01*
X287657058Y-117056909D01*
X287486649Y-116966193D01*
X287331356Y-116820959D01*
X287218965Y-116650007D01*
X287189863Y-116572632D01*
X287176368Y-116482173D01*
X287164505Y-116322672D01*
X287154946Y-116109751D01*
X287148358Y-115859030D01*
X287146018Y-115642246D01*
X287950521Y-115642246D01*
X287951868Y-115845338D01*
X287956187Y-116023009D01*
X287963576Y-116157204D01*
X287974133Y-116229865D01*
X287977638Y-116236694D01*
X288027246Y-116245902D01*
X288147210Y-116253852D01*
X288323220Y-116260015D01*
X288540969Y-116263862D01*
X288740662Y-116264916D01*
X289475463Y-116264916D01*
X289463856Y-115555833D01*
X289452250Y-114846750D01*
X288735735Y-114835109D01*
X288455236Y-114832181D01*
X288249677Y-114834194D01*
X288109441Y-114841691D01*
X288024916Y-114855213D01*
X287986487Y-114875302D01*
X287984966Y-114877442D01*
X287972911Y-114936794D01*
X287963341Y-115061007D01*
X287956355Y-115232024D01*
X287952049Y-115431789D01*
X287950521Y-115642246D01*
X287146018Y-115642246D01*
X287145412Y-115586129D01*
X287145319Y-115533306D01*
X287146872Y-115199284D01*
X287153152Y-114937599D01*
X287166287Y-114735965D01*
X287188407Y-114582092D01*
X287221639Y-114463693D01*
X287268113Y-114368479D01*
X287329957Y-114284162D01*
X287369353Y-114240055D01*
X287444683Y-114164836D01*
X287520500Y-114107211D01*
X287609327Y-114064564D01*
X287723686Y-114034279D01*
X287876098Y-114013740D01*
X288079084Y-114000331D01*
X288345168Y-113991436D01*
X288583778Y-113986340D01*
X288948576Y-113981596D01*
X289240183Y-113983987D01*
G36*
X291425408Y-114001501D02*
X291488352Y-114024655D01*
X291507034Y-114054631D01*
X291521535Y-114115852D01*
X291532325Y-114217362D01*
X291539872Y-114368202D01*
X291544645Y-114577418D01*
X291547112Y-114854053D01*
X291547750Y-115170433D01*
X291547750Y-116266915D01*
X292278000Y-116255332D01*
X293008250Y-116243750D01*
X293019531Y-115135131D01*
X293023360Y-114798520D01*
X293027648Y-114536990D01*
X293033115Y-114340955D01*
X293040480Y-114200829D01*
X293050464Y-114107028D01*
X293063785Y-114049965D01*
X293081163Y-114020055D01*
X293103319Y-114007712D01*
X293104197Y-114007478D01*
X293197603Y-113994493D01*
X293333748Y-113988268D01*
X293487897Y-113988269D01*
X293635316Y-113993957D01*
X293751273Y-114004796D01*
X293811034Y-114020249D01*
X293813591Y-114022881D01*
X293819476Y-114072982D01*
X293825109Y-114196768D01*
X293830253Y-114383258D01*
X293834671Y-114621468D01*
X293838126Y-114900418D01*
X293840381Y-115209126D01*
X293840687Y-115278392D01*
X293841539Y-115656565D01*
X293840025Y-115960137D01*
X293834932Y-116199166D01*
X293825049Y-116383711D01*
X293809163Y-116523829D01*
X293786064Y-116629579D01*
X293754538Y-116711018D01*
X293713374Y-116778206D01*
X293661361Y-116841199D01*
X293651013Y-116852584D01*
X293571709Y-116931254D01*
X293487852Y-116992172D01*
X293387781Y-117037515D01*
X293259832Y-117069462D01*
X293092346Y-117090190D01*
X292873659Y-117101877D01*
X292592111Y-117106701D01*
X292288583Y-117107014D01*
X292009343Y-117104680D01*
X291752876Y-117099675D01*
X291533331Y-117092504D01*
X291364856Y-117083670D01*
X291261596Y-117073680D01*
X291242584Y-117069740D01*
X291029356Y-116962869D01*
X290858217Y-116789970D01*
X290788733Y-116673246D01*
X290763162Y-116616808D01*
X290743153Y-116558467D01*
X290728140Y-116487803D01*
X290717556Y-116394394D01*
X290710834Y-116267823D01*
X290707407Y-116097667D01*
X290706708Y-115873508D01*
X290708170Y-115584925D01*
X290711016Y-115244792D01*
X290722250Y-114000083D01*
X291075602Y-113987721D01*
X291282697Y-113987196D01*
X291425408Y-114001501D01*
X291425408Y-114001501D01*
G37*
X291425408Y-114001501D02*
X291488352Y-114024655D01*
X291507034Y-114054631D01*
X291521535Y-114115852D01*
X291532325Y-114217362D01*
X291539872Y-114368202D01*
X291544645Y-114577418D01*
X291547112Y-114854053D01*
X291547750Y-115170433D01*
X291547750Y-116266915D01*
X292278000Y-116255332D01*
X293008250Y-116243750D01*
X293019531Y-115135131D01*
X293023360Y-114798520D01*
X293027648Y-114536990D01*
X293033115Y-114340955D01*
X293040480Y-114200829D01*
X293050464Y-114107028D01*
X293063785Y-114049965D01*
X293081163Y-114020055D01*
X293103319Y-114007712D01*
X293104197Y-114007478D01*
X293197603Y-113994493D01*
X293333748Y-113988268D01*
X293487897Y-113988269D01*
X293635316Y-113993957D01*
X293751273Y-114004796D01*
X293811034Y-114020249D01*
X293813591Y-114022881D01*
X293819476Y-114072982D01*
X293825109Y-114196768D01*
X293830253Y-114383258D01*
X293834671Y-114621468D01*
X293838126Y-114900418D01*
X293840381Y-115209126D01*
X293840687Y-115278392D01*
X293841539Y-115656565D01*
X293840025Y-115960137D01*
X293834932Y-116199166D01*
X293825049Y-116383711D01*
X293809163Y-116523829D01*
X293786064Y-116629579D01*
X293754538Y-116711018D01*
X293713374Y-116778206D01*
X293661361Y-116841199D01*
X293651013Y-116852584D01*
X293571709Y-116931254D01*
X293487852Y-116992172D01*
X293387781Y-117037515D01*
X293259832Y-117069462D01*
X293092346Y-117090190D01*
X292873659Y-117101877D01*
X292592111Y-117106701D01*
X292288583Y-117107014D01*
X292009343Y-117104680D01*
X291752876Y-117099675D01*
X291533331Y-117092504D01*
X291364856Y-117083670D01*
X291261596Y-117073680D01*
X291242584Y-117069740D01*
X291029356Y-116962869D01*
X290858217Y-116789970D01*
X290788733Y-116673246D01*
X290763162Y-116616808D01*
X290743153Y-116558467D01*
X290728140Y-116487803D01*
X290717556Y-116394394D01*
X290710834Y-116267823D01*
X290707407Y-116097667D01*
X290706708Y-115873508D01*
X290708170Y-115584925D01*
X290711016Y-115244792D01*
X290722250Y-114000083D01*
X291075602Y-113987721D01*
X291282697Y-113987196D01*
X291425408Y-114001501D01*
G36*
X295251916Y-117090416D02*
X294859617Y-117102598D01*
X294663182Y-117105609D01*
X294537392Y-117098962D01*
X294468618Y-117081150D01*
X294445042Y-117056726D01*
X294436173Y-116989513D01*
X294432151Y-116861707D01*
X294433545Y-116697274D01*
X294435174Y-116642378D01*
X294447583Y-116286083D01*
X295251916Y-116286083D01*
X295251916Y-117090416D01*
X295251916Y-117090416D01*
G37*
X295251916Y-117090416D02*
X294859617Y-117102598D01*
X294663182Y-117105609D01*
X294537392Y-117098962D01*
X294468618Y-117081150D01*
X294445042Y-117056726D01*
X294436173Y-116989513D01*
X294432151Y-116861707D01*
X294433545Y-116697274D01*
X294435174Y-116642378D01*
X294447583Y-116286083D01*
X295251916Y-116286083D01*
X295251916Y-117090416D01*
G36*
X297592351Y-113395594D02*
X297604452Y-113807104D01*
X297042018Y-113818927D01*
X296809209Y-113825289D01*
X296648821Y-113833987D01*
X296548611Y-113846661D01*
X296496337Y-113864949D01*
X296479756Y-113890492D01*
X296479583Y-113894250D01*
X296493468Y-113921395D01*
X296543251Y-113941558D01*
X296641123Y-113956616D01*
X296799277Y-113968443D01*
X297029903Y-113978916D01*
X297029916Y-113978916D01*
X297580250Y-114000083D01*
X297604482Y-114825583D01*
X297052616Y-114825583D01*
X296846607Y-114826347D01*
X296674157Y-114828438D01*
X296551297Y-114831553D01*
X296494061Y-114835390D01*
X296491936Y-114836166D01*
X296488762Y-114879557D01*
X296484313Y-114996454D01*
X296478904Y-115175711D01*
X296472845Y-115406182D01*
X296466450Y-115676723D01*
X296460186Y-115968583D01*
X296437250Y-117090416D01*
X296045666Y-117102588D01*
X295654083Y-117114760D01*
X295654083Y-115341830D01*
X295654153Y-114908252D01*
X295654643Y-114550996D01*
X295655971Y-114261717D01*
X295658554Y-114032073D01*
X295662811Y-113853717D01*
X295669160Y-113718307D01*
X295678019Y-113617496D01*
X295689805Y-113542942D01*
X295704937Y-113486299D01*
X295723833Y-113439223D01*
X295746911Y-113393370D01*
X295752197Y-113383363D01*
X295873284Y-113217232D01*
X296045625Y-113097315D01*
X296126546Y-113058891D01*
X296206928Y-113031446D01*
X296303127Y-113012961D01*
X296431498Y-113001412D01*
X296608397Y-112994782D01*
X296850179Y-112991047D01*
X296910595Y-112990443D01*
X297580250Y-112984083D01*
X297592351Y-113395594D01*
X297592351Y-113395594D01*
G37*
X297592351Y-113395594D02*
X297604452Y-113807104D01*
X297042018Y-113818927D01*
X296809209Y-113825289D01*
X296648821Y-113833987D01*
X296548611Y-113846661D01*
X296496337Y-113864949D01*
X296479756Y-113890492D01*
X296479583Y-113894250D01*
X296493468Y-113921395D01*
X296543251Y-113941558D01*
X296641123Y-113956616D01*
X296799277Y-113968443D01*
X297029903Y-113978916D01*
X297029916Y-113978916D01*
X297580250Y-114000083D01*
X297604482Y-114825583D01*
X297052616Y-114825583D01*
X296846607Y-114826347D01*
X296674157Y-114828438D01*
X296551297Y-114831553D01*
X296494061Y-114835390D01*
X296491936Y-114836166D01*
X296488762Y-114879557D01*
X296484313Y-114996454D01*
X296478904Y-115175711D01*
X296472845Y-115406182D01*
X296466450Y-115676723D01*
X296460186Y-115968583D01*
X296437250Y-117090416D01*
X296045666Y-117102588D01*
X295654083Y-117114760D01*
X295654083Y-115341830D01*
X295654153Y-114908252D01*
X295654643Y-114550996D01*
X295655971Y-114261717D01*
X295658554Y-114032073D01*
X295662811Y-113853717D01*
X295669160Y-113718307D01*
X295678019Y-113617496D01*
X295689805Y-113542942D01*
X295704937Y-113486299D01*
X295723833Y-113439223D01*
X295746911Y-113393370D01*
X295752197Y-113383363D01*
X295873284Y-113217232D01*
X296045625Y-113097315D01*
X296126546Y-113058891D01*
X296206928Y-113031446D01*
X296303127Y-113012961D01*
X296431498Y-113001412D01*
X296608397Y-112994782D01*
X296850179Y-112991047D01*
X296910595Y-112990443D01*
X297580250Y-112984083D01*
X297592351Y-113395594D01*
G36*
X299654583Y-113988397D02*
X300458916Y-114000083D01*
X300480083Y-114355920D01*
X300485571Y-114538646D01*
X300479371Y-114680767D01*
X300462517Y-114762121D01*
X300458916Y-114768132D01*
X300420860Y-114789714D01*
X300337090Y-114806374D01*
X300198479Y-114818860D01*
X299995900Y-114827916D01*
X299720227Y-114834290D01*
X299633416Y-114835628D01*
X298850250Y-114846750D01*
X298807916Y-117090416D01*
X298415617Y-117102598D01*
X298221914Y-117105828D01*
X298097846Y-117099872D01*
X298028711Y-117083006D01*
X297999930Y-117053829D01*
X297994382Y-116997174D01*
X297990234Y-116867126D01*
X297987570Y-116674949D01*
X297986479Y-116431906D01*
X297987047Y-116149262D01*
X297989360Y-115838281D01*
X297990062Y-115771648D01*
X297994730Y-115392851D01*
X298000699Y-115088763D01*
X298009845Y-114849427D01*
X298024046Y-114664889D01*
X298045179Y-114525191D01*
X298075122Y-114420379D01*
X298115752Y-114340496D01*
X298168946Y-114275586D01*
X298236582Y-114215693D01*
X298291523Y-114172948D01*
X298392715Y-114108287D01*
X298512785Y-114059131D01*
X298663342Y-114023905D01*
X298855999Y-114001040D01*
X299102368Y-113988962D01*
X299414059Y-113986099D01*
X299654583Y-113988397D01*
X299654583Y-113988397D01*
G37*
X299654583Y-113988397D02*
X300458916Y-114000083D01*
X300480083Y-114355920D01*
X300485571Y-114538646D01*
X300479371Y-114680767D01*
X300462517Y-114762121D01*
X300458916Y-114768132D01*
X300420860Y-114789714D01*
X300337090Y-114806374D01*
X300198479Y-114818860D01*
X299995900Y-114827916D01*
X299720227Y-114834290D01*
X299633416Y-114835628D01*
X298850250Y-114846750D01*
X298807916Y-117090416D01*
X298415617Y-117102598D01*
X298221914Y-117105828D01*
X298097846Y-117099872D01*
X298028711Y-117083006D01*
X297999930Y-117053829D01*
X297994382Y-116997174D01*
X297990234Y-116867126D01*
X297987570Y-116674949D01*
X297986479Y-116431906D01*
X297987047Y-116149262D01*
X297989360Y-115838281D01*
X297990062Y-115771648D01*
X297994730Y-115392851D01*
X298000699Y-115088763D01*
X298009845Y-114849427D01*
X298024046Y-114664889D01*
X298045179Y-114525191D01*
X298075122Y-114420379D01*
X298115752Y-114340496D01*
X298168946Y-114275586D01*
X298236582Y-114215693D01*
X298291523Y-114172948D01*
X298392715Y-114108287D01*
X298512785Y-114059131D01*
X298663342Y-114023905D01*
X298855999Y-114001040D01*
X299102368Y-113988962D01*
X299414059Y-113986099D01*
X299654583Y-113988397D01*
G36*
X283398583Y-109076634D02*
X283595171Y-109191125D01*
X283732348Y-109278024D01*
X283825168Y-109350026D01*
X283888687Y-109419827D01*
X283937960Y-109500126D01*
X283964824Y-109554167D01*
X284048339Y-109746417D01*
X284085635Y-109896945D01*
X284073783Y-110030563D01*
X284009858Y-110172083D01*
X283890931Y-110346317D01*
X283867692Y-110377439D01*
X283763125Y-110526237D01*
X283682259Y-110659722D01*
X283637001Y-110757363D01*
X283631416Y-110784897D01*
X283627777Y-110862812D01*
X283613625Y-110940583D01*
X283584112Y-111025737D01*
X283534387Y-111125803D01*
X283459602Y-111248307D01*
X283354906Y-111400777D01*
X283215451Y-111590740D01*
X283036386Y-111825723D01*
X282812862Y-112113255D01*
X282604370Y-112379054D01*
X282382660Y-112660441D01*
X282176557Y-112920804D01*
X281992086Y-113152622D01*
X281835273Y-113348374D01*
X281712145Y-113500542D01*
X281628726Y-113601604D01*
X281591043Y-113644041D01*
X281590273Y-113644623D01*
X281531505Y-113659153D01*
X281406843Y-113676181D01*
X281234961Y-113694107D01*
X281034530Y-113711333D01*
X280824224Y-113726261D01*
X280622717Y-113737292D01*
X280448681Y-113742827D01*
X280442086Y-113742918D01*
X280298625Y-113748766D01*
X280207775Y-113770917D01*
X280137516Y-113823216D01*
X280067563Y-113904833D01*
X279987919Y-113996948D01*
X279928713Y-114052543D01*
X279912560Y-114060292D01*
X279865901Y-114036821D01*
X279769694Y-113978318D01*
X279644459Y-113897279D01*
X279640215Y-113894463D01*
X279487424Y-113805322D01*
X279333947Y-113735533D01*
X279227465Y-113703533D01*
X279122577Y-113679553D01*
X279064756Y-113654146D01*
X279060737Y-113647112D01*
X279081962Y-113597305D01*
X279134232Y-113503161D01*
X279166354Y-113449750D01*
X279228203Y-113343971D01*
X279265709Y-113269493D01*
X279270866Y-113252689D01*
X279237609Y-113217467D01*
X279152150Y-113157286D01*
X279081361Y-113113777D01*
X278961917Y-113032417D01*
X278871001Y-112950233D01*
X278844698Y-112914881D01*
X278822888Y-112826096D01*
X278819773Y-112784523D01*
X278922840Y-112784523D01*
X278953221Y-112873210D01*
X279021295Y-112919365D01*
X279036078Y-112920583D01*
X279081813Y-112888780D01*
X279167599Y-112801414D01*
X279282543Y-112670547D01*
X279415751Y-112508240D01*
X279466160Y-112444333D01*
X279590374Y-112284868D01*
X279755630Y-112072226D01*
X279951208Y-111820229D01*
X280166385Y-111542700D01*
X280390440Y-111253461D01*
X280612653Y-110966334D01*
X280640047Y-110930916D01*
X280838714Y-110674091D01*
X281020353Y-110439370D01*
X281178592Y-110234980D01*
X281307057Y-110069150D01*
X281399376Y-109950107D01*
X281449177Y-109886077D01*
X281456034Y-109877385D01*
X281495923Y-109891218D01*
X281600802Y-109938738D01*
X281760345Y-110014956D01*
X281964228Y-110114882D01*
X282202124Y-110233525D01*
X282403658Y-110335345D01*
X282664546Y-110465833D01*
X282903259Y-110581380D01*
X283108641Y-110676894D01*
X283269533Y-110747283D01*
X283374778Y-110787456D01*
X283410349Y-110794723D01*
X283402933Y-110770995D01*
X283328250Y-110715465D01*
X283195002Y-110633707D01*
X283011896Y-110531290D01*
X282932916Y-110489099D01*
X282567040Y-110295986D01*
X282268803Y-110138357D01*
X282031199Y-110011738D01*
X281847222Y-109911656D01*
X281709867Y-109833635D01*
X281612128Y-109773203D01*
X281547000Y-109725886D01*
X281507477Y-109687208D01*
X281486553Y-109652697D01*
X281477223Y-109617877D01*
X281472481Y-109578276D01*
X281469535Y-109554539D01*
X281447374Y-109460296D01*
X281422155Y-109446937D01*
X281397710Y-109510960D01*
X281378986Y-109637303D01*
X281350816Y-109733537D01*
X281273834Y-109784288D01*
X281236094Y-109795425D01*
X281195321Y-109813932D01*
X281142365Y-109854632D01*
X281072391Y-109923303D01*
X280980565Y-110025724D01*
X280862052Y-110167674D01*
X280712018Y-110354931D01*
X280525627Y-110593273D01*
X280298047Y-110888480D01*
X280047542Y-111216038D01*
X279817652Y-111517957D01*
X279602736Y-111801261D01*
X279408487Y-112058371D01*
X279240594Y-112281708D01*
X279104747Y-112463694D01*
X279006638Y-112596750D01*
X278951955Y-112673296D01*
X278943371Y-112686656D01*
X278922840Y-112784523D01*
X278819773Y-112784523D01*
X278811197Y-112670089D01*
X278810732Y-112463821D01*
X278812169Y-112415545D01*
X278826583Y-112003923D01*
X279872480Y-110608706D01*
X280102006Y-110303538D01*
X280319363Y-110016487D01*
X280518542Y-109755350D01*
X280693531Y-109527923D01*
X280838322Y-109342002D01*
X280946902Y-109205383D01*
X281013261Y-109125861D01*
X281026336Y-109112067D01*
X281120911Y-109045396D01*
X281240190Y-109014111D01*
X281356272Y-109007445D01*
X281579364Y-108976861D01*
X281595937Y-108969227D01*
X282065083Y-108969227D01*
X282100605Y-108999458D01*
X282199078Y-109062164D01*
X282348358Y-109150708D01*
X282536303Y-109258457D01*
X282750773Y-109378773D01*
X282979623Y-109505023D01*
X283210712Y-109630569D01*
X283431898Y-109748778D01*
X283631038Y-109853013D01*
X283795991Y-109936639D01*
X283914614Y-109993020D01*
X283974765Y-110015521D01*
X283979078Y-110015190D01*
X283980670Y-109969249D01*
X283955651Y-109866309D01*
X283909341Y-109727788D01*
X283904308Y-109714300D01*
X283851036Y-109575158D01*
X283810020Y-109472479D01*
X283789495Y-109426830D01*
X283788950Y-109426232D01*
X283750534Y-109404347D01*
X283653085Y-109349681D01*
X283511563Y-109270608D01*
X283349912Y-109180504D01*
X283157589Y-109075588D01*
X283016687Y-109006624D01*
X282905906Y-108966204D01*
X282803946Y-108946920D01*
X282689507Y-108941365D01*
X282661996Y-108941249D01*
X282507857Y-108948577D01*
X282420088Y-108969243D01*
X282403750Y-108988294D01*
X282441203Y-109016417D01*
X282548276Y-109008225D01*
X282643567Y-108995573D01*
X282677143Y-109013551D01*
X282671177Y-109063807D01*
X282689077Y-109141433D01*
X282767657Y-109209776D01*
X282882998Y-109256224D01*
X283011180Y-109268167D01*
X283049078Y-109263034D01*
X283134740Y-109253435D01*
X283156752Y-109277886D01*
X283150410Y-109301164D01*
X283143521Y-109335001D01*
X283159400Y-109368599D01*
X283210081Y-109411564D01*
X283307600Y-109473506D01*
X283463991Y-109564032D01*
X283518323Y-109594877D01*
X283625792Y-109661524D01*
X283690557Y-109713068D01*
X283700068Y-109733375D01*
X283657715Y-109721052D01*
X283553378Y-109673214D01*
X283398895Y-109595802D01*
X283206106Y-109494754D01*
X282986851Y-109376012D01*
X282977006Y-109370598D01*
X282678351Y-109208350D01*
X282446235Y-109087365D01*
X282274774Y-109005050D01*
X282158081Y-108958816D01*
X282090272Y-108946073D01*
X282065461Y-108964229D01*
X282065083Y-108969227D01*
X281595937Y-108969227D01*
X281703178Y-108919831D01*
X281768080Y-108883813D01*
X281849072Y-108858548D01*
X281962923Y-108841629D01*
X282126403Y-108830651D01*
X282356283Y-108823206D01*
X282380511Y-108822634D01*
X282932916Y-108809852D01*
X283398583Y-109076634D01*
X283398583Y-109076634D01*
G37*
X283398583Y-109076634D02*
X283595171Y-109191125D01*
X283732348Y-109278024D01*
X283825168Y-109350026D01*
X283888687Y-109419827D01*
X283937960Y-109500126D01*
X283964824Y-109554167D01*
X284048339Y-109746417D01*
X284085635Y-109896945D01*
X284073783Y-110030563D01*
X284009858Y-110172083D01*
X283890931Y-110346317D01*
X283867692Y-110377439D01*
X283763125Y-110526237D01*
X283682259Y-110659722D01*
X283637001Y-110757363D01*
X283631416Y-110784897D01*
X283627777Y-110862812D01*
X283613625Y-110940583D01*
X283584112Y-111025737D01*
X283534387Y-111125803D01*
X283459602Y-111248307D01*
X283354906Y-111400777D01*
X283215451Y-111590740D01*
X283036386Y-111825723D01*
X282812862Y-112113255D01*
X282604370Y-112379054D01*
X282382660Y-112660441D01*
X282176557Y-112920804D01*
X281992086Y-113152622D01*
X281835273Y-113348374D01*
X281712145Y-113500542D01*
X281628726Y-113601604D01*
X281591043Y-113644041D01*
X281590273Y-113644623D01*
X281531505Y-113659153D01*
X281406843Y-113676181D01*
X281234961Y-113694107D01*
X281034530Y-113711333D01*
X280824224Y-113726261D01*
X280622717Y-113737292D01*
X280448681Y-113742827D01*
X280442086Y-113742918D01*
X280298625Y-113748766D01*
X280207775Y-113770917D01*
X280137516Y-113823216D01*
X280067563Y-113904833D01*
X279987919Y-113996948D01*
X279928713Y-114052543D01*
X279912560Y-114060292D01*
X279865901Y-114036821D01*
X279769694Y-113978318D01*
X279644459Y-113897279D01*
X279640215Y-113894463D01*
X279487424Y-113805322D01*
X279333947Y-113735533D01*
X279227465Y-113703533D01*
X279122577Y-113679553D01*
X279064756Y-113654146D01*
X279060737Y-113647112D01*
X279081962Y-113597305D01*
X279134232Y-113503161D01*
X279166354Y-113449750D01*
X279228203Y-113343971D01*
X279265709Y-113269493D01*
X279270866Y-113252689D01*
X279237609Y-113217467D01*
X279152150Y-113157286D01*
X279081361Y-113113777D01*
X278961917Y-113032417D01*
X278871001Y-112950233D01*
X278844698Y-112914881D01*
X278822888Y-112826096D01*
X278819773Y-112784523D01*
X278922840Y-112784523D01*
X278953221Y-112873210D01*
X279021295Y-112919365D01*
X279036078Y-112920583D01*
X279081813Y-112888780D01*
X279167599Y-112801414D01*
X279282543Y-112670547D01*
X279415751Y-112508240D01*
X279466160Y-112444333D01*
X279590374Y-112284868D01*
X279755630Y-112072226D01*
X279951208Y-111820229D01*
X280166385Y-111542700D01*
X280390440Y-111253461D01*
X280612653Y-110966334D01*
X280640047Y-110930916D01*
X280838714Y-110674091D01*
X281020353Y-110439370D01*
X281178592Y-110234980D01*
X281307057Y-110069150D01*
X281399376Y-109950107D01*
X281449177Y-109886077D01*
X281456034Y-109877385D01*
X281495923Y-109891218D01*
X281600802Y-109938738D01*
X281760345Y-110014956D01*
X281964228Y-110114882D01*
X282202124Y-110233525D01*
X282403658Y-110335345D01*
X282664546Y-110465833D01*
X282903259Y-110581380D01*
X283108641Y-110676894D01*
X283269533Y-110747283D01*
X283374778Y-110787456D01*
X283410349Y-110794723D01*
X283402933Y-110770995D01*
X283328250Y-110715465D01*
X283195002Y-110633707D01*
X283011896Y-110531290D01*
X282932916Y-110489099D01*
X282567040Y-110295986D01*
X282268803Y-110138357D01*
X282031199Y-110011738D01*
X281847222Y-109911656D01*
X281709867Y-109833635D01*
X281612128Y-109773203D01*
X281547000Y-109725886D01*
X281507477Y-109687208D01*
X281486553Y-109652697D01*
X281477223Y-109617877D01*
X281472481Y-109578276D01*
X281469535Y-109554539D01*
X281447374Y-109460296D01*
X281422155Y-109446937D01*
X281397710Y-109510960D01*
X281378986Y-109637303D01*
X281350816Y-109733537D01*
X281273834Y-109784288D01*
X281236094Y-109795425D01*
X281195321Y-109813932D01*
X281142365Y-109854632D01*
X281072391Y-109923303D01*
X280980565Y-110025724D01*
X280862052Y-110167674D01*
X280712018Y-110354931D01*
X280525627Y-110593273D01*
X280298047Y-110888480D01*
X280047542Y-111216038D01*
X279817652Y-111517957D01*
X279602736Y-111801261D01*
X279408487Y-112058371D01*
X279240594Y-112281708D01*
X279104747Y-112463694D01*
X279006638Y-112596750D01*
X278951955Y-112673296D01*
X278943371Y-112686656D01*
X278922840Y-112784523D01*
X278819773Y-112784523D01*
X278811197Y-112670089D01*
X278810732Y-112463821D01*
X278812169Y-112415545D01*
X278826583Y-112003923D01*
X279872480Y-110608706D01*
X280102006Y-110303538D01*
X280319363Y-110016487D01*
X280518542Y-109755350D01*
X280693531Y-109527923D01*
X280838322Y-109342002D01*
X280946902Y-109205383D01*
X281013261Y-109125861D01*
X281026336Y-109112067D01*
X281120911Y-109045396D01*
X281240190Y-109014111D01*
X281356272Y-109007445D01*
X281579364Y-108976861D01*
X281595937Y-108969227D01*
X282065083Y-108969227D01*
X282100605Y-108999458D01*
X282199078Y-109062164D01*
X282348358Y-109150708D01*
X282536303Y-109258457D01*
X282750773Y-109378773D01*
X282979623Y-109505023D01*
X283210712Y-109630569D01*
X283431898Y-109748778D01*
X283631038Y-109853013D01*
X283795991Y-109936639D01*
X283914614Y-109993020D01*
X283974765Y-110015521D01*
X283979078Y-110015190D01*
X283980670Y-109969249D01*
X283955651Y-109866309D01*
X283909341Y-109727788D01*
X283904308Y-109714300D01*
X283851036Y-109575158D01*
X283810020Y-109472479D01*
X283789495Y-109426830D01*
X283788950Y-109426232D01*
X283750534Y-109404347D01*
X283653085Y-109349681D01*
X283511563Y-109270608D01*
X283349912Y-109180504D01*
X283157589Y-109075588D01*
X283016687Y-109006624D01*
X282905906Y-108966204D01*
X282803946Y-108946920D01*
X282689507Y-108941365D01*
X282661996Y-108941249D01*
X282507857Y-108948577D01*
X282420088Y-108969243D01*
X282403750Y-108988294D01*
X282441203Y-109016417D01*
X282548276Y-109008225D01*
X282643567Y-108995573D01*
X282677143Y-109013551D01*
X282671177Y-109063807D01*
X282689077Y-109141433D01*
X282767657Y-109209776D01*
X282882998Y-109256224D01*
X283011180Y-109268167D01*
X283049078Y-109263034D01*
X283134740Y-109253435D01*
X283156752Y-109277886D01*
X283150410Y-109301164D01*
X283143521Y-109335001D01*
X283159400Y-109368599D01*
X283210081Y-109411564D01*
X283307600Y-109473506D01*
X283463991Y-109564032D01*
X283518323Y-109594877D01*
X283625792Y-109661524D01*
X283690557Y-109713068D01*
X283700068Y-109733375D01*
X283657715Y-109721052D01*
X283553378Y-109673214D01*
X283398895Y-109595802D01*
X283206106Y-109494754D01*
X282986851Y-109376012D01*
X282977006Y-109370598D01*
X282678351Y-109208350D01*
X282446235Y-109087365D01*
X282274774Y-109005050D01*
X282158081Y-108958816D01*
X282090272Y-108946073D01*
X282065461Y-108964229D01*
X282065083Y-108969227D01*
X281595937Y-108969227D01*
X281703178Y-108919831D01*
X281768080Y-108883813D01*
X281849072Y-108858548D01*
X281962923Y-108841629D01*
X282126403Y-108830651D01*
X282356283Y-108823206D01*
X282380511Y-108822634D01*
X282932916Y-108809852D01*
X283398583Y-109076634D01*
G36*
X273266992Y-109024187D02*
X273478613Y-109048436D01*
X273685709Y-109087151D01*
X273870870Y-109139447D01*
X273898109Y-109149321D01*
X274104068Y-109249281D01*
X274299232Y-109383305D01*
X274458870Y-109532053D01*
X274549927Y-109659003D01*
X274589536Y-109746340D01*
X274649332Y-109891008D01*
X274720336Y-110070856D01*
X274775604Y-110215671D01*
X274966617Y-110684845D01*
X275159591Y-111082295D01*
X275347998Y-111396583D01*
X275409251Y-111473753D01*
X275521481Y-111602308D01*
X275676355Y-111773207D01*
X275865540Y-111977413D01*
X276080704Y-112205886D01*
X276313513Y-112449589D01*
X276430415Y-112570697D01*
X276662969Y-112811596D01*
X276877204Y-113035076D01*
X277065799Y-113233380D01*
X277221436Y-113398749D01*
X277336792Y-113523425D01*
X277404548Y-113599650D01*
X277419065Y-113618447D01*
X277425626Y-113648942D01*
X277394821Y-113668070D01*
X277313053Y-113678334D01*
X277166726Y-113682236D01*
X277070493Y-113682583D01*
X276836719Y-113690758D01*
X276649064Y-113713722D01*
X276541482Y-113742979D01*
X276396934Y-113803375D01*
X276346741Y-113651291D01*
X276264680Y-113491957D01*
X276131134Y-113322644D01*
X275971002Y-113169892D01*
X275809187Y-113060241D01*
X275778583Y-113045719D01*
X275623245Y-112991890D01*
X275451035Y-112950732D01*
X275413776Y-112944688D01*
X275332036Y-112928519D01*
X275254734Y-112898816D01*
X275168680Y-112846348D01*
X275060686Y-112761880D01*
X274917562Y-112636180D01*
X274740503Y-112473380D01*
X274478597Y-112239782D01*
X274251086Y-112062004D01*
X274039421Y-111929791D01*
X273825055Y-111832889D01*
X273589439Y-111761046D01*
X273365583Y-111713309D01*
X273165539Y-111668017D01*
X272970599Y-111609991D01*
X272815171Y-111549839D01*
X272782480Y-111533555D01*
X272575136Y-111393038D01*
X272382405Y-111210525D01*
X272216424Y-111003174D01*
X272089330Y-110788144D01*
X272013258Y-110582594D01*
X271998050Y-110424514D01*
X272010916Y-110262974D01*
X272455416Y-110542873D01*
X272692376Y-110686534D01*
X272876071Y-110780129D01*
X273020845Y-110824560D01*
X273141041Y-110820728D01*
X273251003Y-110769532D01*
X273365075Y-110671874D01*
X273429836Y-110604055D01*
X273581010Y-110406437D01*
X273694686Y-110191671D01*
X273758444Y-109986004D01*
X273767749Y-109889971D01*
X273748667Y-109816210D01*
X273685991Y-109735196D01*
X273571583Y-109640317D01*
X273397300Y-109524958D01*
X273155002Y-109382504D01*
X273116141Y-109360557D01*
X272953770Y-109264955D01*
X272824865Y-109180900D01*
X272743871Y-109118364D01*
X272723488Y-109089569D01*
X272779095Y-109047096D01*
X272899822Y-109022631D01*
X273068258Y-109015291D01*
X273266992Y-109024187D01*
X273266992Y-109024187D01*
G37*
X273266992Y-109024187D02*
X273478613Y-109048436D01*
X273685709Y-109087151D01*
X273870870Y-109139447D01*
X273898109Y-109149321D01*
X274104068Y-109249281D01*
X274299232Y-109383305D01*
X274458870Y-109532053D01*
X274549927Y-109659003D01*
X274589536Y-109746340D01*
X274649332Y-109891008D01*
X274720336Y-110070856D01*
X274775604Y-110215671D01*
X274966617Y-110684845D01*
X275159591Y-111082295D01*
X275347998Y-111396583D01*
X275409251Y-111473753D01*
X275521481Y-111602308D01*
X275676355Y-111773207D01*
X275865540Y-111977413D01*
X276080704Y-112205886D01*
X276313513Y-112449589D01*
X276430415Y-112570697D01*
X276662969Y-112811596D01*
X276877204Y-113035076D01*
X277065799Y-113233380D01*
X277221436Y-113398749D01*
X277336792Y-113523425D01*
X277404548Y-113599650D01*
X277419065Y-113618447D01*
X277425626Y-113648942D01*
X277394821Y-113668070D01*
X277313053Y-113678334D01*
X277166726Y-113682236D01*
X277070493Y-113682583D01*
X276836719Y-113690758D01*
X276649064Y-113713722D01*
X276541482Y-113742979D01*
X276396934Y-113803375D01*
X276346741Y-113651291D01*
X276264680Y-113491957D01*
X276131134Y-113322644D01*
X275971002Y-113169892D01*
X275809187Y-113060241D01*
X275778583Y-113045719D01*
X275623245Y-112991890D01*
X275451035Y-112950732D01*
X275413776Y-112944688D01*
X275332036Y-112928519D01*
X275254734Y-112898816D01*
X275168680Y-112846348D01*
X275060686Y-112761880D01*
X274917562Y-112636180D01*
X274740503Y-112473380D01*
X274478597Y-112239782D01*
X274251086Y-112062004D01*
X274039421Y-111929791D01*
X273825055Y-111832889D01*
X273589439Y-111761046D01*
X273365583Y-111713309D01*
X273165539Y-111668017D01*
X272970599Y-111609991D01*
X272815171Y-111549839D01*
X272782480Y-111533555D01*
X272575136Y-111393038D01*
X272382405Y-111210525D01*
X272216424Y-111003174D01*
X272089330Y-110788144D01*
X272013258Y-110582594D01*
X271998050Y-110424514D01*
X272010916Y-110262974D01*
X272455416Y-110542873D01*
X272692376Y-110686534D01*
X272876071Y-110780129D01*
X273020845Y-110824560D01*
X273141041Y-110820728D01*
X273251003Y-110769532D01*
X273365075Y-110671874D01*
X273429836Y-110604055D01*
X273581010Y-110406437D01*
X273694686Y-110191671D01*
X273758444Y-109986004D01*
X273767749Y-109889971D01*
X273748667Y-109816210D01*
X273685991Y-109735196D01*
X273571583Y-109640317D01*
X273397300Y-109524958D01*
X273155002Y-109382504D01*
X273116141Y-109360557D01*
X272953770Y-109264955D01*
X272824865Y-109180900D01*
X272743871Y-109118364D01*
X272723488Y-109089569D01*
X272779095Y-109047096D01*
X272899822Y-109022631D01*
X273068258Y-109015291D01*
X273266992Y-109024187D01*
D12*
X307112500Y-99781250D02*
X308890500Y-99781250D01*
X318034500Y-99781250D02*
X319812500Y-99781250D01*
X319812500Y-99781250D02*
X319812500Y-101559250D01*
X319812500Y-110703250D02*
X319812500Y-112481250D01*
X319812500Y-112481250D02*
X318034500Y-112481250D01*
X308890500Y-112481250D02*
X307112500Y-112481250D01*
X307112500Y-112481250D02*
X307112500Y-110703250D01*
X307112500Y-101559250D02*
X307112500Y-99781250D01*
X323781250Y-42631250D02*
X325559250Y-42631250D01*
X334703250Y-42631250D02*
X336481250Y-42631250D01*
X336481250Y-42631250D02*
X336481250Y-44409250D01*
X336481250Y-53553250D02*
X336481250Y-55331250D01*
X336481250Y-55331250D02*
X334703250Y-55331250D01*
X325559250Y-55331250D02*
X323781250Y-55331250D01*
X323781250Y-55331250D02*
X323781250Y-53553250D01*
X323781250Y-44409250D02*
X323781250Y-42631250D01*
X321400000Y-80731250D02*
X323178000Y-80731250D01*
X332322000Y-80731250D02*
X334100000Y-80731250D01*
X334100000Y-80731250D02*
X334100000Y-82509250D01*
X334100000Y-91653250D02*
X334100000Y-93431250D01*
X334100000Y-93431250D02*
X332322000Y-93431250D01*
X323178000Y-93431250D02*
X321400000Y-93431250D01*
X321400000Y-93431250D02*
X321400000Y-91653250D01*
X321400000Y-82509250D02*
X321400000Y-80731250D01*
X316637500Y-99781250D02*
X318415500Y-99781250D01*
X327559500Y-99781250D02*
X329337500Y-99781250D01*
X329337500Y-99781250D02*
X329337500Y-101559250D01*
X329337500Y-110703250D02*
X329337500Y-112481250D01*
X329337500Y-112481250D02*
X327559500Y-112481250D01*
X318415500Y-112481250D02*
X316637500Y-112481250D01*
X316637500Y-112481250D02*
X316637500Y-110703250D01*
X316637500Y-101559250D02*
X316637500Y-99781250D01*
X180906250Y-118831250D02*
X182684250Y-118831250D01*
X191828250Y-118831250D02*
X193606250Y-118831250D01*
X193606250Y-118831250D02*
X193606250Y-120609250D01*
X193606250Y-129753250D02*
X193606250Y-131531250D01*
X193606250Y-131531250D02*
X191828250Y-131531250D01*
X182684250Y-131531250D02*
X180906250Y-131531250D01*
X180906250Y-131531250D02*
X180906250Y-129753250D01*
X180906250Y-120609250D02*
X180906250Y-118831250D01*
X188050000Y-118831250D02*
X189828000Y-118831250D01*
X198972000Y-118831250D02*
X200750000Y-118831250D01*
X200750000Y-118831250D02*
X200750000Y-120609250D01*
X200750000Y-129753250D02*
X200750000Y-131531250D01*
X200750000Y-131531250D02*
X198972000Y-131531250D01*
X189828000Y-131531250D02*
X188050000Y-131531250D01*
X188050000Y-131531250D02*
X188050000Y-129753250D01*
X188050000Y-120609250D02*
X188050000Y-118831250D01*
X199956250Y-118831250D02*
X201734250Y-118831250D01*
X210878250Y-118831250D02*
X212656250Y-118831250D01*
X212656250Y-118831250D02*
X212656250Y-120609250D01*
X212656250Y-129753250D02*
X212656250Y-131531250D01*
X212656250Y-131531250D02*
X210878250Y-131531250D01*
X201734250Y-131531250D02*
X199956250Y-131531250D01*
X199956250Y-131531250D02*
X199956250Y-129753250D01*
X199956250Y-120609250D02*
X199956250Y-118831250D01*
X78486250Y-99781250D02*
X80264250Y-99781250D01*
X89408250Y-99781250D02*
X91186250Y-99781250D01*
X91186250Y-99781250D02*
X91186250Y-101559250D01*
X91186250Y-110703250D02*
X91186250Y-112481250D01*
X91186250Y-112481250D02*
X89408250Y-112481250D01*
X80264250Y-112481250D02*
X78486250Y-112481250D01*
X78486250Y-112481250D02*
X78486250Y-110703250D01*
X78486250Y-101559250D02*
X78486250Y-99781250D01*
X68961250Y-99781250D02*
X70739250Y-99781250D01*
X79883250Y-99781250D02*
X81661250Y-99781250D01*
X81661250Y-99781250D02*
X81661250Y-101559250D01*
X81661250Y-110703250D02*
X81661250Y-112481250D01*
X81661250Y-112481250D02*
X79883250Y-112481250D01*
X70739250Y-112481250D02*
X68961250Y-112481250D01*
X68961250Y-112481250D02*
X68961250Y-110703250D01*
X68961250Y-101559250D02*
X68961250Y-99781250D01*
X321627750Y-59649250D02*
X321627750Y-40980250D01*
X321627750Y-40980250D02*
X314769750Y-40980250D01*
X314769750Y-40980250D02*
X314769750Y-59649250D01*
X314769750Y-59649250D02*
X321627750Y-59649250D01*
X347821500Y-59649250D02*
X347821500Y-40980250D01*
X347821500Y-40980250D02*
X340963500Y-40980250D01*
X340963500Y-40980250D02*
X340963500Y-59649250D01*
X340963500Y-59649250D02*
X347821500Y-59649250D01*
X319246500Y-97749250D02*
X319246500Y-79080250D01*
X319246500Y-79080250D02*
X312388500Y-79080250D01*
X312388500Y-79080250D02*
X312388500Y-97749250D01*
X312388500Y-97749250D02*
X319246500Y-97749250D01*
X343059000Y-97749250D02*
X343059000Y-79080250D01*
X343059000Y-79080250D02*
X336201000Y-79080250D01*
X336201000Y-79080250D02*
X336201000Y-97749250D01*
X336201000Y-97749250D02*
X343059000Y-97749250D01*
X347916750Y-62221000D02*
X329247750Y-62221000D01*
X329247750Y-62221000D02*
X329247750Y-69079000D01*
X329247750Y-69079000D02*
X347916750Y-69079000D01*
X347916750Y-69079000D02*
X347916750Y-62221000D01*
X347916750Y-86033500D02*
X329247750Y-86033500D01*
X329247750Y-86033500D02*
X329247750Y-92891500D01*
X329247750Y-92891500D02*
X347916750Y-92891500D01*
X347916750Y-92891500D02*
X347916750Y-86033500D01*
X76359000Y-116799250D02*
X76359000Y-98130250D01*
X76359000Y-98130250D02*
X69501000Y-98130250D01*
X69501000Y-98130250D02*
X69501000Y-116799250D01*
X69501000Y-116799250D02*
X76359000Y-116799250D01*
X100171500Y-116799250D02*
X100171500Y-98130250D01*
X100171500Y-98130250D02*
X93313500Y-98130250D01*
X93313500Y-98130250D02*
X93313500Y-116799250D01*
X93313500Y-116799250D02*
X100171500Y-116799250D01*
X314484000Y-116799250D02*
X314484000Y-98130250D01*
X314484000Y-98130250D02*
X307626000Y-98130250D01*
X307626000Y-98130250D02*
X307626000Y-116799250D01*
X307626000Y-116799250D02*
X314484000Y-116799250D01*
X338296500Y-116799250D02*
X338296500Y-98130250D01*
X338296500Y-98130250D02*
X331438500Y-98130250D01*
X331438500Y-98130250D02*
X331438500Y-116799250D01*
X331438500Y-116799250D02*
X338296500Y-116799250D01*
X240951000Y-114513250D02*
X240951000Y-133182250D01*
X240951000Y-133182250D02*
X247809000Y-133182250D01*
X247809000Y-133182250D02*
X247809000Y-114513250D01*
X247809000Y-114513250D02*
X240951000Y-114513250D01*
X145701000Y-114513250D02*
X145701000Y-133182250D01*
X145701000Y-133182250D02*
X152559000Y-133182250D01*
X152559000Y-133182250D02*
X152559000Y-114513250D01*
X152559000Y-114513250D02*
X145701000Y-114513250D01*
X260001000Y-114513250D02*
X260001000Y-133182250D01*
X260001000Y-133182250D02*
X266859000Y-133182250D01*
X266859000Y-133182250D02*
X266859000Y-114513250D01*
X266859000Y-114513250D02*
X260001000Y-114513250D01*
X204692500Y-137881250D02*
X206470500Y-137881250D01*
X215614500Y-137881250D02*
X217392500Y-137881250D01*
X217392500Y-137881250D02*
X217392500Y-139659250D01*
X217392500Y-148803250D02*
X217392500Y-150581250D01*
X217392500Y-150581250D02*
X215614500Y-150581250D01*
X206470500Y-150581250D02*
X204692500Y-150581250D01*
X204692500Y-150581250D02*
X204692500Y-148803250D01*
X204692500Y-139659250D02*
X204692500Y-137881250D01*
X207073750Y-137881250D02*
X208851750Y-137881250D01*
X217995750Y-137881250D02*
X219773750Y-137881250D01*
X219773750Y-137881250D02*
X219773750Y-139659250D01*
X219773750Y-148803250D02*
X219773750Y-150581250D01*
X219773750Y-150581250D02*
X217995750Y-150581250D01*
X208851750Y-150581250D02*
X207073750Y-150581250D01*
X207073750Y-150581250D02*
X207073750Y-148803250D01*
X207073750Y-139659250D02*
X207073750Y-137881250D01*
X212384750Y-114513250D02*
X212384750Y-133182250D01*
X212384750Y-133182250D02*
X219242750Y-133182250D01*
X219242750Y-133182250D02*
X219242750Y-114513250D01*
X219242750Y-114513250D02*
X212384750Y-114513250D01*
X169522250Y-114513250D02*
X169522250Y-133182250D01*
X169522250Y-133182250D02*
X176380250Y-133182250D01*
X176380250Y-133182250D02*
X176380250Y-114513250D01*
X176380250Y-114513250D02*
X169522250Y-114513250D01*
X185651250Y-118831250D02*
X187429250Y-118831250D01*
X196573250Y-118831250D02*
X198351250Y-118831250D01*
X198351250Y-118831250D02*
X198351250Y-120609250D01*
X198351250Y-129753250D02*
X198351250Y-131531250D01*
X198351250Y-131531250D02*
X196573250Y-131531250D01*
X187429250Y-131531250D02*
X185651250Y-131531250D01*
X185651250Y-131531250D02*
X185651250Y-129753250D01*
X185651250Y-120609250D02*
X185651250Y-118831250D01*
X154695000Y-118831250D02*
X156473000Y-118831250D01*
X165617000Y-118831250D02*
X167395000Y-118831250D01*
X167395000Y-118831250D02*
X167395000Y-120609250D01*
X167395000Y-129753250D02*
X167395000Y-131531250D01*
X167395000Y-131531250D02*
X165617000Y-131531250D01*
X156473000Y-131531250D02*
X154695000Y-131531250D01*
X154695000Y-131531250D02*
X154695000Y-129753250D01*
X154695000Y-120609250D02*
X154695000Y-118831250D01*
X221370000Y-118831250D02*
X223148000Y-118831250D01*
X232292000Y-118831250D02*
X234070000Y-118831250D01*
X234070000Y-118831250D02*
X234070000Y-120609250D01*
X234070000Y-129753250D02*
X234070000Y-131531250D01*
X234070000Y-131531250D02*
X232292000Y-131531250D01*
X223148000Y-131531250D02*
X221370000Y-131531250D01*
X221370000Y-131531250D02*
X221370000Y-129753250D01*
X221370000Y-120609250D02*
X221370000Y-118831250D01*
X236197250Y-114513250D02*
X236197250Y-133182250D01*
X236197250Y-133182250D02*
X243055250Y-133182250D01*
X243055250Y-133182250D02*
X243055250Y-114513250D01*
X243055250Y-114513250D02*
X236197250Y-114513250D01*
D15*
X190435476Y-132024107D02*
X190549762Y-132062202D01*
X190587857Y-132100298D01*
X190625952Y-132176488D01*
X190625952Y-132290774D01*
X190587857Y-132366964D01*
X190549762Y-132405060D01*
X190473571Y-132443155D01*
X190168809Y-132443155D01*
X190168809Y-131643155D01*
X190435476Y-131643155D01*
X190511666Y-131681250D01*
X190549762Y-131719345D01*
X190587857Y-131795536D01*
X190587857Y-131871726D01*
X190549762Y-131947917D01*
X190511666Y-131986012D01*
X190435476Y-132024107D01*
X190168809Y-132024107D01*
X191349762Y-132443155D02*
X190968809Y-132443155D01*
X190968809Y-131643155D01*
X191959285Y-131643155D02*
X191806904Y-131643155D01*
X191730714Y-131681250D01*
X191692619Y-131719345D01*
X191616428Y-131833631D01*
X191578333Y-131986012D01*
X191578333Y-132290774D01*
X191616428Y-132366964D01*
X191654523Y-132405060D01*
X191730714Y-132443155D01*
X191883095Y-132443155D01*
X191959285Y-132405060D01*
X191997381Y-132366964D01*
X192035476Y-132290774D01*
X192035476Y-132100298D01*
X191997381Y-132024107D01*
X191959285Y-131986012D01*
X191883095Y-131947917D01*
X191730714Y-131947917D01*
X191654523Y-131986012D01*
X191616428Y-132024107D01*
X191578333Y-132100298D01*
X192721190Y-131909821D02*
X192721190Y-132443155D01*
X192530714Y-131605060D02*
X192340238Y-132176488D01*
X192835476Y-132176488D01*
X193064048Y-131643155D02*
X193559286Y-131643155D01*
X193292619Y-131947917D01*
X193406905Y-131947917D01*
X193483095Y-131986012D01*
X193521191Y-132024107D01*
X193559286Y-132100298D01*
X193559286Y-132290774D01*
X193521191Y-132366964D01*
X193483095Y-132405060D01*
X193406905Y-132443155D01*
X193178333Y-132443155D01*
X193102143Y-132405060D01*
X193064048Y-132366964D01*
M02*
