G04 #@! TF.FileFunction,Paste,Bot*
%FSLAX46Y46*%
G04 Gerber Fmt 4.6, Leading zero omitted, Abs format (unit mm)*
G04 Created by KiCad (PCBNEW 4.0.5+dfsg1-4) date Thu Jun 29 09:06:05 2017*
%MOMM*%
%LPD*%
G01*
G04 APERTURE LIST*
%ADD10C,0.100000*%
%ADD11R,1.250000X1.500000*%
%ADD12R,1.500000X1.250000*%
%ADD13R,1.200000X1.400000*%
%ADD14R,1.400000X1.200000*%
%ADD15R,0.500000X1.400000*%
%ADD16O,1.300000X3.800000*%
%ADD17R,1.500000X1.300000*%
%ADD18R,1.300000X1.500000*%
%ADD19R,1.000000X1.700000*%
%ADD20R,0.550000X1.500000*%
%ADD21R,1.500000X0.550000*%
%ADD22R,1.500000X3.600000*%
%ADD23R,1.060000X0.650000*%
%ADD24R,1.000000X1.651000*%
G04 APERTURE END LIST*
D10*
G36*
X144239449Y-103669195D02*
X143355565Y-102785311D01*
X144416225Y-101724651D01*
X145300109Y-102608535D01*
X144239449Y-103669195D01*
X144239449Y-103669195D01*
G37*
G36*
X146007215Y-101901429D02*
X145123331Y-101017545D01*
X146183991Y-99956885D01*
X147067875Y-100840769D01*
X146007215Y-101901429D01*
X146007215Y-101901429D01*
G37*
G36*
X145183991Y-109206885D02*
X146067875Y-110090769D01*
X145007215Y-111151429D01*
X144123331Y-110267545D01*
X145183991Y-109206885D01*
X145183991Y-109206885D01*
G37*
G36*
X143416225Y-110974651D02*
X144300109Y-111858535D01*
X143239449Y-112919195D01*
X142355565Y-112035311D01*
X143416225Y-110974651D01*
X143416225Y-110974651D01*
G37*
D11*
X133787500Y-96007500D03*
X133787500Y-93507500D03*
D12*
X117000000Y-107000000D03*
X114500000Y-107000000D03*
X121500000Y-99000000D03*
X119000000Y-99000000D03*
X137750000Y-112500000D03*
X140250000Y-112500000D03*
D11*
X142711720Y-97813040D03*
X142711720Y-100313040D03*
X44000000Y-41000000D03*
X44000000Y-38500000D03*
X241211720Y-130063040D03*
X241211720Y-132563040D03*
D10*
G36*
X33717157Y-42227207D02*
X32727207Y-43217157D01*
X31878679Y-42368629D01*
X32868629Y-41378679D01*
X33717157Y-42227207D01*
X33717157Y-42227207D01*
G37*
G36*
X36121321Y-44631371D02*
X35131371Y-45621321D01*
X34282843Y-44772793D01*
X35272793Y-43782843D01*
X36121321Y-44631371D01*
X36121321Y-44631371D01*
G37*
D13*
X61550000Y-60500000D03*
X64950000Y-60500000D03*
X57300000Y-76500000D03*
X60700000Y-76500000D03*
X52550000Y-96750000D03*
X55950000Y-96750000D03*
X51121720Y-112443040D03*
X54521720Y-112443040D03*
D14*
X67000000Y-38050000D03*
X67000000Y-41450000D03*
X75250000Y-55300000D03*
X75250000Y-58700000D03*
X81228750Y-74706250D03*
X81228750Y-78106250D03*
X69750000Y-93300000D03*
X69750000Y-96700000D03*
X76750000Y-105550000D03*
X76750000Y-108950000D03*
X86250000Y-38050000D03*
X86250000Y-41450000D03*
X95000000Y-55300000D03*
X95000000Y-58700000D03*
X101478750Y-74706250D03*
X101478750Y-78106250D03*
X91000000Y-93550000D03*
X91000000Y-96950000D03*
X100037500Y-105307500D03*
X100037500Y-108707500D03*
X105500000Y-38050000D03*
X105500000Y-41450000D03*
X113750000Y-55300000D03*
X113750000Y-58700000D03*
X118978750Y-74706250D03*
X118978750Y-78106250D03*
X110000000Y-89300000D03*
X110000000Y-92700000D03*
X124250000Y-38050000D03*
X124250000Y-41450000D03*
X133000000Y-55300000D03*
X133000000Y-58700000D03*
X134728750Y-74706250D03*
X134728750Y-78106250D03*
X126000000Y-91550000D03*
X126000000Y-94950000D03*
X144000000Y-38050000D03*
X144000000Y-41450000D03*
X152000000Y-55300000D03*
X152000000Y-58700000D03*
X138978750Y-74706250D03*
X138978750Y-78106250D03*
X149250000Y-93050000D03*
X149250000Y-96450000D03*
X163500000Y-38050000D03*
X163500000Y-41450000D03*
X172537500Y-55307500D03*
X172537500Y-58707500D03*
X176750000Y-74300000D03*
X176750000Y-77700000D03*
X166250000Y-93050000D03*
X166250000Y-96450000D03*
D13*
X178800000Y-104750000D03*
X182200000Y-104750000D03*
D14*
X181250000Y-38050000D03*
X181250000Y-41450000D03*
X191037500Y-55307500D03*
X191037500Y-58707500D03*
X194000000Y-74300000D03*
X194000000Y-77700000D03*
X185000000Y-91300000D03*
X185000000Y-94700000D03*
X200750000Y-38050000D03*
X200750000Y-41450000D03*
X210037500Y-55307500D03*
X210037500Y-58707500D03*
X215250000Y-74300000D03*
X215250000Y-77700000D03*
X206500000Y-89800000D03*
X206500000Y-93200000D03*
X218750000Y-38050000D03*
X218750000Y-41450000D03*
X228537500Y-55307500D03*
X228537500Y-58707500D03*
X234500000Y-74300000D03*
X234500000Y-77700000D03*
X222478750Y-90956250D03*
X222478750Y-94356250D03*
X311500000Y-34800000D03*
X311500000Y-38200000D03*
X237750000Y-38050000D03*
X237750000Y-41450000D03*
X247287500Y-55307500D03*
X247287500Y-58707500D03*
X252211720Y-74113040D03*
X252211720Y-77513040D03*
X246478750Y-93456250D03*
X246478750Y-96856250D03*
X242321720Y-103393040D03*
X242321720Y-99993040D03*
X257500000Y-38050000D03*
X257500000Y-41450000D03*
X265287500Y-55307500D03*
X265287500Y-58707500D03*
X269211720Y-74113040D03*
X269211720Y-77513040D03*
X265478750Y-93456250D03*
X265478750Y-96856250D03*
X265250000Y-104200000D03*
X265250000Y-100800000D03*
X274000000Y-38050000D03*
X274000000Y-41450000D03*
X284000000Y-55300000D03*
X284000000Y-58700000D03*
X287500000Y-75300000D03*
X287500000Y-78700000D03*
X292571720Y-91243040D03*
X292571720Y-94643040D03*
X268750000Y-104200000D03*
X268750000Y-100800000D03*
D13*
X292200000Y-42500000D03*
X288800000Y-42500000D03*
X290950000Y-58750000D03*
X287550000Y-58750000D03*
D10*
G36*
X297022793Y-79467157D02*
X296032843Y-78477207D01*
X296881371Y-77628679D01*
X297871321Y-78618629D01*
X297022793Y-79467157D01*
X297022793Y-79467157D01*
G37*
G36*
X294618629Y-81871321D02*
X293628679Y-80881371D01*
X294477207Y-80032843D01*
X295467157Y-81022793D01*
X294618629Y-81871321D01*
X294618629Y-81871321D01*
G37*
D14*
X309250000Y-92300000D03*
X309250000Y-95700000D03*
X310211720Y-100613040D03*
X310211720Y-104013040D03*
D15*
X45650000Y-26750000D03*
X46450000Y-26750000D03*
X47250000Y-26750000D03*
X48050000Y-26750000D03*
X48850000Y-26750000D03*
D16*
X43600000Y-24350000D03*
X50900000Y-24350000D03*
D17*
X138850000Y-98500000D03*
X136150000Y-98500000D03*
X108471720Y-105693040D03*
X111171720Y-105693040D03*
D18*
X46500000Y-37350000D03*
X46500000Y-34650000D03*
X49000000Y-34650000D03*
X49000000Y-37350000D03*
X52750000Y-75600000D03*
X52750000Y-72900000D03*
D10*
G36*
X229906263Y-131838345D02*
X228987025Y-132757583D01*
X227926365Y-131696923D01*
X228845603Y-130777685D01*
X229906263Y-131838345D01*
X229906263Y-131838345D01*
G37*
G36*
X227997075Y-129929157D02*
X227077837Y-130848395D01*
X226017177Y-129787735D01*
X226936415Y-128868497D01*
X227997075Y-129929157D01*
X227997075Y-129929157D01*
G37*
D18*
X263211720Y-133913040D03*
X263211720Y-131213040D03*
X255961720Y-129963040D03*
X255961720Y-132663040D03*
D19*
X56250000Y-66950000D03*
X56250000Y-73250000D03*
X60050000Y-66950000D03*
X60050000Y-73250000D03*
D20*
X124000000Y-101050000D03*
X124800000Y-101050000D03*
X125600000Y-101050000D03*
X126400000Y-101050000D03*
X127200000Y-101050000D03*
X128000000Y-101050000D03*
X128800000Y-101050000D03*
X129600000Y-101050000D03*
X130400000Y-101050000D03*
X131200000Y-101050000D03*
X132000000Y-101050000D03*
D21*
X133700000Y-102750000D03*
X133700000Y-103550000D03*
X133700000Y-104350000D03*
X133700000Y-105150000D03*
X133700000Y-105950000D03*
X133700000Y-106750000D03*
X133700000Y-107550000D03*
X133700000Y-108350000D03*
X133700000Y-109150000D03*
X133700000Y-109950000D03*
X133700000Y-110750000D03*
D20*
X132000000Y-112450000D03*
X131200000Y-112450000D03*
X130400000Y-112450000D03*
X129600000Y-112450000D03*
X128800000Y-112450000D03*
X128000000Y-112450000D03*
X127200000Y-112450000D03*
X126400000Y-112450000D03*
X125600000Y-112450000D03*
X124800000Y-112450000D03*
X124000000Y-112450000D03*
D21*
X122300000Y-110750000D03*
X122300000Y-109950000D03*
X122300000Y-109150000D03*
X122300000Y-108350000D03*
X122300000Y-107550000D03*
X122300000Y-106750000D03*
X122300000Y-105950000D03*
X122300000Y-105150000D03*
X122300000Y-104350000D03*
X122300000Y-103550000D03*
X122300000Y-102750000D03*
D10*
G36*
X140092912Y-105994842D02*
X140941440Y-105146314D01*
X141931390Y-106136264D01*
X141082862Y-106984792D01*
X140092912Y-105994842D01*
X140092912Y-105994842D01*
G37*
G36*
X141789968Y-107691898D02*
X142638496Y-106843370D01*
X143628446Y-107833320D01*
X142779918Y-108681848D01*
X141789968Y-107691898D01*
X141789968Y-107691898D01*
G37*
G36*
X141294994Y-104792760D02*
X142143522Y-103944232D01*
X143133472Y-104934182D01*
X142284944Y-105782710D01*
X141294994Y-104792760D01*
X141294994Y-104792760D01*
G37*
G36*
X142992050Y-106489816D02*
X143840578Y-105641288D01*
X144830528Y-106631238D01*
X143982000Y-107479766D01*
X142992050Y-106489816D01*
X142992050Y-106489816D01*
G37*
D12*
X216211720Y-112313040D03*
X218711720Y-112313040D03*
X210750000Y-108000000D03*
X213250000Y-108000000D03*
D22*
X219296720Y-98693040D03*
X222346720Y-98693040D03*
D10*
G36*
X200436415Y-111007583D02*
X199517177Y-110088345D01*
X200577837Y-109027685D01*
X201497075Y-109946923D01*
X200436415Y-111007583D01*
X200436415Y-111007583D01*
G37*
G36*
X202345603Y-109098395D02*
X201426365Y-108179157D01*
X202487025Y-107118497D01*
X203406263Y-108037735D01*
X202345603Y-109098395D01*
X202345603Y-109098395D01*
G37*
D23*
X207900000Y-105450000D03*
X207900000Y-104500000D03*
X207900000Y-103550000D03*
X210100000Y-103550000D03*
X210100000Y-105450000D03*
D12*
X52571720Y-108943040D03*
X55071720Y-108943040D03*
D11*
X78000000Y-49500000D03*
X78000000Y-52000000D03*
D12*
X171252500Y-47647500D03*
X173752500Y-47647500D03*
X266002500Y-49397500D03*
X268502500Y-49397500D03*
D24*
X52221720Y-100616040D03*
X52221720Y-105770040D03*
X55421720Y-105770040D03*
X55421720Y-100616040D03*
X78100000Y-45827000D03*
X78100000Y-40673000D03*
X74900000Y-40673000D03*
X74900000Y-45827000D03*
X169900000Y-40173000D03*
X169900000Y-45327000D03*
X173100000Y-45327000D03*
X173100000Y-40173000D03*
X265402500Y-40070500D03*
X265402500Y-45224500D03*
X268602500Y-45224500D03*
X268602500Y-40070500D03*
X291671720Y-105770040D03*
X291671720Y-100616040D03*
X288471720Y-100616040D03*
X288471720Y-105770040D03*
D12*
X289571720Y-110443040D03*
X292071720Y-110443040D03*
D14*
X124961720Y-124763040D03*
X124961720Y-121363040D03*
D13*
X149911720Y-123063040D03*
X146511720Y-123063040D03*
D14*
X187701720Y-124758040D03*
X187701720Y-121358040D03*
D12*
X298211720Y-133563040D03*
X300711720Y-133563040D03*
D11*
X160821720Y-131693040D03*
X160821720Y-134193040D03*
X55211720Y-123063040D03*
X55211720Y-125563040D03*
D24*
X298171720Y-130520040D03*
X298171720Y-125366040D03*
X294971720Y-125366040D03*
X294971720Y-130520040D03*
X165221720Y-125366040D03*
X165221720Y-130520040D03*
X168421720Y-130520040D03*
X168421720Y-125366040D03*
X39671720Y-130520040D03*
X39671720Y-125366040D03*
X36471720Y-125366040D03*
X36471720Y-130520040D03*
M02*
