G04 #@! TF.FileFunction,Soldermask,Bot*
%FSLAX46Y46*%
G04 Gerber Fmt 4.6, Leading zero omitted, Abs format (unit mm)*
G04 Created by KiCad (PCBNEW 4.0.7+dfsg1-1) date Sat Oct 21 17:46:25 2017*
%MOMM*%
%LPD*%
G01*
G04 APERTURE LIST*
%ADD10C,0.100000*%
%ADD11R,0.850000X0.850000*%
%ADD12C,0.850000*%
%ADD13C,3.048000*%
%ADD14C,3.980200*%
%ADD15C,2.500000*%
%ADD16R,1.900000X1.900000*%
%ADD17C,1.900000*%
%ADD18R,1.500000X1.250000*%
%ADD19R,1.250000X1.500000*%
%ADD20R,1.200000X1.400000*%
%ADD21R,1.400000X1.200000*%
%ADD22R,1.500000X3.600000*%
%ADD23O,13.600000X5.200000*%
%ADD24C,5.000000*%
%ADD25C,6.100000*%
%ADD26C,7.000000*%
%ADD27R,1.300000X1.500000*%
%ADD28R,1.500000X1.300000*%
%ADD29R,2.051000X1.400000*%
%ADD30R,1.000000X1.700000*%
%ADD31R,1.060000X0.650000*%
%ADD32R,1.700000X1.700000*%
%ADD33O,1.700000X1.700000*%
%ADD34R,2.500000X1.900000*%
%ADD35R,1.500000X1.500000*%
%ADD36O,1.000000X1.550000*%
%ADD37O,1.250000X0.950000*%
%ADD38R,0.400000X1.350000*%
%ADD39C,0.800000*%
G04 APERTURE END LIST*
D10*
D11*
X245613750Y-124056250D03*
D12*
X245613750Y-122806250D03*
X245613750Y-121556250D03*
D10*
G36*
X140300495Y-119648444D02*
X140477272Y-119825221D01*
X139982297Y-120320196D01*
X139805520Y-120143419D01*
X140300495Y-119648444D01*
X140300495Y-119648444D01*
G37*
G36*
X140654048Y-120001997D02*
X140830825Y-120178774D01*
X140335850Y-120673749D01*
X140159073Y-120496972D01*
X140654048Y-120001997D01*
X140654048Y-120001997D01*
G37*
G36*
X141007602Y-120355551D02*
X141184379Y-120532328D01*
X140689404Y-121027303D01*
X140512627Y-120850526D01*
X141007602Y-120355551D01*
X141007602Y-120355551D01*
G37*
G36*
X141361155Y-120709104D02*
X141537932Y-120885881D01*
X141042957Y-121380856D01*
X140866180Y-121204079D01*
X141361155Y-120709104D01*
X141361155Y-120709104D01*
G37*
G36*
X141714709Y-121062658D02*
X141891486Y-121239435D01*
X141396511Y-121734410D01*
X141219734Y-121557633D01*
X141714709Y-121062658D01*
X141714709Y-121062658D01*
G37*
G36*
X142068262Y-121416211D02*
X142245039Y-121592988D01*
X141750064Y-122087963D01*
X141573287Y-121911186D01*
X142068262Y-121416211D01*
X142068262Y-121416211D01*
G37*
G36*
X142421815Y-121769764D02*
X142598592Y-121946541D01*
X142103617Y-122441516D01*
X141926840Y-122264739D01*
X142421815Y-121769764D01*
X142421815Y-121769764D01*
G37*
G36*
X142775369Y-122123318D02*
X142952146Y-122300095D01*
X142457171Y-122795070D01*
X142280394Y-122618293D01*
X142775369Y-122123318D01*
X142775369Y-122123318D01*
G37*
G36*
X143128922Y-122476871D02*
X143305699Y-122653648D01*
X142810724Y-123148623D01*
X142633947Y-122971846D01*
X143128922Y-122476871D01*
X143128922Y-122476871D01*
G37*
G36*
X143482476Y-122830425D02*
X143659253Y-123007202D01*
X143164278Y-123502177D01*
X142987501Y-123325400D01*
X143482476Y-122830425D01*
X143482476Y-122830425D01*
G37*
G36*
X143836029Y-123183978D02*
X144012806Y-123360755D01*
X143517831Y-123855730D01*
X143341054Y-123678953D01*
X143836029Y-123183978D01*
X143836029Y-123183978D01*
G37*
G36*
X144012806Y-124951745D02*
X143836029Y-125128522D01*
X143341054Y-124633547D01*
X143517831Y-124456770D01*
X144012806Y-124951745D01*
X144012806Y-124951745D01*
G37*
G36*
X143659253Y-125305298D02*
X143482476Y-125482075D01*
X142987501Y-124987100D01*
X143164278Y-124810323D01*
X143659253Y-125305298D01*
X143659253Y-125305298D01*
G37*
G36*
X143305699Y-125658852D02*
X143128922Y-125835629D01*
X142633947Y-125340654D01*
X142810724Y-125163877D01*
X143305699Y-125658852D01*
X143305699Y-125658852D01*
G37*
G36*
X142952146Y-126012405D02*
X142775369Y-126189182D01*
X142280394Y-125694207D01*
X142457171Y-125517430D01*
X142952146Y-126012405D01*
X142952146Y-126012405D01*
G37*
G36*
X142598592Y-126365959D02*
X142421815Y-126542736D01*
X141926840Y-126047761D01*
X142103617Y-125870984D01*
X142598592Y-126365959D01*
X142598592Y-126365959D01*
G37*
G36*
X142245039Y-126719512D02*
X142068262Y-126896289D01*
X141573287Y-126401314D01*
X141750064Y-126224537D01*
X142245039Y-126719512D01*
X142245039Y-126719512D01*
G37*
G36*
X141891486Y-127073065D02*
X141714709Y-127249842D01*
X141219734Y-126754867D01*
X141396511Y-126578090D01*
X141891486Y-127073065D01*
X141891486Y-127073065D01*
G37*
G36*
X141537932Y-127426619D02*
X141361155Y-127603396D01*
X140866180Y-127108421D01*
X141042957Y-126931644D01*
X141537932Y-127426619D01*
X141537932Y-127426619D01*
G37*
G36*
X141184379Y-127780172D02*
X141007602Y-127956949D01*
X140512627Y-127461974D01*
X140689404Y-127285197D01*
X141184379Y-127780172D01*
X141184379Y-127780172D01*
G37*
G36*
X140830825Y-128133726D02*
X140654048Y-128310503D01*
X140159073Y-127815528D01*
X140335850Y-127638751D01*
X140830825Y-128133726D01*
X140830825Y-128133726D01*
G37*
G36*
X140477272Y-128487279D02*
X140300495Y-128664056D01*
X139805520Y-128169081D01*
X139982297Y-127992304D01*
X140477272Y-128487279D01*
X140477272Y-128487279D01*
G37*
G36*
X139027703Y-127992304D02*
X139204480Y-128169081D01*
X138709505Y-128664056D01*
X138532728Y-128487279D01*
X139027703Y-127992304D01*
X139027703Y-127992304D01*
G37*
G36*
X138674150Y-127638751D02*
X138850927Y-127815528D01*
X138355952Y-128310503D01*
X138179175Y-128133726D01*
X138674150Y-127638751D01*
X138674150Y-127638751D01*
G37*
G36*
X138320596Y-127285197D02*
X138497373Y-127461974D01*
X138002398Y-127956949D01*
X137825621Y-127780172D01*
X138320596Y-127285197D01*
X138320596Y-127285197D01*
G37*
G36*
X137967043Y-126931644D02*
X138143820Y-127108421D01*
X137648845Y-127603396D01*
X137472068Y-127426619D01*
X137967043Y-126931644D01*
X137967043Y-126931644D01*
G37*
G36*
X137613489Y-126578090D02*
X137790266Y-126754867D01*
X137295291Y-127249842D01*
X137118514Y-127073065D01*
X137613489Y-126578090D01*
X137613489Y-126578090D01*
G37*
G36*
X137259936Y-126224537D02*
X137436713Y-126401314D01*
X136941738Y-126896289D01*
X136764961Y-126719512D01*
X137259936Y-126224537D01*
X137259936Y-126224537D01*
G37*
G36*
X136906383Y-125870984D02*
X137083160Y-126047761D01*
X136588185Y-126542736D01*
X136411408Y-126365959D01*
X136906383Y-125870984D01*
X136906383Y-125870984D01*
G37*
G36*
X136552829Y-125517430D02*
X136729606Y-125694207D01*
X136234631Y-126189182D01*
X136057854Y-126012405D01*
X136552829Y-125517430D01*
X136552829Y-125517430D01*
G37*
G36*
X136199276Y-125163877D02*
X136376053Y-125340654D01*
X135881078Y-125835629D01*
X135704301Y-125658852D01*
X136199276Y-125163877D01*
X136199276Y-125163877D01*
G37*
G36*
X135845722Y-124810323D02*
X136022499Y-124987100D01*
X135527524Y-125482075D01*
X135350747Y-125305298D01*
X135845722Y-124810323D01*
X135845722Y-124810323D01*
G37*
G36*
X135492169Y-124456770D02*
X135668946Y-124633547D01*
X135173971Y-125128522D01*
X134997194Y-124951745D01*
X135492169Y-124456770D01*
X135492169Y-124456770D01*
G37*
G36*
X135668946Y-123678953D02*
X135492169Y-123855730D01*
X134997194Y-123360755D01*
X135173971Y-123183978D01*
X135668946Y-123678953D01*
X135668946Y-123678953D01*
G37*
G36*
X136022499Y-123325400D02*
X135845722Y-123502177D01*
X135350747Y-123007202D01*
X135527524Y-122830425D01*
X136022499Y-123325400D01*
X136022499Y-123325400D01*
G37*
G36*
X136376053Y-122971846D02*
X136199276Y-123148623D01*
X135704301Y-122653648D01*
X135881078Y-122476871D01*
X136376053Y-122971846D01*
X136376053Y-122971846D01*
G37*
G36*
X136729606Y-122618293D02*
X136552829Y-122795070D01*
X136057854Y-122300095D01*
X136234631Y-122123318D01*
X136729606Y-122618293D01*
X136729606Y-122618293D01*
G37*
G36*
X137083160Y-122264739D02*
X136906383Y-122441516D01*
X136411408Y-121946541D01*
X136588185Y-121769764D01*
X137083160Y-122264739D01*
X137083160Y-122264739D01*
G37*
G36*
X137436713Y-121911186D02*
X137259936Y-122087963D01*
X136764961Y-121592988D01*
X136941738Y-121416211D01*
X137436713Y-121911186D01*
X137436713Y-121911186D01*
G37*
G36*
X137790266Y-121557633D02*
X137613489Y-121734410D01*
X137118514Y-121239435D01*
X137295291Y-121062658D01*
X137790266Y-121557633D01*
X137790266Y-121557633D01*
G37*
G36*
X138143820Y-121204079D02*
X137967043Y-121380856D01*
X137472068Y-120885881D01*
X137648845Y-120709104D01*
X138143820Y-121204079D01*
X138143820Y-121204079D01*
G37*
G36*
X138497373Y-120850526D02*
X138320596Y-121027303D01*
X137825621Y-120532328D01*
X138002398Y-120355551D01*
X138497373Y-120850526D01*
X138497373Y-120850526D01*
G37*
G36*
X138850927Y-120496972D02*
X138674150Y-120673749D01*
X138179175Y-120178774D01*
X138355952Y-120001997D01*
X138850927Y-120496972D01*
X138850927Y-120496972D01*
G37*
G36*
X139204480Y-120143419D02*
X139027703Y-120320196D01*
X138532728Y-119825221D01*
X138709505Y-119648444D01*
X139204480Y-120143419D01*
X139204480Y-120143419D01*
G37*
G36*
X139505000Y-125977050D02*
X140415400Y-126887450D01*
X139505000Y-127797850D01*
X138594600Y-126887450D01*
X139505000Y-125977050D01*
X139505000Y-125977050D01*
G37*
G36*
X138594600Y-125066650D02*
X139505000Y-125977050D01*
X138594600Y-126887450D01*
X137684200Y-125977050D01*
X138594600Y-125066650D01*
X138594600Y-125066650D01*
G37*
G36*
X137684200Y-124156250D02*
X138594600Y-125066650D01*
X137684200Y-125977050D01*
X136773800Y-125066650D01*
X137684200Y-124156250D01*
X137684200Y-124156250D01*
G37*
G36*
X136773800Y-123245850D02*
X137684200Y-124156250D01*
X136773800Y-125066650D01*
X135863400Y-124156250D01*
X136773800Y-123245850D01*
X136773800Y-123245850D01*
G37*
G36*
X140415400Y-125066650D02*
X141325800Y-125977050D01*
X140415400Y-126887450D01*
X139505000Y-125977050D01*
X140415400Y-125066650D01*
X140415400Y-125066650D01*
G37*
G36*
X139505000Y-124156250D02*
X140415400Y-125066650D01*
X139505000Y-125977050D01*
X138594600Y-125066650D01*
X139505000Y-124156250D01*
X139505000Y-124156250D01*
G37*
G36*
X138594600Y-123245850D02*
X139505000Y-124156250D01*
X138594600Y-125066650D01*
X137684200Y-124156250D01*
X138594600Y-123245850D01*
X138594600Y-123245850D01*
G37*
G36*
X137684200Y-122335450D02*
X138594600Y-123245850D01*
X137684200Y-124156250D01*
X136773800Y-123245850D01*
X137684200Y-122335450D01*
X137684200Y-122335450D01*
G37*
G36*
X141325800Y-124156250D02*
X142236200Y-125066650D01*
X141325800Y-125977050D01*
X140415400Y-125066650D01*
X141325800Y-124156250D01*
X141325800Y-124156250D01*
G37*
G36*
X140415400Y-123245850D02*
X141325800Y-124156250D01*
X140415400Y-125066650D01*
X139505000Y-124156250D01*
X140415400Y-123245850D01*
X140415400Y-123245850D01*
G37*
G36*
X139505000Y-122335450D02*
X140415400Y-123245850D01*
X139505000Y-124156250D01*
X138594600Y-123245850D01*
X139505000Y-122335450D01*
X139505000Y-122335450D01*
G37*
G36*
X138594600Y-121425050D02*
X139505000Y-122335450D01*
X138594600Y-123245850D01*
X137684200Y-122335450D01*
X138594600Y-121425050D01*
X138594600Y-121425050D01*
G37*
G36*
X142236200Y-123245850D02*
X143146600Y-124156250D01*
X142236200Y-125066650D01*
X141325800Y-124156250D01*
X142236200Y-123245850D01*
X142236200Y-123245850D01*
G37*
G36*
X141325800Y-122335450D02*
X142236200Y-123245850D01*
X141325800Y-124156250D01*
X140415400Y-123245850D01*
X141325800Y-122335450D01*
X141325800Y-122335450D01*
G37*
G36*
X140415400Y-121425050D02*
X141325800Y-122335450D01*
X140415400Y-123245850D01*
X139505000Y-122335450D01*
X140415400Y-121425050D01*
X140415400Y-121425050D01*
G37*
G36*
X139505000Y-120514650D02*
X140415400Y-121425050D01*
X139505000Y-122335450D01*
X138594600Y-121425050D01*
X139505000Y-120514650D01*
X139505000Y-120514650D01*
G37*
D13*
X144367500Y-132166250D03*
D14*
X144367500Y-116926250D03*
D15*
X71527500Y-122641250D03*
X77877500Y-120101250D03*
D16*
X71686250Y-53981250D03*
D17*
X74226250Y-53981250D03*
D16*
X76448750Y-73031250D03*
D17*
X78988750Y-73031250D03*
D16*
X74067500Y-92081250D03*
D17*
X76607500Y-92081250D03*
D16*
X81370000Y-92081250D03*
D17*
X78830000Y-92081250D03*
D16*
X74067500Y-111131250D03*
D17*
X76607500Y-111131250D03*
D16*
X95498750Y-111131250D03*
D17*
X98038750Y-111131250D03*
D16*
X74067500Y-130181250D03*
D17*
X76607500Y-130181250D03*
D16*
X78988750Y-130181250D03*
D17*
X76448750Y-130181250D03*
D16*
X90736250Y-53981250D03*
D17*
X93276250Y-53981250D03*
D16*
X100261250Y-73031250D03*
D17*
X102801250Y-73031250D03*
D16*
X105023750Y-92081250D03*
D17*
X107563750Y-92081250D03*
D16*
X83592500Y-111131250D03*
D17*
X86132500Y-111131250D03*
D16*
X97880000Y-130181250D03*
D17*
X100420000Y-130181250D03*
D16*
X102801250Y-130181250D03*
D17*
X100261250Y-130181250D03*
D16*
X109786250Y-53981250D03*
D17*
X112326250Y-53981250D03*
D16*
X119311250Y-73031250D03*
D17*
X121851250Y-73031250D03*
D16*
X124073750Y-92081250D03*
D17*
X126613750Y-92081250D03*
D16*
X114548750Y-111131250D03*
D17*
X117088750Y-111131250D03*
D16*
X121692500Y-130181250D03*
D17*
X124232500Y-130181250D03*
D16*
X126613750Y-130181250D03*
D17*
X124073750Y-130181250D03*
D16*
X128836250Y-53981250D03*
D17*
X131376250Y-53981250D03*
D16*
X138361250Y-73031250D03*
D17*
X140901250Y-73031250D03*
D16*
X143123750Y-92081250D03*
D17*
X145663750Y-92081250D03*
D16*
X133598750Y-111131250D03*
D17*
X136138750Y-111131250D03*
D16*
X147886250Y-53981250D03*
D17*
X150426250Y-53981250D03*
D16*
X157411250Y-73031250D03*
D17*
X159951250Y-73031250D03*
D16*
X162173750Y-92081250D03*
D17*
X164713750Y-92081250D03*
D16*
X152648750Y-111131250D03*
D17*
X155188750Y-111131250D03*
D16*
X166936250Y-53981250D03*
D17*
X169476250Y-53981250D03*
D16*
X176461250Y-73031250D03*
D17*
X179001250Y-73031250D03*
D16*
X181223750Y-92081250D03*
D17*
X183763750Y-92081250D03*
D16*
X171698750Y-111131250D03*
D17*
X174238750Y-111131250D03*
D16*
X185986250Y-53981250D03*
D17*
X188526250Y-53981250D03*
D16*
X195511250Y-73031250D03*
D17*
X198051250Y-73031250D03*
D16*
X200273750Y-92081250D03*
D17*
X202813750Y-92081250D03*
D16*
X190748750Y-111131250D03*
D17*
X193288750Y-111131250D03*
D16*
X205036250Y-130181250D03*
D17*
X207576250Y-130181250D03*
D16*
X193130000Y-130181250D03*
D17*
X195670000Y-130181250D03*
D16*
X185986250Y-130181250D03*
D17*
X188526250Y-130181250D03*
D16*
X205036250Y-53981250D03*
D17*
X207576250Y-53981250D03*
D16*
X214561250Y-73031250D03*
D17*
X217101250Y-73031250D03*
D16*
X219323750Y-92081250D03*
D17*
X221863750Y-92081250D03*
D16*
X209798750Y-111131250D03*
D17*
X212338750Y-111131250D03*
D16*
X224086250Y-53981250D03*
D17*
X226626250Y-53981250D03*
D16*
X233611250Y-73031250D03*
D17*
X236151250Y-73031250D03*
D16*
X238373750Y-92081250D03*
D17*
X240913750Y-92081250D03*
D16*
X228848750Y-111131250D03*
D17*
X231388750Y-111131250D03*
D16*
X243136250Y-53981250D03*
D17*
X245676250Y-53981250D03*
D16*
X252661250Y-73031250D03*
D17*
X255201250Y-73031250D03*
D16*
X257423750Y-92081250D03*
D17*
X259963750Y-92081250D03*
D16*
X247898750Y-111131250D03*
D17*
X250438750Y-111131250D03*
D16*
X338386250Y-53981250D03*
D17*
X340926250Y-53981250D03*
D16*
X262186250Y-53981250D03*
D17*
X264726250Y-53981250D03*
D16*
X271711250Y-73031250D03*
D17*
X274251250Y-73031250D03*
D16*
X276473750Y-92081250D03*
D17*
X279013750Y-92081250D03*
D16*
X266948750Y-111131250D03*
D17*
X269488750Y-111131250D03*
D16*
X264567500Y-130181250D03*
D17*
X267107500Y-130181250D03*
D16*
X269488750Y-130181250D03*
D17*
X266948750Y-130181250D03*
D16*
X281236250Y-53981250D03*
D17*
X283776250Y-53981250D03*
D16*
X290761250Y-73031250D03*
D17*
X293301250Y-73031250D03*
D16*
X295523750Y-92081250D03*
D17*
X298063750Y-92081250D03*
D16*
X285998750Y-111131250D03*
D17*
X288538750Y-111131250D03*
D16*
X285998750Y-130181250D03*
D17*
X288538750Y-130181250D03*
D16*
X290920000Y-130181250D03*
D17*
X288380000Y-130181250D03*
D16*
X290761250Y-130181250D03*
D17*
X293301250Y-130181250D03*
D16*
X300286250Y-53981250D03*
D17*
X302826250Y-53981250D03*
D16*
X309811250Y-73031250D03*
D17*
X312351250Y-73031250D03*
D16*
X314573750Y-92081250D03*
D17*
X317113750Y-92081250D03*
D16*
X305048750Y-111131250D03*
D17*
X307588750Y-111131250D03*
D16*
X312192500Y-111131250D03*
D17*
X314732500Y-111131250D03*
D16*
X321717500Y-111131250D03*
D17*
X324257500Y-111131250D03*
D16*
X309811250Y-130181250D03*
D17*
X312351250Y-130181250D03*
D16*
X314732500Y-130181250D03*
D17*
X312192500Y-130181250D03*
D16*
X319336250Y-53981250D03*
D17*
X321876250Y-53981250D03*
D16*
X331401250Y-53981250D03*
D17*
X328861250Y-53981250D03*
D16*
X333623750Y-73031250D03*
D17*
X336163750Y-73031250D03*
D16*
X329020000Y-92081250D03*
D17*
X326480000Y-92081250D03*
D16*
X336005000Y-92081250D03*
D17*
X338545000Y-92081250D03*
D16*
X332248750Y-76286250D03*
D17*
X332248750Y-78826250D03*
D16*
X331242500Y-111131250D03*
D17*
X333782500Y-111131250D03*
D16*
X338386250Y-111131250D03*
D17*
X340926250Y-111131250D03*
D16*
X333623750Y-130181250D03*
D17*
X336163750Y-130181250D03*
D16*
X338545000Y-130181250D03*
D17*
X336005000Y-130181250D03*
D18*
X151163750Y-124656250D03*
X153663750Y-124656250D03*
X151163750Y-129056250D03*
X153663750Y-129056250D03*
X138663750Y-116656250D03*
X136163750Y-116656250D03*
X131855000Y-129656250D03*
X129355000Y-129656250D03*
X153863750Y-126856250D03*
X151363750Y-126856250D03*
X145763750Y-120256250D03*
X148263750Y-120256250D03*
X130863750Y-116256250D03*
X128363750Y-116256250D03*
X142363750Y-112856250D03*
X144863750Y-112856250D03*
D19*
X257605000Y-143406250D03*
X257605000Y-145906250D03*
D18*
X287263750Y-114656250D03*
X284763750Y-114656250D03*
D19*
X277413750Y-102406250D03*
X277413750Y-104906250D03*
X186005000Y-116906250D03*
X186005000Y-114406250D03*
X81445000Y-117431250D03*
X81445000Y-114931250D03*
X76605000Y-59306250D03*
X76605000Y-56806250D03*
X133845000Y-59031250D03*
X133845000Y-56531250D03*
X201045000Y-59631250D03*
X201045000Y-57131250D03*
X267845000Y-59631250D03*
X267845000Y-57131250D03*
X324845000Y-59631250D03*
X324845000Y-57131250D03*
X319005000Y-117506250D03*
X319005000Y-115006250D03*
D18*
X302655000Y-145856250D03*
X300155000Y-145856250D03*
X195655000Y-150056250D03*
X193155000Y-150056250D03*
D19*
X98030000Y-145931250D03*
X98030000Y-143431250D03*
D20*
X66993750Y-42337500D03*
X70393750Y-42337500D03*
X68913750Y-61456250D03*
X72313750Y-61456250D03*
X68705000Y-80656250D03*
X72105000Y-80656250D03*
D21*
X66805000Y-106756250D03*
X66805000Y-103356250D03*
D20*
X72705000Y-118856250D03*
X69305000Y-118856250D03*
X180705000Y-42456250D03*
X184105000Y-42456250D03*
D21*
X96613750Y-55756250D03*
X96613750Y-52356250D03*
D20*
X95105000Y-61656250D03*
X98505000Y-61656250D03*
X99905000Y-80656250D03*
X103305000Y-80656250D03*
X90305000Y-99656250D03*
X93705000Y-99656250D03*
X96513750Y-119656250D03*
X93113750Y-119656250D03*
X104505000Y-42456250D03*
X107905000Y-42456250D03*
X114105000Y-61656250D03*
X117505000Y-61656250D03*
X117513750Y-80656250D03*
X120913750Y-80656250D03*
X109305000Y-99656250D03*
X112705000Y-99656250D03*
D21*
X114245000Y-117081250D03*
X114245000Y-120481250D03*
D20*
X123705000Y-42456250D03*
X127105000Y-42456250D03*
X130205000Y-61456250D03*
X133605000Y-61456250D03*
X137905000Y-80656250D03*
X141305000Y-80656250D03*
X128505000Y-99856250D03*
X131905000Y-99856250D03*
X157945000Y-141581250D03*
X161345000Y-141581250D03*
X142505000Y-42456250D03*
X145905000Y-42456250D03*
X152105000Y-61656250D03*
X155505000Y-61656250D03*
X156905000Y-80656250D03*
X160305000Y-80656250D03*
X147505000Y-99656250D03*
X150905000Y-99656250D03*
D21*
X182645000Y-145081250D03*
X182645000Y-141681250D03*
D20*
X161505000Y-42456250D03*
X164905000Y-42456250D03*
X171305000Y-61656250D03*
X174705000Y-61656250D03*
X175905000Y-80656250D03*
X179305000Y-80656250D03*
X166505000Y-99656250D03*
X169905000Y-99656250D03*
D10*
G36*
X162686543Y-116573407D02*
X161696593Y-115583457D01*
X162545121Y-114734929D01*
X163535071Y-115724879D01*
X162686543Y-116573407D01*
X162686543Y-116573407D01*
G37*
G36*
X160282379Y-118977571D02*
X159292429Y-117987621D01*
X160140957Y-117139093D01*
X161130907Y-118129043D01*
X160282379Y-118977571D01*
X160282379Y-118977571D01*
G37*
D20*
X190305000Y-61656250D03*
X193705000Y-61656250D03*
X195105000Y-80656250D03*
X198505000Y-80656250D03*
X183230000Y-100456250D03*
X186630000Y-100456250D03*
X176345000Y-122381250D03*
X179745000Y-122381250D03*
X199905000Y-42656250D03*
X203305000Y-42656250D03*
X205955000Y-62956250D03*
X209355000Y-62956250D03*
X214105000Y-80656250D03*
X217505000Y-80656250D03*
X204705000Y-99656250D03*
X208105000Y-99656250D03*
X218705000Y-42456250D03*
X222105000Y-42456250D03*
X228505000Y-61656250D03*
X231905000Y-61656250D03*
X233105000Y-80656250D03*
X236505000Y-80656250D03*
X229913750Y-99456250D03*
X226513750Y-99456250D03*
D21*
X235005000Y-49756250D03*
X235005000Y-46356250D03*
D20*
X247305000Y-61656250D03*
X250705000Y-61656250D03*
X252305000Y-80656250D03*
X255705000Y-80656250D03*
X242705000Y-99656250D03*
X246105000Y-99656250D03*
X336505000Y-58656250D03*
X339905000Y-58656250D03*
D21*
X254205000Y-53556250D03*
X254205000Y-50156250D03*
D20*
X264455000Y-61956250D03*
X267855000Y-61956250D03*
X271305000Y-80656250D03*
X274705000Y-80656250D03*
X261705000Y-99656250D03*
X265105000Y-99656250D03*
X255305000Y-117456250D03*
X258705000Y-117456250D03*
D21*
X273405000Y-53556250D03*
X273405000Y-50156250D03*
D20*
X285505000Y-61656250D03*
X288905000Y-61656250D03*
X290305000Y-80656250D03*
X293705000Y-80656250D03*
X280905000Y-99856250D03*
X284305000Y-99856250D03*
D21*
X278813750Y-125756250D03*
X278813750Y-122356250D03*
D20*
X304505000Y-61656250D03*
X307905000Y-61656250D03*
X307313750Y-80656250D03*
X310713750Y-80656250D03*
X299905000Y-99656250D03*
X303305000Y-99656250D03*
X304505000Y-118856250D03*
X307905000Y-118856250D03*
D21*
X312413750Y-53556250D03*
X312413750Y-50156250D03*
D20*
X326705000Y-62456250D03*
X330105000Y-62456250D03*
D21*
X323213750Y-77156250D03*
X323213750Y-80556250D03*
D20*
X323145000Y-97181250D03*
X326545000Y-97181250D03*
X323705000Y-121956250D03*
X327105000Y-121956250D03*
D15*
X69138750Y-46441250D03*
X75488750Y-43901250D03*
X309652500Y-122641250D03*
X316002500Y-120101250D03*
X73908750Y-65491250D03*
X80258750Y-62951250D03*
X76263750Y-84541250D03*
X82613750Y-82001250D03*
X71501250Y-84541250D03*
X77851250Y-82001250D03*
X73908750Y-122641250D03*
X80258750Y-120101250D03*
X88196250Y-46441250D03*
X94546250Y-43901250D03*
X97721250Y-65491250D03*
X104071250Y-62951250D03*
X102483750Y-84541250D03*
X108833750Y-82001250D03*
X92958750Y-103591250D03*
X99308750Y-101051250D03*
X95340000Y-122641250D03*
X101690000Y-120101250D03*
X97721250Y-122641250D03*
X104071250Y-120101250D03*
X107246250Y-46441250D03*
X113596250Y-43901250D03*
X116771250Y-65491250D03*
X123121250Y-62951250D03*
X121533750Y-84541250D03*
X127883750Y-82001250D03*
X112008750Y-103591250D03*
X118358750Y-101051250D03*
X119152500Y-122641250D03*
X125502500Y-120101250D03*
X121533750Y-122641250D03*
X127883750Y-120101250D03*
X126296250Y-46441250D03*
X132646250Y-43901250D03*
X135821250Y-65491250D03*
X142171250Y-62951250D03*
X140583750Y-84541250D03*
X146933750Y-82001250D03*
X131058750Y-103591250D03*
X137408750Y-101051250D03*
X169158750Y-141691250D03*
X175508750Y-139151250D03*
X166777500Y-141691250D03*
X173127500Y-139151250D03*
X145346250Y-46441250D03*
X151696250Y-43901250D03*
X154871250Y-65491250D03*
X161221250Y-62951250D03*
X159633750Y-84541250D03*
X165983750Y-82001250D03*
X150108750Y-103591250D03*
X156458750Y-101051250D03*
X188208750Y-141691250D03*
X194558750Y-139151250D03*
X164396250Y-46441250D03*
X170746250Y-43901250D03*
X173921250Y-65491250D03*
X180271250Y-62951250D03*
X178683750Y-84541250D03*
X185033750Y-82001250D03*
X169158750Y-103591250D03*
X175508750Y-101051250D03*
X183446250Y-46441250D03*
X189796250Y-43901250D03*
X192971250Y-65491250D03*
X199321250Y-62951250D03*
X197733750Y-84541250D03*
X204083750Y-82001250D03*
X188208750Y-103591250D03*
X194558750Y-101051250D03*
X202496250Y-46441250D03*
X208846250Y-43901250D03*
X212021250Y-65491250D03*
X218371250Y-62951250D03*
X216783750Y-84541250D03*
X223133750Y-82001250D03*
X207258750Y-103591250D03*
X213608750Y-101051250D03*
X221546250Y-46441250D03*
X227896250Y-43901250D03*
X231071250Y-65491250D03*
X237421250Y-62951250D03*
X235833750Y-84541250D03*
X242183750Y-82001250D03*
X226308750Y-103591250D03*
X232658750Y-101051250D03*
X240596250Y-46441250D03*
X246946250Y-43901250D03*
X250121250Y-65491250D03*
X256471250Y-62951250D03*
X254883750Y-84541250D03*
X261233750Y-82001250D03*
X245358750Y-103591250D03*
X251708750Y-101051250D03*
X335846250Y-46441250D03*
X342196250Y-43901250D03*
X259646250Y-46441250D03*
X265996250Y-43901250D03*
X269171250Y-65491250D03*
X275521250Y-62951250D03*
X273933750Y-84541250D03*
X280283750Y-82001250D03*
X264408750Y-103591250D03*
X270758750Y-101051250D03*
X262027500Y-122641250D03*
X268377500Y-120101250D03*
X264408750Y-122641250D03*
X270758750Y-120101250D03*
X278696250Y-46441250D03*
X285046250Y-43901250D03*
X288221250Y-65491250D03*
X294571250Y-62951250D03*
X292983750Y-84541250D03*
X299333750Y-82001250D03*
X283458750Y-103591250D03*
X289808750Y-101051250D03*
X288221250Y-122641250D03*
X294571250Y-120101250D03*
X285840000Y-122641250D03*
X292190000Y-120101250D03*
X283458750Y-122641250D03*
X289808750Y-120101250D03*
X297746250Y-46441250D03*
X304096250Y-43901250D03*
X307271250Y-65491250D03*
X313621250Y-62951250D03*
X312033750Y-84541250D03*
X318383750Y-82001250D03*
X302508750Y-103591250D03*
X308858750Y-101051250D03*
X307271250Y-122641250D03*
X313621250Y-120101250D03*
X316770000Y-46441250D03*
X323120000Y-43901250D03*
X331083750Y-65491250D03*
X337433750Y-62951250D03*
X333465000Y-84541250D03*
X339815000Y-82001250D03*
X339788750Y-73746250D03*
X343058750Y-80096250D03*
X335846250Y-103591250D03*
X342196250Y-101051250D03*
X328702500Y-103591250D03*
X335052500Y-101051250D03*
X333465000Y-122641250D03*
X339815000Y-120101250D03*
X331083750Y-122641250D03*
X337433750Y-120101250D03*
D21*
X293013750Y-53556250D03*
X293013750Y-50156250D03*
D22*
X279138750Y-109456250D03*
X276088750Y-109456250D03*
D23*
X63431250Y-96456250D03*
D24*
X89131250Y-67856250D03*
D25*
X192131250Y-86956250D03*
X254431250Y-125156250D03*
X323981250Y-67856250D03*
D23*
X348931250Y-96456250D03*
D26*
X192213750Y-95856250D03*
D25*
X88931250Y-143456250D03*
X231931250Y-143456250D03*
X323931250Y-143456250D03*
D11*
X211645000Y-114381250D03*
D12*
X210395000Y-114381250D03*
X209145000Y-114381250D03*
X207895000Y-114381250D03*
X206645000Y-114381250D03*
X205395000Y-114381250D03*
X204145000Y-114381250D03*
X202895000Y-114381250D03*
X201645000Y-114381250D03*
X200395000Y-114381250D03*
D11*
X127431250Y-137956250D03*
D12*
X127431250Y-139206250D03*
X127431250Y-140456250D03*
X127431250Y-141706250D03*
X127431250Y-142956250D03*
X127431250Y-144206250D03*
X127431250Y-145456250D03*
X127431250Y-146706250D03*
X127431250Y-147956250D03*
X127431250Y-149206250D03*
D11*
X268718750Y-147112500D03*
D12*
X268718750Y-145862500D03*
X268718750Y-144612500D03*
X268718750Y-143362500D03*
X268718750Y-142112500D03*
D27*
X91005000Y-79306250D03*
X91005000Y-82006250D03*
D28*
X130255000Y-131656250D03*
X132955000Y-131656250D03*
D10*
G36*
X137558293Y-93881555D02*
X136639055Y-94800793D01*
X135578395Y-93740133D01*
X136497633Y-92820895D01*
X137558293Y-93881555D01*
X137558293Y-93881555D01*
G37*
G36*
X135649105Y-91972367D02*
X134729867Y-92891605D01*
X133669207Y-91830945D01*
X134588445Y-90911707D01*
X135649105Y-91972367D01*
X135649105Y-91972367D01*
G37*
G36*
X138949543Y-92481555D02*
X138030305Y-93400793D01*
X136969645Y-92340133D01*
X137888883Y-91420895D01*
X138949543Y-92481555D01*
X138949543Y-92481555D01*
G37*
G36*
X137040355Y-90572367D02*
X136121117Y-91491605D01*
X135060457Y-90430945D01*
X135979695Y-89511707D01*
X137040355Y-90572367D01*
X137040355Y-90572367D01*
G37*
D28*
X293363750Y-116056250D03*
X290663750Y-116056250D03*
X224655000Y-113856250D03*
X227355000Y-113856250D03*
D27*
X280805000Y-147206250D03*
X280805000Y-144506250D03*
X276405000Y-147206250D03*
X276405000Y-144506250D03*
X274005000Y-143306250D03*
X274005000Y-146006250D03*
D29*
X189428000Y-116856250D03*
X194582000Y-116856250D03*
X194582000Y-113656250D03*
X189428000Y-113656250D03*
X84666750Y-117731250D03*
X89820750Y-117731250D03*
X89820750Y-114531250D03*
X84666750Y-114531250D03*
X80078000Y-59806250D03*
X85232000Y-59806250D03*
X85232000Y-56606250D03*
X80078000Y-56606250D03*
X137078000Y-59806250D03*
X142232000Y-59806250D03*
X142232000Y-56606250D03*
X137078000Y-56606250D03*
X203978000Y-59756250D03*
X209132000Y-59756250D03*
X209132000Y-56556250D03*
X203978000Y-56556250D03*
X270828000Y-59806250D03*
X275982000Y-59806250D03*
X275982000Y-56606250D03*
X270828000Y-56606250D03*
X327578000Y-59806250D03*
X332732000Y-59806250D03*
X332732000Y-56606250D03*
X327578000Y-56606250D03*
X322578000Y-117556250D03*
X327732000Y-117556250D03*
X327732000Y-114356250D03*
X322578000Y-114356250D03*
X306153000Y-145881250D03*
X311307000Y-145881250D03*
X311307000Y-142681250D03*
X306153000Y-142681250D03*
X198966750Y-150593750D03*
X204120750Y-150593750D03*
X204120750Y-147393750D03*
X198966750Y-147393750D03*
X101328000Y-145856250D03*
X106482000Y-145856250D03*
X106482000Y-142656250D03*
X101328000Y-142656250D03*
D30*
X94956250Y-91281250D03*
X94956250Y-84981250D03*
X91156250Y-91281250D03*
X91156250Y-84981250D03*
D31*
X279713750Y-116406250D03*
X279713750Y-115456250D03*
X279713750Y-114506250D03*
X281913750Y-114506250D03*
X281913750Y-116406250D03*
D15*
X309652500Y-103591250D03*
X316002500Y-101051250D03*
D32*
X223805000Y-111056250D03*
D33*
X221265000Y-111056250D03*
X218725000Y-111056250D03*
D15*
X326321250Y-46441250D03*
X332671250Y-43901250D03*
X323940000Y-84541250D03*
X330290000Y-82001250D03*
X319177500Y-103591250D03*
X325527500Y-101051250D03*
X183446250Y-122641250D03*
X189796250Y-120101250D03*
X190590000Y-122641250D03*
X196940000Y-120101250D03*
X202496250Y-122641250D03*
X208846250Y-120101250D03*
X81026250Y-103591250D03*
X87376250Y-101051250D03*
X71501250Y-103591250D03*
X77851250Y-101051250D03*
D13*
X318198750Y-41996250D03*
D14*
X318198750Y-57236250D03*
D13*
X344392500Y-41996250D03*
D14*
X344392500Y-57236250D03*
D13*
X315817500Y-80096250D03*
D14*
X315817500Y-95336250D03*
D13*
X339630000Y-80096250D03*
D14*
X339630000Y-95336250D03*
D13*
X330263750Y-65650000D03*
D14*
X345503750Y-65650000D03*
D13*
X330263750Y-89462500D03*
D14*
X345503750Y-89462500D03*
D13*
X72930000Y-99146250D03*
D14*
X72930000Y-114386250D03*
D13*
X96742500Y-99146250D03*
D14*
X96742500Y-114386250D03*
D13*
X311055000Y-99146250D03*
D14*
X311055000Y-114386250D03*
D13*
X334867500Y-99146250D03*
D14*
X334867500Y-114386250D03*
D13*
X244380000Y-132166250D03*
D14*
X244380000Y-116926250D03*
D13*
X149130000Y-132166250D03*
D14*
X149130000Y-116926250D03*
D13*
X263430000Y-132166250D03*
D14*
X263430000Y-116926250D03*
D21*
X226845000Y-116481250D03*
X226845000Y-119881250D03*
D20*
X199545000Y-140581250D03*
X202945000Y-140581250D03*
D15*
X207232500Y-141691250D03*
X213582500Y-139151250D03*
X209613750Y-141691250D03*
X215963750Y-139151250D03*
D13*
X215813750Y-132166250D03*
D14*
X215813750Y-116926250D03*
D13*
X172951250Y-132166250D03*
D14*
X172951250Y-116926250D03*
D15*
X188191250Y-122641250D03*
X194541250Y-120101250D03*
D16*
X159775000Y-130181250D03*
D17*
X162315000Y-130181250D03*
D16*
X226450000Y-130181250D03*
D17*
X228990000Y-130181250D03*
D34*
X148013750Y-124656250D03*
X148013750Y-129056250D03*
D15*
X157235000Y-122641250D03*
X163585000Y-120101250D03*
X223910000Y-122641250D03*
X230260000Y-120101250D03*
D16*
X193115000Y-130181250D03*
D17*
X190575000Y-130181250D03*
D13*
X239626250Y-132166250D03*
D14*
X239626250Y-116926250D03*
D35*
X83045000Y-41281250D03*
D36*
X85495000Y-41281250D03*
D37*
X84545000Y-43931250D03*
D38*
X82045000Y-43981250D03*
X82695000Y-43981250D03*
X83345000Y-43981250D03*
X81395000Y-43981250D03*
X80745000Y-43981250D03*
D37*
X79545000Y-43981250D03*
D36*
X78595000Y-41281250D03*
D35*
X81045000Y-41281250D03*
D39*
X343825000Y-134456250D03*
X345095000Y-134456250D03*
X348905000Y-134456250D03*
X347635000Y-134456250D03*
X346365000Y-134456250D03*
X68985000Y-134456250D03*
X67715000Y-134456250D03*
X63905000Y-134456250D03*
X65175000Y-134456250D03*
X66445000Y-134456250D03*
M02*
