G04 #@! TF.FileFunction,Soldermask,Top*
%FSLAX46Y46*%
G04 Gerber Fmt 4.6, Leading zero omitted, Abs format (unit mm)*
G04 Created by KiCad (PCBNEW 4.0.7+dfsg1-1) date Sat Oct 21 15:09:21 2017*
%MOMM*%
%LPD*%
G01*
G04 APERTURE LIST*
%ADD10C,0.100000*%
%ADD11R,0.850000X0.850000*%
%ADD12C,0.850000*%
%ADD13C,3.048000*%
%ADD14C,3.980200*%
%ADD15C,2.500000*%
%ADD16R,1.900000X1.900000*%
%ADD17C,1.900000*%
%ADD18R,2.100000X2.200000*%
%ADD19R,2.100000X1.300000*%
%ADD20O,13.600000X5.200000*%
%ADD21C,5.000000*%
%ADD22C,6.100000*%
%ADD23C,7.000000*%
%ADD24R,1.700000X1.700000*%
%ADD25O,1.700000X1.700000*%
%ADD26C,0.800000*%
%ADD27O,1.000000X1.550000*%
%ADD28O,1.250000X0.950000*%
G04 APERTURE END LIST*
D10*
D11*
X245613750Y-124056250D03*
D12*
X245613750Y-122806250D03*
X245613750Y-121556250D03*
D13*
X144367500Y-132166250D03*
D14*
X144367500Y-116926250D03*
D15*
X71527500Y-122641250D03*
X77877500Y-120101250D03*
D16*
X71686250Y-53981250D03*
D17*
X74226250Y-53981250D03*
D16*
X76448750Y-73031250D03*
D17*
X78988750Y-73031250D03*
D16*
X74067500Y-92081250D03*
D17*
X76607500Y-92081250D03*
D16*
X81370000Y-92081250D03*
D17*
X78830000Y-92081250D03*
D16*
X74067500Y-111131250D03*
D17*
X76607500Y-111131250D03*
D16*
X95498750Y-111131250D03*
D17*
X98038750Y-111131250D03*
D16*
X74067500Y-130181250D03*
D17*
X76607500Y-130181250D03*
D16*
X78988750Y-130181250D03*
D17*
X76448750Y-130181250D03*
D16*
X90736250Y-53981250D03*
D17*
X93276250Y-53981250D03*
D16*
X100261250Y-73031250D03*
D17*
X102801250Y-73031250D03*
D16*
X105023750Y-92081250D03*
D17*
X107563750Y-92081250D03*
D16*
X83592500Y-111131250D03*
D17*
X86132500Y-111131250D03*
D16*
X97880000Y-130181250D03*
D17*
X100420000Y-130181250D03*
D16*
X102801250Y-130181250D03*
D17*
X100261250Y-130181250D03*
D16*
X109786250Y-53981250D03*
D17*
X112326250Y-53981250D03*
D16*
X119311250Y-73031250D03*
D17*
X121851250Y-73031250D03*
D16*
X124073750Y-92081250D03*
D17*
X126613750Y-92081250D03*
D16*
X114548750Y-111131250D03*
D17*
X117088750Y-111131250D03*
D16*
X121692500Y-130181250D03*
D17*
X124232500Y-130181250D03*
D16*
X126613750Y-130181250D03*
D17*
X124073750Y-130181250D03*
D16*
X128836250Y-53981250D03*
D17*
X131376250Y-53981250D03*
D16*
X138361250Y-73031250D03*
D17*
X140901250Y-73031250D03*
D16*
X143123750Y-92081250D03*
D17*
X145663750Y-92081250D03*
D16*
X133598750Y-111131250D03*
D17*
X136138750Y-111131250D03*
D16*
X147886250Y-53981250D03*
D17*
X150426250Y-53981250D03*
D16*
X157411250Y-73031250D03*
D17*
X159951250Y-73031250D03*
D16*
X162173750Y-92081250D03*
D17*
X164713750Y-92081250D03*
D16*
X152648750Y-111131250D03*
D17*
X155188750Y-111131250D03*
D16*
X166936250Y-53981250D03*
D17*
X169476250Y-53981250D03*
D16*
X176461250Y-73031250D03*
D17*
X179001250Y-73031250D03*
D16*
X181223750Y-92081250D03*
D17*
X183763750Y-92081250D03*
D16*
X171698750Y-111131250D03*
D17*
X174238750Y-111131250D03*
D16*
X185986250Y-53981250D03*
D17*
X188526250Y-53981250D03*
D16*
X195511250Y-73031250D03*
D17*
X198051250Y-73031250D03*
D16*
X200273750Y-92081250D03*
D17*
X202813750Y-92081250D03*
D16*
X190748750Y-111131250D03*
D17*
X193288750Y-111131250D03*
D16*
X205036250Y-130181250D03*
D17*
X207576250Y-130181250D03*
D16*
X193130000Y-130181250D03*
D17*
X195670000Y-130181250D03*
D16*
X185986250Y-130181250D03*
D17*
X188526250Y-130181250D03*
D16*
X205036250Y-53981250D03*
D17*
X207576250Y-53981250D03*
D16*
X214561250Y-73031250D03*
D17*
X217101250Y-73031250D03*
D16*
X219323750Y-92081250D03*
D17*
X221863750Y-92081250D03*
D16*
X209798750Y-111131250D03*
D17*
X212338750Y-111131250D03*
D16*
X224086250Y-53981250D03*
D17*
X226626250Y-53981250D03*
D16*
X233611250Y-73031250D03*
D17*
X236151250Y-73031250D03*
D16*
X238373750Y-92081250D03*
D17*
X240913750Y-92081250D03*
D16*
X228848750Y-111131250D03*
D17*
X231388750Y-111131250D03*
D16*
X243136250Y-53981250D03*
D17*
X245676250Y-53981250D03*
D16*
X252661250Y-73031250D03*
D17*
X255201250Y-73031250D03*
D16*
X257423750Y-92081250D03*
D17*
X259963750Y-92081250D03*
D16*
X247898750Y-111131250D03*
D17*
X250438750Y-111131250D03*
D16*
X338386250Y-53981250D03*
D17*
X340926250Y-53981250D03*
D16*
X262186250Y-53981250D03*
D17*
X264726250Y-53981250D03*
D16*
X271711250Y-73031250D03*
D17*
X274251250Y-73031250D03*
D16*
X276473750Y-92081250D03*
D17*
X279013750Y-92081250D03*
D16*
X266948750Y-111131250D03*
D17*
X269488750Y-111131250D03*
D16*
X264567500Y-130181250D03*
D17*
X267107500Y-130181250D03*
D16*
X269488750Y-130181250D03*
D17*
X266948750Y-130181250D03*
D16*
X281236250Y-53981250D03*
D17*
X283776250Y-53981250D03*
D16*
X290761250Y-73031250D03*
D17*
X293301250Y-73031250D03*
D16*
X295523750Y-92081250D03*
D17*
X298063750Y-92081250D03*
D16*
X285998750Y-111131250D03*
D17*
X288538750Y-111131250D03*
D16*
X285998750Y-130181250D03*
D17*
X288538750Y-130181250D03*
D16*
X290920000Y-130181250D03*
D17*
X288380000Y-130181250D03*
D16*
X290761250Y-130181250D03*
D17*
X293301250Y-130181250D03*
D16*
X300286250Y-53981250D03*
D17*
X302826250Y-53981250D03*
D16*
X309811250Y-73031250D03*
D17*
X312351250Y-73031250D03*
D16*
X314573750Y-92081250D03*
D17*
X317113750Y-92081250D03*
D16*
X305048750Y-111131250D03*
D17*
X307588750Y-111131250D03*
D16*
X312192500Y-111131250D03*
D17*
X314732500Y-111131250D03*
D16*
X321717500Y-111131250D03*
D17*
X324257500Y-111131250D03*
D16*
X309811250Y-130181250D03*
D17*
X312351250Y-130181250D03*
D16*
X314732500Y-130181250D03*
D17*
X312192500Y-130181250D03*
D16*
X319336250Y-53981250D03*
D17*
X321876250Y-53981250D03*
D16*
X331401250Y-53981250D03*
D17*
X328861250Y-53981250D03*
D16*
X333623750Y-73031250D03*
D17*
X336163750Y-73031250D03*
D16*
X329020000Y-92081250D03*
D17*
X326480000Y-92081250D03*
D16*
X336005000Y-92081250D03*
D17*
X338545000Y-92081250D03*
D16*
X332248750Y-76286250D03*
D17*
X332248750Y-78826250D03*
D16*
X331242500Y-111131250D03*
D17*
X333782500Y-111131250D03*
D16*
X338386250Y-111131250D03*
D17*
X340926250Y-111131250D03*
D16*
X333623750Y-130181250D03*
D17*
X336163750Y-130181250D03*
D16*
X338545000Y-130181250D03*
D17*
X336005000Y-130181250D03*
D15*
X69138750Y-46441250D03*
X75488750Y-43901250D03*
X309652500Y-122641250D03*
X316002500Y-120101250D03*
X73908750Y-65491250D03*
X80258750Y-62951250D03*
X76263750Y-84541250D03*
X82613750Y-82001250D03*
X71501250Y-84541250D03*
X77851250Y-82001250D03*
X73908750Y-122641250D03*
X80258750Y-120101250D03*
X88196250Y-46441250D03*
X94546250Y-43901250D03*
X97721250Y-65491250D03*
X104071250Y-62951250D03*
X102483750Y-84541250D03*
X108833750Y-82001250D03*
X92958750Y-103591250D03*
X99308750Y-101051250D03*
X95340000Y-122641250D03*
X101690000Y-120101250D03*
X97721250Y-122641250D03*
X104071250Y-120101250D03*
X107246250Y-46441250D03*
X113596250Y-43901250D03*
X116771250Y-65491250D03*
X123121250Y-62951250D03*
X121533750Y-84541250D03*
X127883750Y-82001250D03*
X112008750Y-103591250D03*
X118358750Y-101051250D03*
X119152500Y-122641250D03*
X125502500Y-120101250D03*
X121533750Y-122641250D03*
X127883750Y-120101250D03*
X126296250Y-46441250D03*
X132646250Y-43901250D03*
X135821250Y-65491250D03*
X142171250Y-62951250D03*
X140583750Y-84541250D03*
X146933750Y-82001250D03*
X131058750Y-103591250D03*
X137408750Y-101051250D03*
X169158750Y-141691250D03*
X175508750Y-139151250D03*
X166777500Y-141691250D03*
X173127500Y-139151250D03*
X145346250Y-46441250D03*
X151696250Y-43901250D03*
X154871250Y-65491250D03*
X161221250Y-62951250D03*
X159633750Y-84541250D03*
X165983750Y-82001250D03*
X150108750Y-103591250D03*
X156458750Y-101051250D03*
X188208750Y-141691250D03*
X194558750Y-139151250D03*
X164396250Y-46441250D03*
X170746250Y-43901250D03*
X173921250Y-65491250D03*
X180271250Y-62951250D03*
X178683750Y-84541250D03*
X185033750Y-82001250D03*
X169158750Y-103591250D03*
X175508750Y-101051250D03*
X183446250Y-46441250D03*
X189796250Y-43901250D03*
X192971250Y-65491250D03*
X199321250Y-62951250D03*
X197733750Y-84541250D03*
X204083750Y-82001250D03*
X188208750Y-103591250D03*
X194558750Y-101051250D03*
X202496250Y-46441250D03*
X208846250Y-43901250D03*
X212021250Y-65491250D03*
X218371250Y-62951250D03*
X216783750Y-84541250D03*
X223133750Y-82001250D03*
X207258750Y-103591250D03*
X213608750Y-101051250D03*
X221546250Y-46441250D03*
X227896250Y-43901250D03*
X231071250Y-65491250D03*
X237421250Y-62951250D03*
X235833750Y-84541250D03*
X242183750Y-82001250D03*
X226308750Y-103591250D03*
X232658750Y-101051250D03*
X240596250Y-46441250D03*
X246946250Y-43901250D03*
X250121250Y-65491250D03*
X256471250Y-62951250D03*
X254883750Y-84541250D03*
X261233750Y-82001250D03*
X245358750Y-103591250D03*
X251708750Y-101051250D03*
X335846250Y-46441250D03*
X342196250Y-43901250D03*
X259646250Y-46441250D03*
X265996250Y-43901250D03*
X269171250Y-65491250D03*
X275521250Y-62951250D03*
X273933750Y-84541250D03*
X280283750Y-82001250D03*
X264408750Y-103591250D03*
X270758750Y-101051250D03*
X262027500Y-122641250D03*
X268377500Y-120101250D03*
X264408750Y-122641250D03*
X270758750Y-120101250D03*
X278696250Y-46441250D03*
X285046250Y-43901250D03*
X288221250Y-65491250D03*
X294571250Y-62951250D03*
X292983750Y-84541250D03*
X299333750Y-82001250D03*
X283458750Y-103591250D03*
X289808750Y-101051250D03*
X288221250Y-122641250D03*
X294571250Y-120101250D03*
X285840000Y-122641250D03*
X292190000Y-120101250D03*
X283458750Y-122641250D03*
X289808750Y-120101250D03*
X297746250Y-46441250D03*
X304096250Y-43901250D03*
X307271250Y-65491250D03*
X313621250Y-62951250D03*
X312033750Y-84541250D03*
X318383750Y-82001250D03*
X302508750Y-103591250D03*
X308858750Y-101051250D03*
X307271250Y-122641250D03*
X313621250Y-120101250D03*
X316770000Y-46441250D03*
X323120000Y-43901250D03*
X331083750Y-65491250D03*
X337433750Y-62951250D03*
X333465000Y-84541250D03*
X339815000Y-82001250D03*
X339788750Y-73746250D03*
X343058750Y-80096250D03*
X335846250Y-103591250D03*
X342196250Y-101051250D03*
X328702500Y-103591250D03*
X335052500Y-101051250D03*
X333465000Y-122641250D03*
X339815000Y-120101250D03*
X331083750Y-122641250D03*
X337433750Y-120101250D03*
D18*
X65930000Y-86826250D03*
D19*
X65930000Y-89086250D03*
D20*
X63431250Y-96456250D03*
D21*
X89131250Y-67856250D03*
D22*
X192131250Y-86956250D03*
X254431250Y-125156250D03*
X323981250Y-67856250D03*
D20*
X348931250Y-96456250D03*
D23*
X192213750Y-95856250D03*
D22*
X88931250Y-143456250D03*
X231931250Y-143456250D03*
X323931250Y-143456250D03*
D11*
X211645000Y-114381250D03*
D12*
X210395000Y-114381250D03*
X209145000Y-114381250D03*
X207895000Y-114381250D03*
X206645000Y-114381250D03*
X205395000Y-114381250D03*
X204145000Y-114381250D03*
X202895000Y-114381250D03*
X201645000Y-114381250D03*
X200395000Y-114381250D03*
D11*
X127431250Y-137956250D03*
D12*
X127431250Y-139206250D03*
X127431250Y-140456250D03*
X127431250Y-141706250D03*
X127431250Y-142956250D03*
X127431250Y-144206250D03*
X127431250Y-145456250D03*
X127431250Y-146706250D03*
X127431250Y-147956250D03*
X127431250Y-149206250D03*
D11*
X268718750Y-147112500D03*
D12*
X268718750Y-145862500D03*
X268718750Y-144612500D03*
X268718750Y-143362500D03*
X268718750Y-142112500D03*
D15*
X309652500Y-103591250D03*
X316002500Y-101051250D03*
D24*
X223805000Y-111056250D03*
D25*
X221265000Y-111056250D03*
X218725000Y-111056250D03*
D15*
X326321250Y-46441250D03*
X332671250Y-43901250D03*
X323940000Y-84541250D03*
X330290000Y-82001250D03*
X319177500Y-103591250D03*
X325527500Y-101051250D03*
X183446250Y-122641250D03*
X189796250Y-120101250D03*
X190590000Y-122641250D03*
X196940000Y-120101250D03*
X202496250Y-122641250D03*
X208846250Y-120101250D03*
X81026250Y-103591250D03*
X87376250Y-101051250D03*
X71501250Y-103591250D03*
X77851250Y-101051250D03*
D13*
X318198750Y-41996250D03*
D14*
X318198750Y-57236250D03*
D13*
X344392500Y-41996250D03*
D14*
X344392500Y-57236250D03*
D13*
X315817500Y-80096250D03*
D14*
X315817500Y-95336250D03*
D13*
X339630000Y-80096250D03*
D14*
X339630000Y-95336250D03*
D13*
X330263750Y-65650000D03*
D14*
X345503750Y-65650000D03*
D13*
X330263750Y-89462500D03*
D14*
X345503750Y-89462500D03*
D13*
X72930000Y-99146250D03*
D14*
X72930000Y-114386250D03*
D13*
X96742500Y-99146250D03*
D14*
X96742500Y-114386250D03*
D13*
X311055000Y-99146250D03*
D14*
X311055000Y-114386250D03*
D13*
X334867500Y-99146250D03*
D14*
X334867500Y-114386250D03*
D13*
X244380000Y-132166250D03*
D14*
X244380000Y-116926250D03*
D13*
X149130000Y-132166250D03*
D14*
X149130000Y-116926250D03*
D13*
X263430000Y-132166250D03*
D14*
X263430000Y-116926250D03*
D26*
X68985000Y-134456250D03*
X67715000Y-134456250D03*
X63905000Y-134456250D03*
X65175000Y-134456250D03*
X66445000Y-134456250D03*
X343825000Y-134456250D03*
X345095000Y-134456250D03*
X348905000Y-134456250D03*
X347635000Y-134456250D03*
X346365000Y-134456250D03*
D15*
X207232500Y-141691250D03*
X213582500Y-139151250D03*
X209613750Y-141691250D03*
X215963750Y-139151250D03*
D13*
X215813750Y-132166250D03*
D14*
X215813750Y-116926250D03*
D13*
X172951250Y-132166250D03*
D14*
X172951250Y-116926250D03*
D15*
X188191250Y-122641250D03*
X194541250Y-120101250D03*
D16*
X159775000Y-130181250D03*
D17*
X162315000Y-130181250D03*
D16*
X226450000Y-130181250D03*
D17*
X228990000Y-130181250D03*
D15*
X157235000Y-122641250D03*
X163585000Y-120101250D03*
X223910000Y-122641250D03*
X230260000Y-120101250D03*
D16*
X193115000Y-130181250D03*
D17*
X190575000Y-130181250D03*
D13*
X239626250Y-132166250D03*
D14*
X239626250Y-116926250D03*
D27*
X85495000Y-41281250D03*
D28*
X84545000Y-43931250D03*
X79545000Y-43981250D03*
D27*
X78595000Y-41281250D03*
M02*
