M48
INCH,TZ
T1C0.028
T2C0.067
T3C0.120
T4C0.157
T5C0.157
T6C0.236
%
G90
G05
T1
X1.1501Y-4.5836
X1.1511Y-4.7066
X1.2001Y-4.5836
X1.2011Y-4.7066
X1.2501Y-4.5836
X1.2511Y-4.7066
X1.3001Y-4.5836
X1.3011Y-4.7066
X1.3501Y-4.5836
X1.3511Y-4.7066
X12.152Y-4.7066
X12.155Y-4.5826
X12.202Y-4.7066
X12.205Y-4.5826
X12.252Y-4.7066
X12.255Y-4.5826
X12.302Y-4.7066
X12.305Y-4.5826
X12.352Y-4.7066
X12.355Y-4.5826
T2
X1.3Y-1.2188
X1.3938Y-2.7188
X1.3938Y-3.4688
X1.3938Y-4.2188
X1.4875Y-1.9688
X1.4875Y-4.2188
X1.5813Y-2.7188
X1.7Y-1.2188
X1.7688Y-3.4688
X1.7937Y-2.7188
X1.7937Y-3.4688
X1.7937Y-4.2188
X1.8875Y-1.9688
X1.8875Y-4.2188
X1.9812Y-2.7188
X2.05Y-1.2188
X2.1687Y-3.4688
X2.2375Y-3.4688
X2.3312Y-4.2188
X2.425Y-1.9688
X2.425Y-4.2188
X2.45Y-1.2188
X2.6125Y-2.7188
X2.6375Y-3.4688
X2.7312Y-4.2188
X2.8Y-1.2188
X2.825Y-1.9688
X2.825Y-4.2188
X2.9875Y-3.4688
X3.0125Y-2.7188
X3.175Y-1.9688
X3.2Y-1.2188
X3.2687Y-4.2188
X3.3625Y-2.7188
X3.3625Y-4.2188
X3.3875Y-3.4688
X3.55Y-1.2188
X3.575Y-1.9688
X3.6687Y-4.2188
X3.7375Y-3.4688
X3.7625Y-2.7188
X3.7625Y-4.2188
X3.925Y-1.9688
X3.95Y-1.2188
X4.1125Y-2.7188
X4.1375Y-3.4688
X4.3Y-1.2188
X4.325Y-1.9688
X4.4875Y-3.4688
X4.5125Y-2.7188
X4.675Y-1.9688
X4.7Y-1.2188
X4.8625Y-2.7188
X4.8875Y-3.4688
X5.05Y-1.2188
X5.075Y-1.9688
X5.1487Y-5.0675
X5.2375Y-3.4688
X5.2425Y-5.0675
X5.2625Y-2.7188
X5.425Y-1.9688
X5.45Y-1.2188
X5.5487Y-5.0675
X5.6125Y-2.7188
X5.6375Y-3.4688
X5.6425Y-5.0675
X5.8Y-1.2188
X5.8Y-4.2188
X5.825Y-1.9688
X5.9875Y-3.4688
X5.9925Y-5.0675
X6.0125Y-2.7188
X6.0812Y-4.2188
X6.175Y-1.9688
X6.2Y-1.2188
X6.2Y-4.2188
X6.3625Y-2.7188
X6.3875Y-3.4688
X6.3925Y-5.0675
X6.4813Y-4.2188
X6.5372Y-4.2188
X6.55Y-1.2188
X6.575Y-1.9688
X6.7375Y-3.4688
X6.7425Y-5.0675
X6.7625Y-2.7188
X6.8362Y-5.0675
X6.925Y-1.9688
X6.9372Y-4.2188
X6.95Y-1.2188
X7.1125Y-2.7188
X7.1375Y-3.4688
X7.1425Y-5.0675
X7.2362Y-5.0675
X7.3Y-1.2188
X7.325Y-1.9688
X7.4875Y-3.4688
X7.5125Y-2.7188
X7.675Y-1.9688
X7.7Y-1.2188
X7.8625Y-2.7188
X7.8875Y-3.4688
X8.05Y-1.2188
X8.075Y-1.9688
X8.2375Y-3.4688
X8.2625Y-2.7188
X8.425Y-1.9688
X8.45Y-1.2188
X8.6125Y-2.7188
X8.6375Y-3.4688
X8.8Y-1.2188
X8.825Y-1.9688
X8.8937Y-4.2188
X8.9875Y-3.4688
X8.9875Y-4.2188
X9.0125Y-2.7188
X9.175Y-1.9688
X9.2Y-1.2188
X9.2937Y-4.2188
X9.3625Y-2.7188
X9.3875Y-3.4688
X9.3875Y-4.2188
X9.55Y-1.2188
X9.575Y-1.9688
X9.7375Y-3.4688
X9.7375Y-4.2188
X9.7625Y-2.7188
X9.8312Y-4.2188
X9.9247Y-4.2188
X9.925Y-1.9688
X9.95Y-1.2188
X10.1125Y-2.7188
X10.1375Y-3.4688
X10.1375Y-4.2188
X10.2312Y-4.2188
X10.3Y-1.2188
X10.3247Y-4.2188
X10.325Y-1.9688
X10.4875Y-3.4688
X10.5125Y-2.7188
X10.675Y-1.9688
X10.675Y-4.2188
X10.7Y-1.2188
X10.7687Y-3.4688
X10.7687Y-4.2188
X10.8625Y-2.7188
X10.8875Y-3.4688
X11.05Y-1.2188
X11.075Y-1.9688
X11.075Y-4.2188
X11.1437Y-3.4688
X11.1687Y-3.4688
X11.1687Y-4.2188
X11.2625Y-2.7188
X11.3312Y-2.7188
X11.425Y-1.2188
X11.45Y-1.2188
X11.5187Y-3.4688
X11.5437Y-3.4688
X11.6124Y-4.2192
X11.6125Y-1.9688
X11.7061Y-4.2192
X11.7062Y-2.7188
X11.7312Y-2.7188
X11.8Y-1.2188
X11.8Y-3.4688
X11.825Y-1.2188
X11.9062Y-2.1437
X11.9062Y-2.5437
X11.9187Y-3.4688
X12.0124Y-4.2192
X12.0125Y-1.9688
X12.1061Y-4.2192
X12.1062Y-2.7188
X12.2Y-1.2188
X12.2Y-3.4688
T3
X1.5Y-3.1938
X2.4375Y-3.1938
X4.3125Y-4.4937
X4.5Y-4.4937
X8.25Y-4.4937
X9.Y-4.4937
X10.875Y-3.1938
X11.0625Y-2.4438
X11.1562Y-0.9437
X11.6312Y-1.875
X11.6312Y-2.8125
X11.8125Y-3.1938
X12.Y-2.4438
X12.0938Y-0.9437
T4
X1.5Y-3.7937
X2.4375Y-3.7937
X4.3125Y-3.8937
X4.5Y-3.8937
X8.25Y-3.8937
X9.Y-3.8937
X10.875Y-3.7937
X11.0625Y-3.0437
X11.1562Y-1.5437
X11.8125Y-3.7937
X12.Y-3.0437
X12.0938Y-1.5437
X12.2312Y-1.875
X12.2312Y-2.8125
T5
X1.5Y-1.2188
X1.5938Y-2.7188
X1.5938Y-3.4688
X1.5938Y-4.2188
X1.6875Y-1.9688
X1.6875Y-4.2188
X1.7812Y-2.7188
X1.9688Y-3.4688
X2.25Y-1.2188
X2.4375Y-3.4688
X2.5312Y-4.2188
X2.625Y-1.9688
X2.625Y-4.2188
X2.8125Y-2.7188
X3.Y-1.2188
X3.1875Y-3.4688
X3.375Y-1.9688
X3.4688Y-4.2188
X3.5625Y-2.7188
X3.5625Y-4.2188
X3.75Y-1.2188
X3.9375Y-3.4688
X4.125Y-1.9688
X4.3125Y-2.7188
X4.5Y-1.2188
X4.6875Y-3.4688
X4.875Y-1.9688
X5.0625Y-2.7188
X5.25Y-1.2188
X5.3487Y-5.0675
X5.4375Y-3.4688
X5.4425Y-5.0675
X5.625Y-1.9688
X5.8125Y-2.7188
X6.Y-1.2188
X6.Y-4.2188
X6.1875Y-3.4688
X6.1925Y-5.0675
X6.2812Y-4.2188
X6.375Y-1.9688
X6.5625Y-2.7188
X6.7372Y-4.2188
X6.75Y-1.2188
X6.9375Y-3.4688
X6.9425Y-5.0675
X7.0362Y-5.0675
X7.125Y-1.9688
X7.3125Y-2.7188
X7.5Y-1.2188
X7.6875Y-3.4688
X7.875Y-1.9688
X8.0625Y-2.7188
X8.25Y-1.2188
X8.4375Y-3.4688
X8.625Y-1.9688
X8.8125Y-2.7188
X9.Y-1.2188
X9.0938Y-4.2188
X9.1875Y-3.4688
X9.1875Y-4.2188
X9.375Y-1.9688
X9.5625Y-2.7188
X9.75Y-1.2188
X9.9375Y-3.4688
X9.9375Y-4.2188
X10.0312Y-4.2188
X10.1247Y-4.2188
X10.125Y-1.9688
X10.3125Y-2.7188
X10.5Y-1.2188
X10.6875Y-3.4688
X10.875Y-1.9688
X10.875Y-4.2188
X10.9688Y-3.4688
X10.9688Y-4.2188
X11.0625Y-2.7188
X11.25Y-1.2188
X11.3438Y-3.4688
X11.5312Y-2.7188
X11.625Y-1.2188
X11.7188Y-3.4688
X11.8124Y-4.2192
X11.8125Y-1.9688
X11.9061Y-4.2192
X11.9062Y-2.3438
X11.9062Y-2.7188
X12.Y-1.2188
X12.Y-3.4688
T6
X6.1871Y-3.0934
T0
M30
