M48
INCH,TZ
T1C0.016
T2C0.020
T3C0.022
T4C0.039
T5C0.044
T6C0.059
T7C0.087
T8C0.098
%
G90
G05
T1
X2.6632Y-3.5898
X2.7643Y-2.3172
X2.7643Y-2.9392
X2.8679Y-3.7867
X3.1593Y-2.2276
X3.3706Y-5.0101
X3.3706Y-5.1912
X3.4152Y-3.8457
X3.427Y-4.6361
X3.4705Y-2.2865
X3.4809Y-2.9392
X3.4809Y-3.6873
X3.599Y-3.766
X3.6396Y-2.3615
X3.6553Y-3.0229
X3.6711Y-2.33
X4.0872Y-4.565
X4.1738Y-4.4747
X4.347Y-3.1518
X4.5202Y-3.5219
X4.6305Y-3.3959
X4.8824Y-3.7109
X4.8824Y-4.4274
X4.9388Y-2.3772
X5.0018Y-2.393
X5.0478Y-4.4747
X5.1829Y-4.8733
X5.1986Y-4.9835
X5.2459Y-5.0701
X5.2797Y-4.9274
X5.2931Y-5.1725
X5.3112Y-5.0534
X5.3325Y-2.2906
X5.347Y-4.4747
X5.3549Y-4.6636
X5.3703Y-4.6951
X5.3848Y-4.888
X5.4018Y-4.2621
X5.41Y-5.0967
X5.4333Y-4.2817
X5.4572Y-4.6558
X5.4585Y-4.5111
X5.4651Y-3.1046
X5.4809Y-4.3644
X5.4887Y-4.4117
X5.49Y-4.5268
X5.4978Y-2.2434
X5.5435Y-5.3959
X5.5474Y-5.0849
X5.5907Y-5.3959
X5.5911Y-4.3487
X5.6068Y-5.0652
X5.6305Y-4.3644
X5.6317Y-5.0386
X5.6856Y-4.2621
X5.7104Y-4.9599
X5.7171Y-4.9156
X5.7262Y-2.2197
X5.7734Y-5.2119
X5.7813Y-4.393
X5.7813Y-5.1489
X5.8037Y-4.0652
X6.0242Y-4.8369
X6.1108Y-4.9786
X6.112Y-4.5741
X6.1789Y-5.1961
X6.2144Y-5.1843
X6.2222Y-3.1095
X6.364Y-4.5898
X6.4821Y-5.1331
X6.7419Y-4.9126
X6.7813Y-2.9678
X6.7958Y-3.1754
X6.9073Y-4.2434
X6.9348Y-4.263
X6.9663Y-4.2906
X7.0005Y-3.7817
X7.0096Y-2.0652
X7.0293Y-5.0229
X7.049Y-4.4481
X7.1829Y-4.104
X7.2459Y-4.4481
X7.2577Y-3.7512
X7.2774Y-3.893
X7.3404Y-2.8182
X7.9703Y-2.3142
X7.9781Y-4.141
X8.1278Y-2.2749
X8.1356Y-2.2276
X8.1498Y-3.8369
X8.2498Y-4.6213
X8.2931Y-5.015
X8.4494Y-4.3723
X8.6396Y-5.0465
X8.6947Y-5.0701
X8.7183Y-4.6449
X8.7797Y-4.4747
X8.8404Y-3.0308
X8.8679Y-2.9678
X8.8821Y-3.766
X8.9112Y-2.9993
X9.3234Y-4.0022
X9.423Y-4.9914
X9.7364Y-3.0882
X9.8285Y-4.6292
X9.8679Y-5.1331
X10.0242Y-4.3644
X10.1907Y-2.3142
X10.2459Y-5.1331
X10.3627Y-4.3329
X10.4598Y-5.8792
X10.6002Y-2.3142
X10.7419Y-2.2276
X10.7797Y-2.2699
X11.1041Y-2.8194
X11.1108Y-4.2817
X11.2222Y-3.5682
X11.5671Y-4.3172
X11.5687Y-3.5662
X11.7089Y-3.8054
X11.7801Y-4.3172
X11.9061Y-4.2857
X12.0163Y-5.0652
X12.0215Y-4.5662
X12.2537Y-3.6292
X12.8128Y-5.1882
X12.8443Y-2.3615
X12.9388Y-3.826
X13.0002Y-2.2621
X13.0557Y-4.5455
T2
X5.017Y-5.4313
X5.017Y-5.4806
X5.017Y-5.5298
X5.017Y-5.579
X5.017Y-5.6282
X5.017Y-5.6774
X5.017Y-5.7266
X5.017Y-5.7758
X5.017Y-5.825
X5.017Y-5.8743
X7.8896Y-4.5032
X7.9388Y-4.5032
X7.988Y-4.5032
X8.0372Y-4.5032
X8.0864Y-4.5032
X8.1356Y-4.5032
X8.1848Y-4.5032
X8.2341Y-4.5032
X8.2833Y-4.5032
X8.3325Y-4.5032
X9.6698Y-4.7857
X9.6698Y-4.8349
X9.6698Y-4.8841
X10.5795Y-5.595
X10.5795Y-5.6442
X10.5795Y-5.6934
X10.5795Y-5.7426
X10.5795Y-5.7918
T4
X8.6112Y-4.3723
X8.7112Y-4.3723
X8.8112Y-4.3723
T5
X2.8223Y-2.1252
X2.916Y-3.6252
X2.916Y-4.3752
X2.916Y-5.1252
X2.9223Y-2.1252
X3.0098Y-2.8752
X3.0098Y-5.1252
X3.016Y-3.6252
X3.016Y-4.3752
X3.016Y-5.1252
X3.1035Y-3.6252
X3.1098Y-2.8752
X3.1098Y-5.1252
X3.2035Y-3.6252
X3.291Y-4.3752
X3.391Y-4.3752
X3.5723Y-2.1252
X3.6723Y-2.1252
X3.7598Y-4.3752
X3.8535Y-5.1252
X3.8598Y-4.3752
X3.9473Y-2.8752
X3.9473Y-5.1252
X3.9535Y-5.1252
X4.0473Y-2.8752
X4.0473Y-5.1252
X4.1348Y-3.6252
X4.2348Y-3.6252
X4.3223Y-2.1252
X4.4223Y-2.1252
X4.5098Y-4.3752
X4.6098Y-4.3752
X4.6973Y-2.8752
X4.791Y-5.1252
X4.7973Y-2.8752
X4.8848Y-3.6252
X4.8848Y-5.1252
X4.891Y-5.1252
X4.9848Y-3.6252
X4.9848Y-5.1252
X5.0723Y-2.1252
X5.1723Y-2.1252
X5.2598Y-4.3752
X5.3598Y-4.3752
X5.4473Y-2.8752
X5.5473Y-2.8752
X5.6348Y-3.6252
X5.7348Y-3.6252
X5.8223Y-2.1252
X5.9223Y-2.1252
X6.0098Y-4.3752
X6.1098Y-4.3752
X6.1973Y-2.8752
X6.2904Y-5.1252
X6.2973Y-2.8752
X6.3848Y-3.6252
X6.3904Y-5.1252
X6.4848Y-3.6252
X6.5723Y-2.1252
X6.6723Y-2.1252
X6.7598Y-4.3752
X6.8598Y-4.3752
X6.9473Y-2.8752
X7.0473Y-2.8752
X7.1348Y-3.6252
X7.2348Y-3.6252
X7.3223Y-2.1252
X7.3223Y-5.1252
X7.4223Y-2.1252
X7.4223Y-5.1252
X7.503Y-5.1252
X7.5098Y-4.3752
X7.603Y-5.1252
X7.6035Y-5.1252
X7.6098Y-4.3752
X7.6973Y-2.8752
X7.7035Y-5.1252
X7.7973Y-2.8752
X7.8848Y-3.6252
X7.9848Y-3.6252
X8.0723Y-2.1252
X8.0723Y-5.1252
X8.1723Y-2.1252
X8.1723Y-5.1252
X8.2598Y-4.3752
X8.3598Y-4.3752
X8.4473Y-2.8752
X8.5473Y-2.8752
X8.6348Y-3.6252
X8.7348Y-3.6252
X8.8223Y-2.1252
X8.9154Y-5.1252
X8.9223Y-2.1252
X9.0098Y-4.3752
X9.0154Y-5.1252
X9.1098Y-4.3752
X9.1973Y-2.8752
X9.2973Y-2.8752
X9.3848Y-3.6252
X9.4848Y-3.6252
X9.5723Y-2.1252
X9.6723Y-2.1252
X9.7598Y-4.3752
X9.8598Y-4.3752
X9.9473Y-2.8752
X10.0473Y-2.8752
X10.1348Y-3.6252
X10.2348Y-3.6252
X10.3223Y-2.1252
X10.416Y-5.1252
X10.4223Y-2.1252
X10.5098Y-4.3752
X10.5098Y-5.1252
X10.516Y-5.1252
X10.6098Y-4.3752
X10.6098Y-5.1252
X10.6973Y-2.8752
X10.7973Y-2.8752
X10.8848Y-3.6252
X10.9848Y-3.6252
X11.0723Y-2.1252
X11.1723Y-2.1252
X11.2598Y-4.3752
X11.2598Y-5.1252
X11.3535Y-5.1252
X11.3598Y-4.3752
X11.3598Y-5.1252
X11.4473Y-2.8752
X11.4473Y-5.1252
X11.4535Y-5.1252
X11.5473Y-2.8752
X11.5473Y-5.1252
X11.6348Y-3.6252
X11.7348Y-3.6252
X11.8223Y-2.1252
X11.9223Y-2.1252
X12.0098Y-4.3752
X12.1098Y-4.3752
X12.1973Y-2.8752
X12.1973Y-5.1252
X12.291Y-4.3752
X12.291Y-5.1252
X12.2973Y-2.8752
X12.2973Y-5.1252
X12.3848Y-3.6252
X12.391Y-4.3752
X12.391Y-5.1252
X12.4848Y-3.6252
X12.5723Y-2.1252
X12.666Y-4.3752
X12.6723Y-2.1252
X12.766Y-4.3752
X12.8535Y-3.6252
X12.9473Y-2.1252
X12.9535Y-3.6252
X13.041Y-4.3752
X13.0473Y-2.1252
X13.0807Y-3.0034
X13.0807Y-3.1034
X13.1348Y-2.8752
X13.1348Y-5.1252
X13.141Y-4.3752
X13.2285Y-3.6252
X13.2285Y-5.1252
X13.2348Y-2.8752
X13.2348Y-5.1252
X13.3223Y-2.1252
X13.3223Y-4.3752
X13.3285Y-3.6252
X13.3285Y-5.1252
X13.4223Y-2.1252
X13.4223Y-4.3752
T6
X2.722Y-1.8284
X2.815Y-3.3284
X2.815Y-4.0784
X2.816Y-4.8284
X2.9098Y-2.5784
X2.9098Y-4.8284
X2.972Y-1.7284
X3.0025Y-3.3284
X3.065Y-3.2284
X3.065Y-3.9784
X3.066Y-4.7284
X3.1598Y-2.4784
X3.1598Y-4.7284
X3.19Y-4.0784
X3.2525Y-3.2284
X3.44Y-3.9784
X3.4723Y-1.8284
X3.6598Y-4.0784
X3.7223Y-1.7284
X3.7535Y-4.8284
X3.8473Y-2.5784
X3.8473Y-4.8284
X3.9098Y-3.9784
X4.0035Y-4.7284
X4.0348Y-3.3284
X4.0973Y-2.4784
X4.0973Y-4.7284
X4.2223Y-1.8284
X4.2848Y-3.2284
X4.4098Y-4.0784
X4.4723Y-1.7284
X4.5973Y-2.5784
X4.6598Y-3.9784
X4.691Y-4.8284
X4.7848Y-3.3284
X4.7848Y-4.8284
X4.8473Y-2.4784
X4.941Y-4.7284
X4.9723Y-1.8284
X5.0348Y-3.2284
X5.0348Y-4.7284
X5.1598Y-4.0784
X5.2223Y-1.7284
X5.3473Y-2.5784
X5.4098Y-3.9784
X5.5348Y-3.3284
X5.5973Y-2.4784
X5.7223Y-1.8284
X5.7848Y-3.2284
X5.9098Y-4.0784
X5.9723Y-1.7284
X6.0973Y-2.5784
X6.1598Y-3.9784
X6.1904Y-4.8284
X6.2848Y-3.3284
X6.3473Y-2.4784
X6.4404Y-4.7284
X6.4723Y-1.8284
X6.5348Y-3.2284
X6.566Y-5.5784
X6.6598Y-4.0784
X6.6598Y-5.5784
X6.7223Y-1.7284
X6.816Y-5.4784
X6.8473Y-2.5784
X6.9098Y-3.9784
X6.9098Y-5.4784
X7.0348Y-3.3284
X7.0973Y-2.4784
X7.2223Y-1.8284
X7.2223Y-4.8284
X7.2848Y-3.2284
X7.4091Y-4.8284
X7.4098Y-4.0784
X7.4098Y-5.5784
X7.4723Y-1.7284
X7.4723Y-4.7284
X7.5035Y-4.8284
X7.5973Y-2.5784
X7.6591Y-4.7284
X7.6598Y-3.9784
X7.6598Y-5.4784
X7.7535Y-4.7284
X7.7848Y-3.3284
X7.8473Y-2.4784
X7.9723Y-1.8284
X7.9723Y-4.8284
X8.0348Y-3.2284
X8.1588Y-5.5784
X8.1598Y-4.0784
X8.2223Y-1.7284
X8.2223Y-4.7284
X8.2525Y-5.5784
X8.3473Y-2.5784
X8.4088Y-5.4784
X8.4098Y-3.9784
X8.5025Y-5.4784
X8.5348Y-3.3284
X8.5973Y-2.4784
X8.7223Y-1.8284
X8.7848Y-3.2284
X8.8154Y-4.8284
X8.9098Y-4.0784
X8.9723Y-1.7284
X9.0654Y-4.7284
X9.0973Y-2.5784
X9.1598Y-3.9784
X9.2848Y-3.3284
X9.3473Y-2.4784
X9.4723Y-1.8284
X9.5348Y-3.2284
X9.6598Y-4.0784
X9.7223Y-1.7284
X9.8473Y-2.5784
X9.9098Y-3.9784
X10.0348Y-3.3284
X10.0973Y-2.4784
X10.2223Y-1.8284
X10.2848Y-3.2284
X10.316Y-4.8284
X10.4098Y-4.0784
X10.4098Y-4.8284
X10.4723Y-1.7284
X10.566Y-4.7284
X10.5973Y-2.5784
X10.6598Y-3.9784
X10.6598Y-4.7284
X10.7848Y-3.3284
X10.8473Y-2.4784
X10.9723Y-1.8284
X11.0348Y-3.2284
X11.1598Y-4.0784
X11.1598Y-4.8284
X11.2223Y-1.7284
X11.2535Y-4.8284
X11.3473Y-2.5784
X11.3473Y-4.8284
X11.4098Y-3.9784
X11.4098Y-4.7284
X11.5035Y-4.7284
X11.5348Y-3.3284
X11.5973Y-2.4784
X11.5973Y-4.7284
X11.7223Y-1.8284
X11.7848Y-3.2284
X11.9098Y-4.0784
X11.9723Y-1.7284
X12.0973Y-2.5784
X12.0973Y-4.8284
X12.1598Y-3.9784
X12.191Y-4.0784
X12.191Y-4.8284
X12.2848Y-3.3284
X12.3473Y-2.4784
X12.3473Y-4.7284
X12.441Y-3.9784
X12.441Y-4.7284
X12.4713Y-1.8284
X12.5348Y-3.2284
X12.566Y-4.0784
X12.7213Y-1.7284
X12.7535Y-3.3284
X12.816Y-3.9784
X12.8473Y-1.8284
X12.941Y-4.0784
X13.0035Y-3.2284
X13.0348Y-2.5784
X13.0348Y-4.8284
X13.0973Y-1.7284
X13.1285Y-3.3284
X13.1285Y-4.8284
X13.191Y-3.9784
X13.2223Y-1.8284
X13.2223Y-4.0784
X13.2848Y-2.4784
X13.2848Y-4.7284
X13.3775Y-2.9034
X13.3785Y-3.2284
X13.3785Y-4.7284
X13.4723Y-1.7284
X13.4723Y-3.9784
X13.5062Y-3.1534
T8
X3.5091Y-2.6715
T2
X3.0943Y-1.638G85X3.0943Y-1.6125
G05
X3.3659Y-1.638G85X3.3659Y-1.6125
G05
T3
X3.1376Y-1.7315G85X3.1258Y-1.7315
G05
X3.3344Y-1.7296G85X3.3226Y-1.7296
G05
T7
X2.3319Y-3.7975G85X2.6626Y-3.7975
G05
X13.5721Y-3.7975G85X13.9028Y-3.7975
G05
T8
X3.4599Y-5.6479G85X3.5426Y-5.6479
G05
X7.5229Y-3.4235G85X7.6056Y-3.4235
G05
X9.0898Y-5.6479G85X9.1725Y-5.6479
G05
X9.9756Y-4.9274G85X10.0583Y-4.9274
G05
X12.7119Y-5.6479G85X12.7945Y-5.6479
G05
X12.7138Y-2.6715G85X12.7965Y-2.6715
G05
T0
M30
