M48
INCH,TZ
T1C0.028
T2C0.067
T3C0.120
T4C0.157
T5C0.157
T6C0.236
%
G90
G05
T1
X2.5159Y-5.2936
X2.5659Y-5.2936
X2.6159Y-5.2936
X2.6659Y-5.2936
X2.7159Y-5.2936
X13.5364Y-5.2936
X13.5864Y-5.2936
X13.6364Y-5.2936
X13.6864Y-5.2936
X13.7364Y-5.2936
T2
X2.672Y-1.9284
X2.765Y-3.4284
X2.765Y-4.1784
X2.766Y-4.9284
X2.8598Y-2.6784
X2.8598Y-4.9284
X2.9525Y-3.4284
X3.072Y-1.9284
X3.14Y-4.1784
X3.165Y-3.4284
X3.165Y-4.1784
X3.166Y-4.9284
X3.2598Y-2.6784
X3.2598Y-4.9284
X3.3525Y-3.4284
X3.4223Y-1.9284
X3.54Y-4.1784
X3.6098Y-4.1784
X3.7035Y-4.9284
X3.7973Y-2.6784
X3.7973Y-4.9284
X3.8223Y-1.9284
X3.9848Y-3.4284
X4.0098Y-4.1784
X4.1035Y-4.9284
X4.1723Y-1.9284
X4.1973Y-2.6784
X4.1973Y-4.9284
X4.3598Y-4.1784
X4.3848Y-3.4284
X4.5473Y-2.6784
X4.5723Y-1.9284
X4.641Y-4.9284
X4.7348Y-3.4284
X4.7348Y-4.9284
X4.7598Y-4.1784
X4.9223Y-1.9284
X4.9473Y-2.6784
X5.041Y-4.9284
X5.1098Y-4.1784
X5.1348Y-3.4284
X5.1348Y-4.9284
X5.2973Y-2.6784
X5.3223Y-1.9284
X5.4848Y-3.4284
X5.5098Y-4.1784
X5.6723Y-1.9284
X5.6973Y-2.6784
X5.8598Y-4.1784
X5.8848Y-3.4284
X6.0473Y-2.6784
X6.0723Y-1.9284
X6.1404Y-4.9284
X6.2348Y-3.4284
X6.2598Y-4.1784
X6.4223Y-1.9284
X6.4473Y-2.6784
X6.516Y-5.6784
X6.5404Y-4.9284
X6.6098Y-4.1784
X6.6098Y-5.6784
X6.6348Y-3.4284
X6.7973Y-2.6784
X6.8223Y-1.9284
X6.916Y-5.6784
X6.9848Y-3.4284
X7.0098Y-4.1784
X7.0098Y-5.6784
X7.1723Y-1.9284
X7.1723Y-4.9284
X7.1973Y-2.6784
X7.3591Y-4.9284
X7.3598Y-4.1784
X7.3598Y-5.6784
X7.3848Y-3.4284
X7.4535Y-4.9284
X7.5473Y-2.6784
X7.5723Y-1.9284
X7.5723Y-4.9284
X7.7348Y-3.4284
X7.7591Y-4.9284
X7.7598Y-4.1784
X7.7598Y-5.6784
X7.8535Y-4.9284
X7.9223Y-1.9284
X7.9223Y-4.9284
X7.9473Y-2.6784
X8.1088Y-5.6784
X8.1098Y-4.1784
X8.1348Y-3.4284
X8.2025Y-5.6784
X8.2973Y-2.6784
X8.3223Y-1.9284
X8.3223Y-4.9284
X8.4848Y-3.4284
X8.5088Y-5.6784
X8.5098Y-4.1784
X8.6025Y-5.6784
X8.6723Y-1.9284
X8.6973Y-2.6784
X8.7654Y-4.9284
X8.8598Y-4.1784
X8.8848Y-3.4284
X9.0473Y-2.6784
X9.0723Y-1.9284
X9.1654Y-4.9284
X9.2348Y-3.4284
X9.2598Y-4.1784
X9.4223Y-1.9284
X9.4473Y-2.6784
X9.6098Y-4.1784
X9.6348Y-3.4284
X9.7973Y-2.6784
X9.8223Y-1.9284
X9.9848Y-3.4284
X10.0098Y-4.1784
X10.1723Y-1.9284
X10.1973Y-2.6784
X10.266Y-4.9284
X10.3598Y-4.1784
X10.3598Y-4.9284
X10.3848Y-3.4284
X10.5473Y-2.6784
X10.5723Y-1.9284
X10.666Y-4.9284
X10.7348Y-3.4284
X10.7598Y-4.1784
X10.7598Y-4.9284
X10.9223Y-1.9284
X10.9473Y-2.6784
X11.1098Y-4.1784
X11.1098Y-4.9284
X11.1348Y-3.4284
X11.2035Y-4.9284
X11.2973Y-2.6784
X11.2973Y-4.9284
X11.3223Y-1.9284
X11.4848Y-3.4284
X11.5098Y-4.1784
X11.5098Y-4.9284
X11.6035Y-4.9284
X11.6723Y-1.9284
X11.6973Y-2.6784
X11.6973Y-4.9284
X11.8598Y-4.1784
X11.8848Y-3.4284
X12.0473Y-2.6784
X12.0473Y-4.9284
X12.0723Y-1.9284
X12.141Y-4.1784
X12.141Y-4.9284
X12.2348Y-3.4284
X12.2598Y-4.1784
X12.4213Y-1.9284
X12.4473Y-2.6784
X12.4473Y-4.9284
X12.516Y-4.1784
X12.541Y-4.1784
X12.541Y-4.9284
X12.6348Y-3.4284
X12.7035Y-3.4284
X12.7973Y-1.9284
X12.8213Y-1.9284
X12.891Y-4.1784
X12.916Y-4.1784
X12.9848Y-2.6784
X12.9848Y-4.9284
X13.0785Y-3.4284
X13.0785Y-4.9284
X13.1035Y-3.4284
X13.1723Y-1.9284
X13.1723Y-4.1784
X13.1973Y-1.9284
X13.2775Y-2.8534
X13.2775Y-3.2534
X13.291Y-4.1784
X13.3848Y-2.6784
X13.3848Y-4.9284
X13.4785Y-3.4284
X13.4785Y-4.9284
X13.5723Y-1.9284
X13.5723Y-4.1784
T3
X2.8713Y-3.9034
X3.8088Y-3.9034
X5.6838Y-5.2034
X5.8713Y-5.2034
X6.8091Y-5.2034
X8.4966Y-5.2034
X9.4341Y-5.2034
X9.6213Y-5.2034
X10.3713Y-5.2034
X12.2463Y-3.9034
X12.4338Y-3.1534
X12.5275Y-1.6534
X13.0025Y-2.5846
X13.0025Y-3.5221
X13.1838Y-3.9034
X13.3713Y-3.1534
X13.5588Y-1.6534
T4
X2.8713Y-4.5034
X3.8088Y-4.5034
X5.6838Y-4.6034
X5.8713Y-4.6034
X6.8091Y-4.6034
X8.4966Y-4.6034
X9.4341Y-4.6034
X9.6213Y-4.6034
X10.3713Y-4.6034
X12.2463Y-4.5034
X12.4338Y-3.7534
X12.5275Y-2.2534
X13.1838Y-4.5034
X13.3713Y-3.7534
X13.5588Y-2.2534
X13.6025Y-2.5846
X13.6025Y-3.5221
T5
X2.872Y-1.9284
X2.965Y-3.4284
X2.965Y-4.1784
X2.966Y-4.9284
X3.0598Y-2.6784
X3.0598Y-4.9284
X3.1525Y-3.4284
X3.34Y-4.1784
X3.6223Y-1.9284
X3.8098Y-4.1784
X3.9035Y-4.9284
X3.9973Y-2.6784
X3.9973Y-4.9284
X4.1848Y-3.4284
X4.3723Y-1.9284
X4.5598Y-4.1784
X4.7473Y-2.6784
X4.841Y-4.9284
X4.9348Y-3.4284
X4.9348Y-4.9284
X5.1223Y-1.9284
X5.3098Y-4.1784
X5.4973Y-2.6784
X5.6848Y-3.4284
X5.8723Y-1.9284
X6.0598Y-4.1784
X6.2473Y-2.6784
X6.3404Y-4.9284
X6.4348Y-3.4284
X6.6223Y-1.9284
X6.716Y-5.6784
X6.8098Y-4.1784
X6.8098Y-5.6784
X6.9973Y-2.6784
X7.1848Y-3.4284
X7.3723Y-1.9284
X7.3723Y-4.9284
X7.5591Y-4.9284
X7.5598Y-4.1784
X7.5598Y-5.6784
X7.6535Y-4.9284
X7.7473Y-2.6784
X7.9348Y-3.4284
X8.1223Y-1.9284
X8.1223Y-4.9284
X8.3088Y-5.6784
X8.3098Y-4.1784
X8.4025Y-5.6784
X8.4973Y-2.6784
X8.6848Y-3.4284
X8.8723Y-1.9284
X8.9654Y-4.9284
X9.0598Y-4.1784
X9.2473Y-2.6784
X9.4348Y-3.4284
X9.6223Y-1.9284
X9.8098Y-4.1784
X9.9973Y-2.6784
X10.1848Y-3.4284
X10.3723Y-1.9284
X10.466Y-4.9284
X10.5598Y-4.1784
X10.5598Y-4.9284
X10.7473Y-2.6784
X10.9348Y-3.4284
X11.1223Y-1.9284
X11.3098Y-4.1784
X11.3098Y-4.9284
X11.4035Y-4.9284
X11.4973Y-2.6784
X11.4973Y-4.9284
X11.6848Y-3.4284
X11.8723Y-1.9284
X12.0598Y-4.1784
X12.2473Y-2.6784
X12.2473Y-4.9284
X12.341Y-4.1784
X12.341Y-4.9284
X12.4348Y-3.4284
X12.6213Y-1.9284
X12.716Y-4.1784
X12.9035Y-3.4284
X12.9973Y-1.9284
X13.091Y-4.1784
X13.1848Y-2.6784
X13.1848Y-4.9284
X13.2775Y-3.0534
X13.2785Y-3.4284
X13.2785Y-4.9284
X13.3723Y-1.9284
X13.3723Y-4.1784
T6
X7.5675Y-3.7739
T0
M30
