G04 #@! TF.FileFunction,Paste,Bot*
%FSLAX46Y46*%
G04 Gerber Fmt 4.6, Leading zero omitted, Abs format (unit mm)*
G04 Created by KiCad (PCBNEW 4.0.7+dfsg1-1) date Sat Oct 21 17:46:25 2017*
%MOMM*%
%LPD*%
G01*
G04 APERTURE LIST*
%ADD10C,0.100000*%
%ADD11R,1.500000X1.250000*%
%ADD12R,1.250000X1.500000*%
%ADD13R,1.200000X1.400000*%
%ADD14R,1.400000X1.200000*%
%ADD15R,1.500000X3.600000*%
%ADD16R,1.300000X1.500000*%
%ADD17R,1.500000X1.300000*%
%ADD18R,1.651000X1.000000*%
%ADD19R,1.000000X1.700000*%
%ADD20R,1.060000X0.650000*%
%ADD21R,2.500000X1.900000*%
%ADD22R,1.500000X1.500000*%
%ADD23R,0.400000X1.350000*%
G04 APERTURE END LIST*
D10*
G36*
X140300495Y-119648444D02*
X140477272Y-119825221D01*
X139982297Y-120320196D01*
X139805520Y-120143419D01*
X140300495Y-119648444D01*
X140300495Y-119648444D01*
G37*
G36*
X140654048Y-120001997D02*
X140830825Y-120178774D01*
X140335850Y-120673749D01*
X140159073Y-120496972D01*
X140654048Y-120001997D01*
X140654048Y-120001997D01*
G37*
G36*
X141007602Y-120355551D02*
X141184379Y-120532328D01*
X140689404Y-121027303D01*
X140512627Y-120850526D01*
X141007602Y-120355551D01*
X141007602Y-120355551D01*
G37*
G36*
X141361155Y-120709104D02*
X141537932Y-120885881D01*
X141042957Y-121380856D01*
X140866180Y-121204079D01*
X141361155Y-120709104D01*
X141361155Y-120709104D01*
G37*
G36*
X141714709Y-121062658D02*
X141891486Y-121239435D01*
X141396511Y-121734410D01*
X141219734Y-121557633D01*
X141714709Y-121062658D01*
X141714709Y-121062658D01*
G37*
G36*
X142068262Y-121416211D02*
X142245039Y-121592988D01*
X141750064Y-122087963D01*
X141573287Y-121911186D01*
X142068262Y-121416211D01*
X142068262Y-121416211D01*
G37*
G36*
X142421815Y-121769764D02*
X142598592Y-121946541D01*
X142103617Y-122441516D01*
X141926840Y-122264739D01*
X142421815Y-121769764D01*
X142421815Y-121769764D01*
G37*
G36*
X142775369Y-122123318D02*
X142952146Y-122300095D01*
X142457171Y-122795070D01*
X142280394Y-122618293D01*
X142775369Y-122123318D01*
X142775369Y-122123318D01*
G37*
G36*
X143128922Y-122476871D02*
X143305699Y-122653648D01*
X142810724Y-123148623D01*
X142633947Y-122971846D01*
X143128922Y-122476871D01*
X143128922Y-122476871D01*
G37*
G36*
X143482476Y-122830425D02*
X143659253Y-123007202D01*
X143164278Y-123502177D01*
X142987501Y-123325400D01*
X143482476Y-122830425D01*
X143482476Y-122830425D01*
G37*
G36*
X143836029Y-123183978D02*
X144012806Y-123360755D01*
X143517831Y-123855730D01*
X143341054Y-123678953D01*
X143836029Y-123183978D01*
X143836029Y-123183978D01*
G37*
G36*
X144012806Y-124951745D02*
X143836029Y-125128522D01*
X143341054Y-124633547D01*
X143517831Y-124456770D01*
X144012806Y-124951745D01*
X144012806Y-124951745D01*
G37*
G36*
X143659253Y-125305298D02*
X143482476Y-125482075D01*
X142987501Y-124987100D01*
X143164278Y-124810323D01*
X143659253Y-125305298D01*
X143659253Y-125305298D01*
G37*
G36*
X143305699Y-125658852D02*
X143128922Y-125835629D01*
X142633947Y-125340654D01*
X142810724Y-125163877D01*
X143305699Y-125658852D01*
X143305699Y-125658852D01*
G37*
G36*
X142952146Y-126012405D02*
X142775369Y-126189182D01*
X142280394Y-125694207D01*
X142457171Y-125517430D01*
X142952146Y-126012405D01*
X142952146Y-126012405D01*
G37*
G36*
X142598592Y-126365959D02*
X142421815Y-126542736D01*
X141926840Y-126047761D01*
X142103617Y-125870984D01*
X142598592Y-126365959D01*
X142598592Y-126365959D01*
G37*
G36*
X142245039Y-126719512D02*
X142068262Y-126896289D01*
X141573287Y-126401314D01*
X141750064Y-126224537D01*
X142245039Y-126719512D01*
X142245039Y-126719512D01*
G37*
G36*
X141891486Y-127073065D02*
X141714709Y-127249842D01*
X141219734Y-126754867D01*
X141396511Y-126578090D01*
X141891486Y-127073065D01*
X141891486Y-127073065D01*
G37*
G36*
X141537932Y-127426619D02*
X141361155Y-127603396D01*
X140866180Y-127108421D01*
X141042957Y-126931644D01*
X141537932Y-127426619D01*
X141537932Y-127426619D01*
G37*
G36*
X141184379Y-127780172D02*
X141007602Y-127956949D01*
X140512627Y-127461974D01*
X140689404Y-127285197D01*
X141184379Y-127780172D01*
X141184379Y-127780172D01*
G37*
G36*
X140830825Y-128133726D02*
X140654048Y-128310503D01*
X140159073Y-127815528D01*
X140335850Y-127638751D01*
X140830825Y-128133726D01*
X140830825Y-128133726D01*
G37*
G36*
X140477272Y-128487279D02*
X140300495Y-128664056D01*
X139805520Y-128169081D01*
X139982297Y-127992304D01*
X140477272Y-128487279D01*
X140477272Y-128487279D01*
G37*
G36*
X139027703Y-127992304D02*
X139204480Y-128169081D01*
X138709505Y-128664056D01*
X138532728Y-128487279D01*
X139027703Y-127992304D01*
X139027703Y-127992304D01*
G37*
G36*
X138674150Y-127638751D02*
X138850927Y-127815528D01*
X138355952Y-128310503D01*
X138179175Y-128133726D01*
X138674150Y-127638751D01*
X138674150Y-127638751D01*
G37*
G36*
X138320596Y-127285197D02*
X138497373Y-127461974D01*
X138002398Y-127956949D01*
X137825621Y-127780172D01*
X138320596Y-127285197D01*
X138320596Y-127285197D01*
G37*
G36*
X137967043Y-126931644D02*
X138143820Y-127108421D01*
X137648845Y-127603396D01*
X137472068Y-127426619D01*
X137967043Y-126931644D01*
X137967043Y-126931644D01*
G37*
G36*
X137613489Y-126578090D02*
X137790266Y-126754867D01*
X137295291Y-127249842D01*
X137118514Y-127073065D01*
X137613489Y-126578090D01*
X137613489Y-126578090D01*
G37*
G36*
X137259936Y-126224537D02*
X137436713Y-126401314D01*
X136941738Y-126896289D01*
X136764961Y-126719512D01*
X137259936Y-126224537D01*
X137259936Y-126224537D01*
G37*
G36*
X136906383Y-125870984D02*
X137083160Y-126047761D01*
X136588185Y-126542736D01*
X136411408Y-126365959D01*
X136906383Y-125870984D01*
X136906383Y-125870984D01*
G37*
G36*
X136552829Y-125517430D02*
X136729606Y-125694207D01*
X136234631Y-126189182D01*
X136057854Y-126012405D01*
X136552829Y-125517430D01*
X136552829Y-125517430D01*
G37*
G36*
X136199276Y-125163877D02*
X136376053Y-125340654D01*
X135881078Y-125835629D01*
X135704301Y-125658852D01*
X136199276Y-125163877D01*
X136199276Y-125163877D01*
G37*
G36*
X135845722Y-124810323D02*
X136022499Y-124987100D01*
X135527524Y-125482075D01*
X135350747Y-125305298D01*
X135845722Y-124810323D01*
X135845722Y-124810323D01*
G37*
G36*
X135492169Y-124456770D02*
X135668946Y-124633547D01*
X135173971Y-125128522D01*
X134997194Y-124951745D01*
X135492169Y-124456770D01*
X135492169Y-124456770D01*
G37*
G36*
X135668946Y-123678953D02*
X135492169Y-123855730D01*
X134997194Y-123360755D01*
X135173971Y-123183978D01*
X135668946Y-123678953D01*
X135668946Y-123678953D01*
G37*
G36*
X136022499Y-123325400D02*
X135845722Y-123502177D01*
X135350747Y-123007202D01*
X135527524Y-122830425D01*
X136022499Y-123325400D01*
X136022499Y-123325400D01*
G37*
G36*
X136376053Y-122971846D02*
X136199276Y-123148623D01*
X135704301Y-122653648D01*
X135881078Y-122476871D01*
X136376053Y-122971846D01*
X136376053Y-122971846D01*
G37*
G36*
X136729606Y-122618293D02*
X136552829Y-122795070D01*
X136057854Y-122300095D01*
X136234631Y-122123318D01*
X136729606Y-122618293D01*
X136729606Y-122618293D01*
G37*
G36*
X137083160Y-122264739D02*
X136906383Y-122441516D01*
X136411408Y-121946541D01*
X136588185Y-121769764D01*
X137083160Y-122264739D01*
X137083160Y-122264739D01*
G37*
G36*
X137436713Y-121911186D02*
X137259936Y-122087963D01*
X136764961Y-121592988D01*
X136941738Y-121416211D01*
X137436713Y-121911186D01*
X137436713Y-121911186D01*
G37*
G36*
X137790266Y-121557633D02*
X137613489Y-121734410D01*
X137118514Y-121239435D01*
X137295291Y-121062658D01*
X137790266Y-121557633D01*
X137790266Y-121557633D01*
G37*
G36*
X138143820Y-121204079D02*
X137967043Y-121380856D01*
X137472068Y-120885881D01*
X137648845Y-120709104D01*
X138143820Y-121204079D01*
X138143820Y-121204079D01*
G37*
G36*
X138497373Y-120850526D02*
X138320596Y-121027303D01*
X137825621Y-120532328D01*
X138002398Y-120355551D01*
X138497373Y-120850526D01*
X138497373Y-120850526D01*
G37*
G36*
X138850927Y-120496972D02*
X138674150Y-120673749D01*
X138179175Y-120178774D01*
X138355952Y-120001997D01*
X138850927Y-120496972D01*
X138850927Y-120496972D01*
G37*
G36*
X139204480Y-120143419D02*
X139027703Y-120320196D01*
X138532728Y-119825221D01*
X138709505Y-119648444D01*
X139204480Y-120143419D01*
X139204480Y-120143419D01*
G37*
G36*
X139505000Y-126341210D02*
X140051240Y-126887450D01*
X139505000Y-127433690D01*
X138958760Y-126887450D01*
X139505000Y-126341210D01*
X139505000Y-126341210D01*
G37*
G36*
X138594600Y-125430810D02*
X139140840Y-125977050D01*
X138594600Y-126523290D01*
X138048360Y-125977050D01*
X138594600Y-125430810D01*
X138594600Y-125430810D01*
G37*
G36*
X137684200Y-124520410D02*
X138230440Y-125066650D01*
X137684200Y-125612890D01*
X137137960Y-125066650D01*
X137684200Y-124520410D01*
X137684200Y-124520410D01*
G37*
G36*
X136773800Y-123610010D02*
X137320040Y-124156250D01*
X136773800Y-124702490D01*
X136227560Y-124156250D01*
X136773800Y-123610010D01*
X136773800Y-123610010D01*
G37*
G36*
X140415400Y-125430810D02*
X140961640Y-125977050D01*
X140415400Y-126523290D01*
X139869160Y-125977050D01*
X140415400Y-125430810D01*
X140415400Y-125430810D01*
G37*
G36*
X139505000Y-124520410D02*
X140051240Y-125066650D01*
X139505000Y-125612890D01*
X138958760Y-125066650D01*
X139505000Y-124520410D01*
X139505000Y-124520410D01*
G37*
G36*
X138594600Y-123610010D02*
X139140840Y-124156250D01*
X138594600Y-124702490D01*
X138048360Y-124156250D01*
X138594600Y-123610010D01*
X138594600Y-123610010D01*
G37*
G36*
X137684200Y-122699610D02*
X138230440Y-123245850D01*
X137684200Y-123792090D01*
X137137960Y-123245850D01*
X137684200Y-122699610D01*
X137684200Y-122699610D01*
G37*
G36*
X141325800Y-124520410D02*
X141872040Y-125066650D01*
X141325800Y-125612890D01*
X140779560Y-125066650D01*
X141325800Y-124520410D01*
X141325800Y-124520410D01*
G37*
G36*
X140415400Y-123610010D02*
X140961640Y-124156250D01*
X140415400Y-124702490D01*
X139869160Y-124156250D01*
X140415400Y-123610010D01*
X140415400Y-123610010D01*
G37*
G36*
X139505000Y-122699610D02*
X140051240Y-123245850D01*
X139505000Y-123792090D01*
X138958760Y-123245850D01*
X139505000Y-122699610D01*
X139505000Y-122699610D01*
G37*
G36*
X138594600Y-121789210D02*
X139140840Y-122335450D01*
X138594600Y-122881690D01*
X138048360Y-122335450D01*
X138594600Y-121789210D01*
X138594600Y-121789210D01*
G37*
G36*
X142236200Y-123610010D02*
X142782440Y-124156250D01*
X142236200Y-124702490D01*
X141689960Y-124156250D01*
X142236200Y-123610010D01*
X142236200Y-123610010D01*
G37*
G36*
X141325800Y-122699610D02*
X141872040Y-123245850D01*
X141325800Y-123792090D01*
X140779560Y-123245850D01*
X141325800Y-122699610D01*
X141325800Y-122699610D01*
G37*
G36*
X140415400Y-121789210D02*
X140961640Y-122335450D01*
X140415400Y-122881690D01*
X139869160Y-122335450D01*
X140415400Y-121789210D01*
X140415400Y-121789210D01*
G37*
G36*
X139505000Y-120878810D02*
X140051240Y-121425050D01*
X139505000Y-121971290D01*
X138958760Y-121425050D01*
X139505000Y-120878810D01*
X139505000Y-120878810D01*
G37*
D11*
X151163750Y-124656250D03*
X153663750Y-124656250D03*
X151163750Y-129056250D03*
X153663750Y-129056250D03*
X138663750Y-116656250D03*
X136163750Y-116656250D03*
X131855000Y-129656250D03*
X129355000Y-129656250D03*
X153863750Y-126856250D03*
X151363750Y-126856250D03*
X145763750Y-120256250D03*
X148263750Y-120256250D03*
X130863750Y-116256250D03*
X128363750Y-116256250D03*
X142363750Y-112856250D03*
X144863750Y-112856250D03*
D12*
X257605000Y-143406250D03*
X257605000Y-145906250D03*
D11*
X287263750Y-114656250D03*
X284763750Y-114656250D03*
D12*
X277413750Y-102406250D03*
X277413750Y-104906250D03*
X186005000Y-116906250D03*
X186005000Y-114406250D03*
X81445000Y-117431250D03*
X81445000Y-114931250D03*
X76605000Y-59306250D03*
X76605000Y-56806250D03*
X133845000Y-59031250D03*
X133845000Y-56531250D03*
X201045000Y-59631250D03*
X201045000Y-57131250D03*
X267845000Y-59631250D03*
X267845000Y-57131250D03*
X324845000Y-59631250D03*
X324845000Y-57131250D03*
X319005000Y-117506250D03*
X319005000Y-115006250D03*
D11*
X302655000Y-145856250D03*
X300155000Y-145856250D03*
X195655000Y-150056250D03*
X193155000Y-150056250D03*
D12*
X98030000Y-145931250D03*
X98030000Y-143431250D03*
D13*
X66993750Y-42337500D03*
X70393750Y-42337500D03*
X68913750Y-61456250D03*
X72313750Y-61456250D03*
X68705000Y-80656250D03*
X72105000Y-80656250D03*
D14*
X66805000Y-106756250D03*
X66805000Y-103356250D03*
D13*
X72705000Y-118856250D03*
X69305000Y-118856250D03*
X180705000Y-42456250D03*
X184105000Y-42456250D03*
D14*
X96613750Y-55756250D03*
X96613750Y-52356250D03*
D13*
X95105000Y-61656250D03*
X98505000Y-61656250D03*
X99905000Y-80656250D03*
X103305000Y-80656250D03*
X90305000Y-99656250D03*
X93705000Y-99656250D03*
X96513750Y-119656250D03*
X93113750Y-119656250D03*
X104505000Y-42456250D03*
X107905000Y-42456250D03*
X114105000Y-61656250D03*
X117505000Y-61656250D03*
X117513750Y-80656250D03*
X120913750Y-80656250D03*
X109305000Y-99656250D03*
X112705000Y-99656250D03*
D14*
X114245000Y-117081250D03*
X114245000Y-120481250D03*
D13*
X123705000Y-42456250D03*
X127105000Y-42456250D03*
X130205000Y-61456250D03*
X133605000Y-61456250D03*
X137905000Y-80656250D03*
X141305000Y-80656250D03*
X128505000Y-99856250D03*
X131905000Y-99856250D03*
X157945000Y-141581250D03*
X161345000Y-141581250D03*
X142505000Y-42456250D03*
X145905000Y-42456250D03*
X152105000Y-61656250D03*
X155505000Y-61656250D03*
X156905000Y-80656250D03*
X160305000Y-80656250D03*
X147505000Y-99656250D03*
X150905000Y-99656250D03*
D14*
X182645000Y-145081250D03*
X182645000Y-141681250D03*
D13*
X161505000Y-42456250D03*
X164905000Y-42456250D03*
X171305000Y-61656250D03*
X174705000Y-61656250D03*
X175905000Y-80656250D03*
X179305000Y-80656250D03*
X166505000Y-99656250D03*
X169905000Y-99656250D03*
D10*
G36*
X162686543Y-116573407D02*
X161696593Y-115583457D01*
X162545121Y-114734929D01*
X163535071Y-115724879D01*
X162686543Y-116573407D01*
X162686543Y-116573407D01*
G37*
G36*
X160282379Y-118977571D02*
X159292429Y-117987621D01*
X160140957Y-117139093D01*
X161130907Y-118129043D01*
X160282379Y-118977571D01*
X160282379Y-118977571D01*
G37*
D13*
X190305000Y-61656250D03*
X193705000Y-61656250D03*
X195105000Y-80656250D03*
X198505000Y-80656250D03*
X183230000Y-100456250D03*
X186630000Y-100456250D03*
X176345000Y-122381250D03*
X179745000Y-122381250D03*
X199905000Y-42656250D03*
X203305000Y-42656250D03*
X205955000Y-62956250D03*
X209355000Y-62956250D03*
X214105000Y-80656250D03*
X217505000Y-80656250D03*
X204705000Y-99656250D03*
X208105000Y-99656250D03*
X218705000Y-42456250D03*
X222105000Y-42456250D03*
X228505000Y-61656250D03*
X231905000Y-61656250D03*
X233105000Y-80656250D03*
X236505000Y-80656250D03*
X229913750Y-99456250D03*
X226513750Y-99456250D03*
D14*
X235005000Y-49756250D03*
X235005000Y-46356250D03*
D13*
X247305000Y-61656250D03*
X250705000Y-61656250D03*
X252305000Y-80656250D03*
X255705000Y-80656250D03*
X242705000Y-99656250D03*
X246105000Y-99656250D03*
X336505000Y-58656250D03*
X339905000Y-58656250D03*
D14*
X254205000Y-53556250D03*
X254205000Y-50156250D03*
D13*
X264455000Y-61956250D03*
X267855000Y-61956250D03*
X271305000Y-80656250D03*
X274705000Y-80656250D03*
X261705000Y-99656250D03*
X265105000Y-99656250D03*
X255305000Y-117456250D03*
X258705000Y-117456250D03*
D14*
X273405000Y-53556250D03*
X273405000Y-50156250D03*
D13*
X285505000Y-61656250D03*
X288905000Y-61656250D03*
X290305000Y-80656250D03*
X293705000Y-80656250D03*
X280905000Y-99856250D03*
X284305000Y-99856250D03*
D14*
X278813750Y-125756250D03*
X278813750Y-122356250D03*
D13*
X304505000Y-61656250D03*
X307905000Y-61656250D03*
X307313750Y-80656250D03*
X310713750Y-80656250D03*
X299905000Y-99656250D03*
X303305000Y-99656250D03*
X304505000Y-118856250D03*
X307905000Y-118856250D03*
D14*
X312413750Y-53556250D03*
X312413750Y-50156250D03*
D13*
X326705000Y-62456250D03*
X330105000Y-62456250D03*
D14*
X323213750Y-77156250D03*
X323213750Y-80556250D03*
D13*
X323145000Y-97181250D03*
X326545000Y-97181250D03*
X323705000Y-121956250D03*
X327105000Y-121956250D03*
D14*
X293013750Y-53556250D03*
X293013750Y-50156250D03*
D15*
X279138750Y-109456250D03*
X276088750Y-109456250D03*
D16*
X91005000Y-79306250D03*
X91005000Y-82006250D03*
D17*
X130255000Y-131656250D03*
X132955000Y-131656250D03*
D10*
G36*
X137558293Y-93881555D02*
X136639055Y-94800793D01*
X135578395Y-93740133D01*
X136497633Y-92820895D01*
X137558293Y-93881555D01*
X137558293Y-93881555D01*
G37*
G36*
X135649105Y-91972367D02*
X134729867Y-92891605D01*
X133669207Y-91830945D01*
X134588445Y-90911707D01*
X135649105Y-91972367D01*
X135649105Y-91972367D01*
G37*
G36*
X138949543Y-92481555D02*
X138030305Y-93400793D01*
X136969645Y-92340133D01*
X137888883Y-91420895D01*
X138949543Y-92481555D01*
X138949543Y-92481555D01*
G37*
G36*
X137040355Y-90572367D02*
X136121117Y-91491605D01*
X135060457Y-90430945D01*
X135979695Y-89511707D01*
X137040355Y-90572367D01*
X137040355Y-90572367D01*
G37*
D17*
X293363750Y-116056250D03*
X290663750Y-116056250D03*
X224655000Y-113856250D03*
X227355000Y-113856250D03*
D16*
X280805000Y-147206250D03*
X280805000Y-144506250D03*
X276405000Y-147206250D03*
X276405000Y-144506250D03*
X274005000Y-143306250D03*
X274005000Y-146006250D03*
D18*
X189428000Y-116856250D03*
X194582000Y-116856250D03*
X194582000Y-113656250D03*
X189428000Y-113656250D03*
X84666750Y-117731250D03*
X89820750Y-117731250D03*
X89820750Y-114531250D03*
X84666750Y-114531250D03*
X80078000Y-59806250D03*
X85232000Y-59806250D03*
X85232000Y-56606250D03*
X80078000Y-56606250D03*
X137078000Y-59806250D03*
X142232000Y-59806250D03*
X142232000Y-56606250D03*
X137078000Y-56606250D03*
X203978000Y-59756250D03*
X209132000Y-59756250D03*
X209132000Y-56556250D03*
X203978000Y-56556250D03*
X270828000Y-59806250D03*
X275982000Y-59806250D03*
X275982000Y-56606250D03*
X270828000Y-56606250D03*
X327578000Y-59806250D03*
X332732000Y-59806250D03*
X332732000Y-56606250D03*
X327578000Y-56606250D03*
X322578000Y-117556250D03*
X327732000Y-117556250D03*
X327732000Y-114356250D03*
X322578000Y-114356250D03*
X306153000Y-145881250D03*
X311307000Y-145881250D03*
X311307000Y-142681250D03*
X306153000Y-142681250D03*
X198966750Y-150593750D03*
X204120750Y-150593750D03*
X204120750Y-147393750D03*
X198966750Y-147393750D03*
X101328000Y-145856250D03*
X106482000Y-145856250D03*
X106482000Y-142656250D03*
X101328000Y-142656250D03*
D19*
X94956250Y-91281250D03*
X94956250Y-84981250D03*
X91156250Y-91281250D03*
X91156250Y-84981250D03*
D20*
X279713750Y-116406250D03*
X279713750Y-115456250D03*
X279713750Y-114506250D03*
X281913750Y-114506250D03*
X281913750Y-116406250D03*
D14*
X226845000Y-116481250D03*
X226845000Y-119881250D03*
D13*
X199545000Y-140581250D03*
X202945000Y-140581250D03*
D21*
X148013750Y-124656250D03*
X148013750Y-129056250D03*
D22*
X83045000Y-41281250D03*
D23*
X82045000Y-43981250D03*
X82695000Y-43981250D03*
X83345000Y-43981250D03*
X81395000Y-43981250D03*
X80745000Y-43981250D03*
D22*
X81045000Y-41281250D03*
M02*
