G04 #@! TF.FileFunction,Soldermask,Bot*
%FSLAX46Y46*%
G04 Gerber Fmt 4.6, Leading zero omitted, Abs format (unit mm)*
G04 Created by KiCad (PCBNEW 4.0.5+dfsg1-4) date Thu Jun 29 09:06:05 2017*
%MOMM*%
%LPD*%
G01*
G04 APERTURE LIST*
%ADD10C,0.100000*%
%ADD11C,2.900000*%
%ADD12C,1.200000*%
%ADD13C,3.448000*%
%ADD14C,4.380200*%
%ADD15R,1.650000X1.900000*%
%ADD16R,1.900000X1.650000*%
%ADD17R,1.600000X1.800000*%
%ADD18R,1.800000X1.600000*%
%ADD19R,0.900000X1.800000*%
%ADD20O,1.700000X4.200000*%
%ADD21R,1.900000X1.700000*%
%ADD22R,1.700000X1.900000*%
%ADD23R,1.400000X2.100000*%
%ADD24R,0.950000X1.900000*%
%ADD25R,1.900000X0.950000*%
%ADD26R,1.900000X4.000000*%
%ADD27R,1.460000X1.050000*%
%ADD28O,14.000000X5.600000*%
%ADD29C,5.400000*%
%ADD30C,6.500000*%
%ADD31C,6.400000*%
%ADD32R,1.400000X2.051000*%
%ADD33R,2.300000X2.300000*%
%ADD34C,2.300000*%
%ADD35R,1.250000X1.250000*%
%ADD36C,1.250000*%
%ADD37R,2.432000X2.127200*%
%ADD38O,2.432000X2.127200*%
G04 APERTURE END LIST*
D10*
D11*
X134429220Y-126174290D03*
X140779220Y-123634290D03*
D12*
X311201720Y-119548040D03*
X309931720Y-119548040D03*
X308661720Y-119548040D03*
X312471720Y-119548040D03*
X313741720Y-119548040D03*
D13*
X114300000Y-114141250D03*
D14*
X114300000Y-98901250D03*
D13*
X228600000Y-114141250D03*
D14*
X228600000Y-98901250D03*
D13*
X209550000Y-114141250D03*
D14*
X209550000Y-98901250D03*
D13*
X109537500Y-114141250D03*
D14*
X109537500Y-98901250D03*
D13*
X300037500Y-81121250D03*
D14*
X300037500Y-96361250D03*
D13*
X276225000Y-81121250D03*
D14*
X276225000Y-96361250D03*
D13*
X295433750Y-47626250D03*
D14*
X310673750Y-47626250D03*
D13*
X295433750Y-71437500D03*
D14*
X310673750Y-71437500D03*
D13*
X280987500Y-62071250D03*
D14*
X280987500Y-77311250D03*
D13*
X304800000Y-62071250D03*
D14*
X304800000Y-77311250D03*
D13*
X307181250Y-23971250D03*
D14*
X307181250Y-39211250D03*
D13*
X283368750Y-23971250D03*
D14*
X283368750Y-39211250D03*
D13*
X61912500Y-81121250D03*
D14*
X61912500Y-96361250D03*
D10*
G36*
X144239449Y-103952038D02*
X143072722Y-102785311D01*
X144416225Y-101441808D01*
X145582952Y-102608535D01*
X144239449Y-103952038D01*
X144239449Y-103952038D01*
G37*
G36*
X146007215Y-102184272D02*
X144840488Y-101017545D01*
X146183991Y-99674042D01*
X147350718Y-100840769D01*
X146007215Y-102184272D01*
X146007215Y-102184272D01*
G37*
G36*
X145183991Y-108924042D02*
X146350718Y-110090769D01*
X145007215Y-111434272D01*
X143840488Y-110267545D01*
X145183991Y-108924042D01*
X145183991Y-108924042D01*
G37*
G36*
X143416225Y-110691808D02*
X144582952Y-111858535D01*
X143239449Y-113202038D01*
X142072722Y-112035311D01*
X143416225Y-110691808D01*
X143416225Y-110691808D01*
G37*
D15*
X133787500Y-96007500D03*
X133787500Y-93507500D03*
D16*
X117000000Y-107000000D03*
X114500000Y-107000000D03*
X121500000Y-99000000D03*
X119000000Y-99000000D03*
X137750000Y-112500000D03*
X140250000Y-112500000D03*
D15*
X142711720Y-97813040D03*
X142711720Y-100313040D03*
X44000000Y-41000000D03*
X44000000Y-38500000D03*
X241211720Y-130063040D03*
X241211720Y-132563040D03*
D10*
G36*
X34000000Y-42227207D02*
X32727207Y-43500000D01*
X31595836Y-42368629D01*
X32868629Y-41095836D01*
X34000000Y-42227207D01*
X34000000Y-42227207D01*
G37*
G36*
X36404164Y-44631371D02*
X35131371Y-45904164D01*
X34000000Y-44772793D01*
X35272793Y-43500000D01*
X36404164Y-44631371D01*
X36404164Y-44631371D01*
G37*
D17*
X61550000Y-60500000D03*
X64950000Y-60500000D03*
X57300000Y-76500000D03*
X60700000Y-76500000D03*
X52550000Y-96750000D03*
X55950000Y-96750000D03*
X51121720Y-112443040D03*
X54521720Y-112443040D03*
D18*
X67000000Y-38050000D03*
X67000000Y-41450000D03*
X75250000Y-55300000D03*
X75250000Y-58700000D03*
X81228750Y-74706250D03*
X81228750Y-78106250D03*
X69750000Y-93300000D03*
X69750000Y-96700000D03*
X76750000Y-105550000D03*
X76750000Y-108950000D03*
X86250000Y-38050000D03*
X86250000Y-41450000D03*
X95000000Y-55300000D03*
X95000000Y-58700000D03*
X101478750Y-74706250D03*
X101478750Y-78106250D03*
X91000000Y-93550000D03*
X91000000Y-96950000D03*
X100037500Y-105307500D03*
X100037500Y-108707500D03*
X105500000Y-38050000D03*
X105500000Y-41450000D03*
X113750000Y-55300000D03*
X113750000Y-58700000D03*
X118978750Y-74706250D03*
X118978750Y-78106250D03*
X110000000Y-89300000D03*
X110000000Y-92700000D03*
X124250000Y-38050000D03*
X124250000Y-41450000D03*
X133000000Y-55300000D03*
X133000000Y-58700000D03*
X134728750Y-74706250D03*
X134728750Y-78106250D03*
X126000000Y-91550000D03*
X126000000Y-94950000D03*
X144000000Y-38050000D03*
X144000000Y-41450000D03*
X152000000Y-55300000D03*
X152000000Y-58700000D03*
X138978750Y-74706250D03*
X138978750Y-78106250D03*
X149250000Y-93050000D03*
X149250000Y-96450000D03*
X163500000Y-38050000D03*
X163500000Y-41450000D03*
X172537500Y-55307500D03*
X172537500Y-58707500D03*
X176750000Y-74300000D03*
X176750000Y-77700000D03*
X166250000Y-93050000D03*
X166250000Y-96450000D03*
D17*
X178800000Y-104750000D03*
X182200000Y-104750000D03*
D18*
X181250000Y-38050000D03*
X181250000Y-41450000D03*
X191037500Y-55307500D03*
X191037500Y-58707500D03*
X194000000Y-74300000D03*
X194000000Y-77700000D03*
X185000000Y-91300000D03*
X185000000Y-94700000D03*
X200750000Y-38050000D03*
X200750000Y-41450000D03*
X210037500Y-55307500D03*
X210037500Y-58707500D03*
X215250000Y-74300000D03*
X215250000Y-77700000D03*
X206500000Y-89800000D03*
X206500000Y-93200000D03*
X218750000Y-38050000D03*
X218750000Y-41450000D03*
X228537500Y-55307500D03*
X228537500Y-58707500D03*
X234500000Y-74300000D03*
X234500000Y-77700000D03*
X222478750Y-90956250D03*
X222478750Y-94356250D03*
X311500000Y-34800000D03*
X311500000Y-38200000D03*
X237750000Y-38050000D03*
X237750000Y-41450000D03*
X247287500Y-55307500D03*
X247287500Y-58707500D03*
X252211720Y-74113040D03*
X252211720Y-77513040D03*
X246478750Y-93456250D03*
X246478750Y-96856250D03*
X242321720Y-103393040D03*
X242321720Y-99993040D03*
X257500000Y-38050000D03*
X257500000Y-41450000D03*
X265287500Y-55307500D03*
X265287500Y-58707500D03*
X269211720Y-74113040D03*
X269211720Y-77513040D03*
X265478750Y-93456250D03*
X265478750Y-96856250D03*
X265250000Y-104200000D03*
X265250000Y-100800000D03*
X274000000Y-38050000D03*
X274000000Y-41450000D03*
X284000000Y-55300000D03*
X284000000Y-58700000D03*
X287500000Y-75300000D03*
X287500000Y-78700000D03*
X292571720Y-91243040D03*
X292571720Y-94643040D03*
X268750000Y-104200000D03*
X268750000Y-100800000D03*
D17*
X292200000Y-42500000D03*
X288800000Y-42500000D03*
X290950000Y-58750000D03*
X287550000Y-58750000D03*
D10*
G36*
X297022793Y-79750000D02*
X295750000Y-78477207D01*
X296881371Y-77345836D01*
X298154164Y-78618629D01*
X297022793Y-79750000D01*
X297022793Y-79750000D01*
G37*
G36*
X294618629Y-82154164D02*
X293345836Y-80881371D01*
X294477207Y-79750000D01*
X295750000Y-81022793D01*
X294618629Y-82154164D01*
X294618629Y-82154164D01*
G37*
D18*
X309250000Y-92300000D03*
X309250000Y-95700000D03*
X310211720Y-100613040D03*
X310211720Y-104013040D03*
D19*
X45650000Y-26750000D03*
X46450000Y-26750000D03*
X47250000Y-26750000D03*
X48050000Y-26750000D03*
X48850000Y-26750000D03*
D20*
X43600000Y-24350000D03*
X50900000Y-24350000D03*
D21*
X138850000Y-98500000D03*
X136150000Y-98500000D03*
X108471720Y-105693040D03*
X111171720Y-105693040D03*
D22*
X46500000Y-37350000D03*
X46500000Y-34650000D03*
X49000000Y-34650000D03*
X49000000Y-37350000D03*
X52750000Y-75600000D03*
X52750000Y-72900000D03*
D10*
G36*
X230189106Y-131838345D02*
X228987025Y-133040426D01*
X227643522Y-131696923D01*
X228845603Y-130494842D01*
X230189106Y-131838345D01*
X230189106Y-131838345D01*
G37*
G36*
X228279918Y-129929157D02*
X227077837Y-131131238D01*
X225734334Y-129787735D01*
X226936415Y-128585654D01*
X228279918Y-129929157D01*
X228279918Y-129929157D01*
G37*
D22*
X263211720Y-133913040D03*
X263211720Y-131213040D03*
X255961720Y-129963040D03*
X255961720Y-132663040D03*
D23*
X56250000Y-66950000D03*
X56250000Y-73250000D03*
X60050000Y-66950000D03*
X60050000Y-73250000D03*
D24*
X124000000Y-101050000D03*
X124800000Y-101050000D03*
X125600000Y-101050000D03*
X126400000Y-101050000D03*
X127200000Y-101050000D03*
X128000000Y-101050000D03*
X128800000Y-101050000D03*
X129600000Y-101050000D03*
X130400000Y-101050000D03*
X131200000Y-101050000D03*
X132000000Y-101050000D03*
D25*
X133700000Y-102750000D03*
X133700000Y-103550000D03*
X133700000Y-104350000D03*
X133700000Y-105150000D03*
X133700000Y-105950000D03*
X133700000Y-106750000D03*
X133700000Y-107550000D03*
X133700000Y-108350000D03*
X133700000Y-109150000D03*
X133700000Y-109950000D03*
X133700000Y-110750000D03*
D24*
X132000000Y-112450000D03*
X131200000Y-112450000D03*
X130400000Y-112450000D03*
X129600000Y-112450000D03*
X128800000Y-112450000D03*
X128000000Y-112450000D03*
X127200000Y-112450000D03*
X126400000Y-112450000D03*
X125600000Y-112450000D03*
X124800000Y-112450000D03*
X124000000Y-112450000D03*
D25*
X122300000Y-110750000D03*
X122300000Y-109950000D03*
X122300000Y-109150000D03*
X122300000Y-108350000D03*
X122300000Y-107550000D03*
X122300000Y-106750000D03*
X122300000Y-105950000D03*
X122300000Y-105150000D03*
X122300000Y-104350000D03*
X122300000Y-103550000D03*
X122300000Y-102750000D03*
D10*
G36*
X139810069Y-105994842D02*
X140941440Y-104863471D01*
X142214233Y-106136264D01*
X141082862Y-107267635D01*
X139810069Y-105994842D01*
X139810069Y-105994842D01*
G37*
G36*
X141507125Y-107691898D02*
X142638496Y-106560527D01*
X143911289Y-107833320D01*
X142779918Y-108964691D01*
X141507125Y-107691898D01*
X141507125Y-107691898D01*
G37*
G36*
X141012151Y-104792760D02*
X142143522Y-103661389D01*
X143416315Y-104934182D01*
X142284944Y-106065553D01*
X141012151Y-104792760D01*
X141012151Y-104792760D01*
G37*
G36*
X142709207Y-106489816D02*
X143840578Y-105358445D01*
X145113371Y-106631238D01*
X143982000Y-107762609D01*
X142709207Y-106489816D01*
X142709207Y-106489816D01*
G37*
D13*
X38100000Y-81121250D03*
D14*
X38100000Y-96361250D03*
D16*
X216211720Y-112313040D03*
X218711720Y-112313040D03*
X210750000Y-108000000D03*
X213250000Y-108000000D03*
D26*
X219296720Y-98693040D03*
X222346720Y-98693040D03*
D10*
G36*
X200436415Y-111290426D02*
X199234334Y-110088345D01*
X200577837Y-108744842D01*
X201779918Y-109946923D01*
X200436415Y-111290426D01*
X200436415Y-111290426D01*
G37*
G36*
X202345603Y-109381238D02*
X201143522Y-108179157D01*
X202487025Y-106835654D01*
X203689106Y-108037735D01*
X202345603Y-109381238D01*
X202345603Y-109381238D01*
G37*
D27*
X207900000Y-105450000D03*
X207900000Y-104500000D03*
X207900000Y-103550000D03*
X210100000Y-103550000D03*
X210100000Y-105450000D03*
D11*
X34290000Y-28416250D03*
X40640000Y-25876250D03*
X39052500Y-47466250D03*
X45402500Y-44926250D03*
X36671250Y-85566250D03*
X43021250Y-83026250D03*
X36671250Y-104616250D03*
X43021250Y-102076250D03*
X39052500Y-104616250D03*
X45402500Y-102076250D03*
X53340000Y-28416250D03*
X59690000Y-25876250D03*
X62865000Y-47466250D03*
X69215000Y-44926250D03*
X67627500Y-66516250D03*
X73977500Y-63976250D03*
X58102500Y-85566250D03*
X64452500Y-83026250D03*
X60483750Y-104616250D03*
X66833750Y-102076250D03*
X62865000Y-104616250D03*
X69215000Y-102076250D03*
X72390000Y-28416250D03*
X78740000Y-25876250D03*
X81915000Y-47466250D03*
X88265000Y-44926250D03*
X86677500Y-66516250D03*
X93027500Y-63976250D03*
X77152500Y-85566250D03*
X83502500Y-83026250D03*
X84296250Y-104616250D03*
X90646250Y-102076250D03*
X86677500Y-104616250D03*
X93027500Y-102076250D03*
X91440000Y-28416250D03*
X97790000Y-25876250D03*
X100965000Y-47466250D03*
X107315000Y-44926250D03*
X105727500Y-66516250D03*
X112077500Y-63976250D03*
X96202500Y-85566250D03*
X102552500Y-83026250D03*
X110490000Y-28416250D03*
X116840000Y-25876250D03*
X120015000Y-47466250D03*
X126365000Y-44926250D03*
X124777500Y-66516250D03*
X131127500Y-63976250D03*
X115252500Y-85566250D03*
X121602500Y-83026250D03*
X129540000Y-28416250D03*
X135890000Y-25876250D03*
X139065000Y-47466250D03*
X145415000Y-44926250D03*
X143827500Y-66516250D03*
X150177500Y-63976250D03*
X134302500Y-85566250D03*
X140652500Y-83026250D03*
X148590000Y-28416250D03*
X154940000Y-25876250D03*
X158115000Y-47466250D03*
X164465000Y-44926250D03*
X162877500Y-66516250D03*
X169227500Y-63976250D03*
X153352500Y-85566250D03*
X159702500Y-83026250D03*
X167640000Y-28416250D03*
X173990000Y-25876250D03*
X177165000Y-47466250D03*
X183515000Y-44926250D03*
X181927500Y-66516250D03*
X188277500Y-63976250D03*
X172402500Y-85566250D03*
X178752500Y-83026250D03*
X186690000Y-28416250D03*
X193040000Y-25876250D03*
X196215000Y-47466250D03*
X202565000Y-44926250D03*
X200977500Y-66516250D03*
X207327500Y-63976250D03*
X191452500Y-85566250D03*
X197802500Y-83026250D03*
X205740000Y-28416250D03*
X212090000Y-25876250D03*
X215265000Y-47466250D03*
X221615000Y-44926250D03*
X220027500Y-66516250D03*
X226377500Y-63976250D03*
X210502500Y-85566250D03*
X216852500Y-83026250D03*
X300990000Y-28416250D03*
X307340000Y-25876250D03*
X224790000Y-28416250D03*
X231140000Y-25876250D03*
X234315000Y-47466250D03*
X240665000Y-44926250D03*
X239077500Y-66516250D03*
X245427500Y-63976250D03*
X229552500Y-85566250D03*
X235902500Y-83026250D03*
X227171250Y-104616250D03*
X233521250Y-102076250D03*
X229552500Y-104616250D03*
X235902500Y-102076250D03*
X243840000Y-28416250D03*
X250190000Y-25876250D03*
X253365000Y-47466250D03*
X259715000Y-44926250D03*
X258127500Y-66516250D03*
X264477500Y-63976250D03*
X248602500Y-85566250D03*
X254952500Y-83026250D03*
X253357500Y-104617500D03*
X259707500Y-102077500D03*
X250983750Y-104616250D03*
X257333750Y-102076250D03*
X248602500Y-104616250D03*
X254952500Y-102076250D03*
X262890000Y-28416250D03*
X269240000Y-25876250D03*
X272415000Y-47466250D03*
X278765000Y-44926250D03*
X277177500Y-66516250D03*
X283527500Y-63976250D03*
X272415000Y-104616250D03*
X278765000Y-102076250D03*
X274796250Y-104616250D03*
X281146250Y-102076250D03*
X281940000Y-28416250D03*
X288290000Y-25876250D03*
X296227500Y-47466250D03*
X302577500Y-44926250D03*
X300990000Y-85566250D03*
X307340000Y-83026250D03*
X41433750Y-66516250D03*
X47783750Y-63976250D03*
X36671250Y-66516250D03*
X43021250Y-63976250D03*
X46196250Y-85566250D03*
X52546250Y-82296250D03*
X167315000Y-104617500D03*
X173665000Y-101347500D03*
X155733750Y-104616250D03*
X162083750Y-101346250D03*
X148590000Y-104616250D03*
X154940000Y-101346250D03*
X284321250Y-85566250D03*
X290671250Y-82296250D03*
X291465000Y-28416250D03*
X297815000Y-25146250D03*
X289083750Y-66516250D03*
X295433750Y-63246250D03*
X304958750Y-55721250D03*
X308228750Y-62071250D03*
X274796250Y-85566250D03*
X281146250Y-83026250D03*
X298608750Y-66517500D03*
X304958750Y-63977500D03*
X293846250Y-85567500D03*
X300196250Y-83027500D03*
X267652500Y-85567500D03*
X274002500Y-83027500D03*
D28*
X29002500Y-78347500D03*
D29*
X54202500Y-49797500D03*
D30*
X157202500Y-68897500D03*
X219502500Y-107097500D03*
X289052500Y-49797500D03*
D28*
X314002500Y-78397500D03*
D31*
X157152500Y-78572500D03*
D16*
X52571720Y-108943040D03*
X55071720Y-108943040D03*
D15*
X78000000Y-49500000D03*
X78000000Y-52000000D03*
D16*
X171252500Y-47647500D03*
X173752500Y-47647500D03*
X266002500Y-49397500D03*
X268502500Y-49397500D03*
D32*
X52221720Y-100616040D03*
X52221720Y-105770040D03*
X55421720Y-105770040D03*
X55421720Y-100616040D03*
X78100000Y-45827000D03*
X78100000Y-40673000D03*
X74900000Y-40673000D03*
X74900000Y-45827000D03*
X169900000Y-40173000D03*
X169900000Y-45327000D03*
X173100000Y-45327000D03*
X173100000Y-40173000D03*
X265402500Y-40070500D03*
X265402500Y-45224500D03*
X268602500Y-45224500D03*
X268602500Y-40070500D03*
X291671720Y-105770040D03*
X291671720Y-100616040D03*
X288471720Y-100616040D03*
X288471720Y-105770040D03*
D16*
X289571720Y-110443040D03*
X292071720Y-110443040D03*
D33*
X286858750Y-93186250D03*
D34*
X289398750Y-93186250D03*
D33*
X253357500Y-112237500D03*
D34*
X250817500Y-112237500D03*
D33*
X253357500Y-112237500D03*
D34*
X255897500Y-112237500D03*
D33*
X232248750Y-112236250D03*
D34*
X229708750Y-112236250D03*
D33*
X232088750Y-112236250D03*
D34*
X234628750Y-112236250D03*
D33*
X258437500Y-112237500D03*
D34*
X255897500Y-112237500D03*
D33*
X291621250Y-74136250D03*
D34*
X294161250Y-74136250D03*
D33*
X246380000Y-36036250D03*
D34*
X248920000Y-36036250D03*
D33*
X297656250Y-60801250D03*
D34*
X297656250Y-58261250D03*
D33*
X301307500Y-55087500D03*
D34*
X298767500Y-55087500D03*
D33*
X274955000Y-55086250D03*
D34*
X277495000Y-55086250D03*
D33*
X255905000Y-55086250D03*
D34*
X258445000Y-55086250D03*
D33*
X236855000Y-55086250D03*
D34*
X239395000Y-55086250D03*
D33*
X217805000Y-55086250D03*
D34*
X220345000Y-55086250D03*
D33*
X303530000Y-36036250D03*
D34*
X306070000Y-36036250D03*
D33*
X93980000Y-36036250D03*
D34*
X96520000Y-36036250D03*
D33*
X55880000Y-36036250D03*
D34*
X58420000Y-36036250D03*
D33*
X294640000Y-36036250D03*
D34*
X297180000Y-36036250D03*
D33*
X284480000Y-36036250D03*
D34*
X287020000Y-36036250D03*
D33*
X265430000Y-36036250D03*
D34*
X267970000Y-36036250D03*
D33*
X132080000Y-36036250D03*
D34*
X134620000Y-36036250D03*
D33*
X227330000Y-36036250D03*
D34*
X229870000Y-36036250D03*
D33*
X198755000Y-55086250D03*
D34*
X201295000Y-55086250D03*
D33*
X208280000Y-36036250D03*
D34*
X210820000Y-36036250D03*
D33*
X189230000Y-36036250D03*
D34*
X191770000Y-36036250D03*
D33*
X179705000Y-55086250D03*
D34*
X182245000Y-55086250D03*
D33*
X170180000Y-36036250D03*
D34*
X172720000Y-36036250D03*
D33*
X151130000Y-36036250D03*
D34*
X153670000Y-36036250D03*
D33*
X113030000Y-36036250D03*
D34*
X115570000Y-36036250D03*
D33*
X74930000Y-36036250D03*
D34*
X77470000Y-36036250D03*
D33*
X36830000Y-36036250D03*
D34*
X39370000Y-36036250D03*
D33*
X41748750Y-93186250D03*
D34*
X39208750Y-93186250D03*
D33*
X160655000Y-55086250D03*
D34*
X163195000Y-55086250D03*
D33*
X141605000Y-55086250D03*
D34*
X144145000Y-55086250D03*
D33*
X122555000Y-55086250D03*
D34*
X125095000Y-55086250D03*
D33*
X103505000Y-55086250D03*
D34*
X106045000Y-55086250D03*
D33*
X84455000Y-55086250D03*
D34*
X86995000Y-55086250D03*
D33*
X65405000Y-55086250D03*
D34*
X67945000Y-55086250D03*
D33*
X41595000Y-55086250D03*
D34*
X44135000Y-55086250D03*
D33*
X39208750Y-74136250D03*
D34*
X41748750Y-74136250D03*
D33*
X46828750Y-74136250D03*
D34*
X44288750Y-74136250D03*
D33*
X70165000Y-74136250D03*
D34*
X72705000Y-74136250D03*
D33*
X39208750Y-112236250D03*
D34*
X41748750Y-112236250D03*
D33*
X146365000Y-74136250D03*
D34*
X148905000Y-74136250D03*
D33*
X44138750Y-112236250D03*
D34*
X41598750Y-112236250D03*
D33*
X260665000Y-74136250D03*
D34*
X263205000Y-74136250D03*
D33*
X63028750Y-112236250D03*
D34*
X65568750Y-112236250D03*
D33*
X67948750Y-112236250D03*
D34*
X65408750Y-112236250D03*
D33*
X48738750Y-93186250D03*
D34*
X51278750Y-93186250D03*
D33*
X222565000Y-74136250D03*
D34*
X225105000Y-74136250D03*
D33*
X165415000Y-74136250D03*
D34*
X167955000Y-74136250D03*
D33*
X151128750Y-112236250D03*
D34*
X153668750Y-112236250D03*
D33*
X158268750Y-112236250D03*
D34*
X160808750Y-112236250D03*
D33*
X172718750Y-112236250D03*
D34*
X170178750Y-112236250D03*
D33*
X155888750Y-93186250D03*
D34*
X158428750Y-93186250D03*
D33*
X60638750Y-93186250D03*
D34*
X63178750Y-93186250D03*
D33*
X79688750Y-93186250D03*
D34*
X82228750Y-93186250D03*
D33*
X213038750Y-93186250D03*
D34*
X215578750Y-93186250D03*
D33*
X89215000Y-74136250D03*
D34*
X91755000Y-74136250D03*
D33*
X279878750Y-112246250D03*
D34*
X277338750Y-112246250D03*
D33*
X193988750Y-93186250D03*
D34*
X196528750Y-93186250D03*
D33*
X303688750Y-112246250D03*
D34*
X301148750Y-112246250D03*
D33*
X91758750Y-112236250D03*
D34*
X89218750Y-112236250D03*
D33*
X86678750Y-112236250D03*
D34*
X89218750Y-112236250D03*
D33*
X98738750Y-93186250D03*
D34*
X101278750Y-93186250D03*
D33*
X108265000Y-74136250D03*
D34*
X110805000Y-74136250D03*
D33*
X117788750Y-93186250D03*
D34*
X120328750Y-93186250D03*
D33*
X136838750Y-93186250D03*
D34*
X139378750Y-93186250D03*
D33*
X127315000Y-74136250D03*
D34*
X129855000Y-74136250D03*
D33*
X279715000Y-74136250D03*
D34*
X282255000Y-74136250D03*
D33*
X241615000Y-74136250D03*
D34*
X244155000Y-74136250D03*
D33*
X203515000Y-74136250D03*
D34*
X206055000Y-74136250D03*
D33*
X184465000Y-74136250D03*
D34*
X187005000Y-74136250D03*
D33*
X174938750Y-93186250D03*
D34*
X177478750Y-93186250D03*
D33*
X232088750Y-93186250D03*
D34*
X234628750Y-93186250D03*
D33*
X274948750Y-112236250D03*
D34*
X277488750Y-112236250D03*
D33*
X298768750Y-112236250D03*
D34*
X301308750Y-112236250D03*
D33*
X303528750Y-93186250D03*
D34*
X306068750Y-93186250D03*
D33*
X277338750Y-93186250D03*
D34*
X279878750Y-93186250D03*
D33*
X251138750Y-93186250D03*
D34*
X253678750Y-93186250D03*
D33*
X303847500Y-74137500D03*
D34*
X301307500Y-74137500D03*
D33*
X296386250Y-93187500D03*
D34*
X298926250Y-93187500D03*
D33*
X274002500Y-93187500D03*
D34*
X271462500Y-93187500D03*
D18*
X124961720Y-124763040D03*
X124961720Y-121363040D03*
D17*
X149911720Y-123063040D03*
X146511720Y-123063040D03*
D18*
X187701720Y-124758040D03*
X187701720Y-121358040D03*
D11*
X132047970Y-126174290D03*
X138397970Y-123634290D03*
X153479220Y-126174290D03*
X159829220Y-123634290D03*
X172529220Y-126174290D03*
X178879220Y-123634290D03*
X174910470Y-126174290D03*
X181260470Y-123634290D03*
D12*
X311276720Y-116398040D03*
X310006720Y-116398040D03*
X308736720Y-116398040D03*
X312546720Y-116398040D03*
X313816720Y-116398040D03*
X31776720Y-119548040D03*
X30506720Y-119548040D03*
X29236720Y-119548040D03*
X33046720Y-119548040D03*
X34316720Y-119548040D03*
X31751720Y-116423040D03*
X30481720Y-116423040D03*
X29211720Y-116423040D03*
X33021720Y-116423040D03*
X34291720Y-116423040D03*
D11*
X298605470Y-104628040D03*
X304955470Y-102088040D03*
X296224220Y-104628040D03*
X302574220Y-102088040D03*
D30*
X47621720Y-130980540D03*
X147821720Y-129193040D03*
X304796720Y-126218040D03*
D16*
X298211720Y-133563040D03*
X300711720Y-133563040D03*
D15*
X160821720Y-131693040D03*
X160821720Y-134193040D03*
X55211720Y-123063040D03*
X55211720Y-125563040D03*
D32*
X298171720Y-130520040D03*
X298171720Y-125366040D03*
X294971720Y-125366040D03*
X294971720Y-130520040D03*
X165221720Y-125366040D03*
X165221720Y-130520040D03*
X168421720Y-130520040D03*
X168421720Y-125366040D03*
X39671720Y-130520040D03*
X39671720Y-125366040D03*
X36471720Y-125366040D03*
X36471720Y-130520040D03*
D35*
X193711720Y-111063040D03*
D36*
X193711720Y-109813040D03*
X193711720Y-108563040D03*
X193711720Y-107313040D03*
X193711720Y-106063040D03*
X193711720Y-104813040D03*
X193711720Y-103563040D03*
X193711720Y-102313040D03*
X193711720Y-101063040D03*
X193711720Y-99813040D03*
D35*
X69571720Y-123193040D03*
D36*
X69571720Y-124443040D03*
X69571720Y-125693040D03*
X69571720Y-126943040D03*
X69571720Y-128193040D03*
X69571720Y-129443040D03*
X69571720Y-130693040D03*
X69571720Y-131943040D03*
X69571720Y-133193040D03*
X69571720Y-134443040D03*
D35*
X285071720Y-134193040D03*
D36*
X285071720Y-132943040D03*
X285071720Y-131693040D03*
X285071720Y-130443040D03*
X285071720Y-129193040D03*
D35*
X198571720Y-101443040D03*
D36*
X198571720Y-102693040D03*
X198571720Y-103943040D03*
D37*
X57500000Y-56750000D03*
D38*
X57500000Y-59290000D03*
X57500000Y-61830000D03*
M02*
