G04 #@! TF.FileFunction,Soldermask,Top*
%FSLAX46Y46*%
G04 Gerber Fmt 4.6, Leading zero omitted, Abs format (unit mm)*
G04 Created by KiCad (PCBNEW 4.0.5+dfsg1-4) date Thu Jun 29 09:06:05 2017*
%MOMM*%
%LPD*%
G01*
G04 APERTURE LIST*
%ADD10C,0.100000*%
%ADD11C,2.900000*%
%ADD12C,1.200000*%
%ADD13C,3.448000*%
%ADD14C,4.380200*%
%ADD15O,1.700000X4.200000*%
%ADD16R,2.500000X2.600000*%
%ADD17R,2.500000X1.700000*%
%ADD18O,14.000000X5.600000*%
%ADD19C,5.400000*%
%ADD20C,6.500000*%
%ADD21C,6.400000*%
%ADD22R,2.300000X2.300000*%
%ADD23C,2.300000*%
%ADD24R,1.250000X1.250000*%
%ADD25C,1.250000*%
%ADD26R,2.432000X2.127200*%
%ADD27O,2.432000X2.127200*%
G04 APERTURE END LIST*
D10*
D11*
X134429220Y-126174290D03*
X140779220Y-123634290D03*
D12*
X311201720Y-119548040D03*
X309931720Y-119548040D03*
X308661720Y-119548040D03*
X312471720Y-119548040D03*
X313741720Y-119548040D03*
D13*
X114300000Y-114141250D03*
D14*
X114300000Y-98901250D03*
D13*
X228600000Y-114141250D03*
D14*
X228600000Y-98901250D03*
D13*
X209550000Y-114141250D03*
D14*
X209550000Y-98901250D03*
D13*
X109537500Y-114141250D03*
D14*
X109537500Y-98901250D03*
D13*
X300037500Y-81121250D03*
D14*
X300037500Y-96361250D03*
D13*
X276225000Y-81121250D03*
D14*
X276225000Y-96361250D03*
D13*
X295433750Y-47626250D03*
D14*
X310673750Y-47626250D03*
D13*
X295433750Y-71437500D03*
D14*
X310673750Y-71437500D03*
D13*
X280987500Y-62071250D03*
D14*
X280987500Y-77311250D03*
D13*
X304800000Y-62071250D03*
D14*
X304800000Y-77311250D03*
D13*
X307181250Y-23971250D03*
D14*
X307181250Y-39211250D03*
D13*
X283368750Y-23971250D03*
D14*
X283368750Y-39211250D03*
D13*
X61912500Y-81121250D03*
D14*
X61912500Y-96361250D03*
D15*
X43600000Y-24350000D03*
X50900000Y-24350000D03*
D13*
X38100000Y-81121250D03*
D14*
X38100000Y-96361250D03*
D16*
X30999906Y-66179882D03*
D17*
X30999906Y-63919882D03*
D11*
X34290000Y-28416250D03*
X40640000Y-25876250D03*
X39052500Y-47466250D03*
X45402500Y-44926250D03*
X36671250Y-85566250D03*
X43021250Y-83026250D03*
X36671250Y-104616250D03*
X43021250Y-102076250D03*
X39052500Y-104616250D03*
X45402500Y-102076250D03*
X53340000Y-28416250D03*
X59690000Y-25876250D03*
X62865000Y-47466250D03*
X69215000Y-44926250D03*
X67627500Y-66516250D03*
X73977500Y-63976250D03*
X58102500Y-85566250D03*
X64452500Y-83026250D03*
X60483750Y-104616250D03*
X66833750Y-102076250D03*
X62865000Y-104616250D03*
X69215000Y-102076250D03*
X72390000Y-28416250D03*
X78740000Y-25876250D03*
X81915000Y-47466250D03*
X88265000Y-44926250D03*
X86677500Y-66516250D03*
X93027500Y-63976250D03*
X77152500Y-85566250D03*
X83502500Y-83026250D03*
X84296250Y-104616250D03*
X90646250Y-102076250D03*
X86677500Y-104616250D03*
X93027500Y-102076250D03*
X91440000Y-28416250D03*
X97790000Y-25876250D03*
X100965000Y-47466250D03*
X107315000Y-44926250D03*
X105727500Y-66516250D03*
X112077500Y-63976250D03*
X96202500Y-85566250D03*
X102552500Y-83026250D03*
X110490000Y-28416250D03*
X116840000Y-25876250D03*
X120015000Y-47466250D03*
X126365000Y-44926250D03*
X124777500Y-66516250D03*
X131127500Y-63976250D03*
X115252500Y-85566250D03*
X121602500Y-83026250D03*
X129540000Y-28416250D03*
X135890000Y-25876250D03*
X139065000Y-47466250D03*
X145415000Y-44926250D03*
X143827500Y-66516250D03*
X150177500Y-63976250D03*
X134302500Y-85566250D03*
X140652500Y-83026250D03*
X148590000Y-28416250D03*
X154940000Y-25876250D03*
X158115000Y-47466250D03*
X164465000Y-44926250D03*
X162877500Y-66516250D03*
X169227500Y-63976250D03*
X153352500Y-85566250D03*
X159702500Y-83026250D03*
X167640000Y-28416250D03*
X173990000Y-25876250D03*
X177165000Y-47466250D03*
X183515000Y-44926250D03*
X181927500Y-66516250D03*
X188277500Y-63976250D03*
X172402500Y-85566250D03*
X178752500Y-83026250D03*
X186690000Y-28416250D03*
X193040000Y-25876250D03*
X196215000Y-47466250D03*
X202565000Y-44926250D03*
X200977500Y-66516250D03*
X207327500Y-63976250D03*
X191452500Y-85566250D03*
X197802500Y-83026250D03*
X205740000Y-28416250D03*
X212090000Y-25876250D03*
X215265000Y-47466250D03*
X221615000Y-44926250D03*
X220027500Y-66516250D03*
X226377500Y-63976250D03*
X210502500Y-85566250D03*
X216852500Y-83026250D03*
X300990000Y-28416250D03*
X307340000Y-25876250D03*
X224790000Y-28416250D03*
X231140000Y-25876250D03*
X234315000Y-47466250D03*
X240665000Y-44926250D03*
X239077500Y-66516250D03*
X245427500Y-63976250D03*
X229552500Y-85566250D03*
X235902500Y-83026250D03*
X227171250Y-104616250D03*
X233521250Y-102076250D03*
X229552500Y-104616250D03*
X235902500Y-102076250D03*
X243840000Y-28416250D03*
X250190000Y-25876250D03*
X253365000Y-47466250D03*
X259715000Y-44926250D03*
X258127500Y-66516250D03*
X264477500Y-63976250D03*
X248602500Y-85566250D03*
X254952500Y-83026250D03*
X253357500Y-104617500D03*
X259707500Y-102077500D03*
X250983750Y-104616250D03*
X257333750Y-102076250D03*
X248602500Y-104616250D03*
X254952500Y-102076250D03*
X262890000Y-28416250D03*
X269240000Y-25876250D03*
X272415000Y-47466250D03*
X278765000Y-44926250D03*
X277177500Y-66516250D03*
X283527500Y-63976250D03*
X272415000Y-104616250D03*
X278765000Y-102076250D03*
X274796250Y-104616250D03*
X281146250Y-102076250D03*
X281940000Y-28416250D03*
X288290000Y-25876250D03*
X296227500Y-47466250D03*
X302577500Y-44926250D03*
X300990000Y-85566250D03*
X307340000Y-83026250D03*
X41433750Y-66516250D03*
X47783750Y-63976250D03*
X36671250Y-66516250D03*
X43021250Y-63976250D03*
X46196250Y-85566250D03*
X52546250Y-82296250D03*
X167315000Y-104617500D03*
X173665000Y-101347500D03*
X155733750Y-104616250D03*
X162083750Y-101346250D03*
X148590000Y-104616250D03*
X154940000Y-101346250D03*
X284321250Y-85566250D03*
X290671250Y-82296250D03*
X291465000Y-28416250D03*
X297815000Y-25146250D03*
X289083750Y-66516250D03*
X295433750Y-63246250D03*
X304958750Y-55721250D03*
X308228750Y-62071250D03*
X274796250Y-85566250D03*
X281146250Y-83026250D03*
X298608750Y-66517500D03*
X304958750Y-63977500D03*
X293846250Y-85567500D03*
X300196250Y-83027500D03*
X267652500Y-85567500D03*
X274002500Y-83027500D03*
D18*
X29002500Y-78347500D03*
D19*
X54202500Y-49797500D03*
D20*
X157202500Y-68897500D03*
X219502500Y-107097500D03*
X289052500Y-49797500D03*
D18*
X314002500Y-78397500D03*
D21*
X157152500Y-78572500D03*
D22*
X286858750Y-93186250D03*
D23*
X289398750Y-93186250D03*
D22*
X253357500Y-112237500D03*
D23*
X250817500Y-112237500D03*
D22*
X253357500Y-112237500D03*
D23*
X255897500Y-112237500D03*
D22*
X232248750Y-112236250D03*
D23*
X229708750Y-112236250D03*
D22*
X232088750Y-112236250D03*
D23*
X234628750Y-112236250D03*
D22*
X258437500Y-112237500D03*
D23*
X255897500Y-112237500D03*
D22*
X291621250Y-74136250D03*
D23*
X294161250Y-74136250D03*
D22*
X246380000Y-36036250D03*
D23*
X248920000Y-36036250D03*
D22*
X297656250Y-60801250D03*
D23*
X297656250Y-58261250D03*
D22*
X301307500Y-55087500D03*
D23*
X298767500Y-55087500D03*
D22*
X274955000Y-55086250D03*
D23*
X277495000Y-55086250D03*
D22*
X255905000Y-55086250D03*
D23*
X258445000Y-55086250D03*
D22*
X236855000Y-55086250D03*
D23*
X239395000Y-55086250D03*
D22*
X217805000Y-55086250D03*
D23*
X220345000Y-55086250D03*
D22*
X303530000Y-36036250D03*
D23*
X306070000Y-36036250D03*
D22*
X93980000Y-36036250D03*
D23*
X96520000Y-36036250D03*
D22*
X55880000Y-36036250D03*
D23*
X58420000Y-36036250D03*
D22*
X294640000Y-36036250D03*
D23*
X297180000Y-36036250D03*
D22*
X284480000Y-36036250D03*
D23*
X287020000Y-36036250D03*
D22*
X265430000Y-36036250D03*
D23*
X267970000Y-36036250D03*
D22*
X132080000Y-36036250D03*
D23*
X134620000Y-36036250D03*
D22*
X227330000Y-36036250D03*
D23*
X229870000Y-36036250D03*
D22*
X198755000Y-55086250D03*
D23*
X201295000Y-55086250D03*
D22*
X208280000Y-36036250D03*
D23*
X210820000Y-36036250D03*
D22*
X189230000Y-36036250D03*
D23*
X191770000Y-36036250D03*
D22*
X179705000Y-55086250D03*
D23*
X182245000Y-55086250D03*
D22*
X170180000Y-36036250D03*
D23*
X172720000Y-36036250D03*
D22*
X151130000Y-36036250D03*
D23*
X153670000Y-36036250D03*
D22*
X113030000Y-36036250D03*
D23*
X115570000Y-36036250D03*
D22*
X74930000Y-36036250D03*
D23*
X77470000Y-36036250D03*
D22*
X36830000Y-36036250D03*
D23*
X39370000Y-36036250D03*
D22*
X41748750Y-93186250D03*
D23*
X39208750Y-93186250D03*
D22*
X160655000Y-55086250D03*
D23*
X163195000Y-55086250D03*
D22*
X141605000Y-55086250D03*
D23*
X144145000Y-55086250D03*
D22*
X122555000Y-55086250D03*
D23*
X125095000Y-55086250D03*
D22*
X103505000Y-55086250D03*
D23*
X106045000Y-55086250D03*
D22*
X84455000Y-55086250D03*
D23*
X86995000Y-55086250D03*
D22*
X65405000Y-55086250D03*
D23*
X67945000Y-55086250D03*
D22*
X41595000Y-55086250D03*
D23*
X44135000Y-55086250D03*
D22*
X39208750Y-74136250D03*
D23*
X41748750Y-74136250D03*
D22*
X46828750Y-74136250D03*
D23*
X44288750Y-74136250D03*
D22*
X70165000Y-74136250D03*
D23*
X72705000Y-74136250D03*
D22*
X39208750Y-112236250D03*
D23*
X41748750Y-112236250D03*
D22*
X146365000Y-74136250D03*
D23*
X148905000Y-74136250D03*
D22*
X44138750Y-112236250D03*
D23*
X41598750Y-112236250D03*
D22*
X260665000Y-74136250D03*
D23*
X263205000Y-74136250D03*
D22*
X63028750Y-112236250D03*
D23*
X65568750Y-112236250D03*
D22*
X67948750Y-112236250D03*
D23*
X65408750Y-112236250D03*
D22*
X48738750Y-93186250D03*
D23*
X51278750Y-93186250D03*
D22*
X222565000Y-74136250D03*
D23*
X225105000Y-74136250D03*
D22*
X165415000Y-74136250D03*
D23*
X167955000Y-74136250D03*
D22*
X151128750Y-112236250D03*
D23*
X153668750Y-112236250D03*
D22*
X158268750Y-112236250D03*
D23*
X160808750Y-112236250D03*
D22*
X172718750Y-112236250D03*
D23*
X170178750Y-112236250D03*
D22*
X155888750Y-93186250D03*
D23*
X158428750Y-93186250D03*
D22*
X60638750Y-93186250D03*
D23*
X63178750Y-93186250D03*
D22*
X79688750Y-93186250D03*
D23*
X82228750Y-93186250D03*
D22*
X213038750Y-93186250D03*
D23*
X215578750Y-93186250D03*
D22*
X89215000Y-74136250D03*
D23*
X91755000Y-74136250D03*
D22*
X279878750Y-112246250D03*
D23*
X277338750Y-112246250D03*
D22*
X193988750Y-93186250D03*
D23*
X196528750Y-93186250D03*
D22*
X303688750Y-112246250D03*
D23*
X301148750Y-112246250D03*
D22*
X91758750Y-112236250D03*
D23*
X89218750Y-112236250D03*
D22*
X86678750Y-112236250D03*
D23*
X89218750Y-112236250D03*
D22*
X98738750Y-93186250D03*
D23*
X101278750Y-93186250D03*
D22*
X108265000Y-74136250D03*
D23*
X110805000Y-74136250D03*
D22*
X117788750Y-93186250D03*
D23*
X120328750Y-93186250D03*
D22*
X136838750Y-93186250D03*
D23*
X139378750Y-93186250D03*
D22*
X127315000Y-74136250D03*
D23*
X129855000Y-74136250D03*
D22*
X279715000Y-74136250D03*
D23*
X282255000Y-74136250D03*
D22*
X241615000Y-74136250D03*
D23*
X244155000Y-74136250D03*
D22*
X203515000Y-74136250D03*
D23*
X206055000Y-74136250D03*
D22*
X184465000Y-74136250D03*
D23*
X187005000Y-74136250D03*
D22*
X174938750Y-93186250D03*
D23*
X177478750Y-93186250D03*
D22*
X232088750Y-93186250D03*
D23*
X234628750Y-93186250D03*
D22*
X274948750Y-112236250D03*
D23*
X277488750Y-112236250D03*
D22*
X298768750Y-112236250D03*
D23*
X301308750Y-112236250D03*
D22*
X303528750Y-93186250D03*
D23*
X306068750Y-93186250D03*
D22*
X277338750Y-93186250D03*
D23*
X279878750Y-93186250D03*
D22*
X251138750Y-93186250D03*
D23*
X253678750Y-93186250D03*
D22*
X303847500Y-74137500D03*
D23*
X301307500Y-74137500D03*
D22*
X296386250Y-93187500D03*
D23*
X298926250Y-93187500D03*
D22*
X274002500Y-93187500D03*
D23*
X271462500Y-93187500D03*
D11*
X132047970Y-126174290D03*
X138397970Y-123634290D03*
X153479220Y-126174290D03*
X159829220Y-123634290D03*
X172529220Y-126174290D03*
X178879220Y-123634290D03*
X174910470Y-126174290D03*
X181260470Y-123634290D03*
D12*
X311276720Y-116398040D03*
X310006720Y-116398040D03*
X308736720Y-116398040D03*
X312546720Y-116398040D03*
X313816720Y-116398040D03*
X31776720Y-119548040D03*
X30506720Y-119548040D03*
X29236720Y-119548040D03*
X33046720Y-119548040D03*
X34316720Y-119548040D03*
X31751720Y-116423040D03*
X30481720Y-116423040D03*
X29211720Y-116423040D03*
X33021720Y-116423040D03*
X34291720Y-116423040D03*
D11*
X298605470Y-104628040D03*
X304955470Y-102088040D03*
X296224220Y-104628040D03*
X302574220Y-102088040D03*
D20*
X47621720Y-130980540D03*
X147821720Y-129193040D03*
X304796720Y-126218040D03*
D24*
X193711720Y-111063040D03*
D25*
X193711720Y-109813040D03*
X193711720Y-108563040D03*
X193711720Y-107313040D03*
X193711720Y-106063040D03*
X193711720Y-104813040D03*
X193711720Y-103563040D03*
X193711720Y-102313040D03*
X193711720Y-101063040D03*
X193711720Y-99813040D03*
D24*
X69571720Y-123193040D03*
D25*
X69571720Y-124443040D03*
X69571720Y-125693040D03*
X69571720Y-126943040D03*
X69571720Y-128193040D03*
X69571720Y-129443040D03*
X69571720Y-130693040D03*
X69571720Y-131943040D03*
X69571720Y-133193040D03*
X69571720Y-134443040D03*
D24*
X285071720Y-134193040D03*
D25*
X285071720Y-132943040D03*
X285071720Y-131693040D03*
X285071720Y-130443040D03*
X285071720Y-129193040D03*
D24*
X198571720Y-101443040D03*
D25*
X198571720Y-102693040D03*
X198571720Y-103943040D03*
D26*
X57500000Y-56750000D03*
D27*
X57500000Y-59290000D03*
X57500000Y-61830000D03*
M02*
