M48
INCH,TZ
T1C0.016
T2C0.020
T3C0.028
T4C0.040
T5C0.044
T6C0.059
T7C0.087
T8C0.098
%
G90
G05
T1
X1.2106Y-2.0472
X1.3878Y-2.2244
X1.5551Y-2.313
X1.6717Y-4.9336
X1.6732Y-1.5157
X1.7618Y-1.4469
X2.0177Y-1.5157
X2.0374Y-1.4173
X2.0571Y-4.0551
X2.0866Y-3.5039
X2.126Y-3.8681
X2.2343Y-3.9862
X2.2736Y-1.6831
X2.2764Y-3.8856
X2.2933Y-2.0374
X2.2933Y-2.1457
X2.3228Y-3.5728
X2.3228Y-3.8386
X2.3819Y-3.9764
X2.4114Y-2.1161
X2.4213Y-1.3386
X2.4409Y-2.0866
X2.4803Y-2.8346
X2.4803Y-2.874
X2.8248Y-3.6713
X2.8543Y-1.5945
X2.9429Y-3.7205
X2.9921Y-3.5925
X3.002Y-1.998
X3.0118Y-1.624
X3.0118Y-3.2382
X3.1417Y-4.3307
X3.4736Y-1.3349
X3.5433Y-1.6319
X3.6909Y-3.8681
X3.8499Y-1.6046
X3.8878Y-4.3799
X3.8991Y-1.5948
X3.9779Y-4.016
X3.989Y-4.3875
X4.0157Y-4.3071
X4.1142Y-4.1535
X4.1437Y-4.2323
X4.1732Y-4.1496
X4.6457Y-4.5079
X4.6555Y-3.9862
X4.7229Y-4.3153
X4.7244Y-2.7461
X4.8834Y-4.0751
X4.9409Y-4.2618
X4.9409Y-4.3209
X4.9449Y-3.8976
X4.9705Y-3.8386
X5.Y-3.4449
X5.0015Y-4.0456
X5.0098Y-3.8878
X5.0098Y-4.3012
X5.0198Y-4.4842
X5.0394Y-3.4154
X5.0394Y-4.3406
X5.0704Y-3.5042
X5.0984Y-3.8681
X5.0984Y-4.1535
X5.0999Y-3.4747
X5.128Y-3.5728
X5.1378Y-3.8287
X5.1476Y-3.2185
X5.1673Y-4.3209
X5.1969Y-3.8386
X5.1969Y-4.2815
X5.3141Y-3.5691
X5.315Y-3.6417
X5.3248Y-4.0059
X5.3331Y-4.3332
X5.3346Y-3.2283
X5.343Y-4.2348
X5.3528Y-4.2741
X5.3642Y-3.8189
X5.4232Y-3.3169
X5.4626Y-4.3406
X5.4921Y-4.311
X5.5217Y-4.3701
X5.5512Y-3.7598
X5.689Y-3.8878
X5.6988Y-4.1142
X5.7087Y-3.8287
X5.7185Y-4.1437
X5.9827Y-3.7328
X6.0024Y-5.2978
X6.0516Y-5.2978
X6.1432Y-2.4117
X6.1432Y-2.4511
X6.2106Y-2.4213
X6.2387Y-5.2682
X6.4567Y-3.8386
X6.7028Y-3.7303
X6.7796Y-1.6495
X6.8602Y-4.2126
X7.0866Y-4.4488
X7.1063Y-3.9173
X7.126Y-3.8878
X7.126Y-3.9665
X7.1555Y-3.8583
X7.313Y-3.8583
X7.3622Y-3.5335
X7.7249Y-4.0576
X7.7264Y-2.8445
X7.7559Y-2.8051
X7.7854Y-2.7854
X7.8051Y-4.3209
X7.8178Y-3.8167
X7.8346Y-3.7795
X8.061Y-3.5925
X8.0709Y-4.1142
X8.0807Y-4.2717
X8.1004Y-3.7795
X8.1481Y-5.1993
X8.1875Y-5.2289
X8.3268Y-3.7795
X8.435Y-4.3209
X8.4464Y-3.9668
X8.4969Y-4.2891
X8.563Y-3.9961
X8.8091Y-1.5453
X8.8287Y-3.6024
X8.8287Y-3.6319
X8.878Y-3.6713
X8.878Y-3.8484
X8.9272Y-1.5846
X9.0664Y-2.1656
X9.0664Y-2.9727
X9.1133Y-3.0081
X9.1156Y-2.2641
X10.571Y-1.6987
X10.6497Y-3.7558
X10.8253Y-1.8135
X10.876Y-2.9724
X11.3583Y-3.1594
X11.4257Y-3.9296
X12.0177Y-4.5374
X12.0571Y-4.3799
X12.0965Y-2.8839
X12.1654Y-3.5433
T2
X2.739Y-4.8501
X2.739Y-4.8993
X2.739Y-4.9485
X2.739Y-4.9978
X2.739Y-5.047
X2.739Y-5.0962
X2.739Y-5.1454
X2.739Y-5.1946
X2.739Y-5.2438
X2.739Y-5.293
X7.6264Y-3.9296
X7.6264Y-3.9789
X7.6264Y-4.0281
X7.6264Y-4.0773
X7.6264Y-4.1265
X7.6264Y-4.1757
X7.6264Y-4.2249
X7.6264Y-4.2741
X7.6264Y-4.3233
X7.6264Y-4.3726
X7.8178Y-3.9938
X7.8178Y-4.043
X7.8178Y-4.0922
X11.2233Y-5.0863
X11.2233Y-5.1356
X11.2233Y-5.1848
X11.2233Y-5.234
X11.2233Y-5.2832
T4
X2.2638Y-2.2343
X2.2638Y-2.3343
X2.2638Y-2.4343
T5
X1.45Y-1.4187
X1.5437Y-2.9187
X1.5437Y-3.6687
X1.5437Y-4.4188
X1.55Y-1.4187
X1.6376Y-2.1687
X1.6377Y-4.4188
X1.6437Y-2.9187
X1.6437Y-3.6687
X1.6437Y-4.4188
X1.7376Y-2.1687
X1.7377Y-4.4188
X1.7437Y-2.9187
X1.8437Y-2.9187
X1.9188Y-3.6687
X2.0188Y-3.6687
X2.2Y-1.4187
X2.3Y-1.4187
X2.3874Y-3.6687
X2.4814Y-4.4188
X2.4874Y-3.6687
X2.575Y-2.1687
X2.5751Y-4.4188
X2.5814Y-4.4188
X2.675Y-2.1687
X2.6751Y-4.4188
X2.7624Y-2.9187
X2.8624Y-2.9187
X2.95Y-1.4187
X3.05Y-1.4187
X3.1374Y-3.6687
X3.2374Y-3.6687
X3.325Y-2.1687
X3.4125Y-4.4188
X3.425Y-2.1687
X3.5124Y-2.9187
X3.5125Y-4.4188
X3.5125Y-4.4188
X3.6124Y-2.9187
X3.6125Y-4.4188
X3.7Y-1.4187
X3.8Y-1.4187
X3.8874Y-3.6687
X3.9874Y-3.6687
X4.075Y-2.1687
X4.175Y-2.1687
X4.2624Y-2.9187
X4.3624Y-2.9187
X4.45Y-1.4187
X4.55Y-1.4187
X4.6374Y-3.6687
X4.7374Y-3.6687
X4.825Y-2.1687
X4.925Y-2.1687
X5.0124Y-2.9187
X5.1124Y-2.9187
X5.2Y-1.4187
X5.3Y-1.4187
X5.3874Y-3.6687
X5.4874Y-3.6687
X5.575Y-2.1687
X5.675Y-2.1687
X5.7624Y-2.9187
X5.8624Y-2.9187
X5.95Y-4.4188
X5.95Y-1.4187
X6.05Y-4.4188
X6.05Y-1.4187
X6.1374Y-3.6687
X6.2311Y-4.4188
X6.2374Y-3.6687
X6.325Y-2.1687
X6.3311Y-4.4188
X6.425Y-2.1687
X6.5124Y-2.9187
X6.6124Y-2.9187
X6.7Y-4.4188
X6.7Y-1.4187
X6.8Y-4.4188
X6.8Y-1.4187
X6.8874Y-3.6687
X6.9874Y-3.6687
X7.075Y-2.1687
X7.175Y-2.1687
X7.2624Y-2.9187
X7.3624Y-2.9187
X7.45Y-1.4187
X7.55Y-1.4187
X7.6374Y-3.6687
X7.7374Y-3.6687
X7.825Y-2.1687
X7.925Y-2.1687
X8.0124Y-2.9187
X8.1124Y-2.9187
X8.2Y-1.4187
X8.3Y-1.4187
X8.3874Y-3.6687
X8.4874Y-3.6687
X8.575Y-2.1687
X8.675Y-2.1687
X8.7624Y-2.9187
X8.8624Y-2.9187
X8.95Y-1.4187
X9.0437Y-4.4188
X9.05Y-1.4187
X9.1374Y-3.6687
X9.1374Y-4.4188
X9.1437Y-4.4188
X9.2374Y-3.6687
X9.2374Y-4.4188
X9.325Y-2.1687
X9.425Y-2.1687
X9.5124Y-2.9187
X9.6124Y-2.9187
X9.7Y-1.4187
X9.8Y-1.4187
X9.8747Y-4.4188
X9.8874Y-3.6687
X9.9747Y-4.4188
X9.9747Y-4.4188
X9.9874Y-3.6687
X10.0747Y-4.4188
X10.0747Y-4.4188
X10.075Y-2.1687
X10.1747Y-4.4188
X10.175Y-2.1687
X10.2624Y-2.9187
X10.3624Y-2.9187
X10.45Y-1.4187
X10.55Y-1.4187
X10.6875Y-3.6688
X10.7875Y-3.6688
X10.8248Y-4.4188
X10.825Y-2.1687
X10.9188Y-3.6687
X10.9188Y-4.4191
X10.9248Y-4.4188
X10.925Y-2.1687
X11.0124Y-2.9187
X11.0188Y-3.6687
X11.0188Y-4.4191
X11.1124Y-2.9187
X11.2Y-1.4187
X11.2937Y-3.6687
X11.3Y-1.4187
X11.3937Y-3.6687
X11.4812Y-2.9187
X11.5812Y-2.9187
X11.6Y-1.4187
X11.6687Y-3.6688
X11.7Y-1.4187
X11.7188Y-2.2937
X11.7188Y-2.3937
X11.7625Y-2.1688
X11.7625Y-4.4188
X11.7687Y-3.6688
X11.8562Y-4.4191
X11.8625Y-2.1688
X11.8625Y-2.9188
X11.8625Y-4.4188
X11.95Y-3.6687
X11.95Y-1.4187
X11.9562Y-4.4191
X11.9625Y-2.9188
X12.05Y-3.6687
X12.05Y-1.4187
T6
X1.35Y-1.1187
X1.4437Y-2.6187
X1.4437Y-3.3687
X1.4437Y-4.1187
X1.5375Y-1.8687
X1.5375Y-4.1187
X1.6Y-1.0188
X1.6312Y-2.6187
X1.6937Y-2.5187
X1.6937Y-3.2687
X1.6937Y-4.0187
X1.7875Y-1.7688
X1.7875Y-4.0187
X1.8187Y-3.3687
X1.8812Y-2.5187
X2.0688Y-3.24
X2.1Y-1.1187
X2.2875Y-3.3687
X2.35Y-1.0188
X2.3813Y-4.1187
X2.475Y-1.8687
X2.475Y-4.1187
X2.5375Y-3.2687
X2.6313Y-4.0187
X2.6625Y-2.6187
X2.725Y-1.7688
X2.725Y-4.0187
X2.85Y-1.1187
X2.9125Y-2.5187
X3.0375Y-3.3687
X3.1Y-1.0188
X3.225Y-1.8687
X3.2875Y-3.2687
X3.3188Y-4.1187
X3.4125Y-2.6187
X3.4125Y-4.1187
X3.475Y-1.7688
X3.5688Y-4.0187
X3.6Y-1.1187
X3.6625Y-2.5187
X3.6625Y-4.0187
X3.7875Y-3.3687
X3.85Y-1.0188
X3.975Y-1.8687
X4.0375Y-3.2687
X4.1625Y-2.6187
X4.225Y-1.7688
X4.35Y-1.1187
X4.4125Y-2.5187
X4.5375Y-3.3687
X4.6Y-1.0188
X4.725Y-1.8687
X4.7875Y-3.2687
X4.9125Y-2.6187
X4.975Y-1.7688
X5.1Y-1.1187
X5.1625Y-2.5187
X5.1987Y-4.9675
X5.2875Y-3.3687
X5.2925Y-4.9675
X5.35Y-1.0188
X5.4487Y-4.8675
X5.475Y-1.8687
X5.5375Y-3.2687
X5.5425Y-4.8675
X5.6625Y-2.6187
X5.725Y-1.7688
X5.85Y-1.1187
X5.85Y-4.1187
X5.9125Y-2.5187
X6.0375Y-3.3687
X6.0425Y-4.9675
X6.1Y-1.0188
X6.1Y-3.99
X6.1312Y-4.1187
X6.225Y-1.8687
X6.2875Y-3.2687
X6.2925Y-4.8675
X6.3812Y-3.99
X6.4125Y-2.6187
X6.475Y-1.7688
X6.5872Y-4.1188
X6.6Y-1.1187
X6.6625Y-2.5187
X6.7875Y-3.3687
X6.7925Y-4.9675
X6.8372Y-3.9901
X6.85Y-1.0188
X6.8862Y-4.9675
X6.975Y-1.8687
X7.0375Y-3.2687
X7.0425Y-4.8675
X7.1362Y-4.8675
X7.1625Y-2.6187
X7.225Y-1.7688
X7.35Y-1.1187
X7.4125Y-2.5187
X7.5375Y-3.3687
X7.6Y-1.0188
X7.725Y-1.8687
X7.7875Y-3.2687
X7.9125Y-2.6187
X7.975Y-1.7688
X8.1Y-1.1187
X8.1625Y-2.5187
X8.2875Y-3.3687
X8.35Y-1.0188
X8.475Y-1.8687
X8.5375Y-3.2687
X8.6625Y-2.6187
X8.725Y-1.7688
X8.85Y-1.1187
X8.9125Y-2.5187
X8.9437Y-4.1187
X9.0375Y-3.3687
X9.0375Y-4.1187
X9.1Y-1.0188
X9.1937Y-4.0187
X9.225Y-1.8687
X9.2875Y-3.2687
X9.2875Y-4.0187
X9.4125Y-2.6187
X9.475Y-1.7688
X9.6Y-1.1187
X9.6625Y-2.5187
X9.7875Y-3.3687
X9.7875Y-4.1187
X9.85Y-1.0188
X9.8812Y-4.1187
X9.9747Y-4.1188
X9.975Y-1.8687
X10.0375Y-3.2687
X10.0375Y-4.0187
X10.1312Y-4.0187
X10.1625Y-2.6187
X10.2247Y-4.0188
X10.225Y-1.7688
X10.35Y-1.1187
X10.4125Y-2.5187
X10.5375Y-3.3688
X10.6Y-1.0188
X10.725Y-1.8687
X10.725Y-4.1187
X10.7875Y-3.2688
X10.8187Y-3.3687
X10.8187Y-4.1187
X10.9125Y-2.6187
X10.975Y-1.7688
X10.975Y-4.0187
X11.0687Y-3.2687
X11.0687Y-4.0187
X11.1Y-1.1187
X11.1625Y-2.5187
X11.1937Y-3.3687
X11.35Y-1.0188
X11.3812Y-2.6187
X11.4437Y-3.24
X11.475Y-1.1187
X11.5687Y-3.3688
X11.6312Y-2.49
X11.6624Y-4.1192
X11.6625Y-1.8687
X11.725Y-0.99
X11.7561Y-4.1192
X11.7562Y-2.6188
X11.8187Y-3.2688
X11.85Y-1.1187
X11.85Y-3.3687
X11.9124Y-4.0192
X11.9125Y-1.7688
X12.0061Y-4.0192
X12.0062Y-2.1938
X12.0062Y-2.5188
X12.1Y-1.0188
X12.1Y-3.2687
X12.135Y-2.4438
T8
X2.134Y-1.9605
T3
X1.7165Y-0.9094G85X1.7165Y-1.0079
G05
X2.0039Y-0.9094G85X2.0039Y-1.0079
G05
T7
X0.9765Y-3.0845G85X1.3072Y-3.0845
G05
X12.1969Y-3.0865G85X12.5277Y-3.0865
G05
T8
X1.8335Y-5.1567G85X1.9162Y-5.1567
G05
X5.7784Y-5.0863G85X5.8611Y-5.0863
G05
X6.1477Y-2.7125G85X6.2304Y-2.7125
G05
X8.6005Y-4.2164G85X8.6832Y-4.2164
G05
X11.3387Y-1.9605G85X11.4214Y-1.9605
G05
X11.9585Y-4.9692G85X12.0412Y-4.9692
G05
T0
M30
