G04 #@! TF.FileFunction,Legend,Top*
%FSLAX46Y46*%
G04 Gerber Fmt 4.6, Leading zero omitted, Abs format (unit mm)*
G04 Created by KiCad (PCBNEW 4.0.5+dfsg1-4) date Thu Jun 29 09:06:05 2017*
%MOMM*%
%LPD*%
G01*
G04 APERTURE LIST*
%ADD10C,0.100000*%
%ADD11C,0.381000*%
%ADD12C,0.150000*%
%ADD13C,0.010000*%
G04 APERTURE END LIST*
D10*
D11*
X131889220Y-122364290D02*
X133667220Y-122364290D01*
X142811220Y-122364290D02*
X144589220Y-122364290D01*
X144589220Y-122364290D02*
X144589220Y-124142290D01*
X144589220Y-133286290D02*
X144589220Y-135064290D01*
X144589220Y-135064290D02*
X142811220Y-135064290D01*
X133667220Y-135064290D02*
X131889220Y-135064290D01*
X131889220Y-135064290D02*
X131889220Y-133286290D01*
X131889220Y-124142290D02*
X131889220Y-122364290D01*
X110871000Y-96488250D02*
X110871000Y-115157250D01*
X110871000Y-115157250D02*
X117729000Y-115157250D01*
X117729000Y-115157250D02*
X117729000Y-96488250D01*
X117729000Y-96488250D02*
X110871000Y-96488250D01*
X225171000Y-96488250D02*
X225171000Y-115157250D01*
X225171000Y-115157250D02*
X232029000Y-115157250D01*
X232029000Y-115157250D02*
X232029000Y-96488250D01*
X232029000Y-96488250D02*
X225171000Y-96488250D01*
X206121000Y-96488250D02*
X206121000Y-115157250D01*
X206121000Y-115157250D02*
X212979000Y-115157250D01*
X212979000Y-115157250D02*
X212979000Y-96488250D01*
X212979000Y-96488250D02*
X206121000Y-96488250D01*
X106108500Y-96488250D02*
X106108500Y-115157250D01*
X106108500Y-115157250D02*
X112966500Y-115157250D01*
X112966500Y-115157250D02*
X112966500Y-96488250D01*
X112966500Y-96488250D02*
X106108500Y-96488250D01*
X303466500Y-98774250D02*
X303466500Y-80105250D01*
X303466500Y-80105250D02*
X296608500Y-80105250D01*
X296608500Y-80105250D02*
X296608500Y-98774250D01*
X296608500Y-98774250D02*
X303466500Y-98774250D01*
X279654000Y-98774250D02*
X279654000Y-80105250D01*
X279654000Y-80105250D02*
X272796000Y-80105250D01*
X272796000Y-80105250D02*
X272796000Y-98774250D01*
X272796000Y-98774250D02*
X279654000Y-98774250D01*
X313086750Y-44197250D02*
X294417750Y-44197250D01*
X294417750Y-44197250D02*
X294417750Y-51055250D01*
X294417750Y-51055250D02*
X313086750Y-51055250D01*
X313086750Y-51055250D02*
X313086750Y-44197250D01*
X313086750Y-68008500D02*
X294417750Y-68008500D01*
X294417750Y-68008500D02*
X294417750Y-74866500D01*
X294417750Y-74866500D02*
X313086750Y-74866500D01*
X313086750Y-74866500D02*
X313086750Y-68008500D01*
X284416500Y-79724250D02*
X284416500Y-61055250D01*
X284416500Y-61055250D02*
X277558500Y-61055250D01*
X277558500Y-61055250D02*
X277558500Y-79724250D01*
X277558500Y-79724250D02*
X284416500Y-79724250D01*
X308229000Y-79724250D02*
X308229000Y-61055250D01*
X308229000Y-61055250D02*
X301371000Y-61055250D01*
X301371000Y-61055250D02*
X301371000Y-79724250D01*
X301371000Y-79724250D02*
X308229000Y-79724250D01*
X310610250Y-41624250D02*
X310610250Y-22955250D01*
X310610250Y-22955250D02*
X303752250Y-22955250D01*
X303752250Y-22955250D02*
X303752250Y-41624250D01*
X303752250Y-41624250D02*
X310610250Y-41624250D01*
X286797750Y-41624250D02*
X286797750Y-22955250D01*
X286797750Y-22955250D02*
X279939750Y-22955250D01*
X279939750Y-22955250D02*
X279939750Y-41624250D01*
X279939750Y-41624250D02*
X286797750Y-41624250D01*
X65341500Y-98774250D02*
X65341500Y-80105250D01*
X65341500Y-80105250D02*
X58483500Y-80105250D01*
X58483500Y-80105250D02*
X58483500Y-98774250D01*
X58483500Y-98774250D02*
X65341500Y-98774250D01*
X41529000Y-98774250D02*
X41529000Y-80105250D01*
X41529000Y-80105250D02*
X34671000Y-80105250D01*
X34671000Y-80105250D02*
X34671000Y-98774250D01*
X34671000Y-98774250D02*
X41529000Y-98774250D01*
D12*
X29399906Y-63849882D02*
X29399906Y-67249882D01*
X32599906Y-63849882D02*
X32599906Y-67249882D01*
D11*
X31750000Y-24606250D02*
X33528000Y-24606250D01*
X42672000Y-24606250D02*
X44450000Y-24606250D01*
X44450000Y-24606250D02*
X44450000Y-26384250D01*
X44450000Y-35528250D02*
X44450000Y-37306250D01*
X44450000Y-37306250D02*
X42672000Y-37306250D01*
X33528000Y-37306250D02*
X31750000Y-37306250D01*
X31750000Y-37306250D02*
X31750000Y-35528250D01*
X31750000Y-26384250D02*
X31750000Y-24606250D01*
X36512500Y-43656250D02*
X38290500Y-43656250D01*
X47434500Y-43656250D02*
X49212500Y-43656250D01*
X49212500Y-43656250D02*
X49212500Y-45434250D01*
X49212500Y-54578250D02*
X49212500Y-56356250D01*
X49212500Y-56356250D02*
X47434500Y-56356250D01*
X38290500Y-56356250D02*
X36512500Y-56356250D01*
X36512500Y-56356250D02*
X36512500Y-54578250D01*
X36512500Y-45434250D02*
X36512500Y-43656250D01*
X34131250Y-81756250D02*
X35909250Y-81756250D01*
X45053250Y-81756250D02*
X46831250Y-81756250D01*
X46831250Y-81756250D02*
X46831250Y-83534250D01*
X46831250Y-92678250D02*
X46831250Y-94456250D01*
X46831250Y-94456250D02*
X45053250Y-94456250D01*
X35909250Y-94456250D02*
X34131250Y-94456250D01*
X34131250Y-94456250D02*
X34131250Y-92678250D01*
X34131250Y-83534250D02*
X34131250Y-81756250D01*
X34131250Y-100806250D02*
X35909250Y-100806250D01*
X45053250Y-100806250D02*
X46831250Y-100806250D01*
X46831250Y-100806250D02*
X46831250Y-102584250D01*
X46831250Y-111728250D02*
X46831250Y-113506250D01*
X46831250Y-113506250D02*
X45053250Y-113506250D01*
X35909250Y-113506250D02*
X34131250Y-113506250D01*
X34131250Y-113506250D02*
X34131250Y-111728250D01*
X34131250Y-102584250D02*
X34131250Y-100806250D01*
X36512500Y-100806250D02*
X38290500Y-100806250D01*
X47434500Y-100806250D02*
X49212500Y-100806250D01*
X49212500Y-100806250D02*
X49212500Y-102584250D01*
X49212500Y-111728250D02*
X49212500Y-113506250D01*
X49212500Y-113506250D02*
X47434500Y-113506250D01*
X38290500Y-113506250D02*
X36512500Y-113506250D01*
X36512500Y-113506250D02*
X36512500Y-111728250D01*
X36512500Y-102584250D02*
X36512500Y-100806250D01*
X50800000Y-24606250D02*
X52578000Y-24606250D01*
X61722000Y-24606250D02*
X63500000Y-24606250D01*
X63500000Y-24606250D02*
X63500000Y-26384250D01*
X63500000Y-35528250D02*
X63500000Y-37306250D01*
X63500000Y-37306250D02*
X61722000Y-37306250D01*
X52578000Y-37306250D02*
X50800000Y-37306250D01*
X50800000Y-37306250D02*
X50800000Y-35528250D01*
X50800000Y-26384250D02*
X50800000Y-24606250D01*
X60325000Y-43656250D02*
X62103000Y-43656250D01*
X71247000Y-43656250D02*
X73025000Y-43656250D01*
X73025000Y-43656250D02*
X73025000Y-45434250D01*
X73025000Y-54578250D02*
X73025000Y-56356250D01*
X73025000Y-56356250D02*
X71247000Y-56356250D01*
X62103000Y-56356250D02*
X60325000Y-56356250D01*
X60325000Y-56356250D02*
X60325000Y-54578250D01*
X60325000Y-45434250D02*
X60325000Y-43656250D01*
X65087500Y-62706250D02*
X66865500Y-62706250D01*
X76009500Y-62706250D02*
X77787500Y-62706250D01*
X77787500Y-62706250D02*
X77787500Y-64484250D01*
X77787500Y-73628250D02*
X77787500Y-75406250D01*
X77787500Y-75406250D02*
X76009500Y-75406250D01*
X66865500Y-75406250D02*
X65087500Y-75406250D01*
X65087500Y-75406250D02*
X65087500Y-73628250D01*
X65087500Y-64484250D02*
X65087500Y-62706250D01*
X55562500Y-81756250D02*
X57340500Y-81756250D01*
X66484500Y-81756250D02*
X68262500Y-81756250D01*
X68262500Y-81756250D02*
X68262500Y-83534250D01*
X68262500Y-92678250D02*
X68262500Y-94456250D01*
X68262500Y-94456250D02*
X66484500Y-94456250D01*
X57340500Y-94456250D02*
X55562500Y-94456250D01*
X55562500Y-94456250D02*
X55562500Y-92678250D01*
X55562500Y-83534250D02*
X55562500Y-81756250D01*
X57943750Y-100806250D02*
X59721750Y-100806250D01*
X68865750Y-100806250D02*
X70643750Y-100806250D01*
X70643750Y-100806250D02*
X70643750Y-102584250D01*
X70643750Y-111728250D02*
X70643750Y-113506250D01*
X70643750Y-113506250D02*
X68865750Y-113506250D01*
X59721750Y-113506250D02*
X57943750Y-113506250D01*
X57943750Y-113506250D02*
X57943750Y-111728250D01*
X57943750Y-102584250D02*
X57943750Y-100806250D01*
X60325000Y-100806250D02*
X62103000Y-100806250D01*
X71247000Y-100806250D02*
X73025000Y-100806250D01*
X73025000Y-100806250D02*
X73025000Y-102584250D01*
X73025000Y-111728250D02*
X73025000Y-113506250D01*
X73025000Y-113506250D02*
X71247000Y-113506250D01*
X62103000Y-113506250D02*
X60325000Y-113506250D01*
X60325000Y-113506250D02*
X60325000Y-111728250D01*
X60325000Y-102584250D02*
X60325000Y-100806250D01*
X69850000Y-24606250D02*
X71628000Y-24606250D01*
X80772000Y-24606250D02*
X82550000Y-24606250D01*
X82550000Y-24606250D02*
X82550000Y-26384250D01*
X82550000Y-35528250D02*
X82550000Y-37306250D01*
X82550000Y-37306250D02*
X80772000Y-37306250D01*
X71628000Y-37306250D02*
X69850000Y-37306250D01*
X69850000Y-37306250D02*
X69850000Y-35528250D01*
X69850000Y-26384250D02*
X69850000Y-24606250D01*
X79375000Y-43656250D02*
X81153000Y-43656250D01*
X90297000Y-43656250D02*
X92075000Y-43656250D01*
X92075000Y-43656250D02*
X92075000Y-45434250D01*
X92075000Y-54578250D02*
X92075000Y-56356250D01*
X92075000Y-56356250D02*
X90297000Y-56356250D01*
X81153000Y-56356250D02*
X79375000Y-56356250D01*
X79375000Y-56356250D02*
X79375000Y-54578250D01*
X79375000Y-45434250D02*
X79375000Y-43656250D01*
X84137500Y-62706250D02*
X85915500Y-62706250D01*
X95059500Y-62706250D02*
X96837500Y-62706250D01*
X96837500Y-62706250D02*
X96837500Y-64484250D01*
X96837500Y-73628250D02*
X96837500Y-75406250D01*
X96837500Y-75406250D02*
X95059500Y-75406250D01*
X85915500Y-75406250D02*
X84137500Y-75406250D01*
X84137500Y-75406250D02*
X84137500Y-73628250D01*
X84137500Y-64484250D02*
X84137500Y-62706250D01*
X74612500Y-81756250D02*
X76390500Y-81756250D01*
X85534500Y-81756250D02*
X87312500Y-81756250D01*
X87312500Y-81756250D02*
X87312500Y-83534250D01*
X87312500Y-92678250D02*
X87312500Y-94456250D01*
X87312500Y-94456250D02*
X85534500Y-94456250D01*
X76390500Y-94456250D02*
X74612500Y-94456250D01*
X74612500Y-94456250D02*
X74612500Y-92678250D01*
X74612500Y-83534250D02*
X74612500Y-81756250D01*
X81756250Y-100806250D02*
X83534250Y-100806250D01*
X92678250Y-100806250D02*
X94456250Y-100806250D01*
X94456250Y-100806250D02*
X94456250Y-102584250D01*
X94456250Y-111728250D02*
X94456250Y-113506250D01*
X94456250Y-113506250D02*
X92678250Y-113506250D01*
X83534250Y-113506250D02*
X81756250Y-113506250D01*
X81756250Y-113506250D02*
X81756250Y-111728250D01*
X81756250Y-102584250D02*
X81756250Y-100806250D01*
X84137500Y-100806250D02*
X85915500Y-100806250D01*
X95059500Y-100806250D02*
X96837500Y-100806250D01*
X96837500Y-100806250D02*
X96837500Y-102584250D01*
X96837500Y-111728250D02*
X96837500Y-113506250D01*
X96837500Y-113506250D02*
X95059500Y-113506250D01*
X85915500Y-113506250D02*
X84137500Y-113506250D01*
X84137500Y-113506250D02*
X84137500Y-111728250D01*
X84137500Y-102584250D02*
X84137500Y-100806250D01*
X88900000Y-24606250D02*
X90678000Y-24606250D01*
X99822000Y-24606250D02*
X101600000Y-24606250D01*
X101600000Y-24606250D02*
X101600000Y-26384250D01*
X101600000Y-35528250D02*
X101600000Y-37306250D01*
X101600000Y-37306250D02*
X99822000Y-37306250D01*
X90678000Y-37306250D02*
X88900000Y-37306250D01*
X88900000Y-37306250D02*
X88900000Y-35528250D01*
X88900000Y-26384250D02*
X88900000Y-24606250D01*
X98425000Y-43656250D02*
X100203000Y-43656250D01*
X109347000Y-43656250D02*
X111125000Y-43656250D01*
X111125000Y-43656250D02*
X111125000Y-45434250D01*
X111125000Y-54578250D02*
X111125000Y-56356250D01*
X111125000Y-56356250D02*
X109347000Y-56356250D01*
X100203000Y-56356250D02*
X98425000Y-56356250D01*
X98425000Y-56356250D02*
X98425000Y-54578250D01*
X98425000Y-45434250D02*
X98425000Y-43656250D01*
X103187500Y-62706250D02*
X104965500Y-62706250D01*
X114109500Y-62706250D02*
X115887500Y-62706250D01*
X115887500Y-62706250D02*
X115887500Y-64484250D01*
X115887500Y-73628250D02*
X115887500Y-75406250D01*
X115887500Y-75406250D02*
X114109500Y-75406250D01*
X104965500Y-75406250D02*
X103187500Y-75406250D01*
X103187500Y-75406250D02*
X103187500Y-73628250D01*
X103187500Y-64484250D02*
X103187500Y-62706250D01*
X93662500Y-81756250D02*
X95440500Y-81756250D01*
X104584500Y-81756250D02*
X106362500Y-81756250D01*
X106362500Y-81756250D02*
X106362500Y-83534250D01*
X106362500Y-92678250D02*
X106362500Y-94456250D01*
X106362500Y-94456250D02*
X104584500Y-94456250D01*
X95440500Y-94456250D02*
X93662500Y-94456250D01*
X93662500Y-94456250D02*
X93662500Y-92678250D01*
X93662500Y-83534250D02*
X93662500Y-81756250D01*
X107950000Y-24606250D02*
X109728000Y-24606250D01*
X118872000Y-24606250D02*
X120650000Y-24606250D01*
X120650000Y-24606250D02*
X120650000Y-26384250D01*
X120650000Y-35528250D02*
X120650000Y-37306250D01*
X120650000Y-37306250D02*
X118872000Y-37306250D01*
X109728000Y-37306250D02*
X107950000Y-37306250D01*
X107950000Y-37306250D02*
X107950000Y-35528250D01*
X107950000Y-26384250D02*
X107950000Y-24606250D01*
X117475000Y-43656250D02*
X119253000Y-43656250D01*
X128397000Y-43656250D02*
X130175000Y-43656250D01*
X130175000Y-43656250D02*
X130175000Y-45434250D01*
X130175000Y-54578250D02*
X130175000Y-56356250D01*
X130175000Y-56356250D02*
X128397000Y-56356250D01*
X119253000Y-56356250D02*
X117475000Y-56356250D01*
X117475000Y-56356250D02*
X117475000Y-54578250D01*
X117475000Y-45434250D02*
X117475000Y-43656250D01*
X122237500Y-62706250D02*
X124015500Y-62706250D01*
X133159500Y-62706250D02*
X134937500Y-62706250D01*
X134937500Y-62706250D02*
X134937500Y-64484250D01*
X134937500Y-73628250D02*
X134937500Y-75406250D01*
X134937500Y-75406250D02*
X133159500Y-75406250D01*
X124015500Y-75406250D02*
X122237500Y-75406250D01*
X122237500Y-75406250D02*
X122237500Y-73628250D01*
X122237500Y-64484250D02*
X122237500Y-62706250D01*
X112712500Y-81756250D02*
X114490500Y-81756250D01*
X123634500Y-81756250D02*
X125412500Y-81756250D01*
X125412500Y-81756250D02*
X125412500Y-83534250D01*
X125412500Y-92678250D02*
X125412500Y-94456250D01*
X125412500Y-94456250D02*
X123634500Y-94456250D01*
X114490500Y-94456250D02*
X112712500Y-94456250D01*
X112712500Y-94456250D02*
X112712500Y-92678250D01*
X112712500Y-83534250D02*
X112712500Y-81756250D01*
X127000000Y-24606250D02*
X128778000Y-24606250D01*
X137922000Y-24606250D02*
X139700000Y-24606250D01*
X139700000Y-24606250D02*
X139700000Y-26384250D01*
X139700000Y-35528250D02*
X139700000Y-37306250D01*
X139700000Y-37306250D02*
X137922000Y-37306250D01*
X128778000Y-37306250D02*
X127000000Y-37306250D01*
X127000000Y-37306250D02*
X127000000Y-35528250D01*
X127000000Y-26384250D02*
X127000000Y-24606250D01*
X136525000Y-43656250D02*
X138303000Y-43656250D01*
X147447000Y-43656250D02*
X149225000Y-43656250D01*
X149225000Y-43656250D02*
X149225000Y-45434250D01*
X149225000Y-54578250D02*
X149225000Y-56356250D01*
X149225000Y-56356250D02*
X147447000Y-56356250D01*
X138303000Y-56356250D02*
X136525000Y-56356250D01*
X136525000Y-56356250D02*
X136525000Y-54578250D01*
X136525000Y-45434250D02*
X136525000Y-43656250D01*
X141287500Y-62706250D02*
X143065500Y-62706250D01*
X152209500Y-62706250D02*
X153987500Y-62706250D01*
X153987500Y-62706250D02*
X153987500Y-64484250D01*
X153987500Y-73628250D02*
X153987500Y-75406250D01*
X153987500Y-75406250D02*
X152209500Y-75406250D01*
X143065500Y-75406250D02*
X141287500Y-75406250D01*
X141287500Y-75406250D02*
X141287500Y-73628250D01*
X141287500Y-64484250D02*
X141287500Y-62706250D01*
X131762500Y-81756250D02*
X133540500Y-81756250D01*
X142684500Y-81756250D02*
X144462500Y-81756250D01*
X144462500Y-81756250D02*
X144462500Y-83534250D01*
X144462500Y-92678250D02*
X144462500Y-94456250D01*
X144462500Y-94456250D02*
X142684500Y-94456250D01*
X133540500Y-94456250D02*
X131762500Y-94456250D01*
X131762500Y-94456250D02*
X131762500Y-92678250D01*
X131762500Y-83534250D02*
X131762500Y-81756250D01*
X146050000Y-24606250D02*
X147828000Y-24606250D01*
X156972000Y-24606250D02*
X158750000Y-24606250D01*
X158750000Y-24606250D02*
X158750000Y-26384250D01*
X158750000Y-35528250D02*
X158750000Y-37306250D01*
X158750000Y-37306250D02*
X156972000Y-37306250D01*
X147828000Y-37306250D02*
X146050000Y-37306250D01*
X146050000Y-37306250D02*
X146050000Y-35528250D01*
X146050000Y-26384250D02*
X146050000Y-24606250D01*
X155575000Y-43656250D02*
X157353000Y-43656250D01*
X166497000Y-43656250D02*
X168275000Y-43656250D01*
X168275000Y-43656250D02*
X168275000Y-45434250D01*
X168275000Y-54578250D02*
X168275000Y-56356250D01*
X168275000Y-56356250D02*
X166497000Y-56356250D01*
X157353000Y-56356250D02*
X155575000Y-56356250D01*
X155575000Y-56356250D02*
X155575000Y-54578250D01*
X155575000Y-45434250D02*
X155575000Y-43656250D01*
X160337500Y-62706250D02*
X162115500Y-62706250D01*
X171259500Y-62706250D02*
X173037500Y-62706250D01*
X173037500Y-62706250D02*
X173037500Y-64484250D01*
X173037500Y-73628250D02*
X173037500Y-75406250D01*
X173037500Y-75406250D02*
X171259500Y-75406250D01*
X162115500Y-75406250D02*
X160337500Y-75406250D01*
X160337500Y-75406250D02*
X160337500Y-73628250D01*
X160337500Y-64484250D02*
X160337500Y-62706250D01*
X150812500Y-81756250D02*
X152590500Y-81756250D01*
X161734500Y-81756250D02*
X163512500Y-81756250D01*
X163512500Y-81756250D02*
X163512500Y-83534250D01*
X163512500Y-92678250D02*
X163512500Y-94456250D01*
X163512500Y-94456250D02*
X161734500Y-94456250D01*
X152590500Y-94456250D02*
X150812500Y-94456250D01*
X150812500Y-94456250D02*
X150812500Y-92678250D01*
X150812500Y-83534250D02*
X150812500Y-81756250D01*
X165100000Y-24606250D02*
X166878000Y-24606250D01*
X176022000Y-24606250D02*
X177800000Y-24606250D01*
X177800000Y-24606250D02*
X177800000Y-26384250D01*
X177800000Y-35528250D02*
X177800000Y-37306250D01*
X177800000Y-37306250D02*
X176022000Y-37306250D01*
X166878000Y-37306250D02*
X165100000Y-37306250D01*
X165100000Y-37306250D02*
X165100000Y-35528250D01*
X165100000Y-26384250D02*
X165100000Y-24606250D01*
X174625000Y-43656250D02*
X176403000Y-43656250D01*
X185547000Y-43656250D02*
X187325000Y-43656250D01*
X187325000Y-43656250D02*
X187325000Y-45434250D01*
X187325000Y-54578250D02*
X187325000Y-56356250D01*
X187325000Y-56356250D02*
X185547000Y-56356250D01*
X176403000Y-56356250D02*
X174625000Y-56356250D01*
X174625000Y-56356250D02*
X174625000Y-54578250D01*
X174625000Y-45434250D02*
X174625000Y-43656250D01*
X179387500Y-62706250D02*
X181165500Y-62706250D01*
X190309500Y-62706250D02*
X192087500Y-62706250D01*
X192087500Y-62706250D02*
X192087500Y-64484250D01*
X192087500Y-73628250D02*
X192087500Y-75406250D01*
X192087500Y-75406250D02*
X190309500Y-75406250D01*
X181165500Y-75406250D02*
X179387500Y-75406250D01*
X179387500Y-75406250D02*
X179387500Y-73628250D01*
X179387500Y-64484250D02*
X179387500Y-62706250D01*
X169862500Y-81756250D02*
X171640500Y-81756250D01*
X180784500Y-81756250D02*
X182562500Y-81756250D01*
X182562500Y-81756250D02*
X182562500Y-83534250D01*
X182562500Y-92678250D02*
X182562500Y-94456250D01*
X182562500Y-94456250D02*
X180784500Y-94456250D01*
X171640500Y-94456250D02*
X169862500Y-94456250D01*
X169862500Y-94456250D02*
X169862500Y-92678250D01*
X169862500Y-83534250D02*
X169862500Y-81756250D01*
X184150000Y-24606250D02*
X185928000Y-24606250D01*
X195072000Y-24606250D02*
X196850000Y-24606250D01*
X196850000Y-24606250D02*
X196850000Y-26384250D01*
X196850000Y-35528250D02*
X196850000Y-37306250D01*
X196850000Y-37306250D02*
X195072000Y-37306250D01*
X185928000Y-37306250D02*
X184150000Y-37306250D01*
X184150000Y-37306250D02*
X184150000Y-35528250D01*
X184150000Y-26384250D02*
X184150000Y-24606250D01*
X193675000Y-43656250D02*
X195453000Y-43656250D01*
X204597000Y-43656250D02*
X206375000Y-43656250D01*
X206375000Y-43656250D02*
X206375000Y-45434250D01*
X206375000Y-54578250D02*
X206375000Y-56356250D01*
X206375000Y-56356250D02*
X204597000Y-56356250D01*
X195453000Y-56356250D02*
X193675000Y-56356250D01*
X193675000Y-56356250D02*
X193675000Y-54578250D01*
X193675000Y-45434250D02*
X193675000Y-43656250D01*
X198437500Y-62706250D02*
X200215500Y-62706250D01*
X209359500Y-62706250D02*
X211137500Y-62706250D01*
X211137500Y-62706250D02*
X211137500Y-64484250D01*
X211137500Y-73628250D02*
X211137500Y-75406250D01*
X211137500Y-75406250D02*
X209359500Y-75406250D01*
X200215500Y-75406250D02*
X198437500Y-75406250D01*
X198437500Y-75406250D02*
X198437500Y-73628250D01*
X198437500Y-64484250D02*
X198437500Y-62706250D01*
X188912500Y-81756250D02*
X190690500Y-81756250D01*
X199834500Y-81756250D02*
X201612500Y-81756250D01*
X201612500Y-81756250D02*
X201612500Y-83534250D01*
X201612500Y-92678250D02*
X201612500Y-94456250D01*
X201612500Y-94456250D02*
X199834500Y-94456250D01*
X190690500Y-94456250D02*
X188912500Y-94456250D01*
X188912500Y-94456250D02*
X188912500Y-92678250D01*
X188912500Y-83534250D02*
X188912500Y-81756250D01*
X203200000Y-24606250D02*
X204978000Y-24606250D01*
X214122000Y-24606250D02*
X215900000Y-24606250D01*
X215900000Y-24606250D02*
X215900000Y-26384250D01*
X215900000Y-35528250D02*
X215900000Y-37306250D01*
X215900000Y-37306250D02*
X214122000Y-37306250D01*
X204978000Y-37306250D02*
X203200000Y-37306250D01*
X203200000Y-37306250D02*
X203200000Y-35528250D01*
X203200000Y-26384250D02*
X203200000Y-24606250D01*
X212725000Y-43656250D02*
X214503000Y-43656250D01*
X223647000Y-43656250D02*
X225425000Y-43656250D01*
X225425000Y-43656250D02*
X225425000Y-45434250D01*
X225425000Y-54578250D02*
X225425000Y-56356250D01*
X225425000Y-56356250D02*
X223647000Y-56356250D01*
X214503000Y-56356250D02*
X212725000Y-56356250D01*
X212725000Y-56356250D02*
X212725000Y-54578250D01*
X212725000Y-45434250D02*
X212725000Y-43656250D01*
X217487500Y-62706250D02*
X219265500Y-62706250D01*
X228409500Y-62706250D02*
X230187500Y-62706250D01*
X230187500Y-62706250D02*
X230187500Y-64484250D01*
X230187500Y-73628250D02*
X230187500Y-75406250D01*
X230187500Y-75406250D02*
X228409500Y-75406250D01*
X219265500Y-75406250D02*
X217487500Y-75406250D01*
X217487500Y-75406250D02*
X217487500Y-73628250D01*
X217487500Y-64484250D02*
X217487500Y-62706250D01*
X207962500Y-81756250D02*
X209740500Y-81756250D01*
X218884500Y-81756250D02*
X220662500Y-81756250D01*
X220662500Y-81756250D02*
X220662500Y-83534250D01*
X220662500Y-92678250D02*
X220662500Y-94456250D01*
X220662500Y-94456250D02*
X218884500Y-94456250D01*
X209740500Y-94456250D02*
X207962500Y-94456250D01*
X207962500Y-94456250D02*
X207962500Y-92678250D01*
X207962500Y-83534250D02*
X207962500Y-81756250D01*
X298450000Y-24606250D02*
X300228000Y-24606250D01*
X309372000Y-24606250D02*
X311150000Y-24606250D01*
X311150000Y-24606250D02*
X311150000Y-26384250D01*
X311150000Y-35528250D02*
X311150000Y-37306250D01*
X311150000Y-37306250D02*
X309372000Y-37306250D01*
X300228000Y-37306250D02*
X298450000Y-37306250D01*
X298450000Y-37306250D02*
X298450000Y-35528250D01*
X298450000Y-26384250D02*
X298450000Y-24606250D01*
X222250000Y-24606250D02*
X224028000Y-24606250D01*
X233172000Y-24606250D02*
X234950000Y-24606250D01*
X234950000Y-24606250D02*
X234950000Y-26384250D01*
X234950000Y-35528250D02*
X234950000Y-37306250D01*
X234950000Y-37306250D02*
X233172000Y-37306250D01*
X224028000Y-37306250D02*
X222250000Y-37306250D01*
X222250000Y-37306250D02*
X222250000Y-35528250D01*
X222250000Y-26384250D02*
X222250000Y-24606250D01*
X231775000Y-43656250D02*
X233553000Y-43656250D01*
X242697000Y-43656250D02*
X244475000Y-43656250D01*
X244475000Y-43656250D02*
X244475000Y-45434250D01*
X244475000Y-54578250D02*
X244475000Y-56356250D01*
X244475000Y-56356250D02*
X242697000Y-56356250D01*
X233553000Y-56356250D02*
X231775000Y-56356250D01*
X231775000Y-56356250D02*
X231775000Y-54578250D01*
X231775000Y-45434250D02*
X231775000Y-43656250D01*
X236537500Y-62706250D02*
X238315500Y-62706250D01*
X247459500Y-62706250D02*
X249237500Y-62706250D01*
X249237500Y-62706250D02*
X249237500Y-64484250D01*
X249237500Y-73628250D02*
X249237500Y-75406250D01*
X249237500Y-75406250D02*
X247459500Y-75406250D01*
X238315500Y-75406250D02*
X236537500Y-75406250D01*
X236537500Y-75406250D02*
X236537500Y-73628250D01*
X236537500Y-64484250D02*
X236537500Y-62706250D01*
X227012500Y-81756250D02*
X228790500Y-81756250D01*
X237934500Y-81756250D02*
X239712500Y-81756250D01*
X239712500Y-81756250D02*
X239712500Y-83534250D01*
X239712500Y-92678250D02*
X239712500Y-94456250D01*
X239712500Y-94456250D02*
X237934500Y-94456250D01*
X228790500Y-94456250D02*
X227012500Y-94456250D01*
X227012500Y-94456250D02*
X227012500Y-92678250D01*
X227012500Y-83534250D02*
X227012500Y-81756250D01*
X224631250Y-100806250D02*
X226409250Y-100806250D01*
X235553250Y-100806250D02*
X237331250Y-100806250D01*
X237331250Y-100806250D02*
X237331250Y-102584250D01*
X237331250Y-111728250D02*
X237331250Y-113506250D01*
X237331250Y-113506250D02*
X235553250Y-113506250D01*
X226409250Y-113506250D02*
X224631250Y-113506250D01*
X224631250Y-113506250D02*
X224631250Y-111728250D01*
X224631250Y-102584250D02*
X224631250Y-100806250D01*
X227012500Y-100806250D02*
X228790500Y-100806250D01*
X237934500Y-100806250D02*
X239712500Y-100806250D01*
X239712500Y-100806250D02*
X239712500Y-102584250D01*
X239712500Y-111728250D02*
X239712500Y-113506250D01*
X239712500Y-113506250D02*
X237934500Y-113506250D01*
X228790500Y-113506250D02*
X227012500Y-113506250D01*
X227012500Y-113506250D02*
X227012500Y-111728250D01*
X227012500Y-102584250D02*
X227012500Y-100806250D01*
X241300000Y-24606250D02*
X243078000Y-24606250D01*
X252222000Y-24606250D02*
X254000000Y-24606250D01*
X254000000Y-24606250D02*
X254000000Y-26384250D01*
X254000000Y-35528250D02*
X254000000Y-37306250D01*
X254000000Y-37306250D02*
X252222000Y-37306250D01*
X243078000Y-37306250D02*
X241300000Y-37306250D01*
X241300000Y-37306250D02*
X241300000Y-35528250D01*
X241300000Y-26384250D02*
X241300000Y-24606250D01*
X250825000Y-43656250D02*
X252603000Y-43656250D01*
X261747000Y-43656250D02*
X263525000Y-43656250D01*
X263525000Y-43656250D02*
X263525000Y-45434250D01*
X263525000Y-54578250D02*
X263525000Y-56356250D01*
X263525000Y-56356250D02*
X261747000Y-56356250D01*
X252603000Y-56356250D02*
X250825000Y-56356250D01*
X250825000Y-56356250D02*
X250825000Y-54578250D01*
X250825000Y-45434250D02*
X250825000Y-43656250D01*
X255587500Y-62706250D02*
X257365500Y-62706250D01*
X266509500Y-62706250D02*
X268287500Y-62706250D01*
X268287500Y-62706250D02*
X268287500Y-64484250D01*
X268287500Y-73628250D02*
X268287500Y-75406250D01*
X268287500Y-75406250D02*
X266509500Y-75406250D01*
X257365500Y-75406250D02*
X255587500Y-75406250D01*
X255587500Y-75406250D02*
X255587500Y-73628250D01*
X255587500Y-64484250D02*
X255587500Y-62706250D01*
X246062500Y-81756250D02*
X247840500Y-81756250D01*
X256984500Y-81756250D02*
X258762500Y-81756250D01*
X258762500Y-81756250D02*
X258762500Y-83534250D01*
X258762500Y-92678250D02*
X258762500Y-94456250D01*
X258762500Y-94456250D02*
X256984500Y-94456250D01*
X247840500Y-94456250D02*
X246062500Y-94456250D01*
X246062500Y-94456250D02*
X246062500Y-92678250D01*
X246062500Y-83534250D02*
X246062500Y-81756250D01*
X250817500Y-100807500D02*
X252595500Y-100807500D01*
X261739500Y-100807500D02*
X263517500Y-100807500D01*
X263517500Y-100807500D02*
X263517500Y-102585500D01*
X263517500Y-111729500D02*
X263517500Y-113507500D01*
X263517500Y-113507500D02*
X261739500Y-113507500D01*
X252595500Y-113507500D02*
X250817500Y-113507500D01*
X250817500Y-113507500D02*
X250817500Y-111729500D01*
X250817500Y-102585500D02*
X250817500Y-100807500D01*
X248443750Y-100806250D02*
X250221750Y-100806250D01*
X259365750Y-100806250D02*
X261143750Y-100806250D01*
X261143750Y-100806250D02*
X261143750Y-102584250D01*
X261143750Y-111728250D02*
X261143750Y-113506250D01*
X261143750Y-113506250D02*
X259365750Y-113506250D01*
X250221750Y-113506250D02*
X248443750Y-113506250D01*
X248443750Y-113506250D02*
X248443750Y-111728250D01*
X248443750Y-102584250D02*
X248443750Y-100806250D01*
X246062500Y-100806250D02*
X247840500Y-100806250D01*
X256984500Y-100806250D02*
X258762500Y-100806250D01*
X258762500Y-100806250D02*
X258762500Y-102584250D01*
X258762500Y-111728250D02*
X258762500Y-113506250D01*
X258762500Y-113506250D02*
X256984500Y-113506250D01*
X247840500Y-113506250D02*
X246062500Y-113506250D01*
X246062500Y-113506250D02*
X246062500Y-111728250D01*
X246062500Y-102584250D02*
X246062500Y-100806250D01*
X260350000Y-24606250D02*
X262128000Y-24606250D01*
X271272000Y-24606250D02*
X273050000Y-24606250D01*
X273050000Y-24606250D02*
X273050000Y-26384250D01*
X273050000Y-35528250D02*
X273050000Y-37306250D01*
X273050000Y-37306250D02*
X271272000Y-37306250D01*
X262128000Y-37306250D02*
X260350000Y-37306250D01*
X260350000Y-37306250D02*
X260350000Y-35528250D01*
X260350000Y-26384250D02*
X260350000Y-24606250D01*
X269875000Y-43656250D02*
X271653000Y-43656250D01*
X280797000Y-43656250D02*
X282575000Y-43656250D01*
X282575000Y-43656250D02*
X282575000Y-45434250D01*
X282575000Y-54578250D02*
X282575000Y-56356250D01*
X282575000Y-56356250D02*
X280797000Y-56356250D01*
X271653000Y-56356250D02*
X269875000Y-56356250D01*
X269875000Y-56356250D02*
X269875000Y-54578250D01*
X269875000Y-45434250D02*
X269875000Y-43656250D01*
X274637500Y-62706250D02*
X276415500Y-62706250D01*
X285559500Y-62706250D02*
X287337500Y-62706250D01*
X287337500Y-62706250D02*
X287337500Y-64484250D01*
X287337500Y-73628250D02*
X287337500Y-75406250D01*
X287337500Y-75406250D02*
X285559500Y-75406250D01*
X276415500Y-75406250D02*
X274637500Y-75406250D01*
X274637500Y-75406250D02*
X274637500Y-73628250D01*
X274637500Y-64484250D02*
X274637500Y-62706250D01*
X269875000Y-100806250D02*
X271653000Y-100806250D01*
X280797000Y-100806250D02*
X282575000Y-100806250D01*
X282575000Y-100806250D02*
X282575000Y-102584250D01*
X282575000Y-111728250D02*
X282575000Y-113506250D01*
X282575000Y-113506250D02*
X280797000Y-113506250D01*
X271653000Y-113506250D02*
X269875000Y-113506250D01*
X269875000Y-113506250D02*
X269875000Y-111728250D01*
X269875000Y-102584250D02*
X269875000Y-100806250D01*
X272256250Y-100806250D02*
X274034250Y-100806250D01*
X283178250Y-100806250D02*
X284956250Y-100806250D01*
X284956250Y-100806250D02*
X284956250Y-102584250D01*
X284956250Y-111728250D02*
X284956250Y-113506250D01*
X284956250Y-113506250D02*
X283178250Y-113506250D01*
X274034250Y-113506250D02*
X272256250Y-113506250D01*
X272256250Y-113506250D02*
X272256250Y-111728250D01*
X272256250Y-102584250D02*
X272256250Y-100806250D01*
X279400000Y-24606250D02*
X281178000Y-24606250D01*
X290322000Y-24606250D02*
X292100000Y-24606250D01*
X292100000Y-24606250D02*
X292100000Y-26384250D01*
X292100000Y-35528250D02*
X292100000Y-37306250D01*
X292100000Y-37306250D02*
X290322000Y-37306250D01*
X281178000Y-37306250D02*
X279400000Y-37306250D01*
X279400000Y-37306250D02*
X279400000Y-35528250D01*
X279400000Y-26384250D02*
X279400000Y-24606250D01*
X293687500Y-43656250D02*
X295465500Y-43656250D01*
X304609500Y-43656250D02*
X306387500Y-43656250D01*
X306387500Y-43656250D02*
X306387500Y-45434250D01*
X306387500Y-54578250D02*
X306387500Y-56356250D01*
X306387500Y-56356250D02*
X304609500Y-56356250D01*
X295465500Y-56356250D02*
X293687500Y-56356250D01*
X293687500Y-56356250D02*
X293687500Y-54578250D01*
X293687500Y-45434250D02*
X293687500Y-43656250D01*
X298450000Y-81756250D02*
X300228000Y-81756250D01*
X309372000Y-81756250D02*
X311150000Y-81756250D01*
X311150000Y-81756250D02*
X311150000Y-83534250D01*
X311150000Y-92678250D02*
X311150000Y-94456250D01*
X311150000Y-94456250D02*
X309372000Y-94456250D01*
X300228000Y-94456250D02*
X298450000Y-94456250D01*
X298450000Y-94456250D02*
X298450000Y-92678250D01*
X298450000Y-83534250D02*
X298450000Y-81756250D01*
X38893750Y-62706250D02*
X40671750Y-62706250D01*
X49815750Y-62706250D02*
X51593750Y-62706250D01*
X51593750Y-62706250D02*
X51593750Y-64484250D01*
X51593750Y-73628250D02*
X51593750Y-75406250D01*
X51593750Y-75406250D02*
X49815750Y-75406250D01*
X40671750Y-75406250D02*
X38893750Y-75406250D01*
X38893750Y-75406250D02*
X38893750Y-73628250D01*
X38893750Y-64484250D02*
X38893750Y-62706250D01*
X34131250Y-62706250D02*
X35909250Y-62706250D01*
X45053250Y-62706250D02*
X46831250Y-62706250D01*
X46831250Y-62706250D02*
X46831250Y-64484250D01*
X46831250Y-73628250D02*
X46831250Y-75406250D01*
X46831250Y-75406250D02*
X45053250Y-75406250D01*
X35909250Y-75406250D02*
X34131250Y-75406250D01*
X34131250Y-75406250D02*
X34131250Y-73628250D01*
X34131250Y-64484250D02*
X34131250Y-62706250D01*
X43656250Y-81756250D02*
X45434250Y-81756250D01*
X54578250Y-81756250D02*
X56356250Y-81756250D01*
X56356250Y-81756250D02*
X56356250Y-83534250D01*
X56356250Y-92678250D02*
X56356250Y-94456250D01*
X56356250Y-94456250D02*
X54578250Y-94456250D01*
X45434250Y-94456250D02*
X43656250Y-94456250D01*
X43656250Y-94456250D02*
X43656250Y-92678250D01*
X43656250Y-83534250D02*
X43656250Y-81756250D01*
X164775000Y-100807500D02*
X166553000Y-100807500D01*
X175697000Y-100807500D02*
X177475000Y-100807500D01*
X177475000Y-100807500D02*
X177475000Y-102585500D01*
X177475000Y-111729500D02*
X177475000Y-113507500D01*
X177475000Y-113507500D02*
X175697000Y-113507500D01*
X166553000Y-113507500D02*
X164775000Y-113507500D01*
X164775000Y-113507500D02*
X164775000Y-111729500D01*
X164775000Y-102585500D02*
X164775000Y-100807500D01*
X153193750Y-100806250D02*
X154971750Y-100806250D01*
X164115750Y-100806250D02*
X165893750Y-100806250D01*
X165893750Y-100806250D02*
X165893750Y-102584250D01*
X165893750Y-111728250D02*
X165893750Y-113506250D01*
X165893750Y-113506250D02*
X164115750Y-113506250D01*
X154971750Y-113506250D02*
X153193750Y-113506250D01*
X153193750Y-113506250D02*
X153193750Y-111728250D01*
X153193750Y-102584250D02*
X153193750Y-100806250D01*
X146050000Y-100806250D02*
X147828000Y-100806250D01*
X156972000Y-100806250D02*
X158750000Y-100806250D01*
X158750000Y-100806250D02*
X158750000Y-102584250D01*
X158750000Y-111728250D02*
X158750000Y-113506250D01*
X158750000Y-113506250D02*
X156972000Y-113506250D01*
X147828000Y-113506250D02*
X146050000Y-113506250D01*
X146050000Y-113506250D02*
X146050000Y-111728250D01*
X146050000Y-102584250D02*
X146050000Y-100806250D01*
X281781250Y-81756250D02*
X283559250Y-81756250D01*
X292703250Y-81756250D02*
X294481250Y-81756250D01*
X294481250Y-81756250D02*
X294481250Y-83534250D01*
X294481250Y-92678250D02*
X294481250Y-94456250D01*
X294481250Y-94456250D02*
X292703250Y-94456250D01*
X283559250Y-94456250D02*
X281781250Y-94456250D01*
X281781250Y-94456250D02*
X281781250Y-92678250D01*
X281781250Y-83534250D02*
X281781250Y-81756250D01*
X288925000Y-24606250D02*
X290703000Y-24606250D01*
X299847000Y-24606250D02*
X301625000Y-24606250D01*
X301625000Y-24606250D02*
X301625000Y-26384250D01*
X301625000Y-35528250D02*
X301625000Y-37306250D01*
X301625000Y-37306250D02*
X299847000Y-37306250D01*
X290703000Y-37306250D02*
X288925000Y-37306250D01*
X288925000Y-37306250D02*
X288925000Y-35528250D01*
X288925000Y-26384250D02*
X288925000Y-24606250D01*
X286543750Y-62706250D02*
X288321750Y-62706250D01*
X297465750Y-62706250D02*
X299243750Y-62706250D01*
X299243750Y-62706250D02*
X299243750Y-64484250D01*
X299243750Y-73628250D02*
X299243750Y-75406250D01*
X299243750Y-75406250D02*
X297465750Y-75406250D01*
X288321750Y-75406250D02*
X286543750Y-75406250D01*
X286543750Y-75406250D02*
X286543750Y-73628250D01*
X286543750Y-64484250D02*
X286543750Y-62706250D01*
X308768750Y-53181250D02*
X308768750Y-54959250D01*
X308768750Y-64103250D02*
X308768750Y-65881250D01*
X308768750Y-65881250D02*
X306990750Y-65881250D01*
X297846750Y-65881250D02*
X296068750Y-65881250D01*
X296068750Y-65881250D02*
X296068750Y-64103250D01*
X296068750Y-54959250D02*
X296068750Y-53181250D01*
X296068750Y-53181250D02*
X297846750Y-53181250D01*
X306990750Y-53181250D02*
X308768750Y-53181250D01*
X272256250Y-81756250D02*
X274034250Y-81756250D01*
X283178250Y-81756250D02*
X284956250Y-81756250D01*
X284956250Y-81756250D02*
X284956250Y-83534250D01*
X284956250Y-92678250D02*
X284956250Y-94456250D01*
X284956250Y-94456250D02*
X283178250Y-94456250D01*
X274034250Y-94456250D02*
X272256250Y-94456250D01*
X272256250Y-94456250D02*
X272256250Y-92678250D01*
X272256250Y-83534250D02*
X272256250Y-81756250D01*
X296068750Y-62707500D02*
X297846750Y-62707500D01*
X306990750Y-62707500D02*
X308768750Y-62707500D01*
X308768750Y-62707500D02*
X308768750Y-64485500D01*
X308768750Y-73629500D02*
X308768750Y-75407500D01*
X308768750Y-75407500D02*
X306990750Y-75407500D01*
X297846750Y-75407500D02*
X296068750Y-75407500D01*
X296068750Y-75407500D02*
X296068750Y-73629500D01*
X296068750Y-64485500D02*
X296068750Y-62707500D01*
X291306250Y-81757500D02*
X293084250Y-81757500D01*
X302228250Y-81757500D02*
X304006250Y-81757500D01*
X304006250Y-81757500D02*
X304006250Y-83535500D01*
X304006250Y-92679500D02*
X304006250Y-94457500D01*
X304006250Y-94457500D02*
X302228250Y-94457500D01*
X293084250Y-94457500D02*
X291306250Y-94457500D01*
X291306250Y-94457500D02*
X291306250Y-92679500D01*
X291306250Y-83535500D02*
X291306250Y-81757500D01*
X265112500Y-81757500D02*
X266890500Y-81757500D01*
X276034500Y-81757500D02*
X277812500Y-81757500D01*
X277812500Y-81757500D02*
X277812500Y-83535500D01*
X277812500Y-92679500D02*
X277812500Y-94457500D01*
X277812500Y-94457500D02*
X276034500Y-94457500D01*
X266890500Y-94457500D02*
X265112500Y-94457500D01*
X265112500Y-94457500D02*
X265112500Y-92679500D01*
X265112500Y-83535500D02*
X265112500Y-81757500D01*
D13*
G36*
X185010051Y-104156549D02*
X185184743Y-104160308D01*
X185301736Y-104166814D01*
X185336013Y-104171637D01*
X185409934Y-104211251D01*
X185524169Y-104296825D01*
X185659970Y-104413658D01*
X185738179Y-104486996D01*
X185976858Y-104696829D01*
X186240717Y-104893343D01*
X186507162Y-105061627D01*
X186753599Y-105186766D01*
X186860905Y-105228049D01*
X187117393Y-105352370D01*
X187320711Y-105529322D01*
X187466869Y-105745632D01*
X187551881Y-105988027D01*
X187571759Y-106243231D01*
X187522515Y-106497971D01*
X187400161Y-106738975D01*
X187338672Y-106818390D01*
X187128275Y-107002808D01*
X186880489Y-107117628D01*
X186609794Y-107160173D01*
X186330666Y-107127766D01*
X186109987Y-107045563D01*
X185970312Y-106965202D01*
X185858954Y-106870461D01*
X185762796Y-106744340D01*
X185668725Y-106569844D01*
X185570324Y-106346143D01*
X185470292Y-106118241D01*
X185418637Y-106016122D01*
X185891894Y-106016122D01*
X185893767Y-106137805D01*
X185900452Y-106236378D01*
X185914344Y-106394607D01*
X185936587Y-106496759D01*
X185980048Y-106571302D01*
X186057596Y-106646705D01*
X186103468Y-106685514D01*
X186307827Y-106827546D01*
X186498804Y-106893081D01*
X186693054Y-106884781D01*
X186893904Y-106811846D01*
X187089884Y-106677076D01*
X187219818Y-106504104D01*
X187284147Y-106307148D01*
X187283312Y-106100426D01*
X187217755Y-105898156D01*
X187087917Y-105714555D01*
X186894239Y-105563841D01*
X186854489Y-105542253D01*
X186642916Y-105473557D01*
X186436670Y-105488123D01*
X186233992Y-105586423D01*
X186039712Y-105761593D01*
X185956226Y-105857472D01*
X185909834Y-105932496D01*
X185891894Y-106016122D01*
X185418637Y-106016122D01*
X185366238Y-105912535D01*
X185249297Y-105716887D01*
X185110607Y-105519157D01*
X184941304Y-105307207D01*
X184732524Y-105068898D01*
X184475406Y-104792093D01*
X184306326Y-104615040D01*
X183878886Y-104170540D01*
X184556220Y-104158438D01*
X184794823Y-104155829D01*
X185010051Y-104156549D01*
X185010051Y-104156549D01*
G37*
X185010051Y-104156549D02*
X185184743Y-104160308D01*
X185301736Y-104166814D01*
X185336013Y-104171637D01*
X185409934Y-104211251D01*
X185524169Y-104296825D01*
X185659970Y-104413658D01*
X185738179Y-104486996D01*
X185976858Y-104696829D01*
X186240717Y-104893343D01*
X186507162Y-105061627D01*
X186753599Y-105186766D01*
X186860905Y-105228049D01*
X187117393Y-105352370D01*
X187320711Y-105529322D01*
X187466869Y-105745632D01*
X187551881Y-105988027D01*
X187571759Y-106243231D01*
X187522515Y-106497971D01*
X187400161Y-106738975D01*
X187338672Y-106818390D01*
X187128275Y-107002808D01*
X186880489Y-107117628D01*
X186609794Y-107160173D01*
X186330666Y-107127766D01*
X186109987Y-107045563D01*
X185970312Y-106965202D01*
X185858954Y-106870461D01*
X185762796Y-106744340D01*
X185668725Y-106569844D01*
X185570324Y-106346143D01*
X185470292Y-106118241D01*
X185418637Y-106016122D01*
X185891894Y-106016122D01*
X185893767Y-106137805D01*
X185900452Y-106236378D01*
X185914344Y-106394607D01*
X185936587Y-106496759D01*
X185980048Y-106571302D01*
X186057596Y-106646705D01*
X186103468Y-106685514D01*
X186307827Y-106827546D01*
X186498804Y-106893081D01*
X186693054Y-106884781D01*
X186893904Y-106811846D01*
X187089884Y-106677076D01*
X187219818Y-106504104D01*
X187284147Y-106307148D01*
X187283312Y-106100426D01*
X187217755Y-105898156D01*
X187087917Y-105714555D01*
X186894239Y-105563841D01*
X186854489Y-105542253D01*
X186642916Y-105473557D01*
X186436670Y-105488123D01*
X186233992Y-105586423D01*
X186039712Y-105761593D01*
X185956226Y-105857472D01*
X185909834Y-105932496D01*
X185891894Y-106016122D01*
X185418637Y-106016122D01*
X185366238Y-105912535D01*
X185249297Y-105716887D01*
X185110607Y-105519157D01*
X184941304Y-105307207D01*
X184732524Y-105068898D01*
X184475406Y-104792093D01*
X184306326Y-104615040D01*
X183878886Y-104170540D01*
X184556220Y-104158438D01*
X184794823Y-104155829D01*
X185010051Y-104156549D01*
G36*
X181371421Y-104032990D02*
X181393790Y-104042496D01*
X181382631Y-104083428D01*
X181342396Y-104183723D01*
X181280205Y-104326204D01*
X181234950Y-104425586D01*
X181082708Y-104784156D01*
X180959142Y-105134375D01*
X180871284Y-105454463D01*
X180831245Y-105675722D01*
X180823782Y-105946315D01*
X180879987Y-106173828D01*
X181006439Y-106377705D01*
X181104314Y-106482947D01*
X181358494Y-106672408D01*
X181654633Y-106797398D01*
X181977699Y-106856063D01*
X182312659Y-106846546D01*
X182644484Y-106766993D01*
X182816858Y-106694365D01*
X183133629Y-106496258D01*
X183442148Y-106220613D01*
X183736180Y-105874536D01*
X184009488Y-105465129D01*
X184195994Y-105123040D01*
X184274434Y-104966526D01*
X184325321Y-104874042D01*
X184360046Y-104834438D01*
X184389998Y-104836563D01*
X184426568Y-104869269D01*
X184440676Y-104883520D01*
X184472039Y-104921857D01*
X184481497Y-104966389D01*
X184464680Y-105033978D01*
X184417219Y-105141484D01*
X184334747Y-105305770D01*
X184327724Y-105319491D01*
X184043135Y-105808401D01*
X183728576Y-106223259D01*
X183386070Y-106561854D01*
X183017640Y-106821978D01*
X182889777Y-106890687D01*
X182725470Y-106967995D01*
X182591108Y-107015857D01*
X182452867Y-107042442D01*
X182276922Y-107055917D01*
X182191277Y-107059365D01*
X181975900Y-107062129D01*
X181809858Y-107049738D01*
X181658506Y-107017801D01*
X181523299Y-106974733D01*
X181207532Y-106837463D01*
X180966099Y-106669131D01*
X180792107Y-106462565D01*
X180678662Y-106210592D01*
X180640751Y-106056295D01*
X180622836Y-105786780D01*
X180658114Y-105466223D01*
X180743643Y-105106965D01*
X180876479Y-104721347D01*
X181053679Y-104321707D01*
X181055159Y-104318706D01*
X181138645Y-104158057D01*
X181200802Y-104062903D01*
X181252001Y-104020231D01*
X181296553Y-104015814D01*
X181371421Y-104032990D01*
X181371421Y-104032990D01*
G37*
X181371421Y-104032990D02*
X181393790Y-104042496D01*
X181382631Y-104083428D01*
X181342396Y-104183723D01*
X181280205Y-104326204D01*
X181234950Y-104425586D01*
X181082708Y-104784156D01*
X180959142Y-105134375D01*
X180871284Y-105454463D01*
X180831245Y-105675722D01*
X180823782Y-105946315D01*
X180879987Y-106173828D01*
X181006439Y-106377705D01*
X181104314Y-106482947D01*
X181358494Y-106672408D01*
X181654633Y-106797398D01*
X181977699Y-106856063D01*
X182312659Y-106846546D01*
X182644484Y-106766993D01*
X182816858Y-106694365D01*
X183133629Y-106496258D01*
X183442148Y-106220613D01*
X183736180Y-105874536D01*
X184009488Y-105465129D01*
X184195994Y-105123040D01*
X184274434Y-104966526D01*
X184325321Y-104874042D01*
X184360046Y-104834438D01*
X184389998Y-104836563D01*
X184426568Y-104869269D01*
X184440676Y-104883520D01*
X184472039Y-104921857D01*
X184481497Y-104966389D01*
X184464680Y-105033978D01*
X184417219Y-105141484D01*
X184334747Y-105305770D01*
X184327724Y-105319491D01*
X184043135Y-105808401D01*
X183728576Y-106223259D01*
X183386070Y-106561854D01*
X183017640Y-106821978D01*
X182889777Y-106890687D01*
X182725470Y-106967995D01*
X182591108Y-107015857D01*
X182452867Y-107042442D01*
X182276922Y-107055917D01*
X182191277Y-107059365D01*
X181975900Y-107062129D01*
X181809858Y-107049738D01*
X181658506Y-107017801D01*
X181523299Y-106974733D01*
X181207532Y-106837463D01*
X180966099Y-106669131D01*
X180792107Y-106462565D01*
X180678662Y-106210592D01*
X180640751Y-106056295D01*
X180622836Y-105786780D01*
X180658114Y-105466223D01*
X180743643Y-105106965D01*
X180876479Y-104721347D01*
X181053679Y-104321707D01*
X181055159Y-104318706D01*
X181138645Y-104158057D01*
X181200802Y-104062903D01*
X181252001Y-104020231D01*
X181296553Y-104015814D01*
X181371421Y-104032990D01*
G36*
X179168961Y-99922802D02*
X179403146Y-99928572D01*
X179587175Y-99938855D01*
X179729672Y-99954444D01*
X179839263Y-99976132D01*
X179924572Y-100004709D01*
X179994225Y-100040969D01*
X180056846Y-100085703D01*
X180085104Y-100108871D01*
X180153746Y-100171008D01*
X180209267Y-100236282D01*
X180252946Y-100313899D01*
X180286062Y-100413068D01*
X180309895Y-100542996D01*
X180325725Y-100712890D01*
X180334830Y-100931957D01*
X180338489Y-101209405D01*
X180337983Y-101554442D01*
X180335221Y-101908998D01*
X180322886Y-103245573D01*
X180210247Y-103415690D01*
X180156269Y-103495059D01*
X180103660Y-103560615D01*
X180044112Y-103613747D01*
X179969317Y-103655845D01*
X179870967Y-103688300D01*
X179740753Y-103712501D01*
X179570367Y-103729840D01*
X179351502Y-103741707D01*
X179075847Y-103749491D01*
X178735096Y-103754583D01*
X178320940Y-103758373D01*
X178154581Y-103759669D01*
X176536609Y-103772132D01*
X176512989Y-103675002D01*
X176508253Y-103613055D01*
X176504375Y-103475714D01*
X176501412Y-103272245D01*
X176499422Y-103011918D01*
X176498461Y-102703999D01*
X176498588Y-102357758D01*
X176499859Y-101982461D01*
X176501127Y-101757540D01*
X176507543Y-100764319D01*
X177338386Y-100764319D01*
X177338386Y-101814790D01*
X177339507Y-102104919D01*
X177342659Y-102366665D01*
X177347525Y-102588230D01*
X177353789Y-102757815D01*
X177361135Y-102863621D01*
X177367331Y-102894207D01*
X177416000Y-102901766D01*
X177537462Y-102907676D01*
X177719858Y-102911743D01*
X177951327Y-102913769D01*
X178220008Y-102913560D01*
X178436248Y-102911845D01*
X179476220Y-102900540D01*
X179476220Y-100741540D01*
X178502553Y-100729596D01*
X178218695Y-100727151D01*
X177959006Y-100726874D01*
X177736894Y-100728620D01*
X177565762Y-100732247D01*
X177459017Y-100737613D01*
X177433636Y-100740986D01*
X177338386Y-100764319D01*
X176507543Y-100764319D01*
X176512886Y-99937206D01*
X178079220Y-99924656D01*
X178515623Y-99921636D01*
X178875995Y-99920755D01*
X179168961Y-99922802D01*
X179168961Y-99922802D01*
G37*
X179168961Y-99922802D02*
X179403146Y-99928572D01*
X179587175Y-99938855D01*
X179729672Y-99954444D01*
X179839263Y-99976132D01*
X179924572Y-100004709D01*
X179994225Y-100040969D01*
X180056846Y-100085703D01*
X180085104Y-100108871D01*
X180153746Y-100171008D01*
X180209267Y-100236282D01*
X180252946Y-100313899D01*
X180286062Y-100413068D01*
X180309895Y-100542996D01*
X180325725Y-100712890D01*
X180334830Y-100931957D01*
X180338489Y-101209405D01*
X180337983Y-101554442D01*
X180335221Y-101908998D01*
X180322886Y-103245573D01*
X180210247Y-103415690D01*
X180156269Y-103495059D01*
X180103660Y-103560615D01*
X180044112Y-103613747D01*
X179969317Y-103655845D01*
X179870967Y-103688300D01*
X179740753Y-103712501D01*
X179570367Y-103729840D01*
X179351502Y-103741707D01*
X179075847Y-103749491D01*
X178735096Y-103754583D01*
X178320940Y-103758373D01*
X178154581Y-103759669D01*
X176536609Y-103772132D01*
X176512989Y-103675002D01*
X176508253Y-103613055D01*
X176504375Y-103475714D01*
X176501412Y-103272245D01*
X176499422Y-103011918D01*
X176498461Y-102703999D01*
X176498588Y-102357758D01*
X176499859Y-101982461D01*
X176501127Y-101757540D01*
X176507543Y-100764319D01*
X177338386Y-100764319D01*
X177338386Y-101814790D01*
X177339507Y-102104919D01*
X177342659Y-102366665D01*
X177347525Y-102588230D01*
X177353789Y-102757815D01*
X177361135Y-102863621D01*
X177367331Y-102894207D01*
X177416000Y-102901766D01*
X177537462Y-102907676D01*
X177719858Y-102911743D01*
X177951327Y-102913769D01*
X178220008Y-102913560D01*
X178436248Y-102911845D01*
X179476220Y-102900540D01*
X179476220Y-100741540D01*
X178502553Y-100729596D01*
X178218695Y-100727151D01*
X177959006Y-100726874D01*
X177736894Y-100728620D01*
X177565762Y-100732247D01*
X177459017Y-100737613D01*
X177433636Y-100740986D01*
X177338386Y-100764319D01*
X176507543Y-100764319D01*
X176512886Y-99937206D01*
X178079220Y-99924656D01*
X178515623Y-99921636D01*
X178875995Y-99920755D01*
X179168961Y-99922802D01*
G36*
X183685413Y-100762706D02*
X183875428Y-100915313D01*
X183971781Y-101056283D01*
X184000043Y-101111896D01*
X184022233Y-101165944D01*
X184038982Y-101228786D01*
X184050921Y-101310781D01*
X184058680Y-101422286D01*
X184062889Y-101573659D01*
X184064181Y-101775260D01*
X184063185Y-102037446D01*
X184060532Y-102370577D01*
X184059421Y-102495616D01*
X184048220Y-103747206D01*
X182820553Y-103756260D01*
X182437040Y-103758139D01*
X182129292Y-103757308D01*
X181888441Y-103753455D01*
X181705620Y-103746269D01*
X181571960Y-103735437D01*
X181478595Y-103720647D01*
X181431334Y-103707368D01*
X181239728Y-103611906D01*
X181098683Y-103471724D01*
X181016881Y-103336143D01*
X180986365Y-103265888D01*
X180964575Y-103183672D01*
X180950114Y-103074553D01*
X180941585Y-102923592D01*
X180938136Y-102744098D01*
X181742528Y-102744098D01*
X181750909Y-102846840D01*
X181770240Y-102894449D01*
X181820228Y-102903405D01*
X181940392Y-102909889D01*
X182116269Y-102913561D01*
X182333394Y-102914081D01*
X182521657Y-102912088D01*
X183243886Y-102900540D01*
X183243886Y-102519540D01*
X182527371Y-102507899D01*
X182246873Y-102504971D01*
X182041313Y-102506984D01*
X181901078Y-102514481D01*
X181816552Y-102528003D01*
X181778123Y-102548092D01*
X181776603Y-102550232D01*
X181751343Y-102631663D01*
X181742528Y-102744098D01*
X180938136Y-102744098D01*
X180937592Y-102715847D01*
X180936720Y-102478893D01*
X180936720Y-101778706D01*
X182053369Y-101778706D01*
X182395547Y-101778145D01*
X182662737Y-101776093D01*
X182864612Y-101771997D01*
X183010845Y-101765304D01*
X183111110Y-101755460D01*
X183175079Y-101741912D01*
X183212427Y-101724108D01*
X183225664Y-101711658D01*
X183258436Y-101630210D01*
X183236862Y-101574074D01*
X183214975Y-101552423D01*
X183173240Y-101535132D01*
X183102016Y-101521440D01*
X182991663Y-101510587D01*
X182832538Y-101501811D01*
X182615002Y-101494352D01*
X182329412Y-101487448D01*
X182075151Y-101482373D01*
X180957886Y-101461206D01*
X180957886Y-100656873D01*
X183497886Y-100656873D01*
X183685413Y-100762706D01*
X183685413Y-100762706D01*
G37*
X183685413Y-100762706D02*
X183875428Y-100915313D01*
X183971781Y-101056283D01*
X184000043Y-101111896D01*
X184022233Y-101165944D01*
X184038982Y-101228786D01*
X184050921Y-101310781D01*
X184058680Y-101422286D01*
X184062889Y-101573659D01*
X184064181Y-101775260D01*
X184063185Y-102037446D01*
X184060532Y-102370577D01*
X184059421Y-102495616D01*
X184048220Y-103747206D01*
X182820553Y-103756260D01*
X182437040Y-103758139D01*
X182129292Y-103757308D01*
X181888441Y-103753455D01*
X181705620Y-103746269D01*
X181571960Y-103735437D01*
X181478595Y-103720647D01*
X181431334Y-103707368D01*
X181239728Y-103611906D01*
X181098683Y-103471724D01*
X181016881Y-103336143D01*
X180986365Y-103265888D01*
X180964575Y-103183672D01*
X180950114Y-103074553D01*
X180941585Y-102923592D01*
X180938136Y-102744098D01*
X181742528Y-102744098D01*
X181750909Y-102846840D01*
X181770240Y-102894449D01*
X181820228Y-102903405D01*
X181940392Y-102909889D01*
X182116269Y-102913561D01*
X182333394Y-102914081D01*
X182521657Y-102912088D01*
X183243886Y-102900540D01*
X183243886Y-102519540D01*
X182527371Y-102507899D01*
X182246873Y-102504971D01*
X182041313Y-102506984D01*
X181901078Y-102514481D01*
X181816552Y-102528003D01*
X181778123Y-102548092D01*
X181776603Y-102550232D01*
X181751343Y-102631663D01*
X181742528Y-102744098D01*
X180938136Y-102744098D01*
X180937592Y-102715847D01*
X180936720Y-102478893D01*
X180936720Y-101778706D01*
X182053369Y-101778706D01*
X182395547Y-101778145D01*
X182662737Y-101776093D01*
X182864612Y-101771997D01*
X183010845Y-101765304D01*
X183111110Y-101755460D01*
X183175079Y-101741912D01*
X183212427Y-101724108D01*
X183225664Y-101711658D01*
X183258436Y-101630210D01*
X183236862Y-101574074D01*
X183214975Y-101552423D01*
X183173240Y-101535132D01*
X183102016Y-101521440D01*
X182991663Y-101510587D01*
X182832538Y-101501811D01*
X182615002Y-101494352D01*
X182329412Y-101487448D01*
X182075151Y-101482373D01*
X180957886Y-101461206D01*
X180957886Y-100656873D01*
X183497886Y-100656873D01*
X183685413Y-100762706D01*
G36*
X186690342Y-100641221D02*
X186808088Y-100648574D01*
X186883362Y-100660758D01*
X186926703Y-100678305D01*
X186941761Y-100691625D01*
X186971714Y-100779678D01*
X186983682Y-100949260D01*
X186981581Y-101107853D01*
X186969220Y-101461206D01*
X185318220Y-101503540D01*
X185275886Y-103747206D01*
X184492720Y-103771550D01*
X184492720Y-102506620D01*
X184492900Y-102145782D01*
X184493905Y-101859311D01*
X184496432Y-101636906D01*
X184501178Y-101468268D01*
X184508840Y-101343096D01*
X184520115Y-101251092D01*
X184535700Y-101181953D01*
X184556292Y-101125382D01*
X184582588Y-101071077D01*
X184590942Y-101055115D01*
X184737973Y-100862843D01*
X184876692Y-100762706D01*
X184941828Y-100727749D01*
X185005276Y-100701239D01*
X185079842Y-100681781D01*
X185178333Y-100667979D01*
X185313553Y-100658437D01*
X185498309Y-100651761D01*
X185745408Y-100646554D01*
X185976899Y-100642811D01*
X186285286Y-100638873D01*
X186519588Y-100638165D01*
X186690342Y-100641221D01*
X186690342Y-100641221D01*
G37*
X186690342Y-100641221D02*
X186808088Y-100648574D01*
X186883362Y-100660758D01*
X186926703Y-100678305D01*
X186941761Y-100691625D01*
X186971714Y-100779678D01*
X186983682Y-100949260D01*
X186981581Y-101107853D01*
X186969220Y-101461206D01*
X185318220Y-101503540D01*
X185275886Y-103747206D01*
X184492720Y-103771550D01*
X184492720Y-102506620D01*
X184492900Y-102145782D01*
X184493905Y-101859311D01*
X184496432Y-101636906D01*
X184501178Y-101468268D01*
X184508840Y-101343096D01*
X184520115Y-101251092D01*
X184535700Y-101181953D01*
X184556292Y-101125382D01*
X184582588Y-101071077D01*
X184590942Y-101055115D01*
X184737973Y-100862843D01*
X184876692Y-100762706D01*
X184941828Y-100727749D01*
X185005276Y-100701239D01*
X185079842Y-100681781D01*
X185178333Y-100667979D01*
X185313553Y-100658437D01*
X185498309Y-100651761D01*
X185745408Y-100646554D01*
X185976899Y-100642811D01*
X186285286Y-100638873D01*
X186519588Y-100638165D01*
X186690342Y-100641221D01*
G36*
X191012053Y-100078371D02*
X191007236Y-100141618D01*
X190987925Y-100206852D01*
X190946828Y-100285082D01*
X190876654Y-100387315D01*
X190770112Y-100524561D01*
X190619912Y-100707828D01*
X190500355Y-100850954D01*
X190327025Y-101057751D01*
X190161619Y-101255245D01*
X190016145Y-101429088D01*
X189902609Y-101564932D01*
X189839047Y-101641174D01*
X189754848Y-101748766D01*
X189720795Y-101816994D01*
X189728868Y-101868015D01*
X189747108Y-101895174D01*
X189791477Y-101949798D01*
X189880758Y-102057910D01*
X190005478Y-102208106D01*
X190156167Y-102388981D01*
X190323353Y-102589132D01*
X190335962Y-102604206D01*
X190551962Y-102862709D01*
X190719660Y-103064817D01*
X190845166Y-103219004D01*
X190934591Y-103333740D01*
X190994045Y-103417497D01*
X191029639Y-103478748D01*
X191047485Y-103525964D01*
X191053692Y-103567618D01*
X191054386Y-103600219D01*
X191046528Y-103671448D01*
X191013808Y-103719332D01*
X190942507Y-103748391D01*
X190818906Y-103763144D01*
X190629285Y-103768110D01*
X190543908Y-103768373D01*
X190167354Y-103768373D01*
X189540381Y-103016956D01*
X188913408Y-102265540D01*
X188196886Y-102265540D01*
X188175720Y-103006373D01*
X188154553Y-103747206D01*
X187762254Y-103759388D01*
X187561058Y-103762058D01*
X187432495Y-103754292D01*
X187365041Y-103734909D01*
X187349044Y-103717054D01*
X187344919Y-103664494D01*
X187341558Y-103536150D01*
X187339006Y-103340903D01*
X187337309Y-103087634D01*
X187336513Y-102785222D01*
X187336663Y-102442549D01*
X187337805Y-102068494D01*
X187339176Y-101799873D01*
X187350220Y-99937206D01*
X188154553Y-99937206D01*
X188175720Y-100656873D01*
X188196886Y-101376540D01*
X188544042Y-101388801D01*
X188891199Y-101401063D01*
X189037536Y-101240634D01*
X189114667Y-101153121D01*
X189232757Y-101015500D01*
X189378895Y-100842982D01*
X189540168Y-100650776D01*
X189640867Y-100529873D01*
X189794947Y-100345591D01*
X189932240Y-100183767D01*
X190042846Y-100055884D01*
X190116859Y-99973427D01*
X190142207Y-99948438D01*
X190201474Y-99935021D01*
X190324559Y-99924368D01*
X190490621Y-99917926D01*
X190599303Y-99916688D01*
X191012053Y-99916040D01*
X191012053Y-100078371D01*
X191012053Y-100078371D01*
G37*
X191012053Y-100078371D02*
X191007236Y-100141618D01*
X190987925Y-100206852D01*
X190946828Y-100285082D01*
X190876654Y-100387315D01*
X190770112Y-100524561D01*
X190619912Y-100707828D01*
X190500355Y-100850954D01*
X190327025Y-101057751D01*
X190161619Y-101255245D01*
X190016145Y-101429088D01*
X189902609Y-101564932D01*
X189839047Y-101641174D01*
X189754848Y-101748766D01*
X189720795Y-101816994D01*
X189728868Y-101868015D01*
X189747108Y-101895174D01*
X189791477Y-101949798D01*
X189880758Y-102057910D01*
X190005478Y-102208106D01*
X190156167Y-102388981D01*
X190323353Y-102589132D01*
X190335962Y-102604206D01*
X190551962Y-102862709D01*
X190719660Y-103064817D01*
X190845166Y-103219004D01*
X190934591Y-103333740D01*
X190994045Y-103417497D01*
X191029639Y-103478748D01*
X191047485Y-103525964D01*
X191053692Y-103567618D01*
X191054386Y-103600219D01*
X191046528Y-103671448D01*
X191013808Y-103719332D01*
X190942507Y-103748391D01*
X190818906Y-103763144D01*
X190629285Y-103768110D01*
X190543908Y-103768373D01*
X190167354Y-103768373D01*
X189540381Y-103016956D01*
X188913408Y-102265540D01*
X188196886Y-102265540D01*
X188175720Y-103006373D01*
X188154553Y-103747206D01*
X187762254Y-103759388D01*
X187561058Y-103762058D01*
X187432495Y-103754292D01*
X187365041Y-103734909D01*
X187349044Y-103717054D01*
X187344919Y-103664494D01*
X187341558Y-103536150D01*
X187339006Y-103340903D01*
X187337309Y-103087634D01*
X187336513Y-102785222D01*
X187336663Y-102442549D01*
X187337805Y-102068494D01*
X187339176Y-101799873D01*
X187350220Y-99937206D01*
X188154553Y-99937206D01*
X188175720Y-100656873D01*
X188196886Y-101376540D01*
X188544042Y-101388801D01*
X188891199Y-101401063D01*
X189037536Y-101240634D01*
X189114667Y-101153121D01*
X189232757Y-101015500D01*
X189378895Y-100842982D01*
X189540168Y-100650776D01*
X189640867Y-100529873D01*
X189794947Y-100345591D01*
X189932240Y-100183767D01*
X190042846Y-100055884D01*
X190116859Y-99973427D01*
X190142207Y-99948438D01*
X190201474Y-99935021D01*
X190324559Y-99924368D01*
X190490621Y-99917926D01*
X190599303Y-99916688D01*
X191012053Y-99916040D01*
X191012053Y-100078371D01*
G36*
X193488153Y-100640777D02*
X193717883Y-100652186D01*
X193897049Y-100674495D01*
X194036965Y-100709586D01*
X194148944Y-100759343D01*
X194244299Y-100825649D01*
X194314176Y-100889830D01*
X194394853Y-100981560D01*
X194457386Y-101083514D01*
X194503660Y-101206972D01*
X194535560Y-101363211D01*
X194554972Y-101563512D01*
X194563780Y-101819151D01*
X194563869Y-102141409D01*
X194560647Y-102364509D01*
X194553705Y-102677821D01*
X194543732Y-102919352D01*
X194527957Y-103101984D01*
X194503608Y-103238601D01*
X194467915Y-103342088D01*
X194418105Y-103425328D01*
X194351408Y-103501206D01*
X194306914Y-103544102D01*
X194225383Y-103613651D01*
X194140303Y-103667229D01*
X194039717Y-103706806D01*
X193911667Y-103734352D01*
X193744193Y-103751834D01*
X193525338Y-103761223D01*
X193243144Y-103764489D01*
X192971329Y-103764051D01*
X192667918Y-103760506D01*
X192397318Y-103753227D01*
X192172228Y-103742816D01*
X192005349Y-103729871D01*
X191909380Y-103714992D01*
X191905028Y-103713699D01*
X191734619Y-103622983D01*
X191579326Y-103477749D01*
X191466935Y-103306797D01*
X191437833Y-103229422D01*
X191424338Y-103138963D01*
X191412475Y-102979462D01*
X191402916Y-102766541D01*
X191396328Y-102515820D01*
X191393988Y-102299036D01*
X192198491Y-102299036D01*
X192199838Y-102502128D01*
X192204157Y-102679799D01*
X192211546Y-102813994D01*
X192222103Y-102886655D01*
X192225608Y-102893484D01*
X192275216Y-102902692D01*
X192395180Y-102910642D01*
X192571190Y-102916805D01*
X192788939Y-102920652D01*
X192988632Y-102921706D01*
X193723433Y-102921706D01*
X193711826Y-102212623D01*
X193700220Y-101503540D01*
X192983705Y-101491899D01*
X192703206Y-101488971D01*
X192497647Y-101490984D01*
X192357411Y-101498481D01*
X192272886Y-101512003D01*
X192234457Y-101532092D01*
X192232936Y-101534232D01*
X192220881Y-101593584D01*
X192211311Y-101717797D01*
X192204325Y-101888814D01*
X192200019Y-102088579D01*
X192198491Y-102299036D01*
X191393988Y-102299036D01*
X191393382Y-102242919D01*
X191393289Y-102190096D01*
X191394842Y-101856074D01*
X191401122Y-101594389D01*
X191414257Y-101392755D01*
X191436377Y-101238882D01*
X191469609Y-101120483D01*
X191516083Y-101025269D01*
X191577927Y-100940952D01*
X191617323Y-100896845D01*
X191692653Y-100821626D01*
X191768470Y-100764001D01*
X191857297Y-100721354D01*
X191971656Y-100691069D01*
X192124068Y-100670530D01*
X192327054Y-100657121D01*
X192593138Y-100648226D01*
X192831748Y-100643130D01*
X193196546Y-100638386D01*
X193488153Y-100640777D01*
X193488153Y-100640777D01*
G37*
X193488153Y-100640777D02*
X193717883Y-100652186D01*
X193897049Y-100674495D01*
X194036965Y-100709586D01*
X194148944Y-100759343D01*
X194244299Y-100825649D01*
X194314176Y-100889830D01*
X194394853Y-100981560D01*
X194457386Y-101083514D01*
X194503660Y-101206972D01*
X194535560Y-101363211D01*
X194554972Y-101563512D01*
X194563780Y-101819151D01*
X194563869Y-102141409D01*
X194560647Y-102364509D01*
X194553705Y-102677821D01*
X194543732Y-102919352D01*
X194527957Y-103101984D01*
X194503608Y-103238601D01*
X194467915Y-103342088D01*
X194418105Y-103425328D01*
X194351408Y-103501206D01*
X194306914Y-103544102D01*
X194225383Y-103613651D01*
X194140303Y-103667229D01*
X194039717Y-103706806D01*
X193911667Y-103734352D01*
X193744193Y-103751834D01*
X193525338Y-103761223D01*
X193243144Y-103764489D01*
X192971329Y-103764051D01*
X192667918Y-103760506D01*
X192397318Y-103753227D01*
X192172228Y-103742816D01*
X192005349Y-103729871D01*
X191909380Y-103714992D01*
X191905028Y-103713699D01*
X191734619Y-103622983D01*
X191579326Y-103477749D01*
X191466935Y-103306797D01*
X191437833Y-103229422D01*
X191424338Y-103138963D01*
X191412475Y-102979462D01*
X191402916Y-102766541D01*
X191396328Y-102515820D01*
X191393988Y-102299036D01*
X192198491Y-102299036D01*
X192199838Y-102502128D01*
X192204157Y-102679799D01*
X192211546Y-102813994D01*
X192222103Y-102886655D01*
X192225608Y-102893484D01*
X192275216Y-102902692D01*
X192395180Y-102910642D01*
X192571190Y-102916805D01*
X192788939Y-102920652D01*
X192988632Y-102921706D01*
X193723433Y-102921706D01*
X193711826Y-102212623D01*
X193700220Y-101503540D01*
X192983705Y-101491899D01*
X192703206Y-101488971D01*
X192497647Y-101490984D01*
X192357411Y-101498481D01*
X192272886Y-101512003D01*
X192234457Y-101532092D01*
X192232936Y-101534232D01*
X192220881Y-101593584D01*
X192211311Y-101717797D01*
X192204325Y-101888814D01*
X192200019Y-102088579D01*
X192198491Y-102299036D01*
X191393988Y-102299036D01*
X191393382Y-102242919D01*
X191393289Y-102190096D01*
X191394842Y-101856074D01*
X191401122Y-101594389D01*
X191414257Y-101392755D01*
X191436377Y-101238882D01*
X191469609Y-101120483D01*
X191516083Y-101025269D01*
X191577927Y-100940952D01*
X191617323Y-100896845D01*
X191692653Y-100821626D01*
X191768470Y-100764001D01*
X191857297Y-100721354D01*
X191971656Y-100691069D01*
X192124068Y-100670530D01*
X192327054Y-100657121D01*
X192593138Y-100648226D01*
X192831748Y-100643130D01*
X193196546Y-100638386D01*
X193488153Y-100640777D01*
G36*
X195673378Y-100658291D02*
X195736322Y-100681445D01*
X195755004Y-100711421D01*
X195769505Y-100772642D01*
X195780295Y-100874152D01*
X195787842Y-101024992D01*
X195792615Y-101234208D01*
X195795082Y-101510843D01*
X195795720Y-101827223D01*
X195795720Y-102923705D01*
X196525970Y-102912122D01*
X197256220Y-102900540D01*
X197267501Y-101791921D01*
X197271330Y-101455310D01*
X197275618Y-101193780D01*
X197281085Y-100997745D01*
X197288450Y-100857619D01*
X197298434Y-100763818D01*
X197311755Y-100706755D01*
X197329133Y-100676845D01*
X197351289Y-100664502D01*
X197352167Y-100664268D01*
X197445573Y-100651283D01*
X197581718Y-100645058D01*
X197735867Y-100645059D01*
X197883286Y-100650747D01*
X197999243Y-100661586D01*
X198059004Y-100677039D01*
X198061561Y-100679671D01*
X198067446Y-100729772D01*
X198073079Y-100853558D01*
X198078223Y-101040048D01*
X198082641Y-101278258D01*
X198086096Y-101557208D01*
X198088351Y-101865916D01*
X198088657Y-101935182D01*
X198089509Y-102313355D01*
X198087995Y-102616927D01*
X198082902Y-102855956D01*
X198073019Y-103040501D01*
X198057133Y-103180619D01*
X198034034Y-103286369D01*
X198002508Y-103367808D01*
X197961344Y-103434996D01*
X197909331Y-103497989D01*
X197898983Y-103509374D01*
X197819679Y-103588044D01*
X197735822Y-103648962D01*
X197635751Y-103694305D01*
X197507802Y-103726252D01*
X197340316Y-103746980D01*
X197121629Y-103758667D01*
X196840081Y-103763491D01*
X196536553Y-103763804D01*
X196257313Y-103761470D01*
X196000846Y-103756465D01*
X195781301Y-103749294D01*
X195612826Y-103740460D01*
X195509566Y-103730470D01*
X195490554Y-103726530D01*
X195277326Y-103619659D01*
X195106187Y-103446760D01*
X195036703Y-103330036D01*
X195011132Y-103273598D01*
X194991123Y-103215257D01*
X194976110Y-103144593D01*
X194965526Y-103051184D01*
X194958804Y-102924613D01*
X194955377Y-102754457D01*
X194954678Y-102530298D01*
X194956140Y-102241715D01*
X194958986Y-101901582D01*
X194970220Y-100656873D01*
X195323572Y-100644511D01*
X195530667Y-100643986D01*
X195673378Y-100658291D01*
X195673378Y-100658291D01*
G37*
X195673378Y-100658291D02*
X195736322Y-100681445D01*
X195755004Y-100711421D01*
X195769505Y-100772642D01*
X195780295Y-100874152D01*
X195787842Y-101024992D01*
X195792615Y-101234208D01*
X195795082Y-101510843D01*
X195795720Y-101827223D01*
X195795720Y-102923705D01*
X196525970Y-102912122D01*
X197256220Y-102900540D01*
X197267501Y-101791921D01*
X197271330Y-101455310D01*
X197275618Y-101193780D01*
X197281085Y-100997745D01*
X197288450Y-100857619D01*
X197298434Y-100763818D01*
X197311755Y-100706755D01*
X197329133Y-100676845D01*
X197351289Y-100664502D01*
X197352167Y-100664268D01*
X197445573Y-100651283D01*
X197581718Y-100645058D01*
X197735867Y-100645059D01*
X197883286Y-100650747D01*
X197999243Y-100661586D01*
X198059004Y-100677039D01*
X198061561Y-100679671D01*
X198067446Y-100729772D01*
X198073079Y-100853558D01*
X198078223Y-101040048D01*
X198082641Y-101278258D01*
X198086096Y-101557208D01*
X198088351Y-101865916D01*
X198088657Y-101935182D01*
X198089509Y-102313355D01*
X198087995Y-102616927D01*
X198082902Y-102855956D01*
X198073019Y-103040501D01*
X198057133Y-103180619D01*
X198034034Y-103286369D01*
X198002508Y-103367808D01*
X197961344Y-103434996D01*
X197909331Y-103497989D01*
X197898983Y-103509374D01*
X197819679Y-103588044D01*
X197735822Y-103648962D01*
X197635751Y-103694305D01*
X197507802Y-103726252D01*
X197340316Y-103746980D01*
X197121629Y-103758667D01*
X196840081Y-103763491D01*
X196536553Y-103763804D01*
X196257313Y-103761470D01*
X196000846Y-103756465D01*
X195781301Y-103749294D01*
X195612826Y-103740460D01*
X195509566Y-103730470D01*
X195490554Y-103726530D01*
X195277326Y-103619659D01*
X195106187Y-103446760D01*
X195036703Y-103330036D01*
X195011132Y-103273598D01*
X194991123Y-103215257D01*
X194976110Y-103144593D01*
X194965526Y-103051184D01*
X194958804Y-102924613D01*
X194955377Y-102754457D01*
X194954678Y-102530298D01*
X194956140Y-102241715D01*
X194958986Y-101901582D01*
X194970220Y-100656873D01*
X195323572Y-100644511D01*
X195530667Y-100643986D01*
X195673378Y-100658291D01*
G36*
X199499886Y-103747206D02*
X199107587Y-103759388D01*
X198911152Y-103762399D01*
X198785362Y-103755752D01*
X198716588Y-103737940D01*
X198693012Y-103713516D01*
X198684143Y-103646303D01*
X198680121Y-103518497D01*
X198681515Y-103354064D01*
X198683144Y-103299168D01*
X198695553Y-102942873D01*
X199499886Y-102942873D01*
X199499886Y-103747206D01*
X199499886Y-103747206D01*
G37*
X199499886Y-103747206D02*
X199107587Y-103759388D01*
X198911152Y-103762399D01*
X198785362Y-103755752D01*
X198716588Y-103737940D01*
X198693012Y-103713516D01*
X198684143Y-103646303D01*
X198680121Y-103518497D01*
X198681515Y-103354064D01*
X198683144Y-103299168D01*
X198695553Y-102942873D01*
X199499886Y-102942873D01*
X199499886Y-103747206D01*
G36*
X201840321Y-100052384D02*
X201852422Y-100463894D01*
X201289988Y-100475717D01*
X201057179Y-100482079D01*
X200896791Y-100490777D01*
X200796581Y-100503451D01*
X200744307Y-100521739D01*
X200727726Y-100547282D01*
X200727553Y-100551040D01*
X200741438Y-100578185D01*
X200791221Y-100598348D01*
X200889093Y-100613406D01*
X201047247Y-100625233D01*
X201277873Y-100635706D01*
X201277886Y-100635706D01*
X201828220Y-100656873D01*
X201852452Y-101482373D01*
X201300586Y-101482373D01*
X201094577Y-101483137D01*
X200922127Y-101485228D01*
X200799267Y-101488343D01*
X200742031Y-101492180D01*
X200739906Y-101492956D01*
X200736732Y-101536347D01*
X200732283Y-101653244D01*
X200726874Y-101832501D01*
X200720815Y-102062972D01*
X200714420Y-102333513D01*
X200708156Y-102625373D01*
X200685220Y-103747206D01*
X200293636Y-103759378D01*
X199902053Y-103771550D01*
X199902053Y-101998620D01*
X199902123Y-101565042D01*
X199902613Y-101207786D01*
X199903941Y-100918507D01*
X199906524Y-100688863D01*
X199910781Y-100510507D01*
X199917130Y-100375097D01*
X199925989Y-100274286D01*
X199937775Y-100199732D01*
X199952907Y-100143089D01*
X199971803Y-100096013D01*
X199994881Y-100050160D01*
X200000167Y-100040153D01*
X200121254Y-99874022D01*
X200293595Y-99754105D01*
X200374516Y-99715681D01*
X200454898Y-99688236D01*
X200551097Y-99669751D01*
X200679468Y-99658202D01*
X200856367Y-99651572D01*
X201098149Y-99647837D01*
X201158565Y-99647233D01*
X201828220Y-99640873D01*
X201840321Y-100052384D01*
X201840321Y-100052384D01*
G37*
X201840321Y-100052384D02*
X201852422Y-100463894D01*
X201289988Y-100475717D01*
X201057179Y-100482079D01*
X200896791Y-100490777D01*
X200796581Y-100503451D01*
X200744307Y-100521739D01*
X200727726Y-100547282D01*
X200727553Y-100551040D01*
X200741438Y-100578185D01*
X200791221Y-100598348D01*
X200889093Y-100613406D01*
X201047247Y-100625233D01*
X201277873Y-100635706D01*
X201277886Y-100635706D01*
X201828220Y-100656873D01*
X201852452Y-101482373D01*
X201300586Y-101482373D01*
X201094577Y-101483137D01*
X200922127Y-101485228D01*
X200799267Y-101488343D01*
X200742031Y-101492180D01*
X200739906Y-101492956D01*
X200736732Y-101536347D01*
X200732283Y-101653244D01*
X200726874Y-101832501D01*
X200720815Y-102062972D01*
X200714420Y-102333513D01*
X200708156Y-102625373D01*
X200685220Y-103747206D01*
X200293636Y-103759378D01*
X199902053Y-103771550D01*
X199902053Y-101998620D01*
X199902123Y-101565042D01*
X199902613Y-101207786D01*
X199903941Y-100918507D01*
X199906524Y-100688863D01*
X199910781Y-100510507D01*
X199917130Y-100375097D01*
X199925989Y-100274286D01*
X199937775Y-100199732D01*
X199952907Y-100143089D01*
X199971803Y-100096013D01*
X199994881Y-100050160D01*
X200000167Y-100040153D01*
X200121254Y-99874022D01*
X200293595Y-99754105D01*
X200374516Y-99715681D01*
X200454898Y-99688236D01*
X200551097Y-99669751D01*
X200679468Y-99658202D01*
X200856367Y-99651572D01*
X201098149Y-99647837D01*
X201158565Y-99647233D01*
X201828220Y-99640873D01*
X201840321Y-100052384D01*
G36*
X203902553Y-100645187D02*
X204706886Y-100656873D01*
X204728053Y-101012710D01*
X204733541Y-101195436D01*
X204727341Y-101337557D01*
X204710487Y-101418911D01*
X204706886Y-101424922D01*
X204668830Y-101446504D01*
X204585060Y-101463164D01*
X204446449Y-101475650D01*
X204243870Y-101484706D01*
X203968197Y-101491080D01*
X203881386Y-101492418D01*
X203098220Y-101503540D01*
X203055886Y-103747206D01*
X202663587Y-103759388D01*
X202469884Y-103762618D01*
X202345816Y-103756662D01*
X202276681Y-103739796D01*
X202247900Y-103710619D01*
X202242352Y-103653964D01*
X202238204Y-103523916D01*
X202235540Y-103331739D01*
X202234449Y-103088696D01*
X202235017Y-102806052D01*
X202237330Y-102495071D01*
X202238032Y-102428438D01*
X202242700Y-102049641D01*
X202248669Y-101745553D01*
X202257815Y-101506217D01*
X202272016Y-101321679D01*
X202293149Y-101181981D01*
X202323092Y-101077169D01*
X202363722Y-100997286D01*
X202416916Y-100932376D01*
X202484552Y-100872483D01*
X202539493Y-100829738D01*
X202640685Y-100765077D01*
X202760755Y-100715921D01*
X202911312Y-100680695D01*
X203103969Y-100657830D01*
X203350338Y-100645752D01*
X203662029Y-100642889D01*
X203902553Y-100645187D01*
X203902553Y-100645187D01*
G37*
X203902553Y-100645187D02*
X204706886Y-100656873D01*
X204728053Y-101012710D01*
X204733541Y-101195436D01*
X204727341Y-101337557D01*
X204710487Y-101418911D01*
X204706886Y-101424922D01*
X204668830Y-101446504D01*
X204585060Y-101463164D01*
X204446449Y-101475650D01*
X204243870Y-101484706D01*
X203968197Y-101491080D01*
X203881386Y-101492418D01*
X203098220Y-101503540D01*
X203055886Y-103747206D01*
X202663587Y-103759388D01*
X202469884Y-103762618D01*
X202345816Y-103756662D01*
X202276681Y-103739796D01*
X202247900Y-103710619D01*
X202242352Y-103653964D01*
X202238204Y-103523916D01*
X202235540Y-103331739D01*
X202234449Y-103088696D01*
X202235017Y-102806052D01*
X202237330Y-102495071D01*
X202238032Y-102428438D01*
X202242700Y-102049641D01*
X202248669Y-101745553D01*
X202257815Y-101506217D01*
X202272016Y-101321679D01*
X202293149Y-101181981D01*
X202323092Y-101077169D01*
X202363722Y-100997286D01*
X202416916Y-100932376D01*
X202484552Y-100872483D01*
X202539493Y-100829738D01*
X202640685Y-100765077D01*
X202760755Y-100715921D01*
X202911312Y-100680695D01*
X203103969Y-100657830D01*
X203350338Y-100645752D01*
X203662029Y-100642889D01*
X203902553Y-100645187D01*
G36*
X187646553Y-95733424D02*
X187843141Y-95847915D01*
X187980318Y-95934814D01*
X188073138Y-96006816D01*
X188136657Y-96076617D01*
X188185930Y-96156916D01*
X188212794Y-96210957D01*
X188296309Y-96403207D01*
X188333605Y-96553735D01*
X188321753Y-96687353D01*
X188257828Y-96828873D01*
X188138901Y-97003107D01*
X188115662Y-97034229D01*
X188011095Y-97183027D01*
X187930229Y-97316512D01*
X187884971Y-97414153D01*
X187879386Y-97441687D01*
X187875747Y-97519602D01*
X187861595Y-97597373D01*
X187832082Y-97682527D01*
X187782357Y-97782593D01*
X187707572Y-97905097D01*
X187602876Y-98057567D01*
X187463421Y-98247530D01*
X187284356Y-98482513D01*
X187060832Y-98770045D01*
X186852340Y-99035844D01*
X186630630Y-99317231D01*
X186424527Y-99577594D01*
X186240056Y-99809412D01*
X186083243Y-100005164D01*
X185960115Y-100157332D01*
X185876696Y-100258394D01*
X185839013Y-100300831D01*
X185838243Y-100301413D01*
X185779475Y-100315943D01*
X185654813Y-100332971D01*
X185482931Y-100350897D01*
X185282500Y-100368123D01*
X185072194Y-100383051D01*
X184870687Y-100394082D01*
X184696651Y-100399617D01*
X184690056Y-100399708D01*
X184546595Y-100405556D01*
X184455745Y-100427707D01*
X184385486Y-100480006D01*
X184315533Y-100561623D01*
X184235889Y-100653738D01*
X184176683Y-100709333D01*
X184160530Y-100717082D01*
X184113871Y-100693611D01*
X184017664Y-100635108D01*
X183892429Y-100554069D01*
X183888185Y-100551253D01*
X183735394Y-100462112D01*
X183581917Y-100392323D01*
X183475435Y-100360323D01*
X183370547Y-100336343D01*
X183312726Y-100310936D01*
X183308707Y-100303902D01*
X183329932Y-100254095D01*
X183382202Y-100159951D01*
X183414324Y-100106540D01*
X183476173Y-100000761D01*
X183513679Y-99926283D01*
X183518836Y-99909479D01*
X183485579Y-99874257D01*
X183400120Y-99814076D01*
X183329331Y-99770567D01*
X183209887Y-99689207D01*
X183118971Y-99607023D01*
X183092668Y-99571671D01*
X183070858Y-99482886D01*
X183067743Y-99441313D01*
X183170810Y-99441313D01*
X183201191Y-99530000D01*
X183269265Y-99576155D01*
X183284048Y-99577373D01*
X183329783Y-99545570D01*
X183415569Y-99458204D01*
X183530513Y-99327337D01*
X183663721Y-99165030D01*
X183714130Y-99101123D01*
X183838344Y-98941658D01*
X184003600Y-98729016D01*
X184199178Y-98477019D01*
X184414355Y-98199490D01*
X184638410Y-97910251D01*
X184860623Y-97623124D01*
X184888017Y-97587706D01*
X185086684Y-97330881D01*
X185268323Y-97096160D01*
X185426562Y-96891770D01*
X185555027Y-96725940D01*
X185647346Y-96606897D01*
X185697147Y-96542867D01*
X185704004Y-96534175D01*
X185743893Y-96548008D01*
X185848772Y-96595528D01*
X186008315Y-96671746D01*
X186212198Y-96771672D01*
X186450094Y-96890315D01*
X186651628Y-96992135D01*
X186912516Y-97122623D01*
X187151229Y-97238170D01*
X187356611Y-97333684D01*
X187517503Y-97404073D01*
X187622748Y-97444246D01*
X187658319Y-97451513D01*
X187650903Y-97427785D01*
X187576220Y-97372255D01*
X187442972Y-97290497D01*
X187259866Y-97188080D01*
X187180886Y-97145889D01*
X186815010Y-96952776D01*
X186516773Y-96795147D01*
X186279169Y-96668528D01*
X186095192Y-96568446D01*
X185957837Y-96490425D01*
X185860098Y-96429993D01*
X185794970Y-96382676D01*
X185755447Y-96343998D01*
X185734523Y-96309487D01*
X185725193Y-96274667D01*
X185720451Y-96235066D01*
X185717505Y-96211329D01*
X185695344Y-96117086D01*
X185670125Y-96103727D01*
X185645680Y-96167750D01*
X185626956Y-96294093D01*
X185598786Y-96390327D01*
X185521804Y-96441078D01*
X185484064Y-96452215D01*
X185443291Y-96470722D01*
X185390335Y-96511422D01*
X185320361Y-96580093D01*
X185228535Y-96682514D01*
X185110022Y-96824464D01*
X184959988Y-97011721D01*
X184773597Y-97250063D01*
X184546017Y-97545270D01*
X184295512Y-97872828D01*
X184065622Y-98174747D01*
X183850706Y-98458051D01*
X183656457Y-98715161D01*
X183488564Y-98938498D01*
X183352717Y-99120484D01*
X183254608Y-99253540D01*
X183199925Y-99330086D01*
X183191341Y-99343446D01*
X183170810Y-99441313D01*
X183067743Y-99441313D01*
X183059167Y-99326879D01*
X183058702Y-99120611D01*
X183060139Y-99072335D01*
X183074553Y-98660713D01*
X184120450Y-97265496D01*
X184349976Y-96960328D01*
X184567333Y-96673277D01*
X184766512Y-96412140D01*
X184941501Y-96184713D01*
X185086292Y-95998792D01*
X185194872Y-95862173D01*
X185261231Y-95782651D01*
X185274306Y-95768857D01*
X185368881Y-95702186D01*
X185488160Y-95670901D01*
X185604242Y-95664235D01*
X185827334Y-95633651D01*
X185843907Y-95626017D01*
X186313053Y-95626017D01*
X186348575Y-95656248D01*
X186447048Y-95718954D01*
X186596328Y-95807498D01*
X186784273Y-95915247D01*
X186998743Y-96035563D01*
X187227593Y-96161813D01*
X187458682Y-96287359D01*
X187679868Y-96405568D01*
X187879008Y-96509803D01*
X188043961Y-96593429D01*
X188162584Y-96649810D01*
X188222735Y-96672311D01*
X188227048Y-96671980D01*
X188228640Y-96626039D01*
X188203621Y-96523099D01*
X188157311Y-96384578D01*
X188152278Y-96371090D01*
X188099006Y-96231948D01*
X188057990Y-96129269D01*
X188037465Y-96083620D01*
X188036920Y-96083022D01*
X187998504Y-96061137D01*
X187901055Y-96006471D01*
X187759533Y-95927398D01*
X187597882Y-95837294D01*
X187405559Y-95732378D01*
X187264657Y-95663414D01*
X187153876Y-95622994D01*
X187051916Y-95603710D01*
X186937477Y-95598155D01*
X186909966Y-95598039D01*
X186755827Y-95605367D01*
X186668058Y-95626033D01*
X186651720Y-95645084D01*
X186689173Y-95673207D01*
X186796246Y-95665015D01*
X186891537Y-95652363D01*
X186925113Y-95670341D01*
X186919147Y-95720597D01*
X186937047Y-95798223D01*
X187015627Y-95866566D01*
X187130968Y-95913014D01*
X187259150Y-95924957D01*
X187297048Y-95919824D01*
X187382710Y-95910225D01*
X187404722Y-95934676D01*
X187398380Y-95957954D01*
X187391491Y-95991791D01*
X187407370Y-96025389D01*
X187458051Y-96068354D01*
X187555570Y-96130296D01*
X187711961Y-96220822D01*
X187766293Y-96251667D01*
X187873762Y-96318314D01*
X187938527Y-96369858D01*
X187948038Y-96390165D01*
X187905685Y-96377842D01*
X187801348Y-96330004D01*
X187646865Y-96252592D01*
X187454076Y-96151544D01*
X187234821Y-96032802D01*
X187224976Y-96027388D01*
X186926321Y-95865140D01*
X186694205Y-95744155D01*
X186522744Y-95661840D01*
X186406051Y-95615606D01*
X186338242Y-95602863D01*
X186313431Y-95621019D01*
X186313053Y-95626017D01*
X185843907Y-95626017D01*
X185951148Y-95576621D01*
X186016050Y-95540603D01*
X186097042Y-95515338D01*
X186210893Y-95498419D01*
X186374373Y-95487441D01*
X186604253Y-95479996D01*
X186628481Y-95479424D01*
X187180886Y-95466642D01*
X187646553Y-95733424D01*
X187646553Y-95733424D01*
G37*
X187646553Y-95733424D02*
X187843141Y-95847915D01*
X187980318Y-95934814D01*
X188073138Y-96006816D01*
X188136657Y-96076617D01*
X188185930Y-96156916D01*
X188212794Y-96210957D01*
X188296309Y-96403207D01*
X188333605Y-96553735D01*
X188321753Y-96687353D01*
X188257828Y-96828873D01*
X188138901Y-97003107D01*
X188115662Y-97034229D01*
X188011095Y-97183027D01*
X187930229Y-97316512D01*
X187884971Y-97414153D01*
X187879386Y-97441687D01*
X187875747Y-97519602D01*
X187861595Y-97597373D01*
X187832082Y-97682527D01*
X187782357Y-97782593D01*
X187707572Y-97905097D01*
X187602876Y-98057567D01*
X187463421Y-98247530D01*
X187284356Y-98482513D01*
X187060832Y-98770045D01*
X186852340Y-99035844D01*
X186630630Y-99317231D01*
X186424527Y-99577594D01*
X186240056Y-99809412D01*
X186083243Y-100005164D01*
X185960115Y-100157332D01*
X185876696Y-100258394D01*
X185839013Y-100300831D01*
X185838243Y-100301413D01*
X185779475Y-100315943D01*
X185654813Y-100332971D01*
X185482931Y-100350897D01*
X185282500Y-100368123D01*
X185072194Y-100383051D01*
X184870687Y-100394082D01*
X184696651Y-100399617D01*
X184690056Y-100399708D01*
X184546595Y-100405556D01*
X184455745Y-100427707D01*
X184385486Y-100480006D01*
X184315533Y-100561623D01*
X184235889Y-100653738D01*
X184176683Y-100709333D01*
X184160530Y-100717082D01*
X184113871Y-100693611D01*
X184017664Y-100635108D01*
X183892429Y-100554069D01*
X183888185Y-100551253D01*
X183735394Y-100462112D01*
X183581917Y-100392323D01*
X183475435Y-100360323D01*
X183370547Y-100336343D01*
X183312726Y-100310936D01*
X183308707Y-100303902D01*
X183329932Y-100254095D01*
X183382202Y-100159951D01*
X183414324Y-100106540D01*
X183476173Y-100000761D01*
X183513679Y-99926283D01*
X183518836Y-99909479D01*
X183485579Y-99874257D01*
X183400120Y-99814076D01*
X183329331Y-99770567D01*
X183209887Y-99689207D01*
X183118971Y-99607023D01*
X183092668Y-99571671D01*
X183070858Y-99482886D01*
X183067743Y-99441313D01*
X183170810Y-99441313D01*
X183201191Y-99530000D01*
X183269265Y-99576155D01*
X183284048Y-99577373D01*
X183329783Y-99545570D01*
X183415569Y-99458204D01*
X183530513Y-99327337D01*
X183663721Y-99165030D01*
X183714130Y-99101123D01*
X183838344Y-98941658D01*
X184003600Y-98729016D01*
X184199178Y-98477019D01*
X184414355Y-98199490D01*
X184638410Y-97910251D01*
X184860623Y-97623124D01*
X184888017Y-97587706D01*
X185086684Y-97330881D01*
X185268323Y-97096160D01*
X185426562Y-96891770D01*
X185555027Y-96725940D01*
X185647346Y-96606897D01*
X185697147Y-96542867D01*
X185704004Y-96534175D01*
X185743893Y-96548008D01*
X185848772Y-96595528D01*
X186008315Y-96671746D01*
X186212198Y-96771672D01*
X186450094Y-96890315D01*
X186651628Y-96992135D01*
X186912516Y-97122623D01*
X187151229Y-97238170D01*
X187356611Y-97333684D01*
X187517503Y-97404073D01*
X187622748Y-97444246D01*
X187658319Y-97451513D01*
X187650903Y-97427785D01*
X187576220Y-97372255D01*
X187442972Y-97290497D01*
X187259866Y-97188080D01*
X187180886Y-97145889D01*
X186815010Y-96952776D01*
X186516773Y-96795147D01*
X186279169Y-96668528D01*
X186095192Y-96568446D01*
X185957837Y-96490425D01*
X185860098Y-96429993D01*
X185794970Y-96382676D01*
X185755447Y-96343998D01*
X185734523Y-96309487D01*
X185725193Y-96274667D01*
X185720451Y-96235066D01*
X185717505Y-96211329D01*
X185695344Y-96117086D01*
X185670125Y-96103727D01*
X185645680Y-96167750D01*
X185626956Y-96294093D01*
X185598786Y-96390327D01*
X185521804Y-96441078D01*
X185484064Y-96452215D01*
X185443291Y-96470722D01*
X185390335Y-96511422D01*
X185320361Y-96580093D01*
X185228535Y-96682514D01*
X185110022Y-96824464D01*
X184959988Y-97011721D01*
X184773597Y-97250063D01*
X184546017Y-97545270D01*
X184295512Y-97872828D01*
X184065622Y-98174747D01*
X183850706Y-98458051D01*
X183656457Y-98715161D01*
X183488564Y-98938498D01*
X183352717Y-99120484D01*
X183254608Y-99253540D01*
X183199925Y-99330086D01*
X183191341Y-99343446D01*
X183170810Y-99441313D01*
X183067743Y-99441313D01*
X183059167Y-99326879D01*
X183058702Y-99120611D01*
X183060139Y-99072335D01*
X183074553Y-98660713D01*
X184120450Y-97265496D01*
X184349976Y-96960328D01*
X184567333Y-96673277D01*
X184766512Y-96412140D01*
X184941501Y-96184713D01*
X185086292Y-95998792D01*
X185194872Y-95862173D01*
X185261231Y-95782651D01*
X185274306Y-95768857D01*
X185368881Y-95702186D01*
X185488160Y-95670901D01*
X185604242Y-95664235D01*
X185827334Y-95633651D01*
X185843907Y-95626017D01*
X186313053Y-95626017D01*
X186348575Y-95656248D01*
X186447048Y-95718954D01*
X186596328Y-95807498D01*
X186784273Y-95915247D01*
X186998743Y-96035563D01*
X187227593Y-96161813D01*
X187458682Y-96287359D01*
X187679868Y-96405568D01*
X187879008Y-96509803D01*
X188043961Y-96593429D01*
X188162584Y-96649810D01*
X188222735Y-96672311D01*
X188227048Y-96671980D01*
X188228640Y-96626039D01*
X188203621Y-96523099D01*
X188157311Y-96384578D01*
X188152278Y-96371090D01*
X188099006Y-96231948D01*
X188057990Y-96129269D01*
X188037465Y-96083620D01*
X188036920Y-96083022D01*
X187998504Y-96061137D01*
X187901055Y-96006471D01*
X187759533Y-95927398D01*
X187597882Y-95837294D01*
X187405559Y-95732378D01*
X187264657Y-95663414D01*
X187153876Y-95622994D01*
X187051916Y-95603710D01*
X186937477Y-95598155D01*
X186909966Y-95598039D01*
X186755827Y-95605367D01*
X186668058Y-95626033D01*
X186651720Y-95645084D01*
X186689173Y-95673207D01*
X186796246Y-95665015D01*
X186891537Y-95652363D01*
X186925113Y-95670341D01*
X186919147Y-95720597D01*
X186937047Y-95798223D01*
X187015627Y-95866566D01*
X187130968Y-95913014D01*
X187259150Y-95924957D01*
X187297048Y-95919824D01*
X187382710Y-95910225D01*
X187404722Y-95934676D01*
X187398380Y-95957954D01*
X187391491Y-95991791D01*
X187407370Y-96025389D01*
X187458051Y-96068354D01*
X187555570Y-96130296D01*
X187711961Y-96220822D01*
X187766293Y-96251667D01*
X187873762Y-96318314D01*
X187938527Y-96369858D01*
X187948038Y-96390165D01*
X187905685Y-96377842D01*
X187801348Y-96330004D01*
X187646865Y-96252592D01*
X187454076Y-96151544D01*
X187234821Y-96032802D01*
X187224976Y-96027388D01*
X186926321Y-95865140D01*
X186694205Y-95744155D01*
X186522744Y-95661840D01*
X186406051Y-95615606D01*
X186338242Y-95602863D01*
X186313431Y-95621019D01*
X186313053Y-95626017D01*
X185843907Y-95626017D01*
X185951148Y-95576621D01*
X186016050Y-95540603D01*
X186097042Y-95515338D01*
X186210893Y-95498419D01*
X186374373Y-95487441D01*
X186604253Y-95479996D01*
X186628481Y-95479424D01*
X187180886Y-95466642D01*
X187646553Y-95733424D01*
G36*
X177514962Y-95680977D02*
X177726583Y-95705226D01*
X177933679Y-95743941D01*
X178118840Y-95796237D01*
X178146079Y-95806111D01*
X178352038Y-95906071D01*
X178547202Y-96040095D01*
X178706840Y-96188843D01*
X178797897Y-96315793D01*
X178837506Y-96403130D01*
X178897302Y-96547798D01*
X178968306Y-96727646D01*
X179023574Y-96872461D01*
X179214587Y-97341635D01*
X179407561Y-97739085D01*
X179595968Y-98053373D01*
X179657221Y-98130543D01*
X179769451Y-98259098D01*
X179924325Y-98429997D01*
X180113510Y-98634203D01*
X180328674Y-98862676D01*
X180561483Y-99106379D01*
X180678385Y-99227487D01*
X180910939Y-99468386D01*
X181125174Y-99691866D01*
X181313769Y-99890170D01*
X181469406Y-100055539D01*
X181584762Y-100180215D01*
X181652518Y-100256440D01*
X181667035Y-100275237D01*
X181673596Y-100305732D01*
X181642791Y-100324860D01*
X181561023Y-100335124D01*
X181414696Y-100339026D01*
X181318463Y-100339373D01*
X181084689Y-100347548D01*
X180897034Y-100370512D01*
X180789452Y-100399769D01*
X180644904Y-100460165D01*
X180594711Y-100308081D01*
X180512650Y-100148747D01*
X180379104Y-99979434D01*
X180218972Y-99826682D01*
X180057157Y-99717031D01*
X180026553Y-99702509D01*
X179871215Y-99648680D01*
X179699005Y-99607522D01*
X179661746Y-99601478D01*
X179580006Y-99585309D01*
X179502704Y-99555606D01*
X179416650Y-99503138D01*
X179308656Y-99418670D01*
X179165532Y-99292970D01*
X178988473Y-99130170D01*
X178726567Y-98896572D01*
X178499056Y-98718794D01*
X178287391Y-98586581D01*
X178073025Y-98489679D01*
X177837409Y-98417836D01*
X177613553Y-98370099D01*
X177413509Y-98324807D01*
X177218569Y-98266781D01*
X177063141Y-98206629D01*
X177030450Y-98190345D01*
X176823106Y-98049828D01*
X176630375Y-97867315D01*
X176464394Y-97659964D01*
X176337300Y-97444934D01*
X176261228Y-97239384D01*
X176246020Y-97081304D01*
X176258886Y-96919764D01*
X176703386Y-97199663D01*
X176940346Y-97343324D01*
X177124041Y-97436919D01*
X177268815Y-97481350D01*
X177389011Y-97477518D01*
X177498973Y-97426322D01*
X177613045Y-97328664D01*
X177677806Y-97260845D01*
X177828980Y-97063227D01*
X177942656Y-96848461D01*
X178006414Y-96642794D01*
X178015719Y-96546761D01*
X177996637Y-96473000D01*
X177933961Y-96391986D01*
X177819553Y-96297107D01*
X177645270Y-96181748D01*
X177402972Y-96039294D01*
X177364111Y-96017347D01*
X177201740Y-95921745D01*
X177072835Y-95837690D01*
X176991841Y-95775154D01*
X176971458Y-95746359D01*
X177027065Y-95703886D01*
X177147792Y-95679421D01*
X177316228Y-95672081D01*
X177514962Y-95680977D01*
X177514962Y-95680977D01*
G37*
X177514962Y-95680977D02*
X177726583Y-95705226D01*
X177933679Y-95743941D01*
X178118840Y-95796237D01*
X178146079Y-95806111D01*
X178352038Y-95906071D01*
X178547202Y-96040095D01*
X178706840Y-96188843D01*
X178797897Y-96315793D01*
X178837506Y-96403130D01*
X178897302Y-96547798D01*
X178968306Y-96727646D01*
X179023574Y-96872461D01*
X179214587Y-97341635D01*
X179407561Y-97739085D01*
X179595968Y-98053373D01*
X179657221Y-98130543D01*
X179769451Y-98259098D01*
X179924325Y-98429997D01*
X180113510Y-98634203D01*
X180328674Y-98862676D01*
X180561483Y-99106379D01*
X180678385Y-99227487D01*
X180910939Y-99468386D01*
X181125174Y-99691866D01*
X181313769Y-99890170D01*
X181469406Y-100055539D01*
X181584762Y-100180215D01*
X181652518Y-100256440D01*
X181667035Y-100275237D01*
X181673596Y-100305732D01*
X181642791Y-100324860D01*
X181561023Y-100335124D01*
X181414696Y-100339026D01*
X181318463Y-100339373D01*
X181084689Y-100347548D01*
X180897034Y-100370512D01*
X180789452Y-100399769D01*
X180644904Y-100460165D01*
X180594711Y-100308081D01*
X180512650Y-100148747D01*
X180379104Y-99979434D01*
X180218972Y-99826682D01*
X180057157Y-99717031D01*
X180026553Y-99702509D01*
X179871215Y-99648680D01*
X179699005Y-99607522D01*
X179661746Y-99601478D01*
X179580006Y-99585309D01*
X179502704Y-99555606D01*
X179416650Y-99503138D01*
X179308656Y-99418670D01*
X179165532Y-99292970D01*
X178988473Y-99130170D01*
X178726567Y-98896572D01*
X178499056Y-98718794D01*
X178287391Y-98586581D01*
X178073025Y-98489679D01*
X177837409Y-98417836D01*
X177613553Y-98370099D01*
X177413509Y-98324807D01*
X177218569Y-98266781D01*
X177063141Y-98206629D01*
X177030450Y-98190345D01*
X176823106Y-98049828D01*
X176630375Y-97867315D01*
X176464394Y-97659964D01*
X176337300Y-97444934D01*
X176261228Y-97239384D01*
X176246020Y-97081304D01*
X176258886Y-96919764D01*
X176703386Y-97199663D01*
X176940346Y-97343324D01*
X177124041Y-97436919D01*
X177268815Y-97481350D01*
X177389011Y-97477518D01*
X177498973Y-97426322D01*
X177613045Y-97328664D01*
X177677806Y-97260845D01*
X177828980Y-97063227D01*
X177942656Y-96848461D01*
X178006414Y-96642794D01*
X178015719Y-96546761D01*
X177996637Y-96473000D01*
X177933961Y-96391986D01*
X177819553Y-96297107D01*
X177645270Y-96181748D01*
X177402972Y-96039294D01*
X177364111Y-96017347D01*
X177201740Y-95921745D01*
X177072835Y-95837690D01*
X176991841Y-95775154D01*
X176971458Y-95746359D01*
X177027065Y-95703886D01*
X177147792Y-95679421D01*
X177316228Y-95672081D01*
X177514962Y-95680977D01*
D11*
X129507970Y-122364290D02*
X131285970Y-122364290D01*
X140429970Y-122364290D02*
X142207970Y-122364290D01*
X142207970Y-122364290D02*
X142207970Y-124142290D01*
X142207970Y-133286290D02*
X142207970Y-135064290D01*
X142207970Y-135064290D02*
X140429970Y-135064290D01*
X131285970Y-135064290D02*
X129507970Y-135064290D01*
X129507970Y-135064290D02*
X129507970Y-133286290D01*
X129507970Y-124142290D02*
X129507970Y-122364290D01*
X150939220Y-122364290D02*
X152717220Y-122364290D01*
X161861220Y-122364290D02*
X163639220Y-122364290D01*
X163639220Y-122364290D02*
X163639220Y-124142290D01*
X163639220Y-133286290D02*
X163639220Y-135064290D01*
X163639220Y-135064290D02*
X161861220Y-135064290D01*
X152717220Y-135064290D02*
X150939220Y-135064290D01*
X150939220Y-135064290D02*
X150939220Y-133286290D01*
X150939220Y-124142290D02*
X150939220Y-122364290D01*
X169989220Y-122364290D02*
X171767220Y-122364290D01*
X180911220Y-122364290D02*
X182689220Y-122364290D01*
X182689220Y-122364290D02*
X182689220Y-124142290D01*
X182689220Y-133286290D02*
X182689220Y-135064290D01*
X182689220Y-135064290D02*
X180911220Y-135064290D01*
X171767220Y-135064290D02*
X169989220Y-135064290D01*
X169989220Y-135064290D02*
X169989220Y-133286290D01*
X169989220Y-124142290D02*
X169989220Y-122364290D01*
X172370470Y-122364290D02*
X174148470Y-122364290D01*
X183292470Y-122364290D02*
X185070470Y-122364290D01*
X185070470Y-122364290D02*
X185070470Y-124142290D01*
X185070470Y-133286290D02*
X185070470Y-135064290D01*
X185070470Y-135064290D02*
X183292470Y-135064290D01*
X174148470Y-135064290D02*
X172370470Y-135064290D01*
X172370470Y-135064290D02*
X172370470Y-133286290D01*
X172370470Y-124142290D02*
X172370470Y-122364290D01*
X296065470Y-100818040D02*
X297843470Y-100818040D01*
X306987470Y-100818040D02*
X308765470Y-100818040D01*
X308765470Y-100818040D02*
X308765470Y-102596040D01*
X308765470Y-111740040D02*
X308765470Y-113518040D01*
X308765470Y-113518040D02*
X306987470Y-113518040D01*
X297843470Y-113518040D02*
X296065470Y-113518040D01*
X296065470Y-113518040D02*
X296065470Y-111740040D01*
X296065470Y-102596040D02*
X296065470Y-100818040D01*
X293684220Y-100818040D02*
X295462220Y-100818040D01*
X304606220Y-100818040D02*
X306384220Y-100818040D01*
X306384220Y-100818040D02*
X306384220Y-102596040D01*
X306384220Y-111740040D02*
X306384220Y-113518040D01*
X306384220Y-113518040D02*
X304606220Y-113518040D01*
X295462220Y-113518040D02*
X293684220Y-113518040D01*
X293684220Y-113518040D02*
X293684220Y-111740040D01*
X293684220Y-102596040D02*
X293684220Y-100818040D01*
D12*
X52869167Y-46749881D02*
X52869167Y-45749881D01*
X53202501Y-46464167D01*
X53535834Y-45749881D01*
X53535834Y-46749881D01*
X54012024Y-46749881D02*
X54012024Y-45749881D01*
X54012024Y-46226071D02*
X54583453Y-46226071D01*
X54583453Y-46749881D02*
X54583453Y-45749881D01*
X55012024Y-45845119D02*
X55059643Y-45797500D01*
X55154881Y-45749881D01*
X55392977Y-45749881D01*
X55488215Y-45797500D01*
X55535834Y-45845119D01*
X55583453Y-45940357D01*
X55583453Y-46035595D01*
X55535834Y-46178452D01*
X54964405Y-46749881D01*
X55583453Y-46749881D01*
X155819167Y-72024881D02*
X155819167Y-71024881D01*
X156152501Y-71739167D01*
X156485834Y-71024881D01*
X156485834Y-72024881D01*
X156962024Y-72024881D02*
X156962024Y-71024881D01*
X156962024Y-71501071D02*
X157533453Y-71501071D01*
X157533453Y-72024881D02*
X157533453Y-71024881D01*
X157914405Y-71024881D02*
X158581072Y-71024881D01*
X158152500Y-72024881D01*
X286776369Y-91648155D02*
X286776369Y-90848155D01*
X286966845Y-90848155D01*
X287081131Y-90886250D01*
X287157322Y-90962440D01*
X287195417Y-91038631D01*
X287233512Y-91191012D01*
X287233512Y-91305298D01*
X287195417Y-91457679D01*
X287157322Y-91533869D01*
X287081131Y-91610060D01*
X286966845Y-91648155D01*
X286776369Y-91648155D01*
X287995417Y-91648155D02*
X287538274Y-91648155D01*
X287766845Y-91648155D02*
X287766845Y-90848155D01*
X287690655Y-90962440D01*
X287614464Y-91038631D01*
X287538274Y-91076726D01*
X288681131Y-91114821D02*
X288681131Y-91648155D01*
X288490655Y-90810060D02*
X288300179Y-91381488D01*
X288795417Y-91381488D01*
X289481132Y-90848155D02*
X289100179Y-90848155D01*
X289062084Y-91229107D01*
X289100179Y-91191012D01*
X289176370Y-91152917D01*
X289366846Y-91152917D01*
X289443036Y-91191012D01*
X289481132Y-91229107D01*
X289519227Y-91305298D01*
X289519227Y-91495774D01*
X289481132Y-91571964D01*
X289443036Y-91610060D01*
X289366846Y-91648155D01*
X289176370Y-91648155D01*
X289100179Y-91610060D01*
X289062084Y-91571964D01*
X250735119Y-114499405D02*
X250735119Y-113699405D01*
X250925595Y-113699405D01*
X251039881Y-113737500D01*
X251116072Y-113813690D01*
X251154167Y-113889881D01*
X251192262Y-114042262D01*
X251192262Y-114156548D01*
X251154167Y-114308929D01*
X251116072Y-114385119D01*
X251039881Y-114461310D01*
X250925595Y-114499405D01*
X250735119Y-114499405D01*
X251954167Y-114499405D02*
X251497024Y-114499405D01*
X251725595Y-114499405D02*
X251725595Y-113699405D01*
X251649405Y-113813690D01*
X251573214Y-113889881D01*
X251497024Y-113927976D01*
X252639881Y-113966071D02*
X252639881Y-114499405D01*
X252449405Y-113661310D02*
X252258929Y-114232738D01*
X252754167Y-114232738D01*
X253401786Y-113966071D02*
X253401786Y-114499405D01*
X253211310Y-113661310D02*
X253020834Y-114232738D01*
X253516072Y-114232738D01*
X253275119Y-110699405D02*
X253275119Y-109899405D01*
X253465595Y-109899405D01*
X253579881Y-109937500D01*
X253656072Y-110013690D01*
X253694167Y-110089881D01*
X253732262Y-110242262D01*
X253732262Y-110356548D01*
X253694167Y-110508929D01*
X253656072Y-110585119D01*
X253579881Y-110661310D01*
X253465595Y-110699405D01*
X253275119Y-110699405D01*
X254494167Y-110699405D02*
X254037024Y-110699405D01*
X254265595Y-110699405D02*
X254265595Y-109899405D01*
X254189405Y-110013690D01*
X254113214Y-110089881D01*
X254037024Y-110127976D01*
X255179881Y-110166071D02*
X255179881Y-110699405D01*
X254989405Y-109861310D02*
X254798929Y-110432738D01*
X255294167Y-110432738D01*
X255522739Y-109899405D02*
X256017977Y-109899405D01*
X255751310Y-110204167D01*
X255865596Y-110204167D01*
X255941786Y-110242262D01*
X255979882Y-110280357D01*
X256017977Y-110356548D01*
X256017977Y-110547024D01*
X255979882Y-110623214D01*
X255941786Y-110661310D01*
X255865596Y-110699405D01*
X255637024Y-110699405D01*
X255560834Y-110661310D01*
X255522739Y-110623214D01*
X229626369Y-114498155D02*
X229626369Y-113698155D01*
X229816845Y-113698155D01*
X229931131Y-113736250D01*
X230007322Y-113812440D01*
X230045417Y-113888631D01*
X230083512Y-114041012D01*
X230083512Y-114155298D01*
X230045417Y-114307679D01*
X230007322Y-114383869D01*
X229931131Y-114460060D01*
X229816845Y-114498155D01*
X229626369Y-114498155D01*
X230845417Y-114498155D02*
X230388274Y-114498155D01*
X230616845Y-114498155D02*
X230616845Y-113698155D01*
X230540655Y-113812440D01*
X230464464Y-113888631D01*
X230388274Y-113926726D01*
X231531131Y-113964821D02*
X231531131Y-114498155D01*
X231340655Y-113660060D02*
X231150179Y-114231488D01*
X231645417Y-114231488D01*
X231912084Y-113774345D02*
X231950179Y-113736250D01*
X232026370Y-113698155D01*
X232216846Y-113698155D01*
X232293036Y-113736250D01*
X232331132Y-113774345D01*
X232369227Y-113850536D01*
X232369227Y-113926726D01*
X232331132Y-114041012D01*
X231873989Y-114498155D01*
X232369227Y-114498155D01*
X232006369Y-110698155D02*
X232006369Y-109898155D01*
X232196845Y-109898155D01*
X232311131Y-109936250D01*
X232387322Y-110012440D01*
X232425417Y-110088631D01*
X232463512Y-110241012D01*
X232463512Y-110355298D01*
X232425417Y-110507679D01*
X232387322Y-110583869D01*
X232311131Y-110660060D01*
X232196845Y-110698155D01*
X232006369Y-110698155D01*
X233225417Y-110698155D02*
X232768274Y-110698155D01*
X232996845Y-110698155D02*
X232996845Y-109898155D01*
X232920655Y-110012440D01*
X232844464Y-110088631D01*
X232768274Y-110126726D01*
X233911131Y-110164821D02*
X233911131Y-110698155D01*
X233720655Y-109860060D02*
X233530179Y-110431488D01*
X234025417Y-110431488D01*
X234749227Y-110698155D02*
X234292084Y-110698155D01*
X234520655Y-110698155D02*
X234520655Y-109898155D01*
X234444465Y-110012440D01*
X234368274Y-110088631D01*
X234292084Y-110126726D01*
X255815119Y-114499405D02*
X255815119Y-113699405D01*
X256005595Y-113699405D01*
X256119881Y-113737500D01*
X256196072Y-113813690D01*
X256234167Y-113889881D01*
X256272262Y-114042262D01*
X256272262Y-114156548D01*
X256234167Y-114308929D01*
X256196072Y-114385119D01*
X256119881Y-114461310D01*
X256005595Y-114499405D01*
X255815119Y-114499405D01*
X257034167Y-114499405D02*
X256577024Y-114499405D01*
X256805595Y-114499405D02*
X256805595Y-113699405D01*
X256729405Y-113813690D01*
X256653214Y-113889881D01*
X256577024Y-113927976D01*
X257719881Y-113966071D02*
X257719881Y-114499405D01*
X257529405Y-113661310D02*
X257338929Y-114232738D01*
X257834167Y-114232738D01*
X258291310Y-113699405D02*
X258367501Y-113699405D01*
X258443691Y-113737500D01*
X258481786Y-113775595D01*
X258519882Y-113851786D01*
X258557977Y-114004167D01*
X258557977Y-114194643D01*
X258519882Y-114347024D01*
X258481786Y-114423214D01*
X258443691Y-114461310D01*
X258367501Y-114499405D01*
X258291310Y-114499405D01*
X258215120Y-114461310D01*
X258177024Y-114423214D01*
X258138929Y-114347024D01*
X258100834Y-114194643D01*
X258100834Y-114004167D01*
X258138929Y-113851786D01*
X258177024Y-113775595D01*
X258215120Y-113737500D01*
X258291310Y-113699405D01*
X291538869Y-72598155D02*
X291538869Y-71798155D01*
X291729345Y-71798155D01*
X291843631Y-71836250D01*
X291919822Y-71912440D01*
X291957917Y-71988631D01*
X291996012Y-72141012D01*
X291996012Y-72255298D01*
X291957917Y-72407679D01*
X291919822Y-72483869D01*
X291843631Y-72560060D01*
X291729345Y-72598155D01*
X291538869Y-72598155D01*
X292757917Y-72598155D02*
X292300774Y-72598155D01*
X292529345Y-72598155D02*
X292529345Y-71798155D01*
X292453155Y-71912440D01*
X292376964Y-71988631D01*
X292300774Y-72026726D01*
X293024584Y-71798155D02*
X293519822Y-71798155D01*
X293253155Y-72102917D01*
X293367441Y-72102917D01*
X293443631Y-72141012D01*
X293481727Y-72179107D01*
X293519822Y-72255298D01*
X293519822Y-72445774D01*
X293481727Y-72521964D01*
X293443631Y-72560060D01*
X293367441Y-72598155D01*
X293138869Y-72598155D01*
X293062679Y-72560060D01*
X293024584Y-72521964D01*
X293900774Y-72598155D02*
X294053155Y-72598155D01*
X294129346Y-72560060D01*
X294167441Y-72521964D01*
X294243632Y-72407679D01*
X294281727Y-72255298D01*
X294281727Y-71950536D01*
X294243632Y-71874345D01*
X294205536Y-71836250D01*
X294129346Y-71798155D01*
X293976965Y-71798155D01*
X293900774Y-71836250D01*
X293862679Y-71874345D01*
X293824584Y-71950536D01*
X293824584Y-72141012D01*
X293862679Y-72217202D01*
X293900774Y-72255298D01*
X293976965Y-72293393D01*
X294129346Y-72293393D01*
X294205536Y-72255298D01*
X294243632Y-72217202D01*
X294281727Y-72141012D01*
X246297619Y-34498155D02*
X246297619Y-33698155D01*
X246488095Y-33698155D01*
X246602381Y-33736250D01*
X246678572Y-33812440D01*
X246716667Y-33888631D01*
X246754762Y-34041012D01*
X246754762Y-34155298D01*
X246716667Y-34307679D01*
X246678572Y-34383869D01*
X246602381Y-34460060D01*
X246488095Y-34498155D01*
X246297619Y-34498155D01*
X247516667Y-34498155D02*
X247059524Y-34498155D01*
X247288095Y-34498155D02*
X247288095Y-33698155D01*
X247211905Y-33812440D01*
X247135714Y-33888631D01*
X247059524Y-33926726D01*
X247783334Y-33698155D02*
X248278572Y-33698155D01*
X248011905Y-34002917D01*
X248126191Y-34002917D01*
X248202381Y-34041012D01*
X248240477Y-34079107D01*
X248278572Y-34155298D01*
X248278572Y-34345774D01*
X248240477Y-34421964D01*
X248202381Y-34460060D01*
X248126191Y-34498155D01*
X247897619Y-34498155D01*
X247821429Y-34460060D01*
X247783334Y-34421964D01*
X248735715Y-34041012D02*
X248659524Y-34002917D01*
X248621429Y-33964821D01*
X248583334Y-33888631D01*
X248583334Y-33850536D01*
X248621429Y-33774345D01*
X248659524Y-33736250D01*
X248735715Y-33698155D01*
X248888096Y-33698155D01*
X248964286Y-33736250D01*
X249002382Y-33774345D01*
X249040477Y-33850536D01*
X249040477Y-33888631D01*
X249002382Y-33964821D01*
X248964286Y-34002917D01*
X248888096Y-34041012D01*
X248735715Y-34041012D01*
X248659524Y-34079107D01*
X248621429Y-34117202D01*
X248583334Y-34193393D01*
X248583334Y-34345774D01*
X248621429Y-34421964D01*
X248659524Y-34460060D01*
X248735715Y-34498155D01*
X248888096Y-34498155D01*
X248964286Y-34460060D01*
X249002382Y-34421964D01*
X249040477Y-34345774D01*
X249040477Y-34193393D01*
X249002382Y-34117202D01*
X248964286Y-34079107D01*
X248888096Y-34041012D01*
X296118155Y-60883631D02*
X295318155Y-60883631D01*
X295318155Y-60693155D01*
X295356250Y-60578869D01*
X295432440Y-60502678D01*
X295508631Y-60464583D01*
X295661012Y-60426488D01*
X295775298Y-60426488D01*
X295927679Y-60464583D01*
X296003869Y-60502678D01*
X296080060Y-60578869D01*
X296118155Y-60693155D01*
X296118155Y-60883631D01*
X296118155Y-59664583D02*
X296118155Y-60121726D01*
X296118155Y-59893155D02*
X295318155Y-59893155D01*
X295432440Y-59969345D01*
X295508631Y-60045536D01*
X295546726Y-60121726D01*
X295318155Y-59397916D02*
X295318155Y-58902678D01*
X295622917Y-59169345D01*
X295622917Y-59055059D01*
X295661012Y-58978869D01*
X295699107Y-58940773D01*
X295775298Y-58902678D01*
X295965774Y-58902678D01*
X296041964Y-58940773D01*
X296080060Y-58978869D01*
X296118155Y-59055059D01*
X296118155Y-59283631D01*
X296080060Y-59359821D01*
X296041964Y-59397916D01*
X295318155Y-58636011D02*
X295318155Y-58102678D01*
X296118155Y-58445535D01*
X298685119Y-57349405D02*
X298685119Y-56549405D01*
X298875595Y-56549405D01*
X298989881Y-56587500D01*
X299066072Y-56663690D01*
X299104167Y-56739881D01*
X299142262Y-56892262D01*
X299142262Y-57006548D01*
X299104167Y-57158929D01*
X299066072Y-57235119D01*
X298989881Y-57311310D01*
X298875595Y-57349405D01*
X298685119Y-57349405D01*
X299904167Y-57349405D02*
X299447024Y-57349405D01*
X299675595Y-57349405D02*
X299675595Y-56549405D01*
X299599405Y-56663690D01*
X299523214Y-56739881D01*
X299447024Y-56777976D01*
X300170834Y-56549405D02*
X300666072Y-56549405D01*
X300399405Y-56854167D01*
X300513691Y-56854167D01*
X300589881Y-56892262D01*
X300627977Y-56930357D01*
X300666072Y-57006548D01*
X300666072Y-57197024D01*
X300627977Y-57273214D01*
X300589881Y-57311310D01*
X300513691Y-57349405D01*
X300285119Y-57349405D01*
X300208929Y-57311310D01*
X300170834Y-57273214D01*
X301351786Y-56549405D02*
X301199405Y-56549405D01*
X301123215Y-56587500D01*
X301085120Y-56625595D01*
X301008929Y-56739881D01*
X300970834Y-56892262D01*
X300970834Y-57197024D01*
X301008929Y-57273214D01*
X301047024Y-57311310D01*
X301123215Y-57349405D01*
X301275596Y-57349405D01*
X301351786Y-57311310D01*
X301389882Y-57273214D01*
X301427977Y-57197024D01*
X301427977Y-57006548D01*
X301389882Y-56930357D01*
X301351786Y-56892262D01*
X301275596Y-56854167D01*
X301123215Y-56854167D01*
X301047024Y-56892262D01*
X301008929Y-56930357D01*
X300970834Y-57006548D01*
X274872619Y-53548155D02*
X274872619Y-52748155D01*
X275063095Y-52748155D01*
X275177381Y-52786250D01*
X275253572Y-52862440D01*
X275291667Y-52938631D01*
X275329762Y-53091012D01*
X275329762Y-53205298D01*
X275291667Y-53357679D01*
X275253572Y-53433869D01*
X275177381Y-53510060D01*
X275063095Y-53548155D01*
X274872619Y-53548155D01*
X276091667Y-53548155D02*
X275634524Y-53548155D01*
X275863095Y-53548155D02*
X275863095Y-52748155D01*
X275786905Y-52862440D01*
X275710714Y-52938631D01*
X275634524Y-52976726D01*
X276358334Y-52748155D02*
X276853572Y-52748155D01*
X276586905Y-53052917D01*
X276701191Y-53052917D01*
X276777381Y-53091012D01*
X276815477Y-53129107D01*
X276853572Y-53205298D01*
X276853572Y-53395774D01*
X276815477Y-53471964D01*
X276777381Y-53510060D01*
X276701191Y-53548155D01*
X276472619Y-53548155D01*
X276396429Y-53510060D01*
X276358334Y-53471964D01*
X277577382Y-52748155D02*
X277196429Y-52748155D01*
X277158334Y-53129107D01*
X277196429Y-53091012D01*
X277272620Y-53052917D01*
X277463096Y-53052917D01*
X277539286Y-53091012D01*
X277577382Y-53129107D01*
X277615477Y-53205298D01*
X277615477Y-53395774D01*
X277577382Y-53471964D01*
X277539286Y-53510060D01*
X277463096Y-53548155D01*
X277272620Y-53548155D01*
X277196429Y-53510060D01*
X277158334Y-53471964D01*
X255822619Y-53548155D02*
X255822619Y-52748155D01*
X256013095Y-52748155D01*
X256127381Y-52786250D01*
X256203572Y-52862440D01*
X256241667Y-52938631D01*
X256279762Y-53091012D01*
X256279762Y-53205298D01*
X256241667Y-53357679D01*
X256203572Y-53433869D01*
X256127381Y-53510060D01*
X256013095Y-53548155D01*
X255822619Y-53548155D01*
X257041667Y-53548155D02*
X256584524Y-53548155D01*
X256813095Y-53548155D02*
X256813095Y-52748155D01*
X256736905Y-52862440D01*
X256660714Y-52938631D01*
X256584524Y-52976726D01*
X257308334Y-52748155D02*
X257803572Y-52748155D01*
X257536905Y-53052917D01*
X257651191Y-53052917D01*
X257727381Y-53091012D01*
X257765477Y-53129107D01*
X257803572Y-53205298D01*
X257803572Y-53395774D01*
X257765477Y-53471964D01*
X257727381Y-53510060D01*
X257651191Y-53548155D01*
X257422619Y-53548155D01*
X257346429Y-53510060D01*
X257308334Y-53471964D01*
X258489286Y-53014821D02*
X258489286Y-53548155D01*
X258298810Y-52710060D02*
X258108334Y-53281488D01*
X258603572Y-53281488D01*
X236772619Y-53548155D02*
X236772619Y-52748155D01*
X236963095Y-52748155D01*
X237077381Y-52786250D01*
X237153572Y-52862440D01*
X237191667Y-52938631D01*
X237229762Y-53091012D01*
X237229762Y-53205298D01*
X237191667Y-53357679D01*
X237153572Y-53433869D01*
X237077381Y-53510060D01*
X236963095Y-53548155D01*
X236772619Y-53548155D01*
X237991667Y-53548155D02*
X237534524Y-53548155D01*
X237763095Y-53548155D02*
X237763095Y-52748155D01*
X237686905Y-52862440D01*
X237610714Y-52938631D01*
X237534524Y-52976726D01*
X238258334Y-52748155D02*
X238753572Y-52748155D01*
X238486905Y-53052917D01*
X238601191Y-53052917D01*
X238677381Y-53091012D01*
X238715477Y-53129107D01*
X238753572Y-53205298D01*
X238753572Y-53395774D01*
X238715477Y-53471964D01*
X238677381Y-53510060D01*
X238601191Y-53548155D01*
X238372619Y-53548155D01*
X238296429Y-53510060D01*
X238258334Y-53471964D01*
X239020239Y-52748155D02*
X239515477Y-52748155D01*
X239248810Y-53052917D01*
X239363096Y-53052917D01*
X239439286Y-53091012D01*
X239477382Y-53129107D01*
X239515477Y-53205298D01*
X239515477Y-53395774D01*
X239477382Y-53471964D01*
X239439286Y-53510060D01*
X239363096Y-53548155D01*
X239134524Y-53548155D01*
X239058334Y-53510060D01*
X239020239Y-53471964D01*
X217722619Y-53548155D02*
X217722619Y-52748155D01*
X217913095Y-52748155D01*
X218027381Y-52786250D01*
X218103572Y-52862440D01*
X218141667Y-52938631D01*
X218179762Y-53091012D01*
X218179762Y-53205298D01*
X218141667Y-53357679D01*
X218103572Y-53433869D01*
X218027381Y-53510060D01*
X217913095Y-53548155D01*
X217722619Y-53548155D01*
X218941667Y-53548155D02*
X218484524Y-53548155D01*
X218713095Y-53548155D02*
X218713095Y-52748155D01*
X218636905Y-52862440D01*
X218560714Y-52938631D01*
X218484524Y-52976726D01*
X219208334Y-52748155D02*
X219703572Y-52748155D01*
X219436905Y-53052917D01*
X219551191Y-53052917D01*
X219627381Y-53091012D01*
X219665477Y-53129107D01*
X219703572Y-53205298D01*
X219703572Y-53395774D01*
X219665477Y-53471964D01*
X219627381Y-53510060D01*
X219551191Y-53548155D01*
X219322619Y-53548155D01*
X219246429Y-53510060D01*
X219208334Y-53471964D01*
X220008334Y-52824345D02*
X220046429Y-52786250D01*
X220122620Y-52748155D01*
X220313096Y-52748155D01*
X220389286Y-52786250D01*
X220427382Y-52824345D01*
X220465477Y-52900536D01*
X220465477Y-52976726D01*
X220427382Y-53091012D01*
X219970239Y-53548155D01*
X220465477Y-53548155D01*
X303447619Y-34498155D02*
X303447619Y-33698155D01*
X303638095Y-33698155D01*
X303752381Y-33736250D01*
X303828572Y-33812440D01*
X303866667Y-33888631D01*
X303904762Y-34041012D01*
X303904762Y-34155298D01*
X303866667Y-34307679D01*
X303828572Y-34383869D01*
X303752381Y-34460060D01*
X303638095Y-34498155D01*
X303447619Y-34498155D01*
X304666667Y-34498155D02*
X304209524Y-34498155D01*
X304438095Y-34498155D02*
X304438095Y-33698155D01*
X304361905Y-33812440D01*
X304285714Y-33888631D01*
X304209524Y-33926726D01*
X304933334Y-33698155D02*
X305428572Y-33698155D01*
X305161905Y-34002917D01*
X305276191Y-34002917D01*
X305352381Y-34041012D01*
X305390477Y-34079107D01*
X305428572Y-34155298D01*
X305428572Y-34345774D01*
X305390477Y-34421964D01*
X305352381Y-34460060D01*
X305276191Y-34498155D01*
X305047619Y-34498155D01*
X304971429Y-34460060D01*
X304933334Y-34421964D01*
X306190477Y-34498155D02*
X305733334Y-34498155D01*
X305961905Y-34498155D02*
X305961905Y-33698155D01*
X305885715Y-33812440D01*
X305809524Y-33888631D01*
X305733334Y-33926726D01*
X93897619Y-34498155D02*
X93897619Y-33698155D01*
X94088095Y-33698155D01*
X94202381Y-33736250D01*
X94278572Y-33812440D01*
X94316667Y-33888631D01*
X94354762Y-34041012D01*
X94354762Y-34155298D01*
X94316667Y-34307679D01*
X94278572Y-34383869D01*
X94202381Y-34460060D01*
X94088095Y-34498155D01*
X93897619Y-34498155D01*
X95116667Y-34498155D02*
X94659524Y-34498155D01*
X94888095Y-34498155D02*
X94888095Y-33698155D01*
X94811905Y-33812440D01*
X94735714Y-33888631D01*
X94659524Y-33926726D01*
X95383334Y-33698155D02*
X95878572Y-33698155D01*
X95611905Y-34002917D01*
X95726191Y-34002917D01*
X95802381Y-34041012D01*
X95840477Y-34079107D01*
X95878572Y-34155298D01*
X95878572Y-34345774D01*
X95840477Y-34421964D01*
X95802381Y-34460060D01*
X95726191Y-34498155D01*
X95497619Y-34498155D01*
X95421429Y-34460060D01*
X95383334Y-34421964D01*
X96373810Y-33698155D02*
X96450001Y-33698155D01*
X96526191Y-33736250D01*
X96564286Y-33774345D01*
X96602382Y-33850536D01*
X96640477Y-34002917D01*
X96640477Y-34193393D01*
X96602382Y-34345774D01*
X96564286Y-34421964D01*
X96526191Y-34460060D01*
X96450001Y-34498155D01*
X96373810Y-34498155D01*
X96297620Y-34460060D01*
X96259524Y-34421964D01*
X96221429Y-34345774D01*
X96183334Y-34193393D01*
X96183334Y-34002917D01*
X96221429Y-33850536D01*
X96259524Y-33774345D01*
X96297620Y-33736250D01*
X96373810Y-33698155D01*
X55797619Y-34498155D02*
X55797619Y-33698155D01*
X55988095Y-33698155D01*
X56102381Y-33736250D01*
X56178572Y-33812440D01*
X56216667Y-33888631D01*
X56254762Y-34041012D01*
X56254762Y-34155298D01*
X56216667Y-34307679D01*
X56178572Y-34383869D01*
X56102381Y-34460060D01*
X55988095Y-34498155D01*
X55797619Y-34498155D01*
X57016667Y-34498155D02*
X56559524Y-34498155D01*
X56788095Y-34498155D02*
X56788095Y-33698155D01*
X56711905Y-33812440D01*
X56635714Y-33888631D01*
X56559524Y-33926726D01*
X57321429Y-33774345D02*
X57359524Y-33736250D01*
X57435715Y-33698155D01*
X57626191Y-33698155D01*
X57702381Y-33736250D01*
X57740477Y-33774345D01*
X57778572Y-33850536D01*
X57778572Y-33926726D01*
X57740477Y-34041012D01*
X57283334Y-34498155D01*
X57778572Y-34498155D01*
X58159524Y-34498155D02*
X58311905Y-34498155D01*
X58388096Y-34460060D01*
X58426191Y-34421964D01*
X58502382Y-34307679D01*
X58540477Y-34155298D01*
X58540477Y-33850536D01*
X58502382Y-33774345D01*
X58464286Y-33736250D01*
X58388096Y-33698155D01*
X58235715Y-33698155D01*
X58159524Y-33736250D01*
X58121429Y-33774345D01*
X58083334Y-33850536D01*
X58083334Y-34041012D01*
X58121429Y-34117202D01*
X58159524Y-34155298D01*
X58235715Y-34193393D01*
X58388096Y-34193393D01*
X58464286Y-34155298D01*
X58502382Y-34117202D01*
X58540477Y-34041012D01*
X294557619Y-34498155D02*
X294557619Y-33698155D01*
X294748095Y-33698155D01*
X294862381Y-33736250D01*
X294938572Y-33812440D01*
X294976667Y-33888631D01*
X295014762Y-34041012D01*
X295014762Y-34155298D01*
X294976667Y-34307679D01*
X294938572Y-34383869D01*
X294862381Y-34460060D01*
X294748095Y-34498155D01*
X294557619Y-34498155D01*
X295776667Y-34498155D02*
X295319524Y-34498155D01*
X295548095Y-34498155D02*
X295548095Y-33698155D01*
X295471905Y-33812440D01*
X295395714Y-33888631D01*
X295319524Y-33926726D01*
X296081429Y-33774345D02*
X296119524Y-33736250D01*
X296195715Y-33698155D01*
X296386191Y-33698155D01*
X296462381Y-33736250D01*
X296500477Y-33774345D01*
X296538572Y-33850536D01*
X296538572Y-33926726D01*
X296500477Y-34041012D01*
X296043334Y-34498155D01*
X296538572Y-34498155D01*
X296995715Y-34041012D02*
X296919524Y-34002917D01*
X296881429Y-33964821D01*
X296843334Y-33888631D01*
X296843334Y-33850536D01*
X296881429Y-33774345D01*
X296919524Y-33736250D01*
X296995715Y-33698155D01*
X297148096Y-33698155D01*
X297224286Y-33736250D01*
X297262382Y-33774345D01*
X297300477Y-33850536D01*
X297300477Y-33888631D01*
X297262382Y-33964821D01*
X297224286Y-34002917D01*
X297148096Y-34041012D01*
X296995715Y-34041012D01*
X296919524Y-34079107D01*
X296881429Y-34117202D01*
X296843334Y-34193393D01*
X296843334Y-34345774D01*
X296881429Y-34421964D01*
X296919524Y-34460060D01*
X296995715Y-34498155D01*
X297148096Y-34498155D01*
X297224286Y-34460060D01*
X297262382Y-34421964D01*
X297300477Y-34345774D01*
X297300477Y-34193393D01*
X297262382Y-34117202D01*
X297224286Y-34079107D01*
X297148096Y-34041012D01*
X284397619Y-34498155D02*
X284397619Y-33698155D01*
X284588095Y-33698155D01*
X284702381Y-33736250D01*
X284778572Y-33812440D01*
X284816667Y-33888631D01*
X284854762Y-34041012D01*
X284854762Y-34155298D01*
X284816667Y-34307679D01*
X284778572Y-34383869D01*
X284702381Y-34460060D01*
X284588095Y-34498155D01*
X284397619Y-34498155D01*
X285616667Y-34498155D02*
X285159524Y-34498155D01*
X285388095Y-34498155D02*
X285388095Y-33698155D01*
X285311905Y-33812440D01*
X285235714Y-33888631D01*
X285159524Y-33926726D01*
X285921429Y-33774345D02*
X285959524Y-33736250D01*
X286035715Y-33698155D01*
X286226191Y-33698155D01*
X286302381Y-33736250D01*
X286340477Y-33774345D01*
X286378572Y-33850536D01*
X286378572Y-33926726D01*
X286340477Y-34041012D01*
X285883334Y-34498155D01*
X286378572Y-34498155D01*
X286645239Y-33698155D02*
X287178572Y-33698155D01*
X286835715Y-34498155D01*
X265347619Y-34498155D02*
X265347619Y-33698155D01*
X265538095Y-33698155D01*
X265652381Y-33736250D01*
X265728572Y-33812440D01*
X265766667Y-33888631D01*
X265804762Y-34041012D01*
X265804762Y-34155298D01*
X265766667Y-34307679D01*
X265728572Y-34383869D01*
X265652381Y-34460060D01*
X265538095Y-34498155D01*
X265347619Y-34498155D01*
X266566667Y-34498155D02*
X266109524Y-34498155D01*
X266338095Y-34498155D02*
X266338095Y-33698155D01*
X266261905Y-33812440D01*
X266185714Y-33888631D01*
X266109524Y-33926726D01*
X266871429Y-33774345D02*
X266909524Y-33736250D01*
X266985715Y-33698155D01*
X267176191Y-33698155D01*
X267252381Y-33736250D01*
X267290477Y-33774345D01*
X267328572Y-33850536D01*
X267328572Y-33926726D01*
X267290477Y-34041012D01*
X266833334Y-34498155D01*
X267328572Y-34498155D01*
X268014286Y-33698155D02*
X267861905Y-33698155D01*
X267785715Y-33736250D01*
X267747620Y-33774345D01*
X267671429Y-33888631D01*
X267633334Y-34041012D01*
X267633334Y-34345774D01*
X267671429Y-34421964D01*
X267709524Y-34460060D01*
X267785715Y-34498155D01*
X267938096Y-34498155D01*
X268014286Y-34460060D01*
X268052382Y-34421964D01*
X268090477Y-34345774D01*
X268090477Y-34155298D01*
X268052382Y-34079107D01*
X268014286Y-34041012D01*
X267938096Y-34002917D01*
X267785715Y-34002917D01*
X267709524Y-34041012D01*
X267671429Y-34079107D01*
X267633334Y-34155298D01*
X131997619Y-34498155D02*
X131997619Y-33698155D01*
X132188095Y-33698155D01*
X132302381Y-33736250D01*
X132378572Y-33812440D01*
X132416667Y-33888631D01*
X132454762Y-34041012D01*
X132454762Y-34155298D01*
X132416667Y-34307679D01*
X132378572Y-34383869D01*
X132302381Y-34460060D01*
X132188095Y-34498155D01*
X131997619Y-34498155D01*
X133216667Y-34498155D02*
X132759524Y-34498155D01*
X132988095Y-34498155D02*
X132988095Y-33698155D01*
X132911905Y-33812440D01*
X132835714Y-33888631D01*
X132759524Y-33926726D01*
X133521429Y-33774345D02*
X133559524Y-33736250D01*
X133635715Y-33698155D01*
X133826191Y-33698155D01*
X133902381Y-33736250D01*
X133940477Y-33774345D01*
X133978572Y-33850536D01*
X133978572Y-33926726D01*
X133940477Y-34041012D01*
X133483334Y-34498155D01*
X133978572Y-34498155D01*
X134702382Y-33698155D02*
X134321429Y-33698155D01*
X134283334Y-34079107D01*
X134321429Y-34041012D01*
X134397620Y-34002917D01*
X134588096Y-34002917D01*
X134664286Y-34041012D01*
X134702382Y-34079107D01*
X134740477Y-34155298D01*
X134740477Y-34345774D01*
X134702382Y-34421964D01*
X134664286Y-34460060D01*
X134588096Y-34498155D01*
X134397620Y-34498155D01*
X134321429Y-34460060D01*
X134283334Y-34421964D01*
X227247619Y-34498155D02*
X227247619Y-33698155D01*
X227438095Y-33698155D01*
X227552381Y-33736250D01*
X227628572Y-33812440D01*
X227666667Y-33888631D01*
X227704762Y-34041012D01*
X227704762Y-34155298D01*
X227666667Y-34307679D01*
X227628572Y-34383869D01*
X227552381Y-34460060D01*
X227438095Y-34498155D01*
X227247619Y-34498155D01*
X228466667Y-34498155D02*
X228009524Y-34498155D01*
X228238095Y-34498155D02*
X228238095Y-33698155D01*
X228161905Y-33812440D01*
X228085714Y-33888631D01*
X228009524Y-33926726D01*
X228771429Y-33774345D02*
X228809524Y-33736250D01*
X228885715Y-33698155D01*
X229076191Y-33698155D01*
X229152381Y-33736250D01*
X229190477Y-33774345D01*
X229228572Y-33850536D01*
X229228572Y-33926726D01*
X229190477Y-34041012D01*
X228733334Y-34498155D01*
X229228572Y-34498155D01*
X229914286Y-33964821D02*
X229914286Y-34498155D01*
X229723810Y-33660060D02*
X229533334Y-34231488D01*
X230028572Y-34231488D01*
X198672619Y-53548155D02*
X198672619Y-52748155D01*
X198863095Y-52748155D01*
X198977381Y-52786250D01*
X199053572Y-52862440D01*
X199091667Y-52938631D01*
X199129762Y-53091012D01*
X199129762Y-53205298D01*
X199091667Y-53357679D01*
X199053572Y-53433869D01*
X198977381Y-53510060D01*
X198863095Y-53548155D01*
X198672619Y-53548155D01*
X199891667Y-53548155D02*
X199434524Y-53548155D01*
X199663095Y-53548155D02*
X199663095Y-52748155D01*
X199586905Y-52862440D01*
X199510714Y-52938631D01*
X199434524Y-52976726D01*
X200196429Y-52824345D02*
X200234524Y-52786250D01*
X200310715Y-52748155D01*
X200501191Y-52748155D01*
X200577381Y-52786250D01*
X200615477Y-52824345D01*
X200653572Y-52900536D01*
X200653572Y-52976726D01*
X200615477Y-53091012D01*
X200158334Y-53548155D01*
X200653572Y-53548155D01*
X200920239Y-52748155D02*
X201415477Y-52748155D01*
X201148810Y-53052917D01*
X201263096Y-53052917D01*
X201339286Y-53091012D01*
X201377382Y-53129107D01*
X201415477Y-53205298D01*
X201415477Y-53395774D01*
X201377382Y-53471964D01*
X201339286Y-53510060D01*
X201263096Y-53548155D01*
X201034524Y-53548155D01*
X200958334Y-53510060D01*
X200920239Y-53471964D01*
X208197619Y-34498155D02*
X208197619Y-33698155D01*
X208388095Y-33698155D01*
X208502381Y-33736250D01*
X208578572Y-33812440D01*
X208616667Y-33888631D01*
X208654762Y-34041012D01*
X208654762Y-34155298D01*
X208616667Y-34307679D01*
X208578572Y-34383869D01*
X208502381Y-34460060D01*
X208388095Y-34498155D01*
X208197619Y-34498155D01*
X209416667Y-34498155D02*
X208959524Y-34498155D01*
X209188095Y-34498155D02*
X209188095Y-33698155D01*
X209111905Y-33812440D01*
X209035714Y-33888631D01*
X208959524Y-33926726D01*
X209721429Y-33774345D02*
X209759524Y-33736250D01*
X209835715Y-33698155D01*
X210026191Y-33698155D01*
X210102381Y-33736250D01*
X210140477Y-33774345D01*
X210178572Y-33850536D01*
X210178572Y-33926726D01*
X210140477Y-34041012D01*
X209683334Y-34498155D01*
X210178572Y-34498155D01*
X210483334Y-33774345D02*
X210521429Y-33736250D01*
X210597620Y-33698155D01*
X210788096Y-33698155D01*
X210864286Y-33736250D01*
X210902382Y-33774345D01*
X210940477Y-33850536D01*
X210940477Y-33926726D01*
X210902382Y-34041012D01*
X210445239Y-34498155D01*
X210940477Y-34498155D01*
X189147619Y-34498155D02*
X189147619Y-33698155D01*
X189338095Y-33698155D01*
X189452381Y-33736250D01*
X189528572Y-33812440D01*
X189566667Y-33888631D01*
X189604762Y-34041012D01*
X189604762Y-34155298D01*
X189566667Y-34307679D01*
X189528572Y-34383869D01*
X189452381Y-34460060D01*
X189338095Y-34498155D01*
X189147619Y-34498155D01*
X190366667Y-34498155D02*
X189909524Y-34498155D01*
X190138095Y-34498155D02*
X190138095Y-33698155D01*
X190061905Y-33812440D01*
X189985714Y-33888631D01*
X189909524Y-33926726D01*
X190671429Y-33774345D02*
X190709524Y-33736250D01*
X190785715Y-33698155D01*
X190976191Y-33698155D01*
X191052381Y-33736250D01*
X191090477Y-33774345D01*
X191128572Y-33850536D01*
X191128572Y-33926726D01*
X191090477Y-34041012D01*
X190633334Y-34498155D01*
X191128572Y-34498155D01*
X191890477Y-34498155D02*
X191433334Y-34498155D01*
X191661905Y-34498155D02*
X191661905Y-33698155D01*
X191585715Y-33812440D01*
X191509524Y-33888631D01*
X191433334Y-33926726D01*
X179622619Y-53548155D02*
X179622619Y-52748155D01*
X179813095Y-52748155D01*
X179927381Y-52786250D01*
X180003572Y-52862440D01*
X180041667Y-52938631D01*
X180079762Y-53091012D01*
X180079762Y-53205298D01*
X180041667Y-53357679D01*
X180003572Y-53433869D01*
X179927381Y-53510060D01*
X179813095Y-53548155D01*
X179622619Y-53548155D01*
X180841667Y-53548155D02*
X180384524Y-53548155D01*
X180613095Y-53548155D02*
X180613095Y-52748155D01*
X180536905Y-52862440D01*
X180460714Y-52938631D01*
X180384524Y-52976726D01*
X181146429Y-52824345D02*
X181184524Y-52786250D01*
X181260715Y-52748155D01*
X181451191Y-52748155D01*
X181527381Y-52786250D01*
X181565477Y-52824345D01*
X181603572Y-52900536D01*
X181603572Y-52976726D01*
X181565477Y-53091012D01*
X181108334Y-53548155D01*
X181603572Y-53548155D01*
X182098810Y-52748155D02*
X182175001Y-52748155D01*
X182251191Y-52786250D01*
X182289286Y-52824345D01*
X182327382Y-52900536D01*
X182365477Y-53052917D01*
X182365477Y-53243393D01*
X182327382Y-53395774D01*
X182289286Y-53471964D01*
X182251191Y-53510060D01*
X182175001Y-53548155D01*
X182098810Y-53548155D01*
X182022620Y-53510060D01*
X181984524Y-53471964D01*
X181946429Y-53395774D01*
X181908334Y-53243393D01*
X181908334Y-53052917D01*
X181946429Y-52900536D01*
X181984524Y-52824345D01*
X182022620Y-52786250D01*
X182098810Y-52748155D01*
X170097619Y-34498155D02*
X170097619Y-33698155D01*
X170288095Y-33698155D01*
X170402381Y-33736250D01*
X170478572Y-33812440D01*
X170516667Y-33888631D01*
X170554762Y-34041012D01*
X170554762Y-34155298D01*
X170516667Y-34307679D01*
X170478572Y-34383869D01*
X170402381Y-34460060D01*
X170288095Y-34498155D01*
X170097619Y-34498155D01*
X171316667Y-34498155D02*
X170859524Y-34498155D01*
X171088095Y-34498155D02*
X171088095Y-33698155D01*
X171011905Y-33812440D01*
X170935714Y-33888631D01*
X170859524Y-33926726D01*
X172078572Y-34498155D02*
X171621429Y-34498155D01*
X171850000Y-34498155D02*
X171850000Y-33698155D01*
X171773810Y-33812440D01*
X171697619Y-33888631D01*
X171621429Y-33926726D01*
X172459524Y-34498155D02*
X172611905Y-34498155D01*
X172688096Y-34460060D01*
X172726191Y-34421964D01*
X172802382Y-34307679D01*
X172840477Y-34155298D01*
X172840477Y-33850536D01*
X172802382Y-33774345D01*
X172764286Y-33736250D01*
X172688096Y-33698155D01*
X172535715Y-33698155D01*
X172459524Y-33736250D01*
X172421429Y-33774345D01*
X172383334Y-33850536D01*
X172383334Y-34041012D01*
X172421429Y-34117202D01*
X172459524Y-34155298D01*
X172535715Y-34193393D01*
X172688096Y-34193393D01*
X172764286Y-34155298D01*
X172802382Y-34117202D01*
X172840477Y-34041012D01*
X151047619Y-34498155D02*
X151047619Y-33698155D01*
X151238095Y-33698155D01*
X151352381Y-33736250D01*
X151428572Y-33812440D01*
X151466667Y-33888631D01*
X151504762Y-34041012D01*
X151504762Y-34155298D01*
X151466667Y-34307679D01*
X151428572Y-34383869D01*
X151352381Y-34460060D01*
X151238095Y-34498155D01*
X151047619Y-34498155D01*
X152266667Y-34498155D02*
X151809524Y-34498155D01*
X152038095Y-34498155D02*
X152038095Y-33698155D01*
X151961905Y-33812440D01*
X151885714Y-33888631D01*
X151809524Y-33926726D01*
X153028572Y-34498155D02*
X152571429Y-34498155D01*
X152800000Y-34498155D02*
X152800000Y-33698155D01*
X152723810Y-33812440D01*
X152647619Y-33888631D01*
X152571429Y-33926726D01*
X153485715Y-34041012D02*
X153409524Y-34002917D01*
X153371429Y-33964821D01*
X153333334Y-33888631D01*
X153333334Y-33850536D01*
X153371429Y-33774345D01*
X153409524Y-33736250D01*
X153485715Y-33698155D01*
X153638096Y-33698155D01*
X153714286Y-33736250D01*
X153752382Y-33774345D01*
X153790477Y-33850536D01*
X153790477Y-33888631D01*
X153752382Y-33964821D01*
X153714286Y-34002917D01*
X153638096Y-34041012D01*
X153485715Y-34041012D01*
X153409524Y-34079107D01*
X153371429Y-34117202D01*
X153333334Y-34193393D01*
X153333334Y-34345774D01*
X153371429Y-34421964D01*
X153409524Y-34460060D01*
X153485715Y-34498155D01*
X153638096Y-34498155D01*
X153714286Y-34460060D01*
X153752382Y-34421964D01*
X153790477Y-34345774D01*
X153790477Y-34193393D01*
X153752382Y-34117202D01*
X153714286Y-34079107D01*
X153638096Y-34041012D01*
X112947619Y-34498155D02*
X112947619Y-33698155D01*
X113138095Y-33698155D01*
X113252381Y-33736250D01*
X113328572Y-33812440D01*
X113366667Y-33888631D01*
X113404762Y-34041012D01*
X113404762Y-34155298D01*
X113366667Y-34307679D01*
X113328572Y-34383869D01*
X113252381Y-34460060D01*
X113138095Y-34498155D01*
X112947619Y-34498155D01*
X114166667Y-34498155D02*
X113709524Y-34498155D01*
X113938095Y-34498155D02*
X113938095Y-33698155D01*
X113861905Y-33812440D01*
X113785714Y-33888631D01*
X113709524Y-33926726D01*
X114928572Y-34498155D02*
X114471429Y-34498155D01*
X114700000Y-34498155D02*
X114700000Y-33698155D01*
X114623810Y-33812440D01*
X114547619Y-33888631D01*
X114471429Y-33926726D01*
X115195239Y-33698155D02*
X115728572Y-33698155D01*
X115385715Y-34498155D01*
X74847619Y-34498155D02*
X74847619Y-33698155D01*
X75038095Y-33698155D01*
X75152381Y-33736250D01*
X75228572Y-33812440D01*
X75266667Y-33888631D01*
X75304762Y-34041012D01*
X75304762Y-34155298D01*
X75266667Y-34307679D01*
X75228572Y-34383869D01*
X75152381Y-34460060D01*
X75038095Y-34498155D01*
X74847619Y-34498155D01*
X76066667Y-34498155D02*
X75609524Y-34498155D01*
X75838095Y-34498155D02*
X75838095Y-33698155D01*
X75761905Y-33812440D01*
X75685714Y-33888631D01*
X75609524Y-33926726D01*
X76828572Y-34498155D02*
X76371429Y-34498155D01*
X76600000Y-34498155D02*
X76600000Y-33698155D01*
X76523810Y-33812440D01*
X76447619Y-33888631D01*
X76371429Y-33926726D01*
X77514286Y-33698155D02*
X77361905Y-33698155D01*
X77285715Y-33736250D01*
X77247620Y-33774345D01*
X77171429Y-33888631D01*
X77133334Y-34041012D01*
X77133334Y-34345774D01*
X77171429Y-34421964D01*
X77209524Y-34460060D01*
X77285715Y-34498155D01*
X77438096Y-34498155D01*
X77514286Y-34460060D01*
X77552382Y-34421964D01*
X77590477Y-34345774D01*
X77590477Y-34155298D01*
X77552382Y-34079107D01*
X77514286Y-34041012D01*
X77438096Y-34002917D01*
X77285715Y-34002917D01*
X77209524Y-34041012D01*
X77171429Y-34079107D01*
X77133334Y-34155298D01*
X36747619Y-34498155D02*
X36747619Y-33698155D01*
X36938095Y-33698155D01*
X37052381Y-33736250D01*
X37128572Y-33812440D01*
X37166667Y-33888631D01*
X37204762Y-34041012D01*
X37204762Y-34155298D01*
X37166667Y-34307679D01*
X37128572Y-34383869D01*
X37052381Y-34460060D01*
X36938095Y-34498155D01*
X36747619Y-34498155D01*
X37966667Y-34498155D02*
X37509524Y-34498155D01*
X37738095Y-34498155D02*
X37738095Y-33698155D01*
X37661905Y-33812440D01*
X37585714Y-33888631D01*
X37509524Y-33926726D01*
X38728572Y-34498155D02*
X38271429Y-34498155D01*
X38500000Y-34498155D02*
X38500000Y-33698155D01*
X38423810Y-33812440D01*
X38347619Y-33888631D01*
X38271429Y-33926726D01*
X39452382Y-33698155D02*
X39071429Y-33698155D01*
X39033334Y-34079107D01*
X39071429Y-34041012D01*
X39147620Y-34002917D01*
X39338096Y-34002917D01*
X39414286Y-34041012D01*
X39452382Y-34079107D01*
X39490477Y-34155298D01*
X39490477Y-34345774D01*
X39452382Y-34421964D01*
X39414286Y-34460060D01*
X39338096Y-34498155D01*
X39147620Y-34498155D01*
X39071429Y-34460060D01*
X39033334Y-34421964D01*
X39126369Y-95448155D02*
X39126369Y-94648155D01*
X39316845Y-94648155D01*
X39431131Y-94686250D01*
X39507322Y-94762440D01*
X39545417Y-94838631D01*
X39583512Y-94991012D01*
X39583512Y-95105298D01*
X39545417Y-95257679D01*
X39507322Y-95333869D01*
X39431131Y-95410060D01*
X39316845Y-95448155D01*
X39126369Y-95448155D01*
X40345417Y-95448155D02*
X39888274Y-95448155D01*
X40116845Y-95448155D02*
X40116845Y-94648155D01*
X40040655Y-94762440D01*
X39964464Y-94838631D01*
X39888274Y-94876726D01*
X41107322Y-95448155D02*
X40650179Y-95448155D01*
X40878750Y-95448155D02*
X40878750Y-94648155D01*
X40802560Y-94762440D01*
X40726369Y-94838631D01*
X40650179Y-94876726D01*
X41793036Y-94914821D02*
X41793036Y-95448155D01*
X41602560Y-94610060D02*
X41412084Y-95181488D01*
X41907322Y-95181488D01*
X160572619Y-53548155D02*
X160572619Y-52748155D01*
X160763095Y-52748155D01*
X160877381Y-52786250D01*
X160953572Y-52862440D01*
X160991667Y-52938631D01*
X161029762Y-53091012D01*
X161029762Y-53205298D01*
X160991667Y-53357679D01*
X160953572Y-53433869D01*
X160877381Y-53510060D01*
X160763095Y-53548155D01*
X160572619Y-53548155D01*
X161791667Y-53548155D02*
X161334524Y-53548155D01*
X161563095Y-53548155D02*
X161563095Y-52748155D01*
X161486905Y-52862440D01*
X161410714Y-52938631D01*
X161334524Y-52976726D01*
X162553572Y-53548155D02*
X162096429Y-53548155D01*
X162325000Y-53548155D02*
X162325000Y-52748155D01*
X162248810Y-52862440D01*
X162172619Y-52938631D01*
X162096429Y-52976726D01*
X162820239Y-52748155D02*
X163315477Y-52748155D01*
X163048810Y-53052917D01*
X163163096Y-53052917D01*
X163239286Y-53091012D01*
X163277382Y-53129107D01*
X163315477Y-53205298D01*
X163315477Y-53395774D01*
X163277382Y-53471964D01*
X163239286Y-53510060D01*
X163163096Y-53548155D01*
X162934524Y-53548155D01*
X162858334Y-53510060D01*
X162820239Y-53471964D01*
X141522619Y-53548155D02*
X141522619Y-52748155D01*
X141713095Y-52748155D01*
X141827381Y-52786250D01*
X141903572Y-52862440D01*
X141941667Y-52938631D01*
X141979762Y-53091012D01*
X141979762Y-53205298D01*
X141941667Y-53357679D01*
X141903572Y-53433869D01*
X141827381Y-53510060D01*
X141713095Y-53548155D01*
X141522619Y-53548155D01*
X142741667Y-53548155D02*
X142284524Y-53548155D01*
X142513095Y-53548155D02*
X142513095Y-52748155D01*
X142436905Y-52862440D01*
X142360714Y-52938631D01*
X142284524Y-52976726D01*
X143503572Y-53548155D02*
X143046429Y-53548155D01*
X143275000Y-53548155D02*
X143275000Y-52748155D01*
X143198810Y-52862440D01*
X143122619Y-52938631D01*
X143046429Y-52976726D01*
X143808334Y-52824345D02*
X143846429Y-52786250D01*
X143922620Y-52748155D01*
X144113096Y-52748155D01*
X144189286Y-52786250D01*
X144227382Y-52824345D01*
X144265477Y-52900536D01*
X144265477Y-52976726D01*
X144227382Y-53091012D01*
X143770239Y-53548155D01*
X144265477Y-53548155D01*
X122472619Y-53548155D02*
X122472619Y-52748155D01*
X122663095Y-52748155D01*
X122777381Y-52786250D01*
X122853572Y-52862440D01*
X122891667Y-52938631D01*
X122929762Y-53091012D01*
X122929762Y-53205298D01*
X122891667Y-53357679D01*
X122853572Y-53433869D01*
X122777381Y-53510060D01*
X122663095Y-53548155D01*
X122472619Y-53548155D01*
X123691667Y-53548155D02*
X123234524Y-53548155D01*
X123463095Y-53548155D02*
X123463095Y-52748155D01*
X123386905Y-52862440D01*
X123310714Y-52938631D01*
X123234524Y-52976726D01*
X124453572Y-53548155D02*
X123996429Y-53548155D01*
X124225000Y-53548155D02*
X124225000Y-52748155D01*
X124148810Y-52862440D01*
X124072619Y-52938631D01*
X123996429Y-52976726D01*
X125215477Y-53548155D02*
X124758334Y-53548155D01*
X124986905Y-53548155D02*
X124986905Y-52748155D01*
X124910715Y-52862440D01*
X124834524Y-52938631D01*
X124758334Y-52976726D01*
X103422619Y-53548155D02*
X103422619Y-52748155D01*
X103613095Y-52748155D01*
X103727381Y-52786250D01*
X103803572Y-52862440D01*
X103841667Y-52938631D01*
X103879762Y-53091012D01*
X103879762Y-53205298D01*
X103841667Y-53357679D01*
X103803572Y-53433869D01*
X103727381Y-53510060D01*
X103613095Y-53548155D01*
X103422619Y-53548155D01*
X104641667Y-53548155D02*
X104184524Y-53548155D01*
X104413095Y-53548155D02*
X104413095Y-52748155D01*
X104336905Y-52862440D01*
X104260714Y-52938631D01*
X104184524Y-52976726D01*
X105403572Y-53548155D02*
X104946429Y-53548155D01*
X105175000Y-53548155D02*
X105175000Y-52748155D01*
X105098810Y-52862440D01*
X105022619Y-52938631D01*
X104946429Y-52976726D01*
X105898810Y-52748155D02*
X105975001Y-52748155D01*
X106051191Y-52786250D01*
X106089286Y-52824345D01*
X106127382Y-52900536D01*
X106165477Y-53052917D01*
X106165477Y-53243393D01*
X106127382Y-53395774D01*
X106089286Y-53471964D01*
X106051191Y-53510060D01*
X105975001Y-53548155D01*
X105898810Y-53548155D01*
X105822620Y-53510060D01*
X105784524Y-53471964D01*
X105746429Y-53395774D01*
X105708334Y-53243393D01*
X105708334Y-53052917D01*
X105746429Y-52900536D01*
X105784524Y-52824345D01*
X105822620Y-52786250D01*
X105898810Y-52748155D01*
X84372619Y-53548155D02*
X84372619Y-52748155D01*
X84563095Y-52748155D01*
X84677381Y-52786250D01*
X84753572Y-52862440D01*
X84791667Y-52938631D01*
X84829762Y-53091012D01*
X84829762Y-53205298D01*
X84791667Y-53357679D01*
X84753572Y-53433869D01*
X84677381Y-53510060D01*
X84563095Y-53548155D01*
X84372619Y-53548155D01*
X85591667Y-53548155D02*
X85134524Y-53548155D01*
X85363095Y-53548155D02*
X85363095Y-52748155D01*
X85286905Y-52862440D01*
X85210714Y-52938631D01*
X85134524Y-52976726D01*
X86086905Y-52748155D02*
X86163096Y-52748155D01*
X86239286Y-52786250D01*
X86277381Y-52824345D01*
X86315477Y-52900536D01*
X86353572Y-53052917D01*
X86353572Y-53243393D01*
X86315477Y-53395774D01*
X86277381Y-53471964D01*
X86239286Y-53510060D01*
X86163096Y-53548155D01*
X86086905Y-53548155D01*
X86010715Y-53510060D01*
X85972619Y-53471964D01*
X85934524Y-53395774D01*
X85896429Y-53243393D01*
X85896429Y-53052917D01*
X85934524Y-52900536D01*
X85972619Y-52824345D01*
X86010715Y-52786250D01*
X86086905Y-52748155D01*
X86734524Y-53548155D02*
X86886905Y-53548155D01*
X86963096Y-53510060D01*
X87001191Y-53471964D01*
X87077382Y-53357679D01*
X87115477Y-53205298D01*
X87115477Y-52900536D01*
X87077382Y-52824345D01*
X87039286Y-52786250D01*
X86963096Y-52748155D01*
X86810715Y-52748155D01*
X86734524Y-52786250D01*
X86696429Y-52824345D01*
X86658334Y-52900536D01*
X86658334Y-53091012D01*
X86696429Y-53167202D01*
X86734524Y-53205298D01*
X86810715Y-53243393D01*
X86963096Y-53243393D01*
X87039286Y-53205298D01*
X87077382Y-53167202D01*
X87115477Y-53091012D01*
X65322619Y-53548155D02*
X65322619Y-52748155D01*
X65513095Y-52748155D01*
X65627381Y-52786250D01*
X65703572Y-52862440D01*
X65741667Y-52938631D01*
X65779762Y-53091012D01*
X65779762Y-53205298D01*
X65741667Y-53357679D01*
X65703572Y-53433869D01*
X65627381Y-53510060D01*
X65513095Y-53548155D01*
X65322619Y-53548155D01*
X66541667Y-53548155D02*
X66084524Y-53548155D01*
X66313095Y-53548155D02*
X66313095Y-52748155D01*
X66236905Y-52862440D01*
X66160714Y-52938631D01*
X66084524Y-52976726D01*
X67036905Y-52748155D02*
X67113096Y-52748155D01*
X67189286Y-52786250D01*
X67227381Y-52824345D01*
X67265477Y-52900536D01*
X67303572Y-53052917D01*
X67303572Y-53243393D01*
X67265477Y-53395774D01*
X67227381Y-53471964D01*
X67189286Y-53510060D01*
X67113096Y-53548155D01*
X67036905Y-53548155D01*
X66960715Y-53510060D01*
X66922619Y-53471964D01*
X66884524Y-53395774D01*
X66846429Y-53243393D01*
X66846429Y-53052917D01*
X66884524Y-52900536D01*
X66922619Y-52824345D01*
X66960715Y-52786250D01*
X67036905Y-52748155D01*
X67760715Y-53091012D02*
X67684524Y-53052917D01*
X67646429Y-53014821D01*
X67608334Y-52938631D01*
X67608334Y-52900536D01*
X67646429Y-52824345D01*
X67684524Y-52786250D01*
X67760715Y-52748155D01*
X67913096Y-52748155D01*
X67989286Y-52786250D01*
X68027382Y-52824345D01*
X68065477Y-52900536D01*
X68065477Y-52938631D01*
X68027382Y-53014821D01*
X67989286Y-53052917D01*
X67913096Y-53091012D01*
X67760715Y-53091012D01*
X67684524Y-53129107D01*
X67646429Y-53167202D01*
X67608334Y-53243393D01*
X67608334Y-53395774D01*
X67646429Y-53471964D01*
X67684524Y-53510060D01*
X67760715Y-53548155D01*
X67913096Y-53548155D01*
X67989286Y-53510060D01*
X68027382Y-53471964D01*
X68065477Y-53395774D01*
X68065477Y-53243393D01*
X68027382Y-53167202D01*
X67989286Y-53129107D01*
X67913096Y-53091012D01*
X41512619Y-53548155D02*
X41512619Y-52748155D01*
X41703095Y-52748155D01*
X41817381Y-52786250D01*
X41893572Y-52862440D01*
X41931667Y-52938631D01*
X41969762Y-53091012D01*
X41969762Y-53205298D01*
X41931667Y-53357679D01*
X41893572Y-53433869D01*
X41817381Y-53510060D01*
X41703095Y-53548155D01*
X41512619Y-53548155D01*
X42731667Y-53548155D02*
X42274524Y-53548155D01*
X42503095Y-53548155D02*
X42503095Y-52748155D01*
X42426905Y-52862440D01*
X42350714Y-52938631D01*
X42274524Y-52976726D01*
X43226905Y-52748155D02*
X43303096Y-52748155D01*
X43379286Y-52786250D01*
X43417381Y-52824345D01*
X43455477Y-52900536D01*
X43493572Y-53052917D01*
X43493572Y-53243393D01*
X43455477Y-53395774D01*
X43417381Y-53471964D01*
X43379286Y-53510060D01*
X43303096Y-53548155D01*
X43226905Y-53548155D01*
X43150715Y-53510060D01*
X43112619Y-53471964D01*
X43074524Y-53395774D01*
X43036429Y-53243393D01*
X43036429Y-53052917D01*
X43074524Y-52900536D01*
X43112619Y-52824345D01*
X43150715Y-52786250D01*
X43226905Y-52748155D01*
X43760239Y-52748155D02*
X44293572Y-52748155D01*
X43950715Y-53548155D01*
X39126369Y-72598155D02*
X39126369Y-71798155D01*
X39316845Y-71798155D01*
X39431131Y-71836250D01*
X39507322Y-71912440D01*
X39545417Y-71988631D01*
X39583512Y-72141012D01*
X39583512Y-72255298D01*
X39545417Y-72407679D01*
X39507322Y-72483869D01*
X39431131Y-72560060D01*
X39316845Y-72598155D01*
X39126369Y-72598155D01*
X40345417Y-72598155D02*
X39888274Y-72598155D01*
X40116845Y-72598155D02*
X40116845Y-71798155D01*
X40040655Y-71912440D01*
X39964464Y-71988631D01*
X39888274Y-72026726D01*
X40840655Y-71798155D02*
X40916846Y-71798155D01*
X40993036Y-71836250D01*
X41031131Y-71874345D01*
X41069227Y-71950536D01*
X41107322Y-72102917D01*
X41107322Y-72293393D01*
X41069227Y-72445774D01*
X41031131Y-72521964D01*
X40993036Y-72560060D01*
X40916846Y-72598155D01*
X40840655Y-72598155D01*
X40764465Y-72560060D01*
X40726369Y-72521964D01*
X40688274Y-72445774D01*
X40650179Y-72293393D01*
X40650179Y-72102917D01*
X40688274Y-71950536D01*
X40726369Y-71874345D01*
X40764465Y-71836250D01*
X40840655Y-71798155D01*
X41793036Y-71798155D02*
X41640655Y-71798155D01*
X41564465Y-71836250D01*
X41526370Y-71874345D01*
X41450179Y-71988631D01*
X41412084Y-72141012D01*
X41412084Y-72445774D01*
X41450179Y-72521964D01*
X41488274Y-72560060D01*
X41564465Y-72598155D01*
X41716846Y-72598155D01*
X41793036Y-72560060D01*
X41831132Y-72521964D01*
X41869227Y-72445774D01*
X41869227Y-72255298D01*
X41831132Y-72179107D01*
X41793036Y-72141012D01*
X41716846Y-72102917D01*
X41564465Y-72102917D01*
X41488274Y-72141012D01*
X41450179Y-72179107D01*
X41412084Y-72255298D01*
X44206369Y-76398155D02*
X44206369Y-75598155D01*
X44396845Y-75598155D01*
X44511131Y-75636250D01*
X44587322Y-75712440D01*
X44625417Y-75788631D01*
X44663512Y-75941012D01*
X44663512Y-76055298D01*
X44625417Y-76207679D01*
X44587322Y-76283869D01*
X44511131Y-76360060D01*
X44396845Y-76398155D01*
X44206369Y-76398155D01*
X45425417Y-76398155D02*
X44968274Y-76398155D01*
X45196845Y-76398155D02*
X45196845Y-75598155D01*
X45120655Y-75712440D01*
X45044464Y-75788631D01*
X44968274Y-75826726D01*
X45920655Y-75598155D02*
X45996846Y-75598155D01*
X46073036Y-75636250D01*
X46111131Y-75674345D01*
X46149227Y-75750536D01*
X46187322Y-75902917D01*
X46187322Y-76093393D01*
X46149227Y-76245774D01*
X46111131Y-76321964D01*
X46073036Y-76360060D01*
X45996846Y-76398155D01*
X45920655Y-76398155D01*
X45844465Y-76360060D01*
X45806369Y-76321964D01*
X45768274Y-76245774D01*
X45730179Y-76093393D01*
X45730179Y-75902917D01*
X45768274Y-75750536D01*
X45806369Y-75674345D01*
X45844465Y-75636250D01*
X45920655Y-75598155D01*
X46911132Y-75598155D02*
X46530179Y-75598155D01*
X46492084Y-75979107D01*
X46530179Y-75941012D01*
X46606370Y-75902917D01*
X46796846Y-75902917D01*
X46873036Y-75941012D01*
X46911132Y-75979107D01*
X46949227Y-76055298D01*
X46949227Y-76245774D01*
X46911132Y-76321964D01*
X46873036Y-76360060D01*
X46796846Y-76398155D01*
X46606370Y-76398155D01*
X46530179Y-76360060D01*
X46492084Y-76321964D01*
X70082619Y-72598155D02*
X70082619Y-71798155D01*
X70273095Y-71798155D01*
X70387381Y-71836250D01*
X70463572Y-71912440D01*
X70501667Y-71988631D01*
X70539762Y-72141012D01*
X70539762Y-72255298D01*
X70501667Y-72407679D01*
X70463572Y-72483869D01*
X70387381Y-72560060D01*
X70273095Y-72598155D01*
X70082619Y-72598155D01*
X71301667Y-72598155D02*
X70844524Y-72598155D01*
X71073095Y-72598155D02*
X71073095Y-71798155D01*
X70996905Y-71912440D01*
X70920714Y-71988631D01*
X70844524Y-72026726D01*
X71796905Y-71798155D02*
X71873096Y-71798155D01*
X71949286Y-71836250D01*
X71987381Y-71874345D01*
X72025477Y-71950536D01*
X72063572Y-72102917D01*
X72063572Y-72293393D01*
X72025477Y-72445774D01*
X71987381Y-72521964D01*
X71949286Y-72560060D01*
X71873096Y-72598155D01*
X71796905Y-72598155D01*
X71720715Y-72560060D01*
X71682619Y-72521964D01*
X71644524Y-72445774D01*
X71606429Y-72293393D01*
X71606429Y-72102917D01*
X71644524Y-71950536D01*
X71682619Y-71874345D01*
X71720715Y-71836250D01*
X71796905Y-71798155D01*
X72749286Y-72064821D02*
X72749286Y-72598155D01*
X72558810Y-71760060D02*
X72368334Y-72331488D01*
X72863572Y-72331488D01*
X39126369Y-110698155D02*
X39126369Y-109898155D01*
X39316845Y-109898155D01*
X39431131Y-109936250D01*
X39507322Y-110012440D01*
X39545417Y-110088631D01*
X39583512Y-110241012D01*
X39583512Y-110355298D01*
X39545417Y-110507679D01*
X39507322Y-110583869D01*
X39431131Y-110660060D01*
X39316845Y-110698155D01*
X39126369Y-110698155D01*
X40345417Y-110698155D02*
X39888274Y-110698155D01*
X40116845Y-110698155D02*
X40116845Y-109898155D01*
X40040655Y-110012440D01*
X39964464Y-110088631D01*
X39888274Y-110126726D01*
X40840655Y-109898155D02*
X40916846Y-109898155D01*
X40993036Y-109936250D01*
X41031131Y-109974345D01*
X41069227Y-110050536D01*
X41107322Y-110202917D01*
X41107322Y-110393393D01*
X41069227Y-110545774D01*
X41031131Y-110621964D01*
X40993036Y-110660060D01*
X40916846Y-110698155D01*
X40840655Y-110698155D01*
X40764465Y-110660060D01*
X40726369Y-110621964D01*
X40688274Y-110545774D01*
X40650179Y-110393393D01*
X40650179Y-110202917D01*
X40688274Y-110050536D01*
X40726369Y-109974345D01*
X40764465Y-109936250D01*
X40840655Y-109898155D01*
X41373989Y-109898155D02*
X41869227Y-109898155D01*
X41602560Y-110202917D01*
X41716846Y-110202917D01*
X41793036Y-110241012D01*
X41831132Y-110279107D01*
X41869227Y-110355298D01*
X41869227Y-110545774D01*
X41831132Y-110621964D01*
X41793036Y-110660060D01*
X41716846Y-110698155D01*
X41488274Y-110698155D01*
X41412084Y-110660060D01*
X41373989Y-110621964D01*
X146282619Y-72598155D02*
X146282619Y-71798155D01*
X146473095Y-71798155D01*
X146587381Y-71836250D01*
X146663572Y-71912440D01*
X146701667Y-71988631D01*
X146739762Y-72141012D01*
X146739762Y-72255298D01*
X146701667Y-72407679D01*
X146663572Y-72483869D01*
X146587381Y-72560060D01*
X146473095Y-72598155D01*
X146282619Y-72598155D01*
X147501667Y-72598155D02*
X147044524Y-72598155D01*
X147273095Y-72598155D02*
X147273095Y-71798155D01*
X147196905Y-71912440D01*
X147120714Y-71988631D01*
X147044524Y-72026726D01*
X147996905Y-71798155D02*
X148073096Y-71798155D01*
X148149286Y-71836250D01*
X148187381Y-71874345D01*
X148225477Y-71950536D01*
X148263572Y-72102917D01*
X148263572Y-72293393D01*
X148225477Y-72445774D01*
X148187381Y-72521964D01*
X148149286Y-72560060D01*
X148073096Y-72598155D01*
X147996905Y-72598155D01*
X147920715Y-72560060D01*
X147882619Y-72521964D01*
X147844524Y-72445774D01*
X147806429Y-72293393D01*
X147806429Y-72102917D01*
X147844524Y-71950536D01*
X147882619Y-71874345D01*
X147920715Y-71836250D01*
X147996905Y-71798155D01*
X148568334Y-71874345D02*
X148606429Y-71836250D01*
X148682620Y-71798155D01*
X148873096Y-71798155D01*
X148949286Y-71836250D01*
X148987382Y-71874345D01*
X149025477Y-71950536D01*
X149025477Y-72026726D01*
X148987382Y-72141012D01*
X148530239Y-72598155D01*
X149025477Y-72598155D01*
X41516369Y-114498155D02*
X41516369Y-113698155D01*
X41706845Y-113698155D01*
X41821131Y-113736250D01*
X41897322Y-113812440D01*
X41935417Y-113888631D01*
X41973512Y-114041012D01*
X41973512Y-114155298D01*
X41935417Y-114307679D01*
X41897322Y-114383869D01*
X41821131Y-114460060D01*
X41706845Y-114498155D01*
X41516369Y-114498155D01*
X42735417Y-114498155D02*
X42278274Y-114498155D01*
X42506845Y-114498155D02*
X42506845Y-113698155D01*
X42430655Y-113812440D01*
X42354464Y-113888631D01*
X42278274Y-113926726D01*
X43230655Y-113698155D02*
X43306846Y-113698155D01*
X43383036Y-113736250D01*
X43421131Y-113774345D01*
X43459227Y-113850536D01*
X43497322Y-114002917D01*
X43497322Y-114193393D01*
X43459227Y-114345774D01*
X43421131Y-114421964D01*
X43383036Y-114460060D01*
X43306846Y-114498155D01*
X43230655Y-114498155D01*
X43154465Y-114460060D01*
X43116369Y-114421964D01*
X43078274Y-114345774D01*
X43040179Y-114193393D01*
X43040179Y-114002917D01*
X43078274Y-113850536D01*
X43116369Y-113774345D01*
X43154465Y-113736250D01*
X43230655Y-113698155D01*
X44259227Y-114498155D02*
X43802084Y-114498155D01*
X44030655Y-114498155D02*
X44030655Y-113698155D01*
X43954465Y-113812440D01*
X43878274Y-113888631D01*
X43802084Y-113926726D01*
X260582619Y-72598155D02*
X260582619Y-71798155D01*
X260773095Y-71798155D01*
X260887381Y-71836250D01*
X260963572Y-71912440D01*
X261001667Y-71988631D01*
X261039762Y-72141012D01*
X261039762Y-72255298D01*
X261001667Y-72407679D01*
X260963572Y-72483869D01*
X260887381Y-72560060D01*
X260773095Y-72598155D01*
X260582619Y-72598155D01*
X261801667Y-72598155D02*
X261344524Y-72598155D01*
X261573095Y-72598155D02*
X261573095Y-71798155D01*
X261496905Y-71912440D01*
X261420714Y-71988631D01*
X261344524Y-72026726D01*
X262296905Y-71798155D02*
X262373096Y-71798155D01*
X262449286Y-71836250D01*
X262487381Y-71874345D01*
X262525477Y-71950536D01*
X262563572Y-72102917D01*
X262563572Y-72293393D01*
X262525477Y-72445774D01*
X262487381Y-72521964D01*
X262449286Y-72560060D01*
X262373096Y-72598155D01*
X262296905Y-72598155D01*
X262220715Y-72560060D01*
X262182619Y-72521964D01*
X262144524Y-72445774D01*
X262106429Y-72293393D01*
X262106429Y-72102917D01*
X262144524Y-71950536D01*
X262182619Y-71874345D01*
X262220715Y-71836250D01*
X262296905Y-71798155D01*
X263058810Y-71798155D02*
X263135001Y-71798155D01*
X263211191Y-71836250D01*
X263249286Y-71874345D01*
X263287382Y-71950536D01*
X263325477Y-72102917D01*
X263325477Y-72293393D01*
X263287382Y-72445774D01*
X263249286Y-72521964D01*
X263211191Y-72560060D01*
X263135001Y-72598155D01*
X263058810Y-72598155D01*
X262982620Y-72560060D01*
X262944524Y-72521964D01*
X262906429Y-72445774D01*
X262868334Y-72293393D01*
X262868334Y-72102917D01*
X262906429Y-71950536D01*
X262944524Y-71874345D01*
X262982620Y-71836250D01*
X263058810Y-71798155D01*
X63327321Y-110698155D02*
X63327321Y-109898155D01*
X63517797Y-109898155D01*
X63632083Y-109936250D01*
X63708274Y-110012440D01*
X63746369Y-110088631D01*
X63784464Y-110241012D01*
X63784464Y-110355298D01*
X63746369Y-110507679D01*
X63708274Y-110583869D01*
X63632083Y-110660060D01*
X63517797Y-110698155D01*
X63327321Y-110698155D01*
X64165416Y-110698155D02*
X64317797Y-110698155D01*
X64393988Y-110660060D01*
X64432083Y-110621964D01*
X64508274Y-110507679D01*
X64546369Y-110355298D01*
X64546369Y-110050536D01*
X64508274Y-109974345D01*
X64470178Y-109936250D01*
X64393988Y-109898155D01*
X64241607Y-109898155D01*
X64165416Y-109936250D01*
X64127321Y-109974345D01*
X64089226Y-110050536D01*
X64089226Y-110241012D01*
X64127321Y-110317202D01*
X64165416Y-110355298D01*
X64241607Y-110393393D01*
X64393988Y-110393393D01*
X64470178Y-110355298D01*
X64508274Y-110317202D01*
X64546369Y-110241012D01*
X64927321Y-110698155D02*
X65079702Y-110698155D01*
X65155893Y-110660060D01*
X65193988Y-110621964D01*
X65270179Y-110507679D01*
X65308274Y-110355298D01*
X65308274Y-110050536D01*
X65270179Y-109974345D01*
X65232083Y-109936250D01*
X65155893Y-109898155D01*
X65003512Y-109898155D01*
X64927321Y-109936250D01*
X64889226Y-109974345D01*
X64851131Y-110050536D01*
X64851131Y-110241012D01*
X64889226Y-110317202D01*
X64927321Y-110355298D01*
X65003512Y-110393393D01*
X65155893Y-110393393D01*
X65232083Y-110355298D01*
X65270179Y-110317202D01*
X65308274Y-110241012D01*
X65707321Y-114498155D02*
X65707321Y-113698155D01*
X65897797Y-113698155D01*
X66012083Y-113736250D01*
X66088274Y-113812440D01*
X66126369Y-113888631D01*
X66164464Y-114041012D01*
X66164464Y-114155298D01*
X66126369Y-114307679D01*
X66088274Y-114383869D01*
X66012083Y-114460060D01*
X65897797Y-114498155D01*
X65707321Y-114498155D01*
X66545416Y-114498155D02*
X66697797Y-114498155D01*
X66773988Y-114460060D01*
X66812083Y-114421964D01*
X66888274Y-114307679D01*
X66926369Y-114155298D01*
X66926369Y-113850536D01*
X66888274Y-113774345D01*
X66850178Y-113736250D01*
X66773988Y-113698155D01*
X66621607Y-113698155D01*
X66545416Y-113736250D01*
X66507321Y-113774345D01*
X66469226Y-113850536D01*
X66469226Y-114041012D01*
X66507321Y-114117202D01*
X66545416Y-114155298D01*
X66621607Y-114193393D01*
X66773988Y-114193393D01*
X66850178Y-114155298D01*
X66888274Y-114117202D01*
X66926369Y-114041012D01*
X67383512Y-114041012D02*
X67307321Y-114002917D01*
X67269226Y-113964821D01*
X67231131Y-113888631D01*
X67231131Y-113850536D01*
X67269226Y-113774345D01*
X67307321Y-113736250D01*
X67383512Y-113698155D01*
X67535893Y-113698155D01*
X67612083Y-113736250D01*
X67650179Y-113774345D01*
X67688274Y-113850536D01*
X67688274Y-113888631D01*
X67650179Y-113964821D01*
X67612083Y-114002917D01*
X67535893Y-114041012D01*
X67383512Y-114041012D01*
X67307321Y-114079107D01*
X67269226Y-114117202D01*
X67231131Y-114193393D01*
X67231131Y-114345774D01*
X67269226Y-114421964D01*
X67307321Y-114460060D01*
X67383512Y-114498155D01*
X67535893Y-114498155D01*
X67612083Y-114460060D01*
X67650179Y-114421964D01*
X67688274Y-114345774D01*
X67688274Y-114193393D01*
X67650179Y-114117202D01*
X67612083Y-114079107D01*
X67535893Y-114041012D01*
X49037321Y-91648155D02*
X49037321Y-90848155D01*
X49227797Y-90848155D01*
X49342083Y-90886250D01*
X49418274Y-90962440D01*
X49456369Y-91038631D01*
X49494464Y-91191012D01*
X49494464Y-91305298D01*
X49456369Y-91457679D01*
X49418274Y-91533869D01*
X49342083Y-91610060D01*
X49227797Y-91648155D01*
X49037321Y-91648155D01*
X49875416Y-91648155D02*
X50027797Y-91648155D01*
X50103988Y-91610060D01*
X50142083Y-91571964D01*
X50218274Y-91457679D01*
X50256369Y-91305298D01*
X50256369Y-91000536D01*
X50218274Y-90924345D01*
X50180178Y-90886250D01*
X50103988Y-90848155D01*
X49951607Y-90848155D01*
X49875416Y-90886250D01*
X49837321Y-90924345D01*
X49799226Y-91000536D01*
X49799226Y-91191012D01*
X49837321Y-91267202D01*
X49875416Y-91305298D01*
X49951607Y-91343393D01*
X50103988Y-91343393D01*
X50180178Y-91305298D01*
X50218274Y-91267202D01*
X50256369Y-91191012D01*
X50523036Y-90848155D02*
X51056369Y-90848155D01*
X50713512Y-91648155D01*
X222863571Y-72598155D02*
X222863571Y-71798155D01*
X223054047Y-71798155D01*
X223168333Y-71836250D01*
X223244524Y-71912440D01*
X223282619Y-71988631D01*
X223320714Y-72141012D01*
X223320714Y-72255298D01*
X223282619Y-72407679D01*
X223244524Y-72483869D01*
X223168333Y-72560060D01*
X223054047Y-72598155D01*
X222863571Y-72598155D01*
X223701666Y-72598155D02*
X223854047Y-72598155D01*
X223930238Y-72560060D01*
X223968333Y-72521964D01*
X224044524Y-72407679D01*
X224082619Y-72255298D01*
X224082619Y-71950536D01*
X224044524Y-71874345D01*
X224006428Y-71836250D01*
X223930238Y-71798155D01*
X223777857Y-71798155D01*
X223701666Y-71836250D01*
X223663571Y-71874345D01*
X223625476Y-71950536D01*
X223625476Y-72141012D01*
X223663571Y-72217202D01*
X223701666Y-72255298D01*
X223777857Y-72293393D01*
X223930238Y-72293393D01*
X224006428Y-72255298D01*
X224044524Y-72217202D01*
X224082619Y-72141012D01*
X224768333Y-71798155D02*
X224615952Y-71798155D01*
X224539762Y-71836250D01*
X224501667Y-71874345D01*
X224425476Y-71988631D01*
X224387381Y-72141012D01*
X224387381Y-72445774D01*
X224425476Y-72521964D01*
X224463571Y-72560060D01*
X224539762Y-72598155D01*
X224692143Y-72598155D01*
X224768333Y-72560060D01*
X224806429Y-72521964D01*
X224844524Y-72445774D01*
X224844524Y-72255298D01*
X224806429Y-72179107D01*
X224768333Y-72141012D01*
X224692143Y-72102917D01*
X224539762Y-72102917D01*
X224463571Y-72141012D01*
X224425476Y-72179107D01*
X224387381Y-72255298D01*
X165713571Y-72598155D02*
X165713571Y-71798155D01*
X165904047Y-71798155D01*
X166018333Y-71836250D01*
X166094524Y-71912440D01*
X166132619Y-71988631D01*
X166170714Y-72141012D01*
X166170714Y-72255298D01*
X166132619Y-72407679D01*
X166094524Y-72483869D01*
X166018333Y-72560060D01*
X165904047Y-72598155D01*
X165713571Y-72598155D01*
X166551666Y-72598155D02*
X166704047Y-72598155D01*
X166780238Y-72560060D01*
X166818333Y-72521964D01*
X166894524Y-72407679D01*
X166932619Y-72255298D01*
X166932619Y-71950536D01*
X166894524Y-71874345D01*
X166856428Y-71836250D01*
X166780238Y-71798155D01*
X166627857Y-71798155D01*
X166551666Y-71836250D01*
X166513571Y-71874345D01*
X166475476Y-71950536D01*
X166475476Y-72141012D01*
X166513571Y-72217202D01*
X166551666Y-72255298D01*
X166627857Y-72293393D01*
X166780238Y-72293393D01*
X166856428Y-72255298D01*
X166894524Y-72217202D01*
X166932619Y-72141012D01*
X167656429Y-71798155D02*
X167275476Y-71798155D01*
X167237381Y-72179107D01*
X167275476Y-72141012D01*
X167351667Y-72102917D01*
X167542143Y-72102917D01*
X167618333Y-72141012D01*
X167656429Y-72179107D01*
X167694524Y-72255298D01*
X167694524Y-72445774D01*
X167656429Y-72521964D01*
X167618333Y-72560060D01*
X167542143Y-72598155D01*
X167351667Y-72598155D01*
X167275476Y-72560060D01*
X167237381Y-72521964D01*
X151427321Y-110698155D02*
X151427321Y-109898155D01*
X151617797Y-109898155D01*
X151732083Y-109936250D01*
X151808274Y-110012440D01*
X151846369Y-110088631D01*
X151884464Y-110241012D01*
X151884464Y-110355298D01*
X151846369Y-110507679D01*
X151808274Y-110583869D01*
X151732083Y-110660060D01*
X151617797Y-110698155D01*
X151427321Y-110698155D01*
X152265416Y-110698155D02*
X152417797Y-110698155D01*
X152493988Y-110660060D01*
X152532083Y-110621964D01*
X152608274Y-110507679D01*
X152646369Y-110355298D01*
X152646369Y-110050536D01*
X152608274Y-109974345D01*
X152570178Y-109936250D01*
X152493988Y-109898155D01*
X152341607Y-109898155D01*
X152265416Y-109936250D01*
X152227321Y-109974345D01*
X152189226Y-110050536D01*
X152189226Y-110241012D01*
X152227321Y-110317202D01*
X152265416Y-110355298D01*
X152341607Y-110393393D01*
X152493988Y-110393393D01*
X152570178Y-110355298D01*
X152608274Y-110317202D01*
X152646369Y-110241012D01*
X153332083Y-110164821D02*
X153332083Y-110698155D01*
X153141607Y-109860060D02*
X152951131Y-110431488D01*
X153446369Y-110431488D01*
X158567321Y-110698155D02*
X158567321Y-109898155D01*
X158757797Y-109898155D01*
X158872083Y-109936250D01*
X158948274Y-110012440D01*
X158986369Y-110088631D01*
X159024464Y-110241012D01*
X159024464Y-110355298D01*
X158986369Y-110507679D01*
X158948274Y-110583869D01*
X158872083Y-110660060D01*
X158757797Y-110698155D01*
X158567321Y-110698155D01*
X159405416Y-110698155D02*
X159557797Y-110698155D01*
X159633988Y-110660060D01*
X159672083Y-110621964D01*
X159748274Y-110507679D01*
X159786369Y-110355298D01*
X159786369Y-110050536D01*
X159748274Y-109974345D01*
X159710178Y-109936250D01*
X159633988Y-109898155D01*
X159481607Y-109898155D01*
X159405416Y-109936250D01*
X159367321Y-109974345D01*
X159329226Y-110050536D01*
X159329226Y-110241012D01*
X159367321Y-110317202D01*
X159405416Y-110355298D01*
X159481607Y-110393393D01*
X159633988Y-110393393D01*
X159710178Y-110355298D01*
X159748274Y-110317202D01*
X159786369Y-110241012D01*
X160053036Y-109898155D02*
X160548274Y-109898155D01*
X160281607Y-110202917D01*
X160395893Y-110202917D01*
X160472083Y-110241012D01*
X160510179Y-110279107D01*
X160548274Y-110355298D01*
X160548274Y-110545774D01*
X160510179Y-110621964D01*
X160472083Y-110660060D01*
X160395893Y-110698155D01*
X160167321Y-110698155D01*
X160091131Y-110660060D01*
X160053036Y-110621964D01*
X170477321Y-114498155D02*
X170477321Y-113698155D01*
X170667797Y-113698155D01*
X170782083Y-113736250D01*
X170858274Y-113812440D01*
X170896369Y-113888631D01*
X170934464Y-114041012D01*
X170934464Y-114155298D01*
X170896369Y-114307679D01*
X170858274Y-114383869D01*
X170782083Y-114460060D01*
X170667797Y-114498155D01*
X170477321Y-114498155D01*
X171315416Y-114498155D02*
X171467797Y-114498155D01*
X171543988Y-114460060D01*
X171582083Y-114421964D01*
X171658274Y-114307679D01*
X171696369Y-114155298D01*
X171696369Y-113850536D01*
X171658274Y-113774345D01*
X171620178Y-113736250D01*
X171543988Y-113698155D01*
X171391607Y-113698155D01*
X171315416Y-113736250D01*
X171277321Y-113774345D01*
X171239226Y-113850536D01*
X171239226Y-114041012D01*
X171277321Y-114117202D01*
X171315416Y-114155298D01*
X171391607Y-114193393D01*
X171543988Y-114193393D01*
X171620178Y-114155298D01*
X171658274Y-114117202D01*
X171696369Y-114041012D01*
X172001131Y-113774345D02*
X172039226Y-113736250D01*
X172115417Y-113698155D01*
X172305893Y-113698155D01*
X172382083Y-113736250D01*
X172420179Y-113774345D01*
X172458274Y-113850536D01*
X172458274Y-113926726D01*
X172420179Y-114041012D01*
X171963036Y-114498155D01*
X172458274Y-114498155D01*
X156187321Y-91648155D02*
X156187321Y-90848155D01*
X156377797Y-90848155D01*
X156492083Y-90886250D01*
X156568274Y-90962440D01*
X156606369Y-91038631D01*
X156644464Y-91191012D01*
X156644464Y-91305298D01*
X156606369Y-91457679D01*
X156568274Y-91533869D01*
X156492083Y-91610060D01*
X156377797Y-91648155D01*
X156187321Y-91648155D01*
X157025416Y-91648155D02*
X157177797Y-91648155D01*
X157253988Y-91610060D01*
X157292083Y-91571964D01*
X157368274Y-91457679D01*
X157406369Y-91305298D01*
X157406369Y-91000536D01*
X157368274Y-90924345D01*
X157330178Y-90886250D01*
X157253988Y-90848155D01*
X157101607Y-90848155D01*
X157025416Y-90886250D01*
X156987321Y-90924345D01*
X156949226Y-91000536D01*
X156949226Y-91191012D01*
X156987321Y-91267202D01*
X157025416Y-91305298D01*
X157101607Y-91343393D01*
X157253988Y-91343393D01*
X157330178Y-91305298D01*
X157368274Y-91267202D01*
X157406369Y-91191012D01*
X158168274Y-91648155D02*
X157711131Y-91648155D01*
X157939702Y-91648155D02*
X157939702Y-90848155D01*
X157863512Y-90962440D01*
X157787321Y-91038631D01*
X157711131Y-91076726D01*
X60937321Y-91648155D02*
X60937321Y-90848155D01*
X61127797Y-90848155D01*
X61242083Y-90886250D01*
X61318274Y-90962440D01*
X61356369Y-91038631D01*
X61394464Y-91191012D01*
X61394464Y-91305298D01*
X61356369Y-91457679D01*
X61318274Y-91533869D01*
X61242083Y-91610060D01*
X61127797Y-91648155D01*
X60937321Y-91648155D01*
X61775416Y-91648155D02*
X61927797Y-91648155D01*
X62003988Y-91610060D01*
X62042083Y-91571964D01*
X62118274Y-91457679D01*
X62156369Y-91305298D01*
X62156369Y-91000536D01*
X62118274Y-90924345D01*
X62080178Y-90886250D01*
X62003988Y-90848155D01*
X61851607Y-90848155D01*
X61775416Y-90886250D01*
X61737321Y-90924345D01*
X61699226Y-91000536D01*
X61699226Y-91191012D01*
X61737321Y-91267202D01*
X61775416Y-91305298D01*
X61851607Y-91343393D01*
X62003988Y-91343393D01*
X62080178Y-91305298D01*
X62118274Y-91267202D01*
X62156369Y-91191012D01*
X62651607Y-90848155D02*
X62727798Y-90848155D01*
X62803988Y-90886250D01*
X62842083Y-90924345D01*
X62880179Y-91000536D01*
X62918274Y-91152917D01*
X62918274Y-91343393D01*
X62880179Y-91495774D01*
X62842083Y-91571964D01*
X62803988Y-91610060D01*
X62727798Y-91648155D01*
X62651607Y-91648155D01*
X62575417Y-91610060D01*
X62537321Y-91571964D01*
X62499226Y-91495774D01*
X62461131Y-91343393D01*
X62461131Y-91152917D01*
X62499226Y-91000536D01*
X62537321Y-90924345D01*
X62575417Y-90886250D01*
X62651607Y-90848155D01*
X79987321Y-91648155D02*
X79987321Y-90848155D01*
X80177797Y-90848155D01*
X80292083Y-90886250D01*
X80368274Y-90962440D01*
X80406369Y-91038631D01*
X80444464Y-91191012D01*
X80444464Y-91305298D01*
X80406369Y-91457679D01*
X80368274Y-91533869D01*
X80292083Y-91610060D01*
X80177797Y-91648155D01*
X79987321Y-91648155D01*
X80901607Y-91191012D02*
X80825416Y-91152917D01*
X80787321Y-91114821D01*
X80749226Y-91038631D01*
X80749226Y-91000536D01*
X80787321Y-90924345D01*
X80825416Y-90886250D01*
X80901607Y-90848155D01*
X81053988Y-90848155D01*
X81130178Y-90886250D01*
X81168274Y-90924345D01*
X81206369Y-91000536D01*
X81206369Y-91038631D01*
X81168274Y-91114821D01*
X81130178Y-91152917D01*
X81053988Y-91191012D01*
X80901607Y-91191012D01*
X80825416Y-91229107D01*
X80787321Y-91267202D01*
X80749226Y-91343393D01*
X80749226Y-91495774D01*
X80787321Y-91571964D01*
X80825416Y-91610060D01*
X80901607Y-91648155D01*
X81053988Y-91648155D01*
X81130178Y-91610060D01*
X81168274Y-91571964D01*
X81206369Y-91495774D01*
X81206369Y-91343393D01*
X81168274Y-91267202D01*
X81130178Y-91229107D01*
X81053988Y-91191012D01*
X81587321Y-91648155D02*
X81739702Y-91648155D01*
X81815893Y-91610060D01*
X81853988Y-91571964D01*
X81930179Y-91457679D01*
X81968274Y-91305298D01*
X81968274Y-91000536D01*
X81930179Y-90924345D01*
X81892083Y-90886250D01*
X81815893Y-90848155D01*
X81663512Y-90848155D01*
X81587321Y-90886250D01*
X81549226Y-90924345D01*
X81511131Y-91000536D01*
X81511131Y-91191012D01*
X81549226Y-91267202D01*
X81587321Y-91305298D01*
X81663512Y-91343393D01*
X81815893Y-91343393D01*
X81892083Y-91305298D01*
X81930179Y-91267202D01*
X81968274Y-91191012D01*
X213337321Y-91648155D02*
X213337321Y-90848155D01*
X213527797Y-90848155D01*
X213642083Y-90886250D01*
X213718274Y-90962440D01*
X213756369Y-91038631D01*
X213794464Y-91191012D01*
X213794464Y-91305298D01*
X213756369Y-91457679D01*
X213718274Y-91533869D01*
X213642083Y-91610060D01*
X213527797Y-91648155D01*
X213337321Y-91648155D01*
X214251607Y-91191012D02*
X214175416Y-91152917D01*
X214137321Y-91114821D01*
X214099226Y-91038631D01*
X214099226Y-91000536D01*
X214137321Y-90924345D01*
X214175416Y-90886250D01*
X214251607Y-90848155D01*
X214403988Y-90848155D01*
X214480178Y-90886250D01*
X214518274Y-90924345D01*
X214556369Y-91000536D01*
X214556369Y-91038631D01*
X214518274Y-91114821D01*
X214480178Y-91152917D01*
X214403988Y-91191012D01*
X214251607Y-91191012D01*
X214175416Y-91229107D01*
X214137321Y-91267202D01*
X214099226Y-91343393D01*
X214099226Y-91495774D01*
X214137321Y-91571964D01*
X214175416Y-91610060D01*
X214251607Y-91648155D01*
X214403988Y-91648155D01*
X214480178Y-91610060D01*
X214518274Y-91571964D01*
X214556369Y-91495774D01*
X214556369Y-91343393D01*
X214518274Y-91267202D01*
X214480178Y-91229107D01*
X214403988Y-91191012D01*
X215013512Y-91191012D02*
X214937321Y-91152917D01*
X214899226Y-91114821D01*
X214861131Y-91038631D01*
X214861131Y-91000536D01*
X214899226Y-90924345D01*
X214937321Y-90886250D01*
X215013512Y-90848155D01*
X215165893Y-90848155D01*
X215242083Y-90886250D01*
X215280179Y-90924345D01*
X215318274Y-91000536D01*
X215318274Y-91038631D01*
X215280179Y-91114821D01*
X215242083Y-91152917D01*
X215165893Y-91191012D01*
X215013512Y-91191012D01*
X214937321Y-91229107D01*
X214899226Y-91267202D01*
X214861131Y-91343393D01*
X214861131Y-91495774D01*
X214899226Y-91571964D01*
X214937321Y-91610060D01*
X215013512Y-91648155D01*
X215165893Y-91648155D01*
X215242083Y-91610060D01*
X215280179Y-91571964D01*
X215318274Y-91495774D01*
X215318274Y-91343393D01*
X215280179Y-91267202D01*
X215242083Y-91229107D01*
X215165893Y-91191012D01*
X89513571Y-72598155D02*
X89513571Y-71798155D01*
X89704047Y-71798155D01*
X89818333Y-71836250D01*
X89894524Y-71912440D01*
X89932619Y-71988631D01*
X89970714Y-72141012D01*
X89970714Y-72255298D01*
X89932619Y-72407679D01*
X89894524Y-72483869D01*
X89818333Y-72560060D01*
X89704047Y-72598155D01*
X89513571Y-72598155D01*
X90427857Y-72141012D02*
X90351666Y-72102917D01*
X90313571Y-72064821D01*
X90275476Y-71988631D01*
X90275476Y-71950536D01*
X90313571Y-71874345D01*
X90351666Y-71836250D01*
X90427857Y-71798155D01*
X90580238Y-71798155D01*
X90656428Y-71836250D01*
X90694524Y-71874345D01*
X90732619Y-71950536D01*
X90732619Y-71988631D01*
X90694524Y-72064821D01*
X90656428Y-72102917D01*
X90580238Y-72141012D01*
X90427857Y-72141012D01*
X90351666Y-72179107D01*
X90313571Y-72217202D01*
X90275476Y-72293393D01*
X90275476Y-72445774D01*
X90313571Y-72521964D01*
X90351666Y-72560060D01*
X90427857Y-72598155D01*
X90580238Y-72598155D01*
X90656428Y-72560060D01*
X90694524Y-72521964D01*
X90732619Y-72445774D01*
X90732619Y-72293393D01*
X90694524Y-72217202D01*
X90656428Y-72179107D01*
X90580238Y-72141012D01*
X90999286Y-71798155D02*
X91532619Y-71798155D01*
X91189762Y-72598155D01*
X277637321Y-114508155D02*
X277637321Y-113708155D01*
X277827797Y-113708155D01*
X277942083Y-113746250D01*
X278018274Y-113822440D01*
X278056369Y-113898631D01*
X278094464Y-114051012D01*
X278094464Y-114165298D01*
X278056369Y-114317679D01*
X278018274Y-114393869D01*
X277942083Y-114470060D01*
X277827797Y-114508155D01*
X277637321Y-114508155D01*
X278551607Y-114051012D02*
X278475416Y-114012917D01*
X278437321Y-113974821D01*
X278399226Y-113898631D01*
X278399226Y-113860536D01*
X278437321Y-113784345D01*
X278475416Y-113746250D01*
X278551607Y-113708155D01*
X278703988Y-113708155D01*
X278780178Y-113746250D01*
X278818274Y-113784345D01*
X278856369Y-113860536D01*
X278856369Y-113898631D01*
X278818274Y-113974821D01*
X278780178Y-114012917D01*
X278703988Y-114051012D01*
X278551607Y-114051012D01*
X278475416Y-114089107D01*
X278437321Y-114127202D01*
X278399226Y-114203393D01*
X278399226Y-114355774D01*
X278437321Y-114431964D01*
X278475416Y-114470060D01*
X278551607Y-114508155D01*
X278703988Y-114508155D01*
X278780178Y-114470060D01*
X278818274Y-114431964D01*
X278856369Y-114355774D01*
X278856369Y-114203393D01*
X278818274Y-114127202D01*
X278780178Y-114089107D01*
X278703988Y-114051012D01*
X279542083Y-113708155D02*
X279389702Y-113708155D01*
X279313512Y-113746250D01*
X279275417Y-113784345D01*
X279199226Y-113898631D01*
X279161131Y-114051012D01*
X279161131Y-114355774D01*
X279199226Y-114431964D01*
X279237321Y-114470060D01*
X279313512Y-114508155D01*
X279465893Y-114508155D01*
X279542083Y-114470060D01*
X279580179Y-114431964D01*
X279618274Y-114355774D01*
X279618274Y-114165298D01*
X279580179Y-114089107D01*
X279542083Y-114051012D01*
X279465893Y-114012917D01*
X279313512Y-114012917D01*
X279237321Y-114051012D01*
X279199226Y-114089107D01*
X279161131Y-114165298D01*
X194287321Y-91648155D02*
X194287321Y-90848155D01*
X194477797Y-90848155D01*
X194592083Y-90886250D01*
X194668274Y-90962440D01*
X194706369Y-91038631D01*
X194744464Y-91191012D01*
X194744464Y-91305298D01*
X194706369Y-91457679D01*
X194668274Y-91533869D01*
X194592083Y-91610060D01*
X194477797Y-91648155D01*
X194287321Y-91648155D01*
X195201607Y-91191012D02*
X195125416Y-91152917D01*
X195087321Y-91114821D01*
X195049226Y-91038631D01*
X195049226Y-91000536D01*
X195087321Y-90924345D01*
X195125416Y-90886250D01*
X195201607Y-90848155D01*
X195353988Y-90848155D01*
X195430178Y-90886250D01*
X195468274Y-90924345D01*
X195506369Y-91000536D01*
X195506369Y-91038631D01*
X195468274Y-91114821D01*
X195430178Y-91152917D01*
X195353988Y-91191012D01*
X195201607Y-91191012D01*
X195125416Y-91229107D01*
X195087321Y-91267202D01*
X195049226Y-91343393D01*
X195049226Y-91495774D01*
X195087321Y-91571964D01*
X195125416Y-91610060D01*
X195201607Y-91648155D01*
X195353988Y-91648155D01*
X195430178Y-91610060D01*
X195468274Y-91571964D01*
X195506369Y-91495774D01*
X195506369Y-91343393D01*
X195468274Y-91267202D01*
X195430178Y-91229107D01*
X195353988Y-91191012D01*
X196230179Y-90848155D02*
X195849226Y-90848155D01*
X195811131Y-91229107D01*
X195849226Y-91191012D01*
X195925417Y-91152917D01*
X196115893Y-91152917D01*
X196192083Y-91191012D01*
X196230179Y-91229107D01*
X196268274Y-91305298D01*
X196268274Y-91495774D01*
X196230179Y-91571964D01*
X196192083Y-91610060D01*
X196115893Y-91648155D01*
X195925417Y-91648155D01*
X195849226Y-91610060D01*
X195811131Y-91571964D01*
X301447321Y-114508155D02*
X301447321Y-113708155D01*
X301637797Y-113708155D01*
X301752083Y-113746250D01*
X301828274Y-113822440D01*
X301866369Y-113898631D01*
X301904464Y-114051012D01*
X301904464Y-114165298D01*
X301866369Y-114317679D01*
X301828274Y-114393869D01*
X301752083Y-114470060D01*
X301637797Y-114508155D01*
X301447321Y-114508155D01*
X302361607Y-114051012D02*
X302285416Y-114012917D01*
X302247321Y-113974821D01*
X302209226Y-113898631D01*
X302209226Y-113860536D01*
X302247321Y-113784345D01*
X302285416Y-113746250D01*
X302361607Y-113708155D01*
X302513988Y-113708155D01*
X302590178Y-113746250D01*
X302628274Y-113784345D01*
X302666369Y-113860536D01*
X302666369Y-113898631D01*
X302628274Y-113974821D01*
X302590178Y-114012917D01*
X302513988Y-114051012D01*
X302361607Y-114051012D01*
X302285416Y-114089107D01*
X302247321Y-114127202D01*
X302209226Y-114203393D01*
X302209226Y-114355774D01*
X302247321Y-114431964D01*
X302285416Y-114470060D01*
X302361607Y-114508155D01*
X302513988Y-114508155D01*
X302590178Y-114470060D01*
X302628274Y-114431964D01*
X302666369Y-114355774D01*
X302666369Y-114203393D01*
X302628274Y-114127202D01*
X302590178Y-114089107D01*
X302513988Y-114051012D01*
X303352083Y-113974821D02*
X303352083Y-114508155D01*
X303161607Y-113670060D02*
X302971131Y-114241488D01*
X303466369Y-114241488D01*
X89517321Y-114498155D02*
X89517321Y-113698155D01*
X89707797Y-113698155D01*
X89822083Y-113736250D01*
X89898274Y-113812440D01*
X89936369Y-113888631D01*
X89974464Y-114041012D01*
X89974464Y-114155298D01*
X89936369Y-114307679D01*
X89898274Y-114383869D01*
X89822083Y-114460060D01*
X89707797Y-114498155D01*
X89517321Y-114498155D01*
X90431607Y-114041012D02*
X90355416Y-114002917D01*
X90317321Y-113964821D01*
X90279226Y-113888631D01*
X90279226Y-113850536D01*
X90317321Y-113774345D01*
X90355416Y-113736250D01*
X90431607Y-113698155D01*
X90583988Y-113698155D01*
X90660178Y-113736250D01*
X90698274Y-113774345D01*
X90736369Y-113850536D01*
X90736369Y-113888631D01*
X90698274Y-113964821D01*
X90660178Y-114002917D01*
X90583988Y-114041012D01*
X90431607Y-114041012D01*
X90355416Y-114079107D01*
X90317321Y-114117202D01*
X90279226Y-114193393D01*
X90279226Y-114345774D01*
X90317321Y-114421964D01*
X90355416Y-114460060D01*
X90431607Y-114498155D01*
X90583988Y-114498155D01*
X90660178Y-114460060D01*
X90698274Y-114421964D01*
X90736369Y-114345774D01*
X90736369Y-114193393D01*
X90698274Y-114117202D01*
X90660178Y-114079107D01*
X90583988Y-114041012D01*
X91003036Y-113698155D02*
X91498274Y-113698155D01*
X91231607Y-114002917D01*
X91345893Y-114002917D01*
X91422083Y-114041012D01*
X91460179Y-114079107D01*
X91498274Y-114155298D01*
X91498274Y-114345774D01*
X91460179Y-114421964D01*
X91422083Y-114460060D01*
X91345893Y-114498155D01*
X91117321Y-114498155D01*
X91041131Y-114460060D01*
X91003036Y-114421964D01*
X86977321Y-110698155D02*
X86977321Y-109898155D01*
X87167797Y-109898155D01*
X87282083Y-109936250D01*
X87358274Y-110012440D01*
X87396369Y-110088631D01*
X87434464Y-110241012D01*
X87434464Y-110355298D01*
X87396369Y-110507679D01*
X87358274Y-110583869D01*
X87282083Y-110660060D01*
X87167797Y-110698155D01*
X86977321Y-110698155D01*
X87891607Y-110241012D02*
X87815416Y-110202917D01*
X87777321Y-110164821D01*
X87739226Y-110088631D01*
X87739226Y-110050536D01*
X87777321Y-109974345D01*
X87815416Y-109936250D01*
X87891607Y-109898155D01*
X88043988Y-109898155D01*
X88120178Y-109936250D01*
X88158274Y-109974345D01*
X88196369Y-110050536D01*
X88196369Y-110088631D01*
X88158274Y-110164821D01*
X88120178Y-110202917D01*
X88043988Y-110241012D01*
X87891607Y-110241012D01*
X87815416Y-110279107D01*
X87777321Y-110317202D01*
X87739226Y-110393393D01*
X87739226Y-110545774D01*
X87777321Y-110621964D01*
X87815416Y-110660060D01*
X87891607Y-110698155D01*
X88043988Y-110698155D01*
X88120178Y-110660060D01*
X88158274Y-110621964D01*
X88196369Y-110545774D01*
X88196369Y-110393393D01*
X88158274Y-110317202D01*
X88120178Y-110279107D01*
X88043988Y-110241012D01*
X88501131Y-109974345D02*
X88539226Y-109936250D01*
X88615417Y-109898155D01*
X88805893Y-109898155D01*
X88882083Y-109936250D01*
X88920179Y-109974345D01*
X88958274Y-110050536D01*
X88958274Y-110126726D01*
X88920179Y-110241012D01*
X88463036Y-110698155D01*
X88958274Y-110698155D01*
X99037321Y-91648155D02*
X99037321Y-90848155D01*
X99227797Y-90848155D01*
X99342083Y-90886250D01*
X99418274Y-90962440D01*
X99456369Y-91038631D01*
X99494464Y-91191012D01*
X99494464Y-91305298D01*
X99456369Y-91457679D01*
X99418274Y-91533869D01*
X99342083Y-91610060D01*
X99227797Y-91648155D01*
X99037321Y-91648155D01*
X99951607Y-91191012D02*
X99875416Y-91152917D01*
X99837321Y-91114821D01*
X99799226Y-91038631D01*
X99799226Y-91000536D01*
X99837321Y-90924345D01*
X99875416Y-90886250D01*
X99951607Y-90848155D01*
X100103988Y-90848155D01*
X100180178Y-90886250D01*
X100218274Y-90924345D01*
X100256369Y-91000536D01*
X100256369Y-91038631D01*
X100218274Y-91114821D01*
X100180178Y-91152917D01*
X100103988Y-91191012D01*
X99951607Y-91191012D01*
X99875416Y-91229107D01*
X99837321Y-91267202D01*
X99799226Y-91343393D01*
X99799226Y-91495774D01*
X99837321Y-91571964D01*
X99875416Y-91610060D01*
X99951607Y-91648155D01*
X100103988Y-91648155D01*
X100180178Y-91610060D01*
X100218274Y-91571964D01*
X100256369Y-91495774D01*
X100256369Y-91343393D01*
X100218274Y-91267202D01*
X100180178Y-91229107D01*
X100103988Y-91191012D01*
X101018274Y-91648155D02*
X100561131Y-91648155D01*
X100789702Y-91648155D02*
X100789702Y-90848155D01*
X100713512Y-90962440D01*
X100637321Y-91038631D01*
X100561131Y-91076726D01*
X108563571Y-72598155D02*
X108563571Y-71798155D01*
X108754047Y-71798155D01*
X108868333Y-71836250D01*
X108944524Y-71912440D01*
X108982619Y-71988631D01*
X109020714Y-72141012D01*
X109020714Y-72255298D01*
X108982619Y-72407679D01*
X108944524Y-72483869D01*
X108868333Y-72560060D01*
X108754047Y-72598155D01*
X108563571Y-72598155D01*
X109477857Y-72141012D02*
X109401666Y-72102917D01*
X109363571Y-72064821D01*
X109325476Y-71988631D01*
X109325476Y-71950536D01*
X109363571Y-71874345D01*
X109401666Y-71836250D01*
X109477857Y-71798155D01*
X109630238Y-71798155D01*
X109706428Y-71836250D01*
X109744524Y-71874345D01*
X109782619Y-71950536D01*
X109782619Y-71988631D01*
X109744524Y-72064821D01*
X109706428Y-72102917D01*
X109630238Y-72141012D01*
X109477857Y-72141012D01*
X109401666Y-72179107D01*
X109363571Y-72217202D01*
X109325476Y-72293393D01*
X109325476Y-72445774D01*
X109363571Y-72521964D01*
X109401666Y-72560060D01*
X109477857Y-72598155D01*
X109630238Y-72598155D01*
X109706428Y-72560060D01*
X109744524Y-72521964D01*
X109782619Y-72445774D01*
X109782619Y-72293393D01*
X109744524Y-72217202D01*
X109706428Y-72179107D01*
X109630238Y-72141012D01*
X110277857Y-71798155D02*
X110354048Y-71798155D01*
X110430238Y-71836250D01*
X110468333Y-71874345D01*
X110506429Y-71950536D01*
X110544524Y-72102917D01*
X110544524Y-72293393D01*
X110506429Y-72445774D01*
X110468333Y-72521964D01*
X110430238Y-72560060D01*
X110354048Y-72598155D01*
X110277857Y-72598155D01*
X110201667Y-72560060D01*
X110163571Y-72521964D01*
X110125476Y-72445774D01*
X110087381Y-72293393D01*
X110087381Y-72102917D01*
X110125476Y-71950536D01*
X110163571Y-71874345D01*
X110201667Y-71836250D01*
X110277857Y-71798155D01*
X118087321Y-91648155D02*
X118087321Y-90848155D01*
X118277797Y-90848155D01*
X118392083Y-90886250D01*
X118468274Y-90962440D01*
X118506369Y-91038631D01*
X118544464Y-91191012D01*
X118544464Y-91305298D01*
X118506369Y-91457679D01*
X118468274Y-91533869D01*
X118392083Y-91610060D01*
X118277797Y-91648155D01*
X118087321Y-91648155D01*
X118811131Y-90848155D02*
X119344464Y-90848155D01*
X119001607Y-91648155D01*
X119687321Y-91648155D02*
X119839702Y-91648155D01*
X119915893Y-91610060D01*
X119953988Y-91571964D01*
X120030179Y-91457679D01*
X120068274Y-91305298D01*
X120068274Y-91000536D01*
X120030179Y-90924345D01*
X119992083Y-90886250D01*
X119915893Y-90848155D01*
X119763512Y-90848155D01*
X119687321Y-90886250D01*
X119649226Y-90924345D01*
X119611131Y-91000536D01*
X119611131Y-91191012D01*
X119649226Y-91267202D01*
X119687321Y-91305298D01*
X119763512Y-91343393D01*
X119915893Y-91343393D01*
X119992083Y-91305298D01*
X120030179Y-91267202D01*
X120068274Y-91191012D01*
X137137321Y-91648155D02*
X137137321Y-90848155D01*
X137327797Y-90848155D01*
X137442083Y-90886250D01*
X137518274Y-90962440D01*
X137556369Y-91038631D01*
X137594464Y-91191012D01*
X137594464Y-91305298D01*
X137556369Y-91457679D01*
X137518274Y-91533869D01*
X137442083Y-91610060D01*
X137327797Y-91648155D01*
X137137321Y-91648155D01*
X137861131Y-90848155D02*
X138394464Y-90848155D01*
X138051607Y-91648155D01*
X138813512Y-91191012D02*
X138737321Y-91152917D01*
X138699226Y-91114821D01*
X138661131Y-91038631D01*
X138661131Y-91000536D01*
X138699226Y-90924345D01*
X138737321Y-90886250D01*
X138813512Y-90848155D01*
X138965893Y-90848155D01*
X139042083Y-90886250D01*
X139080179Y-90924345D01*
X139118274Y-91000536D01*
X139118274Y-91038631D01*
X139080179Y-91114821D01*
X139042083Y-91152917D01*
X138965893Y-91191012D01*
X138813512Y-91191012D01*
X138737321Y-91229107D01*
X138699226Y-91267202D01*
X138661131Y-91343393D01*
X138661131Y-91495774D01*
X138699226Y-91571964D01*
X138737321Y-91610060D01*
X138813512Y-91648155D01*
X138965893Y-91648155D01*
X139042083Y-91610060D01*
X139080179Y-91571964D01*
X139118274Y-91495774D01*
X139118274Y-91343393D01*
X139080179Y-91267202D01*
X139042083Y-91229107D01*
X138965893Y-91191012D01*
X127613571Y-72598155D02*
X127613571Y-71798155D01*
X127804047Y-71798155D01*
X127918333Y-71836250D01*
X127994524Y-71912440D01*
X128032619Y-71988631D01*
X128070714Y-72141012D01*
X128070714Y-72255298D01*
X128032619Y-72407679D01*
X127994524Y-72483869D01*
X127918333Y-72560060D01*
X127804047Y-72598155D01*
X127613571Y-72598155D01*
X128337381Y-71798155D02*
X128870714Y-71798155D01*
X128527857Y-72598155D01*
X129099286Y-71798155D02*
X129632619Y-71798155D01*
X129289762Y-72598155D01*
X280013571Y-72598155D02*
X280013571Y-71798155D01*
X280204047Y-71798155D01*
X280318333Y-71836250D01*
X280394524Y-71912440D01*
X280432619Y-71988631D01*
X280470714Y-72141012D01*
X280470714Y-72255298D01*
X280432619Y-72407679D01*
X280394524Y-72483869D01*
X280318333Y-72560060D01*
X280204047Y-72598155D01*
X280013571Y-72598155D01*
X280737381Y-71798155D02*
X281270714Y-71798155D01*
X280927857Y-72598155D01*
X281918333Y-71798155D02*
X281765952Y-71798155D01*
X281689762Y-71836250D01*
X281651667Y-71874345D01*
X281575476Y-71988631D01*
X281537381Y-72141012D01*
X281537381Y-72445774D01*
X281575476Y-72521964D01*
X281613571Y-72560060D01*
X281689762Y-72598155D01*
X281842143Y-72598155D01*
X281918333Y-72560060D01*
X281956429Y-72521964D01*
X281994524Y-72445774D01*
X281994524Y-72255298D01*
X281956429Y-72179107D01*
X281918333Y-72141012D01*
X281842143Y-72102917D01*
X281689762Y-72102917D01*
X281613571Y-72141012D01*
X281575476Y-72179107D01*
X281537381Y-72255298D01*
X241913571Y-72598155D02*
X241913571Y-71798155D01*
X242104047Y-71798155D01*
X242218333Y-71836250D01*
X242294524Y-71912440D01*
X242332619Y-71988631D01*
X242370714Y-72141012D01*
X242370714Y-72255298D01*
X242332619Y-72407679D01*
X242294524Y-72483869D01*
X242218333Y-72560060D01*
X242104047Y-72598155D01*
X241913571Y-72598155D01*
X242637381Y-71798155D02*
X243170714Y-71798155D01*
X242827857Y-72598155D01*
X243856429Y-71798155D02*
X243475476Y-71798155D01*
X243437381Y-72179107D01*
X243475476Y-72141012D01*
X243551667Y-72102917D01*
X243742143Y-72102917D01*
X243818333Y-72141012D01*
X243856429Y-72179107D01*
X243894524Y-72255298D01*
X243894524Y-72445774D01*
X243856429Y-72521964D01*
X243818333Y-72560060D01*
X243742143Y-72598155D01*
X243551667Y-72598155D01*
X243475476Y-72560060D01*
X243437381Y-72521964D01*
X203813571Y-72598155D02*
X203813571Y-71798155D01*
X204004047Y-71798155D01*
X204118333Y-71836250D01*
X204194524Y-71912440D01*
X204232619Y-71988631D01*
X204270714Y-72141012D01*
X204270714Y-72255298D01*
X204232619Y-72407679D01*
X204194524Y-72483869D01*
X204118333Y-72560060D01*
X204004047Y-72598155D01*
X203813571Y-72598155D01*
X204537381Y-71798155D02*
X205070714Y-71798155D01*
X204727857Y-72598155D01*
X205718333Y-72064821D02*
X205718333Y-72598155D01*
X205527857Y-71760060D02*
X205337381Y-72331488D01*
X205832619Y-72331488D01*
X184763571Y-72598155D02*
X184763571Y-71798155D01*
X184954047Y-71798155D01*
X185068333Y-71836250D01*
X185144524Y-71912440D01*
X185182619Y-71988631D01*
X185220714Y-72141012D01*
X185220714Y-72255298D01*
X185182619Y-72407679D01*
X185144524Y-72483869D01*
X185068333Y-72560060D01*
X184954047Y-72598155D01*
X184763571Y-72598155D01*
X185487381Y-71798155D02*
X186020714Y-71798155D01*
X185677857Y-72598155D01*
X186249286Y-71798155D02*
X186744524Y-71798155D01*
X186477857Y-72102917D01*
X186592143Y-72102917D01*
X186668333Y-72141012D01*
X186706429Y-72179107D01*
X186744524Y-72255298D01*
X186744524Y-72445774D01*
X186706429Y-72521964D01*
X186668333Y-72560060D01*
X186592143Y-72598155D01*
X186363571Y-72598155D01*
X186287381Y-72560060D01*
X186249286Y-72521964D01*
X175237321Y-91648155D02*
X175237321Y-90848155D01*
X175427797Y-90848155D01*
X175542083Y-90886250D01*
X175618274Y-90962440D01*
X175656369Y-91038631D01*
X175694464Y-91191012D01*
X175694464Y-91305298D01*
X175656369Y-91457679D01*
X175618274Y-91533869D01*
X175542083Y-91610060D01*
X175427797Y-91648155D01*
X175237321Y-91648155D01*
X175961131Y-90848155D02*
X176494464Y-90848155D01*
X176151607Y-91648155D01*
X176761131Y-90924345D02*
X176799226Y-90886250D01*
X176875417Y-90848155D01*
X177065893Y-90848155D01*
X177142083Y-90886250D01*
X177180179Y-90924345D01*
X177218274Y-91000536D01*
X177218274Y-91076726D01*
X177180179Y-91191012D01*
X176723036Y-91648155D01*
X177218274Y-91648155D01*
X232387321Y-91648155D02*
X232387321Y-90848155D01*
X232577797Y-90848155D01*
X232692083Y-90886250D01*
X232768274Y-90962440D01*
X232806369Y-91038631D01*
X232844464Y-91191012D01*
X232844464Y-91305298D01*
X232806369Y-91457679D01*
X232768274Y-91533869D01*
X232692083Y-91610060D01*
X232577797Y-91648155D01*
X232387321Y-91648155D01*
X233111131Y-90848155D02*
X233644464Y-90848155D01*
X233301607Y-91648155D01*
X234368274Y-91648155D02*
X233911131Y-91648155D01*
X234139702Y-91648155D02*
X234139702Y-90848155D01*
X234063512Y-90962440D01*
X233987321Y-91038631D01*
X233911131Y-91076726D01*
X275247321Y-110698155D02*
X275247321Y-109898155D01*
X275437797Y-109898155D01*
X275552083Y-109936250D01*
X275628274Y-110012440D01*
X275666369Y-110088631D01*
X275704464Y-110241012D01*
X275704464Y-110355298D01*
X275666369Y-110507679D01*
X275628274Y-110583869D01*
X275552083Y-110660060D01*
X275437797Y-110698155D01*
X275247321Y-110698155D01*
X275971131Y-109898155D02*
X276504464Y-109898155D01*
X276161607Y-110698155D01*
X276961607Y-109898155D02*
X277037798Y-109898155D01*
X277113988Y-109936250D01*
X277152083Y-109974345D01*
X277190179Y-110050536D01*
X277228274Y-110202917D01*
X277228274Y-110393393D01*
X277190179Y-110545774D01*
X277152083Y-110621964D01*
X277113988Y-110660060D01*
X277037798Y-110698155D01*
X276961607Y-110698155D01*
X276885417Y-110660060D01*
X276847321Y-110621964D01*
X276809226Y-110545774D01*
X276771131Y-110393393D01*
X276771131Y-110202917D01*
X276809226Y-110050536D01*
X276847321Y-109974345D01*
X276885417Y-109936250D01*
X276961607Y-109898155D01*
X299067321Y-110698155D02*
X299067321Y-109898155D01*
X299257797Y-109898155D01*
X299372083Y-109936250D01*
X299448274Y-110012440D01*
X299486369Y-110088631D01*
X299524464Y-110241012D01*
X299524464Y-110355298D01*
X299486369Y-110507679D01*
X299448274Y-110583869D01*
X299372083Y-110660060D01*
X299257797Y-110698155D01*
X299067321Y-110698155D01*
X300210178Y-109898155D02*
X300057797Y-109898155D01*
X299981607Y-109936250D01*
X299943512Y-109974345D01*
X299867321Y-110088631D01*
X299829226Y-110241012D01*
X299829226Y-110545774D01*
X299867321Y-110621964D01*
X299905416Y-110660060D01*
X299981607Y-110698155D01*
X300133988Y-110698155D01*
X300210178Y-110660060D01*
X300248274Y-110621964D01*
X300286369Y-110545774D01*
X300286369Y-110355298D01*
X300248274Y-110279107D01*
X300210178Y-110241012D01*
X300133988Y-110202917D01*
X299981607Y-110202917D01*
X299905416Y-110241012D01*
X299867321Y-110279107D01*
X299829226Y-110355298D01*
X300667321Y-110698155D02*
X300819702Y-110698155D01*
X300895893Y-110660060D01*
X300933988Y-110621964D01*
X301010179Y-110507679D01*
X301048274Y-110355298D01*
X301048274Y-110050536D01*
X301010179Y-109974345D01*
X300972083Y-109936250D01*
X300895893Y-109898155D01*
X300743512Y-109898155D01*
X300667321Y-109936250D01*
X300629226Y-109974345D01*
X300591131Y-110050536D01*
X300591131Y-110241012D01*
X300629226Y-110317202D01*
X300667321Y-110355298D01*
X300743512Y-110393393D01*
X300895893Y-110393393D01*
X300972083Y-110355298D01*
X301010179Y-110317202D01*
X301048274Y-110241012D01*
X303827321Y-91648155D02*
X303827321Y-90848155D01*
X304017797Y-90848155D01*
X304132083Y-90886250D01*
X304208274Y-90962440D01*
X304246369Y-91038631D01*
X304284464Y-91191012D01*
X304284464Y-91305298D01*
X304246369Y-91457679D01*
X304208274Y-91533869D01*
X304132083Y-91610060D01*
X304017797Y-91648155D01*
X303827321Y-91648155D01*
X304551131Y-90848155D02*
X305046369Y-90848155D01*
X304779702Y-91152917D01*
X304893988Y-91152917D01*
X304970178Y-91191012D01*
X305008274Y-91229107D01*
X305046369Y-91305298D01*
X305046369Y-91495774D01*
X305008274Y-91571964D01*
X304970178Y-91610060D01*
X304893988Y-91648155D01*
X304665416Y-91648155D01*
X304589226Y-91610060D01*
X304551131Y-91571964D01*
X305541607Y-90848155D02*
X305617798Y-90848155D01*
X305693988Y-90886250D01*
X305732083Y-90924345D01*
X305770179Y-91000536D01*
X305808274Y-91152917D01*
X305808274Y-91343393D01*
X305770179Y-91495774D01*
X305732083Y-91571964D01*
X305693988Y-91610060D01*
X305617798Y-91648155D01*
X305541607Y-91648155D01*
X305465417Y-91610060D01*
X305427321Y-91571964D01*
X305389226Y-91495774D01*
X305351131Y-91343393D01*
X305351131Y-91152917D01*
X305389226Y-91000536D01*
X305427321Y-90924345D01*
X305465417Y-90886250D01*
X305541607Y-90848155D01*
X277637321Y-91648155D02*
X277637321Y-90848155D01*
X277827797Y-90848155D01*
X277942083Y-90886250D01*
X278018274Y-90962440D01*
X278056369Y-91038631D01*
X278094464Y-91191012D01*
X278094464Y-91305298D01*
X278056369Y-91457679D01*
X278018274Y-91533869D01*
X277942083Y-91610060D01*
X277827797Y-91648155D01*
X277637321Y-91648155D01*
X278399226Y-90924345D02*
X278437321Y-90886250D01*
X278513512Y-90848155D01*
X278703988Y-90848155D01*
X278780178Y-90886250D01*
X278818274Y-90924345D01*
X278856369Y-91000536D01*
X278856369Y-91076726D01*
X278818274Y-91191012D01*
X278361131Y-91648155D01*
X278856369Y-91648155D01*
X279580179Y-90848155D02*
X279199226Y-90848155D01*
X279161131Y-91229107D01*
X279199226Y-91191012D01*
X279275417Y-91152917D01*
X279465893Y-91152917D01*
X279542083Y-91191012D01*
X279580179Y-91229107D01*
X279618274Y-91305298D01*
X279618274Y-91495774D01*
X279580179Y-91571964D01*
X279542083Y-91610060D01*
X279465893Y-91648155D01*
X279275417Y-91648155D01*
X279199226Y-91610060D01*
X279161131Y-91571964D01*
X251437321Y-91648155D02*
X251437321Y-90848155D01*
X251627797Y-90848155D01*
X251742083Y-90886250D01*
X251818274Y-90962440D01*
X251856369Y-91038631D01*
X251894464Y-91191012D01*
X251894464Y-91305298D01*
X251856369Y-91457679D01*
X251818274Y-91533869D01*
X251742083Y-91610060D01*
X251627797Y-91648155D01*
X251437321Y-91648155D01*
X252199226Y-90924345D02*
X252237321Y-90886250D01*
X252313512Y-90848155D01*
X252503988Y-90848155D01*
X252580178Y-90886250D01*
X252618274Y-90924345D01*
X252656369Y-91000536D01*
X252656369Y-91076726D01*
X252618274Y-91191012D01*
X252161131Y-91648155D01*
X252656369Y-91648155D01*
X253151607Y-90848155D02*
X253227798Y-90848155D01*
X253303988Y-90886250D01*
X253342083Y-90924345D01*
X253380179Y-91000536D01*
X253418274Y-91152917D01*
X253418274Y-91343393D01*
X253380179Y-91495774D01*
X253342083Y-91571964D01*
X253303988Y-91610060D01*
X253227798Y-91648155D01*
X253151607Y-91648155D01*
X253075417Y-91610060D01*
X253037321Y-91571964D01*
X252999226Y-91495774D01*
X252961131Y-91343393D01*
X252961131Y-91152917D01*
X252999226Y-91000536D01*
X253037321Y-90924345D01*
X253075417Y-90886250D01*
X253151607Y-90848155D01*
X301225119Y-76399405D02*
X301225119Y-75599405D01*
X301415595Y-75599405D01*
X301529881Y-75637500D01*
X301606072Y-75713690D01*
X301644167Y-75789881D01*
X301682262Y-75942262D01*
X301682262Y-76056548D01*
X301644167Y-76208929D01*
X301606072Y-76285119D01*
X301529881Y-76361310D01*
X301415595Y-76399405D01*
X301225119Y-76399405D01*
X302444167Y-76399405D02*
X301987024Y-76399405D01*
X302215595Y-76399405D02*
X302215595Y-75599405D01*
X302139405Y-75713690D01*
X302063214Y-75789881D01*
X301987024Y-75827976D01*
X303129881Y-75866071D02*
X303129881Y-76399405D01*
X302939405Y-75561310D02*
X302748929Y-76132738D01*
X303244167Y-76132738D01*
X303891786Y-75599405D02*
X303739405Y-75599405D01*
X303663215Y-75637500D01*
X303625120Y-75675595D01*
X303548929Y-75789881D01*
X303510834Y-75942262D01*
X303510834Y-76247024D01*
X303548929Y-76323214D01*
X303587024Y-76361310D01*
X303663215Y-76399405D01*
X303815596Y-76399405D01*
X303891786Y-76361310D01*
X303929882Y-76323214D01*
X303967977Y-76247024D01*
X303967977Y-76056548D01*
X303929882Y-75980357D01*
X303891786Y-75942262D01*
X303815596Y-75904167D01*
X303663215Y-75904167D01*
X303587024Y-75942262D01*
X303548929Y-75980357D01*
X303510834Y-76056548D01*
X296303869Y-91649405D02*
X296303869Y-90849405D01*
X296494345Y-90849405D01*
X296608631Y-90887500D01*
X296684822Y-90963690D01*
X296722917Y-91039881D01*
X296761012Y-91192262D01*
X296761012Y-91306548D01*
X296722917Y-91458929D01*
X296684822Y-91535119D01*
X296608631Y-91611310D01*
X296494345Y-91649405D01*
X296303869Y-91649405D01*
X297522917Y-91649405D02*
X297065774Y-91649405D01*
X297294345Y-91649405D02*
X297294345Y-90849405D01*
X297218155Y-90963690D01*
X297141964Y-91039881D01*
X297065774Y-91077976D01*
X298208631Y-91116071D02*
X298208631Y-91649405D01*
X298018155Y-90811310D02*
X297827679Y-91382738D01*
X298322917Y-91382738D01*
X298551489Y-90849405D02*
X299084822Y-90849405D01*
X298741965Y-91649405D01*
X271380119Y-95449405D02*
X271380119Y-94649405D01*
X271570595Y-94649405D01*
X271684881Y-94687500D01*
X271761072Y-94763690D01*
X271799167Y-94839881D01*
X271837262Y-94992262D01*
X271837262Y-95106548D01*
X271799167Y-95258929D01*
X271761072Y-95335119D01*
X271684881Y-95411310D01*
X271570595Y-95449405D01*
X271380119Y-95449405D01*
X272599167Y-95449405D02*
X272142024Y-95449405D01*
X272370595Y-95449405D02*
X272370595Y-94649405D01*
X272294405Y-94763690D01*
X272218214Y-94839881D01*
X272142024Y-94877976D01*
X273284881Y-94916071D02*
X273284881Y-95449405D01*
X273094405Y-94611310D02*
X272903929Y-95182738D01*
X273399167Y-95182738D01*
X273818215Y-94992262D02*
X273742024Y-94954167D01*
X273703929Y-94916071D01*
X273665834Y-94839881D01*
X273665834Y-94801786D01*
X273703929Y-94725595D01*
X273742024Y-94687500D01*
X273818215Y-94649405D01*
X273970596Y-94649405D01*
X274046786Y-94687500D01*
X274084882Y-94725595D01*
X274122977Y-94801786D01*
X274122977Y-94839881D01*
X274084882Y-94916071D01*
X274046786Y-94954167D01*
X273970596Y-94992262D01*
X273818215Y-94992262D01*
X273742024Y-95030357D01*
X273703929Y-95068452D01*
X273665834Y-95144643D01*
X273665834Y-95297024D01*
X273703929Y-95373214D01*
X273742024Y-95411310D01*
X273818215Y-95449405D01*
X273970596Y-95449405D01*
X274046786Y-95411310D01*
X274084882Y-95373214D01*
X274122977Y-95297024D01*
X274122977Y-95144643D01*
X274084882Y-95068452D01*
X274046786Y-95030357D01*
X273970596Y-94992262D01*
M02*
